<?xml version="1.0" encoding="UTF-8"?>
<svg version="1.1" xmlns="http://www.w3.org/2000/svg" width="512" height="512">
<path d="M0 0 C3.25197956 0.38594272 5.54175159 1.81569194 8.24609375 3.58984375 C9.48564819 4.38829712 9.48564819 4.38829712 10.75024414 5.20288086 C11.63703857 5.77530518 12.52383301 6.34772949 13.4375 6.9375 C30.07637027 17.41275649 46.92666183 25.16432799 66 30 C67.24265625 30.31582031 68.4853125 30.63164063 69.765625 30.95703125 C114.91922036 41.42070689 165.4764365 34.4544287 206 12 C206.95737061 11.4730957 206.95737061 11.4730957 207.93408203 10.93554688 C215.72248661 6.65677477 215.72248661 6.65677477 223.0859375 1.703125 C226 0 226 0 228.4140625 -0.1640625 C232.44364706 1.64985925 235.24040342 4.55748623 238.375 7.625 C239.41914062 8.62466797 239.41914062 8.62466797 240.484375 9.64453125 C245.99720287 14.94838911 251.42034839 20.34747516 256.77490234 25.81103516 C259.70280884 28.78369313 262.67755444 31.6249174 265.84375 34.34375 C271.51494519 39.23911694 276.68194652 44.63671291 281.93359375 49.97265625 C286.25044433 54.33148593 290.62021081 58.53660965 295.29101562 62.51586914 C297.6512851 64.56559459 299.82452718 66.75654365 302 69 C300.60928108 72.63207574 298.99997559 76.05764118 297.20703125 79.5078125 C280.65711592 111.70207252 271.91802917 138.6450553 282.81762695 174.39306641 C286.04457036 184.3567593 290.34731299 193.86922998 294.52734375 203.46044922 C311.65245614 243.06762322 318.5525488 285.30849548 302.58984375 326.65234375 C301.16824915 329.84050657 299.64417825 332.92119563 298 336 C297.4534375 337.02609375 296.906875 338.0521875 296.34375 339.109375 C276.65007637 374.37895414 241.51921225 388.29826934 205.4453125 401.53125 C204.20556923 401.98604485 204.20556923 401.98604485 202.94078064 402.45002747 C198.87307388 403.93898958 194.80179066 405.41690928 190.72387695 406.87768555 C182.8248871 409.72459761 175.04838596 412.743813 167.37109375 416.1484375 C166.65392685 416.46640793 165.93675995 416.78437836 165.19786072 417.11198425 C151.18119571 423.44201513 138.88875129 431.422796 127.06640625 441.26953125 C126.3916626 441.82535889 125.71691895 442.38118652 125.02172852 442.95385742 C123.6956829 444.04995479 122.379311 445.1578846 121.07397461 446.27856445 C119.25 447.7890625 119.25 447.7890625 116 450 C112.07761503 449.51809101 109.96081366 447.53784028 107 445 C81.80235467 423.95763919 54.03423426 412.82355687 23.56820679 401.4440918 C8.74421802 395.89802908 -5.8819543 390.20026472 -20 383 C-21.05719238 382.46221924 -21.05719238 382.46221924 -22.13574219 381.91357422 C-48.41621109 368.30154096 -66.22467933 346.53012446 -75.18432617 318.59423828 C-76.23569656 315.08912549 -77.13913363 311.55607883 -78 308 C-78.3196875 306.72253906 -78.639375 305.44507813 -78.96875 304.12890625 C-83.51827865 283.4868717 -83.46916983 258.14163124 -77 238 C-76.48165241 236.25133718 -75.96343162 234.50263678 -75.4453125 232.75390625 C-71.24205437 219.08133306 -65.79010165 205.98800532 -60.01220703 192.92163086 C-48.30568093 166.26776254 -42.2276789 138.90305894 -52.76123047 110.82519531 C-56.41308649 101.54929705 -60.83005032 92.61781281 -65.23046875 83.6796875 C-67.61341259 78.83879781 -69.85898289 73.95231988 -72 69 C-61.54224859 58.36923432 -61.54224859 58.36923432 -57.125 54.625 C-53.38456753 51.43870567 -49.95196502 47.99119746 -46.5 44.5 C-43.10994409 41.07154618 -39.74805967 37.67739237 -36.0625 34.5625 C-31.4888442 30.68800177 -27.35447713 26.37922528 -23.1418457 22.12231445 C-19.53321493 18.49036772 -15.86730636 15.02050618 -11.9375 11.734375 C-8.50496908 8.66170619 -5.42083045 5.22637692 -2.296875 1.84375 C-1.15992188 0.93109375 -1.15992188 0.93109375 0 0 Z " fill="#231B17" transform="translate(141,31)"/>
<path d="M0 0 C-0.26554687 1.08796875 -0.53109375 2.1759375 -0.8046875 3.296875 C-1.90749726 7.8561282 -2.96062673 12.42592446 -4 17 C-4.23460937 18.010625 -4.46921875 19.02125 -4.7109375 20.0625 C-9.00750289 41.48305787 -4.43155342 62.31228795 1 83 C-12.71964423 89.3075499 -26.50291797 95.43569366 -40.39440918 101.35491943 C-43.50646916 102.68102125 -46.61713942 104.01034083 -49.72753906 105.34033203 C-54.19319936 107.24951131 -58.65936563 109.15749899 -63.12597656 111.06445312 C-74.67054504 115.99376085 -86.21092914 120.93283849 -97.75 125.875 C-98.90985413 126.37167175 -100.06970825 126.86834351 -101.26470947 127.38006592 C-121.05041789 135.85485347 -140.80563051 144.39874161 -160.54199219 152.98779297 C-174.83047552 159.20434097 -189.14397764 165.36068772 -203.47027588 171.48956299 C-209.23256883 173.95535925 -214.99317642 176.42508589 -220.75390625 178.89453125 C-227.1821594 181.64989457 -233.61047372 184.40511248 -240.03984356 187.15786934 C-251.46636987 192.05023294 -262.89104503 196.94626802 -274.296875 201.88671875 C-276.72088315 202.93442609 -279.14505956 203.98174296 -281.56930542 205.02890015 C-283.76023656 205.97737467 -285.94860597 206.93159111 -288.13696289 207.88598633 C-289.43102043 208.4451296 -290.72520108 209.0039881 -292.01953125 209.5625 C-293.11370361 210.03816406 -294.20787598 210.51382813 -295.33520508 211.00390625 C-298 212 -298 212 -301 212 C-309.91108406 188.02170128 -311.76137016 161.37444609 -302.76977539 137.10791016 C-302.06610126 135.18100801 -301.49804293 133.20596824 -300.9453125 131.23046875 C-297.97004391 126.28961108 -293.91344262 125.10656607 -288.6875 123 C-286.88887488 122.2370725 -285.09026591 121.47410667 -283.29193115 120.710495 C-281.17353399 119.81615692 -279.05039898 118.9338553 -276.92626953 118.05322266 C-271.28832091 115.71086485 -265.67357823 113.31474596 -260.05859375 110.91796875 C-257.86760987 109.98303667 -255.67661015 109.04814169 -253.4855957 108.11328125 C-251.80271957 107.39519287 -251.80271957 107.39519287 -250.08584595 106.66259766 C-246.57949012 105.16810257 -243.07160086 103.67726381 -239.56323242 102.1875 C-223.50847728 95.36807783 -207.49278165 88.46339711 -191.5 81.5 C-173.22201694 73.54285912 -154.90919326 65.67243239 -136.5625 57.875 C-121.97803083 51.67653065 -107.39852459 45.47142001 -92.86914062 39.14477539 C-77.07744157 32.27770468 -61.23690934 25.52345844 -45.40478516 18.75024414 C-43.08364032 17.75671647 -40.76251377 16.76314609 -38.44140625 15.76953125 C-37.31561157 15.28803116 -36.18981689 14.80653107 -35.02990723 14.31044006 C-29.42012465 11.90778823 -23.81850141 9.48835997 -18.22998047 7.03662109 C-17.16271225 6.56898849 -16.09544403 6.1013559 -14.99583435 5.61955261 C-12.9792992 4.7344296 -10.96414023 3.84616259 -8.95057678 2.95429993 C-8.061884 2.56421249 -7.17319122 2.17412506 -6.25756836 1.7722168 C-5.47989609 1.42845505 -4.70222382 1.0846933 -3.90098572 0.73051453 C-2 0 -2 0 0 0 Z " fill="#FBFBFB" transform="translate(396,133)"/>
<path d="M0 0 C3.25197956 0.38594272 5.54175159 1.81569194 8.24609375 3.58984375 C9.48564819 4.38829712 9.48564819 4.38829712 10.75024414 5.20288086 C11.63703857 5.77530518 12.52383301 6.34772949 13.4375 6.9375 C30.07637027 17.41275649 46.92666183 25.16432799 66 30 C67.24265625 30.31582031 68.4853125 30.63164063 69.765625 30.95703125 C114.91922036 41.42070689 165.4764365 34.4544287 206 12 C206.95737061 11.4730957 206.95737061 11.4730957 207.93408203 10.93554688 C215.72248661 6.65677477 215.72248661 6.65677477 223.0859375 1.703125 C226 0 226 0 228.4140625 -0.1640625 C232.44364706 1.64985925 235.24040342 4.55748623 238.375 7.625 C239.41914062 8.62466797 239.41914062 8.62466797 240.484375 9.64453125 C245.99720287 14.94838911 251.42034839 20.34747516 256.77490234 25.81103516 C259.70280884 28.78369313 262.67755444 31.6249174 265.84375 34.34375 C271.51494519 39.23911694 276.68194652 44.63671291 281.93359375 49.97265625 C286.25044433 54.33148593 290.62021081 58.53660965 295.29101562 62.51586914 C297.6512851 64.56559459 299.82452718 66.75654365 302 69 C300.60928108 72.63207574 298.99997559 76.05764118 297.20703125 79.5078125 C280.65711592 111.70207252 271.91802917 138.6450553 282.81762695 174.39306641 C286.04457036 184.3567593 290.34731299 193.86922998 294.52734375 203.46044922 C311.65245614 243.06762322 318.5525488 285.30849548 302.58984375 326.65234375 C301.16824915 329.84050657 299.64417825 332.92119563 298 336 C297.4534375 337.02609375 296.906875 338.0521875 296.34375 339.109375 C276.65007637 374.37895414 241.51921225 388.29826934 205.4453125 401.53125 C204.20556923 401.98604485 204.20556923 401.98604485 202.94078064 402.45002747 C198.87307388 403.93898958 194.80179066 405.41690928 190.72387695 406.87768555 C182.8248871 409.72459761 175.04838596 412.743813 167.37109375 416.1484375 C166.65392685 416.46640793 165.93675995 416.78437836 165.19786072 417.11198425 C151.18119571 423.44201513 138.88875129 431.422796 127.06640625 441.26953125 C126.3916626 441.82535889 125.71691895 442.38118652 125.02172852 442.95385742 C123.6956829 444.04995479 122.379311 445.1578846 121.07397461 446.27856445 C119.25 447.7890625 119.25 447.7890625 116 450 C112.07761503 449.51809101 109.96081366 447.53784028 107 445 C81.80235467 423.95763919 54.03423426 412.82355687 23.56820679 401.4440918 C8.74421802 395.89802908 -5.8819543 390.20026472 -20 383 C-21.05719238 382.46221924 -21.05719238 382.46221924 -22.13574219 381.91357422 C-48.41621109 368.30154096 -66.22467933 346.53012446 -75.18432617 318.59423828 C-76.23569656 315.08912549 -77.13913363 311.55607883 -78 308 C-78.3196875 306.72253906 -78.639375 305.44507813 -78.96875 304.12890625 C-83.51827865 283.4868717 -83.46916983 258.14163124 -77 238 C-76.48165241 236.25133718 -75.96343162 234.50263678 -75.4453125 232.75390625 C-71.24205437 219.08133306 -65.79010165 205.98800532 -60.01220703 192.92163086 C-48.30568093 166.26776254 -42.2276789 138.90305894 -52.76123047 110.82519531 C-56.41308649 101.54929705 -60.83005032 92.61781281 -65.23046875 83.6796875 C-67.61341259 78.83879781 -69.85898289 73.95231988 -72 69 C-61.54224859 58.36923432 -61.54224859 58.36923432 -57.125 54.625 C-53.38456753 51.43870567 -49.95196502 47.99119746 -46.5 44.5 C-43.10994409 41.07154618 -39.74805967 37.67739237 -36.0625 34.5625 C-31.4888442 30.68800177 -27.35447713 26.37922528 -23.1418457 22.12231445 C-19.53321493 18.49036772 -15.86730636 15.02050618 -11.9375 11.734375 C-8.50496908 8.66170619 -5.42083045 5.22637692 -2.296875 1.84375 C-1.15992188 0.93109375 -1.15992188 0.93109375 0 0 Z M222.09765625 18.125 C221.299646 18.58044189 220.50163574 19.03588379 219.67944336 19.50512695 C218.3840564 20.24508911 218.3840564 20.24508911 217.0625 21 C201.42019414 29.74397999 185.23304544 36.13547266 168 41 C167.31292969 41.19577637 166.62585938 41.39155273 165.91796875 41.59326172 C117.32931791 55.09666104 64.37948407 49.44869218 20 26 C18.90816406 25.42636719 17.81632812 24.85273437 16.69140625 24.26171875 C9.46848015 20.39606242 9.46848015 20.39606242 6.953125 18.26953125 C5.11265883 16.80642287 5.11265883 16.80642287 3.03125 17.07421875 C0.39158621 18.27729628 -1.36826375 19.84064397 -3.5 21.8125 C-4.37398437 22.62074219 -5.24796875 23.42898437 -6.1484375 24.26171875 C-9.71563969 27.68721017 -13.2062737 31.18310939 -16.68212891 34.70092773 C-19.33021249 37.37068905 -22.00459565 39.94619632 -24.875 42.375 C-29.46250694 46.27150171 -33.61938628 50.59137906 -37.84692383 54.86865234 C-41.50769805 58.55665342 -45.21762111 62.09377051 -49.25390625 65.375 C-51.7664721 67.71331632 -53.83596812 70.33657614 -56 73 C-55.27296875 74.29357422 -55.27296875 74.29357422 -54.53125 75.61328125 C-38.01783152 105.48381385 -28.54142998 135.83495922 -37.6875 169.75 C-41.22990871 181.37434859 -45.47687994 192.78289516 -50.4375 203.875 C-54.70083436 213.43739401 -58.50404946 223.13139026 -62 233 C-62.30921387 233.84208008 -62.61842773 234.68416016 -62.93701172 235.55175781 C-73.94818314 266.26869787 -69.22133301 301.79885171 -56.22265625 331.1015625 C-39.78339857 365.82286562 -0.30804181 378.66141234 33.125 391.0625 C61.00814208 401.40585824 88.2725541 411.76437308 110.87890625 431.6640625 C112.84993792 433.16862468 112.84993792 433.16862468 114.8984375 433 C117.95050428 431.54771544 120.45404511 429.49072529 123.0625 427.375 C128.82237068 422.83689564 134.69802513 418.76449095 141 415 C142.08667969 414.32582031 143.17335938 413.65164063 144.29296875 412.95703125 C161.53190319 402.54398526 180.80979942 396.038116 199.75 389.4375 C236.26420275 377.21038653 236.26420275 377.21038653 267 355 C267.86625 354.175 268.7325 353.35 269.625 352.5 C270.800625 351.2625 270.800625 351.2625 272 350 C272.59167969 349.40316406 273.18335938 348.80632812 273.79296875 348.19140625 C285.5182964 335.83105118 292.61661894 319.5537175 296 303 C296.13680176 302.33194336 296.27360352 301.66388672 296.41455078 300.97558594 C303.39123975 266.00562073 293.43769205 234.99587627 280 203 C265.90848753 169.34853257 257.73659534 137.28701732 272.015625 101.87109375 C276.25474156 91.70584653 280.89840301 81.76029006 286 72 C284.00325664 69.9758623 282.00272875 67.95570237 280 65.9375 C279.44699219 65.37611328 278.89398438 64.81472656 278.32421875 64.23632812 C275.35027473 61.24529248 272.32442583 58.37841282 269.125 55.62890625 C263.69514756 50.9372888 258.73873217 45.78546821 253.7109375 40.671875 C249.55340667 36.47148302 245.31782702 32.46725226 240.83496094 28.61669922 C237.61024436 25.77555058 234.66573182 22.67269105 231.6953125 19.56835938 C230.49904535 18.34320509 229.25327689 17.16677125 228 16 C225.4447157 16 224.30642556 16.84341507 222.09765625 18.125 Z " fill="#221B17" transform="translate(141,31)"/>
<path d="M0 0 C2.11355901 1.33198118 3.68573675 2.72103442 5.42407227 4.51196289 C6.0518457 5.15069336 6.67961914 5.78942383 7.32641602 6.44750977 C7.97223633 7.11459961 8.61805664 7.78168945 9.28344727 8.46899414 C13.06507255 12.35502012 16.83995834 16.17210029 20.95532227 19.70727539 C26.37563262 24.37388566 31.31134232 29.51293689 36.32250977 34.60961914 C40.51827215 38.8486368 44.79107109 42.90230368 49.31469727 46.78979492 C51.30750652 48.51934955 53.18720924 50.33429282 55.03344727 52.21899414 C55.89969727 53.0987793 55.89969727 53.0987793 56.78344727 53.99633789 C57.19594727 54.42043945 57.60844727 54.84454102 58.03344727 55.28149414 C57.30641602 56.68334961 57.30641602 56.68334961 56.56469727 58.11352539 C39.37191321 91.62884682 30.20226806 122.84635334 41.95629883 159.93530273 C45.58184665 170.97815598 49.75596409 181.65777246 54.49902344 192.26464844 C68.58555311 223.79243492 74.63502238 255.28065043 67.03344727 289.28149414 C66.69313477 290.87477539 66.69313477 290.87477539 66.34594727 292.50024414 C60.83129929 315.38603323 46.65474847 335.57869597 26.88500977 348.30883789 C23.31673514 350.40904615 19.71072241 352.38067603 16.03344727 354.28149414 C15.35878418 354.63179688 14.68412109 354.98209961 13.98901367 355.34301758 C0.96659822 362.00843418 -12.59719339 366.99689416 -26.3371582 371.96362305 C-68.3051209 387.14023276 -68.3051209 387.14023276 -105.50952148 411.37524414 C-106.2997168 412.02493164 -107.08991211 412.67461914 -107.90405273 413.34399414 C-108.59370117 413.9330957 -109.28334961 414.52219727 -109.99389648 415.12915039 C-111.96655273 416.28149414 -111.96655273 416.28149414 -113.87255859 416.01538086 C-116.17032993 415.2100759 -117.56933047 414.2374312 -119.44311523 412.69165039 C-120.10432373 412.15950928 -120.76553223 411.62736816 -121.44677734 411.07910156 C-122.50844116 410.22022339 -122.50844116 410.22022339 -123.59155273 409.34399414 C-145.72328192 391.98086141 -172.30117844 382.82600645 -198.34838867 373.0065918 C-269.33958715 346.21726566 -269.33958715 346.21726566 -285.00805664 312.45629883 C-298.18178919 282.56541509 -301.21292437 247.22054581 -289.96655273 216.28149414 C-289.49289531 214.89641944 -289.02018811 213.51101931 -288.54858398 212.12524414 C-285.92036018 204.63536234 -282.73981455 197.37635061 -279.59155273 190.09399414 C-264.47833745 155.10000791 -255.38029447 123.33986775 -269.62719727 86.40942383 C-273.85851423 75.7762917 -278.84527772 65.50845645 -283.96655273 55.28149414 C-273.50532013 44.64718967 -273.50532013 44.64718967 -269.15405273 40.96899414 C-265.21253772 37.61261125 -261.60517266 33.9583148 -257.96655273 30.28149414 C-253.8053851 26.07673125 -249.62670398 22.01641569 -245.10327148 18.19946289 C-241.42446126 14.89727675 -237.98914017 11.34314687 -234.53271484 7.81054688 C-228.55525993 1.73900155 -228.55525993 1.73900155 -225.96655273 0.28149414 C-223.07732263 0.75268149 -220.92418119 1.74892527 -218.45483398 3.28540039 C-217.7885498 3.69242188 -217.12226563 4.09944336 -216.43579102 4.51879883 C-215.72406738 4.95611328 -215.01234375 5.39342773 -214.27905273 5.84399414 C-193.74437616 18.12864283 -172.56597582 25.41115005 -148.96655273 29.28149414 C-148.25273437 29.40008789 -147.53891602 29.51868164 -146.8034668 29.64086914 C-102.01961766 36.70868187 -51.12125818 28.22194764 -11.95092773 4.92993164 C-11.31034424 4.5496582 -10.66976074 4.16938477 -10.00976562 3.77758789 C-8.26731509 2.72491944 -6.5438898 1.64094003 -4.82202148 0.55493164 C-1.96655273 -0.71850586 -1.96655273 -0.71850586 0 0 Z M-8.44702148 12.59008789 C-9.35105713 13.08557129 -10.25509277 13.58105469 -11.18652344 14.09155273 C-12.16580811 14.6286084 -13.14509277 15.16566406 -14.15405273 15.71899414 C-34.19057719 26.38138324 -54.70137453 33.03308997 -76.96655273 37.28149414 C-77.88581543 37.45938477 -78.80507813 37.63727539 -79.75219727 37.82055664 C-124.52206388 46.11767478 -178.41947364 39.62329487 -217.09619141 14.03808594 C-220.32471669 11.92482793 -220.32471669 11.92482793 -224.04077148 11.22680664 C-226.91002255 12.79820175 -229.18008535 14.91436738 -231.52905273 17.15649414 C-232.05208984 17.64537109 -232.57512695 18.13424805 -233.11401367 18.63793945 C-237.66744663 22.92271712 -242.06302345 27.35912122 -246.45874023 31.80493164 C-248.53001707 33.85039817 -250.62479605 35.77364223 -252.84155273 37.65649414 C-257.31253302 41.45822166 -261.38558654 45.64854069 -265.48754883 49.83959961 C-267.88531284 52.27486248 -270.11274999 54.37895898 -272.96655273 56.28149414 C-271.4816658 61.1528324 -269.45300919 65.54239598 -267.21655273 70.09399414 C-264.3839115 75.99495339 -261.83553482 81.92135934 -259.65405273 88.09399414 C-259.42427734 88.73763916 -259.19450195 89.38128418 -258.95776367 90.04443359 C-258.24843666 92.11191932 -257.59732584 94.18867017 -256.96655273 96.28149414 C-256.56376099 97.60056763 -256.56376099 97.60056763 -256.15283203 98.94628906 C-253.90496388 106.98434396 -253.38729283 114.6445588 -253.40405273 122.96899414 C-253.40453613 123.63968933 -253.40501953 124.31038452 -253.40551758 125.00140381 C-253.54288994 152.68929391 -264.41687341 177.00235392 -275.09448242 202.03320312 C-278.480539 210.01640935 -281.62223876 217.91949234 -283.96655273 226.28149414 C-284.2541748 227.2835791 -284.2541748 227.2835791 -284.54760742 228.3059082 C-289.13552849 244.70417095 -289.53532069 261.60708116 -285.96655273 278.28149414 C-285.8323291 278.93037598 -285.69810547 279.57925781 -285.55981445 280.24780273 C-281.67261855 298.8314403 -276.30027115 314.36018814 -262.96655273 328.28149414 C-262.35038086 328.97243164 -261.73420898 329.66336914 -261.09936523 330.37524414 C-243.36946708 349.55092798 -214.51681983 357.50057059 -190.81616211 366.42124939 C-131.49210841 388.75593846 -131.49210841 388.75593846 -114.96655273 405.28149414 C-110.57021838 404.73890153 -107.60759186 401.9128982 -104.21655273 399.28149414 C-96.52050979 393.48678204 -88.51443506 388.70499595 -79.96655273 384.28149414 C-78.32106445 383.4268457 -78.32106445 383.4268457 -76.64233398 382.55493164 C-61.31862599 375.04435699 -44.97270867 369.51972839 -28.93139648 363.73852539 C-17.77511689 359.70534678 -6.77227115 355.50068535 4.03344727 350.59399414 C4.98195557 350.16666992 5.93046387 349.7393457 6.90771484 349.29907227 C28.5497713 339.23389291 46.1973594 322.82567232 54.81958008 300.22045898 C56.51919076 295.31366684 57.84821448 290.3348122 59.03344727 285.28149414 C59.1971582 284.58797852 59.36086914 283.89446289 59.52954102 283.17993164 C67.38458787 248.51385711 55.89800189 216.73944181 42.09643555 185.26660156 C36.86540921 173.28703778 32.2816559 161.22538243 29.78344727 148.34399414 C29.54368164 147.18673828 29.54368164 147.18673828 29.29907227 146.00610352 C23.04080908 115.10592902 31.91185325 87.73320759 46.09570312 60.33032227 C47.17217297 58.35393852 47.17217297 58.35393852 47.03344727 56.28149414 C45.56661865 54.79803472 45.56661865 54.79803472 43.62719727 53.25024414 C37.77693756 48.27546344 32.48274212 42.7781292 27.09985352 37.30883789 C22.8363478 33.00387183 18.50725415 28.88731814 13.90893555 24.94311523 C10.242253 21.69455478 6.8989865 18.11106429 3.52758789 14.56079102 C2.0839596 13.07930835 0.56356849 11.67346489 -0.96655273 10.28149414 C-4.35375081 10.28149414 -5.53288238 10.95747312 -8.44702148 12.59008789 Z " fill="#F8F8F8" transform="translate(368.966552734375,47.718505859375)"/>
<path d="M0 0 C0 51.15 0 102.3 0 155 C-9.9 158.96 -19.8 162.92 -30 167 C-36.31623279 169.88824402 -36.31623279 169.88824402 -42.578125 172.890625 C-45 174 -45 174 -47 174 C-47 122.85 -47 71.7 -47 19 C-37.76 15.04 -28.52 11.08 -19 7 C-12.39801926 4.0686917 -12.39801926 4.0686917 -5.80859375 1.109375 C-3 0 -3 0 0 0 Z " fill="#FEFEFE" transform="translate(329,253)"/>
<path d="M0 0 C8.91 1.98 8.91 1.98 18 4 C21.5401564 4.74442541 25.07768662 5.48101826 28.625 6.1875 C29.43066406 6.35185547 30.23632812 6.51621094 31.06640625 6.68554688 C31.86175781 6.84474609 32.65710938 7.00394531 33.4765625 7.16796875 C34.15799316 7.30485107 34.83942383 7.4417334 35.54150391 7.58276367 C39.00993744 8.17139852 42.50913848 8.56364231 46 9 C46 42.99 46 76.98 46 112 C3.61538462 131 3.61538462 131 0 131 C0 87.77 0 44.54 0 0 Z " fill="#FDFDFD" transform="translate(184,85)"/>
<path d="M0 0 C2.5594801 1.27974005 2.65162694 2.17259341 3.6640625 4.8046875 C3.97762695 5.60640381 4.29119141 6.40812012 4.61425781 7.23413086 C5.1145752 8.54136108 5.1145752 8.54136108 5.625 9.875 C6.3394144 11.70770713 7.05560552 13.53972251 7.7734375 15.37109375 C8.14049805 16.30808105 8.50755859 17.24506836 8.88574219 18.21044922 C10.27161431 21.67998798 11.7385392 25.1106197 13.2175293 28.54125977 C16.6765665 36.56926878 19.72822095 44.54148287 22 53 C22.28617187 54.06089844 22.57234375 55.12179687 22.8671875 56.21484375 C29.665851 82.40588551 27.20449672 110.99500984 14.41015625 134.98046875 C6.98263487 147.37132207 -3.4231784 158.56927136 -17 164 C-17 112.52 -17 61.04 -17 8 C-4 1.5 -4 1.5 0 0 Z " fill="#FCFCFB" transform="translate(398,222)"/>
<path d="M0 0 C0 43.89 0 87.78 0 133 C-4.80376731 131.39874423 -8.92171342 129.65287597 -13.4375 127.4375 C-24.0885991 122.4948331 -35.06529557 118.27879739 -46 114 C-46 82.98 -46 51.96 -46 20 C-32.18912642 13.09456321 -32.18912642 13.09456321 -25.64453125 10.3515625 C-24.57485359 9.89818008 -24.57485359 9.89818008 -23.48356628 9.43563843 C-22.0066674 8.81055803 -20.5289919 8.18730934 -19.05053711 7.56591797 C-16.77591525 6.609619 -14.50402487 5.6470391 -12.23242188 4.68359375 C-10.78661032 4.07255691 -9.34065241 3.46186624 -7.89453125 2.8515625 C-7.21550247 2.56415192 -6.53647369 2.27674133 -5.83686829 1.98062134 C-1.11633265 0 -1.11633265 0 0 0 Z " fill="#FCFCFC" transform="translate(230,295)"/>
<path d="M0 0 C0 23.76 0 47.52 0 72 C-7.38375 75.135 -14.7675 78.27 -22.375 81.5 C-24.7061084 82.49193359 -27.0372168 83.48386719 -29.43896484 84.50585938 C-31.27950205 85.28544043 -33.12015186 86.06475573 -34.9609375 86.84375 C-36.40303589 87.45911621 -36.40303589 87.45911621 -37.87426758 88.08691406 C-38.78764893 88.47266602 -39.70103027 88.85841797 -40.64208984 89.25585938 C-41.43706879 89.59339233 -42.23204773 89.93092529 -43.05111694 90.27868652 C-45 91 -45 91 -47 91 C-47 64.27 -47 37.54 -47 10 C-40.73 9.01 -34.46 8.02 -28 7 C-24.50705041 6.2073239 -21.11864707 5.41124541 -17.6875 4.4375 C-16.53217773 4.12522461 -16.53217773 4.12522461 -15.35351562 3.80664062 C-12.0749992 2.91045662 -8.86059431 1.95212494 -5.64453125 0.84765625 C-3 0 -3 0 0 0 Z " fill="#FEFEFE" transform="translate(329,83)"/>
<path d="M0 0 C0 52.14 0 104.28 0 158 C-17.19665272 166.0251046 -17.19665272 166.0251046 -22.8125 168.4375 C-24.52373047 169.17806641 -24.52373047 169.17806641 -26.26953125 169.93359375 C-29 171 -29 171 -31 171 C-29.44823453 164.56663899 -27.02121629 158.7277502 -24.25 152.75 C-10.71967967 123.10558553 -3.46684332 88.080417 -14.87792969 56.57617188 C-17.09513189 50.6500718 -19.51446006 44.81770938 -22 39 C-22.61732962 37.54042468 -23.23452475 36.08079248 -23.8515625 34.62109375 C-25.21670441 31.40629066 -26.6011845 28.20032031 -28 25 C-23.17517868 20.07466157 -18.29942319 15.3157728 -13.0546875 10.83984375 C-9.83765901 7.95919656 -6.86943962 4.83936295 -3.8828125 1.72265625 C-2 0 -2 0 0 0 Z " fill="#F6F5F5" transform="translate(132,81)"/>
<path d="M0 0 C3.33736417 1.70014192 5.4493537 3.89111228 7.1328125 7.28125 C9.12926181 13.54038836 9.18341088 21.30764178 6.5 27.375 C0.81583435 36.7048719 -8.2554269 40.2636679 -18 44 C-16.74602127 51.01694482 -15.42415912 58.01556007 -14 65 C-15.41225926 65.67595315 -16.83002905 66.34040059 -18.25 67 C-19.03890625 67.37125 -19.8278125 67.7425 -20.640625 68.125 C-23 69 -23 69 -27 69 C-28.43068811 61.68721712 -29.85409788 54.37304466 -31.27246094 47.05786133 C-31.75581142 44.56957953 -32.24082603 42.0816204 -32.72753906 39.59399414 C-33.42690975 36.01792625 -34.12028415 32.44074006 -34.8125 28.86328125 C-35.14060669 27.19583611 -35.14060669 27.19583611 -35.4753418 25.4947052 C-35.67554932 24.45400375 -35.87575684 23.41330231 -36.08203125 22.34106445 C-36.34850464 20.97205742 -36.34850464 20.97205742 -36.62036133 19.57539368 C-36.99856458 17.0097376 -37.06857692 14.5891982 -37 12 C-33.34903086 10.26634679 -29.68703857 8.55874377 -26.01367188 6.87304688 C-24.76929016 6.29782596 -23.52796472 5.71593957 -22.29003906 5.12695312 C-7.98439347 -1.66765076 -7.98439347 -1.66765076 0 0 Z " fill="#251D19" transform="translate(361,162)"/>
<path d="M0 0 C4.55040349 2.23383444 6.75634826 4.51269651 9 9 C10.35100279 17.59012606 9.02535489 24.89518791 4 32 C-1.66328632 37.92669499 -9.46146463 41.05714929 -17 44 C-16.7834375 45.09699219 -16.566875 46.19398438 -16.34375 47.32421875 C-16.06225708 48.77859884 -15.78102059 50.23302857 -15.5 51.6875 C-15.35691406 52.40873047 -15.21382813 53.12996094 -15.06640625 53.87304688 C-14.34428113 57.63841359 -13.8175024 61.14473813 -14 65 C-15.62249941 65.83819158 -17.24808497 66.6704116 -18.875 67.5 C-20.23238281 68.19609375 -20.23238281 68.19609375 -21.6171875 68.90625 C-24 70 -24 70 -26 70 C-26.32871094 68.1746875 -26.32871094 68.1746875 -26.6640625 66.3125 C-26.98416179 64.54162811 -27.30449624 62.77079873 -27.625 61 C-27.79741211 60.04625488 -27.96982422 59.09250977 -28.14746094 58.10986328 C-29.2719115 51.91953883 -30.42517239 45.73530347 -31.6015625 39.5546875 C-31.87681746 38.10417181 -32.15204532 36.65365097 -32.42724609 35.203125 C-32.83709393 33.04351182 -33.24823346 30.88418508 -33.66339111 28.72558594 C-34.05483602 26.69004885 -34.44185318 24.65371161 -34.828125 22.6171875 C-35.0540332 21.43753418 -35.27994141 20.25788086 -35.51269531 19.04248047 C-36 16 -36 16 -36 12 C-32.49218693 10.26569663 -28.97262614 8.55817893 -25.44091797 6.87304688 C-23.66111146 6.01736147 -21.89096255 5.14168046 -20.12109375 4.265625 C-13.38697893 1.0697739 -7.53016105 -1.38408191 0 0 Z " fill="#251D19" transform="translate(294,191)"/>
<path d="M0 0 C1.26757812 1.6796875 1.26757812 1.6796875 2.53125 3.875 C3.24450439 5.09340576 3.24450439 5.09340576 3.97216797 6.33642578 C4.72844482 7.65489502 4.72844482 7.65489502 5.5 9 C6.5730245 10.83219343 7.64859428 12.66289833 8.7265625 14.4921875 C9.27086914 15.41612305 9.81517578 16.34005859 10.37597656 17.29199219 C12.77959049 21.29994253 15.31371624 25.21656195 17.875 29.125 C29 46.16280823 29 46.16280823 29 49 C27.42274653 49.70133599 25.83788667 50.385583 24.25 51.0625 C23.36828125 51.44535156 22.4865625 51.82820313 21.578125 52.22265625 C18.7927443 53.06249073 17.62259677 53.22086401 15 52 C13.30031159 49.81243807 12.26521087 47.48523563 11 45 C8.87343899 45.67803394 6.76134239 46.3783159 4.65625 47.12109375 C2 48 2 48 -0.71875 48.59765625 C-3.6787346 49.39424034 -5.61877981 50.04640915 -8 52 C-9.01131531 55.55045461 -9.45131311 59.0373075 -9.95703125 62.69140625 C-11 66 -11 66 -13.57421875 68.02734375 C-20.30362319 71 -20.30362319 71 -23 71 C-22.35193531 60.67020554 -21.16570569 50.43017119 -19.89819336 40.16137695 C-19.56274087 37.43945443 -19.23321756 34.71685932 -18.90429688 31.99414062 C-18.38726785 27.73480862 -17.84059376 23.48001266 -17.28085327 19.22610474 C-17.0272254 17.21579453 -16.81263756 15.20065267 -16.6027832 13.18530273 C-15.68534833 5.6360427 -15.68534833 5.6360427 -12.28515625 2.48046875 C-11.22167969 2.05378906 -10.15820312 1.62710938 -9.0625 1.1875 C-8.00160156 0.72730469 -6.94070312 0.26710937 -5.84765625 -0.20703125 C-3 -1 -3 -1 0 0 Z " fill="#251D19" transform="translate(207,227)"/>
<path d="M0 0 C1.42529297 1.69213867 1.42529297 1.69213867 2.7421875 3.91796875 C3.49568481 5.16610352 3.49568481 5.16610352 4.2644043 6.43945312 C4.79590088 7.34630859 5.32739746 8.25316406 5.875 9.1875 C7.02305938 11.09866657 8.17286001 13.00878802 9.32421875 14.91796875 C10.22019775 16.41142822 10.22019775 16.41142822 11.13427734 17.93505859 C14.80521807 23.96554667 18.66263838 29.87949408 22.50537109 35.80151367 C23.06434082 36.67138916 23.62331055 37.54126465 24.19921875 38.4375 C24.69252686 39.19933594 25.18583496 39.96117187 25.6940918 40.74609375 C27 43 27 43 29 48 C22.565 50.475 22.565 50.475 16 53 C14.35 50.03 12.7 47.06 11 44 C8.89949075 44.65425698 6.80257767 45.32252831 4.7265625 46.05078125 C2.8434651 46.70635814 0.93981178 47.30469976 -0.9765625 47.85546875 C-4.1254681 48.93972252 -6.43157743 49.86415386 -9 52 C-9.86961616 55.34931373 -10.06255205 58.50080629 -10.28515625 61.94921875 C-11 65 -11 65 -13.24609375 66.95703125 C-19.42849424 70 -19.42849424 70 -23 70 C-22.37241274 57.3987769 -21.07559292 44.8737226 -19.53808594 32.35351562 C-19.26083781 30.01886354 -19.00359717 27.68175529 -18.765625 25.34277344 C-18.41554648 21.92665394 -18.0001381 18.52407584 -17.5703125 15.1171875 C-17.47710724 14.074487 -17.38390198 13.0317865 -17.28787231 11.95748901 C-16.86489991 8.93558233 -16.42972696 6.70007614 -15 4 C-10.64260486 0.77063909 -5.38571526 -2.21241533 0 0 Z " fill="#251D19" transform="translate(127,263)"/>
<path d="M0 0 C0 15.84 0 31.68 0 48 C-12.92041693 42.83183323 -24.2766164 32.17046388 -31 20 C-32.375 16.4375 -32.375 16.4375 -33 14 C-26.10619418 10.46056906 -19.12795984 7.22572969 -12 4.1875 C-11.06027344 3.78080078 -10.12054688 3.37410156 -9.15234375 2.95507812 C-8.25644531 2.57158203 -7.36054687 2.18808594 -6.4375 1.79296875 C-5.63183594 1.4477417 -4.82617188 1.10251465 -3.99609375 0.74682617 C-2 0 -2 0 0 0 Z " fill="#FCFCFC" transform="translate(131,338)"/>
<path d="M0 0 C5.38008447 4.61150098 10.59527063 9.2761359 15.75 14.125 C16.50410156 14.82753906 17.25820313 15.53007813 18.03515625 16.25390625 C18.76089844 16.93582031 19.48664063 17.61773437 20.234375 18.3203125 C20.88631836 18.93148926 21.53826172 19.54266602 22.20996094 20.17236328 C24.00546521 22.00558 25.50975728 23.91423557 27 26 C21.53716536 41.97519734 21.53716536 41.97519734 15.01171875 45.65234375 C11.11224311 47.46173941 7.1210367 48.78981792 3 50 C1.515 50.495 1.515 50.495 0 51 C0 34.17 0 17.34 0 0 Z " fill="#F9F8F8" transform="translate(381,81)"/>
<path d="M0 0 C2.70493851 4.05740776 2.63067772 7.24048551 2 12 C-0.78215874 17.82928497 -7.23516383 19.8496246 -13 22 C-13.66 22 -14.32 22 -15 22 C-15.53181175 19.75256955 -16.05007126 17.50192898 -16.5625 15.25 C-16.99755859 13.37054688 -16.99755859 13.37054688 -17.44140625 11.453125 C-18.23135755 6.56978967 -18.23135755 6.56978967 -17 4 C-12.34381658 0.15152186 -5.88687069 -1.35569014 0 0 Z " fill="#F9F9F9" transform="translate(289,203)"/>
<path d="M0 0 C2.70493851 4.05740776 2.63067772 7.24048551 2 12 C-0.78215874 17.82928497 -7.23516383 19.8496246 -13 22 C-13.66 22 -14.32 22 -15 22 C-15.99 16.39 -16.98 10.78 -18 5 C-5.05644172 -1.55582822 -5.05644172 -1.55582822 0 0 Z " fill="#F8F8F7" transform="translate(355,174)"/>
<path d="M0 0 C3.24822479 2.77687356 5.12183056 6.39061382 7.1875 10.0625 C7.55552734 10.69994141 7.92355469 11.33738281 8.30273438 11.99414062 C11 16.74312964 11 16.74312964 11 19 C4.565 21.97 4.565 21.97 -2 25 C-1.46841712 16.64655468 -0.92021637 8.32110549 0 0 Z " fill="#F4F4F4" transform="translate(201,243)"/>
<path d="M0 0 C0.33872513 1.41538717 0.67074624 2.83237963 1 4.25 C1.185625 5.03890625 1.37125 5.8278125 1.5625 6.640625 C2 9 2 9 2 13 C0.39850114 13.67305018 -1.20631029 14.33822227 -2.8125 15 C-3.70582031 15.37125 -4.59914063 15.7425 -5.51953125 16.125 C-8 17 -8 17 -11 17 C-11.33 13.04 -11.66 9.08 -12 5 C-2.25 0 -2.25 0 0 0 Z " fill="#2A231F" transform="translate(387,196)"/>
<path d="M0 0 C2.77645418 3.49692647 5.02239005 7.26646134 7.25 11.125 C7.62640625 11.75792969 8.0028125 12.39085937 8.390625 13.04296875 C9.32444588 14.65998946 10.16995623 16.32733603 11 18 C9.66876597 20.66246807 8.3235622 20.94601652 5.625 22.125 C4.83351563 22.47820312 4.04203125 22.83140625 3.2265625 23.1953125 C1 24 1 24 -2 24 C-1.86076462 20.74968216 -1.71245815 17.49983939 -1.5625 14.25 C-1.52318359 13.32960938 -1.48386719 12.40921875 -1.44335938 11.4609375 C-1.40146484 10.57148438 -1.35957031 9.68203125 -1.31640625 8.765625 C-1.27974854 7.94868164 -1.24309082 7.13173828 -1.20532227 6.29003906 C-1.00865725 4.0965577 -0.59699406 2.11603587 0 0 Z " fill="#F4F4F3" transform="translate(121,278)"/>
<path d="M0 0 C0.66 3.96 1.32 7.92 2 12 C0.411875 12.66 -1.17625 13.32 -2.8125 14 C-3.70582031 14.37125 -4.59914063 14.7425 -5.51953125 15.125 C-8 16 -8 16 -11 16 C-11.33 12.04 -11.66 8.08 -12 4 C-4.5 0 -4.5 0 0 0 Z " fill="#28211D" transform="translate(321,226)"/>
<path d="M0 0 C0.96070434 2.88211302 1.10581883 4.69850044 1.0625 7.6875 C1.05347656 8.49574219 1.04445313 9.30398438 1.03515625 10.13671875 C1.02355469 10.75160156 1.01195312 11.36648438 1 12 C-0.43429001 12.67354499 -1.87257057 13.33859701 -3.3125 14 C-4.11300781 14.37125 -4.91351563 14.7425 -5.73828125 15.125 C-8 16 -8 16 -11 16 C-11.66 12.04 -12.32 8.08 -13 4 C-11.5975 3.34 -10.195 2.68 -8.75 2 C-7.56664062 1.443125 -7.56664062 1.443125 -6.359375 0.875 C-4 0 -4 0 0 0 Z " fill="#2A221E" transform="translate(255,255)"/>
<path d="M0 0 C1.59138085 4.17737474 2.21278058 7.53160785 2 12 C0.56570999 12.67354499 -0.87257057 13.33859701 -2.3125 14 C-3.11300781 14.37125 -3.91351563 14.7425 -4.73828125 15.125 C-7 16 -7 16 -10 16 C-10.66 12.37 -11.32 8.74 -12 5 C-2.25 0 -2.25 0 0 0 Z " fill="#29211E" transform="translate(174,290)"/>
</svg>
