<?xml version="1.0" encoding="UTF-8"?>
<svg version="1.1" xmlns="http://www.w3.org/2000/svg" width="512" height="512">
<path d="M0 0 C4.83724267 1.37263183 8.66533047 3.55620899 12.8125 6.3125 C43.68665504 26.12126955 77.77688011 39.32534049 114 45 C114.7115625 45.11714355 115.423125 45.23428711 116.15625 45.35498047 C161.84733184 52.63483323 209.69630129 42.89416156 251 23 C252.03543945 22.505 252.03543945 22.505 253.09179688 22 C265.80780936 15.88676207 278.16361181 9.22151504 289.6953125 1.0546875 C292 0 292 0 293.96484375 0.37890625 C297.05123982 2.83735993 299.14690095 5.87159134 301.4375 9.0625 C302.51345878 10.52928011 303.59031051 11.99540554 304.66796875 13.4609375 C305.2201709 14.21600586 305.77237305 14.97107422 306.34130859 15.74902344 C308.93142028 19.26401162 311.58935288 22.72577569 314.25 26.1875 C315.33487029 27.60268457 316.41949924 29.01805416 317.50390625 30.43359375 C318.06480957 31.16562012 318.62571289 31.89764648 319.20361328 32.65185547 C322.53926165 37.01204384 325.8623797 41.3817812 329.1875 45.75 C335.10197909 53.51787075 341.03477619 61.27102012 347 69 C345.40841612 73.22420376 342.23285503 75.72228302 338.9375 78.625 C325.25825673 91.0500293 314.92863404 103.87779869 313 123 C312.03049092 154.17818098 330.64196105 183.02751384 344.6953125 209.62890625 C345.46389248 211.08575248 346.23213407 212.54277729 347 214 C347.53318848 215.01102783 347.53318848 215.01102783 348.07714844 216.04248047 C364.34245759 247.08402117 372.97341252 276.96700505 363.125 311.47265625 C354.14482023 339.62926158 335.06953961 359.48715133 309.28393555 373.1184082 C284.52421916 385.7604281 256.5138861 392.90412507 229.5625 399.25 C207.55201442 404.44895733 186.08862671 410.32011313 169 426 C168.28070313 426.639375 167.56140625 427.27875 166.8203125 427.9375 C159.53411398 434.78289647 153.84684548 442.93709125 148 451 C143.9675727 449.65585757 143.2898172 447.73587482 141 444.1875 C121.45633887 415.00337727 92.76145407 405.25829758 59.9354248 397.75030518 C25.60557146 389.89123664 -11.81588111 380.56975103 -39 357 C-39.87785156 356.33677734 -39.87785156 356.33677734 -40.7734375 355.66015625 C-59.35658115 341.30838568 -69.7910139 315.7725584 -72.77294922 293.20556641 C-76.26600802 259.27406836 -61.56799859 229.354191 -45.59619141 200.41772461 C-21.54021571 158.1762495 -21.54021571 158.1762495 -20.5625 111.125 C-26.31467186 95.2066633 -37.92650293 81.38233138 -52 72 C-51.5784272 66.99733606 -48.93921675 64.05543704 -45.8125 60.375 C-41.05491938 54.61026156 -36.52265725 48.731187 -32.125 42.6875 C-26.90223543 35.52861091 -21.5386632 28.50117138 -16.0703125 21.52856445 C-10.5500693 14.47029221 -5.24826044 7.26187873 0 0 Z " fill="#241F20" transform="translate(109,30)"/>
<path d="M0 0 C2.9566207 0.38190477 5.15446466 1.53447549 7.66796875 3.08203125 C8.74087158 3.72918091 8.74087158 3.72918091 9.83544922 4.3894043 C10.61162598 4.85902588 11.38780273 5.32864746 12.1875 5.8125 C38.7124421 21.46796524 66.95781025 32.98951903 97.125 39.1875 C97.87531494 39.34250977 98.62562988 39.49751953 99.39868164 39.65722656 C113.81119944 42.47017253 127.91723911 43.37586107 142.5625 43.3125 C143.87852203 43.30976578 143.87852203 43.30976578 145.22113037 43.30697632 C159.00688325 43.25886644 172.43530176 42.63967313 186 40 C186.8863916 39.83371094 187.7727832 39.66742188 188.68603516 39.49609375 C200.93424889 37.1385691 212.65848651 33.67514328 224.40991211 29.50317383 C225.37292236 29.16439209 226.33593262 28.82561035 227.328125 28.4765625 C228.61058105 28.0137085 228.61058105 28.0137085 229.91894531 27.54150391 C232 27 232 27 234 28 C233.07703125 28.63164063 232.1540625 29.26328125 231.203125 29.9140625 C220.94450488 36.94514646 210.74598821 44.05953329 200.56445312 51.20166016 C196.37826875 54.13724984 192.18900408 57.06843609 188 60 C186.33331803 61.16664481 184.66665138 62.3333115 183 63.5 C113.00000001 112.5 113.00000001 112.5 110.49926758 114.25048828 C108.83501172 115.41548364 107.17078639 116.5805226 105.5065918 117.74560547 C101.30329077 120.68820411 97.09943819 123.63000904 92.89453125 126.5703125 C85.08561332 132.03176431 77.2815462 137.49959932 69.5 143 C60.8691193 149.10075439 52.21010946 155.16098513 43.54833984 161.21777344 C39.3645694 164.14376733 35.18235476 167.0719831 31 170 C29.33334098 171.16667759 27.66667431 172.33334425 26 173.5 C25.175 174.0775 24.35 174.655 23.5 175.25 C-4 194.5 -4 194.5 -6.50073242 196.25048828 C-8.16498828 197.41548364 -9.82921361 198.5805226 -11.4934082 199.74560547 C-15.69670923 202.68820411 -19.90056181 205.63000904 -24.10546875 208.5703125 C-24.94730713 209.15925293 -25.78914551 209.74819336 -26.65649414 210.35498047 C-28.32827201 211.52411229 -30.00062472 212.69242259 -31.67358398 213.85986328 C-35.77909232 216.72837987 -39.86790904 219.61669604 -43.9296875 222.546875 C-45.10108276 223.38774658 -45.10108276 223.38774658 -46.29614258 224.24560547 C-47.77162147 225.30639898 -49.24304944 226.37285731 -50.7097168 227.44580078 C-55.66496157 231 -55.66496157 231 -59 231 C-51.2990437 213.13296646 -42.43881289 195.90720567 -33.1953125 178.79296875 C-19.43479767 153.26283325 -5.30841366 123.46446395 -13.625 93.8125 C-17.8713954 82.40959207 -24.22796357 72.52410219 -32.9921875 64.0703125 C-33.50048096 63.57917969 -34.00877441 63.08804688 -34.5324707 62.58203125 C-35.99736759 61.18702493 -37.4845676 59.81555252 -38.97265625 58.4453125 C-39.64167969 57.63835937 -40.31070313 56.83140625 -41 56 C-40.65749708 52.63566747 -39.12614847 50.51437054 -37.11328125 47.8671875 C-36.5114502 47.06990234 -35.90961914 46.27261719 -35.28955078 45.45117188 C-34.63712402 44.60103516 -33.98469727 43.75089844 -33.3125 42.875 C-32.64202637 41.99134766 -31.97155273 41.10769531 -31.28076172 40.19726562 C-26.1968902 33.51417484 -21.05005752 26.879519 -15.87719727 20.26513672 C-11.73113101 14.9616543 -7.67225362 9.60154625 -3.671875 4.1875 C-2 2 -2 2 0 0 Z " fill="#FDFDFD" transform="translate(112,44)"/>
<path d="M0 0 C0 86.79 0 173.58 0 263 C-5.74849575 265.87424788 -10.95185637 268.24334336 -16.9375 270.3125 C-17.78143311 270.60592285 -18.62536621 270.8993457 -19.49487305 271.20166016 C-26.70212619 273.6555536 -33.9853017 275.81003784 -41.3125 277.875 C-42.36751709 278.17317627 -43.42253418 278.47135254 -44.50952148 278.77856445 C-49.68004076 280.20432778 -54.68013987 281.26490519 -60 282 C-60.4111446 251.51984555 -60.72943504 221.04020163 -60.91917593 190.55792214 C-60.94168708 186.95454445 -60.96498503 183.35117224 -60.98876953 179.74780273 C-60.99349112 179.03047461 -60.99821271 178.31314649 -61.00307737 177.57408115 C-61.08128003 165.97782431 -61.22312822 154.38318317 -61.38875033 142.78788302 C-61.5574293 130.87872051 -61.65712951 118.97040056 -61.69359291 107.06009263 C-61.71602089 100.37395675 -61.77192318 93.69170197 -61.90314102 87.00670815 C-62.02577896 80.70750054 -62.06292722 74.41343578 -62.03593826 68.11314774 C-62.04087113 65.80752861 -62.07643261 63.50172918 -62.14569855 61.19714546 C-62.62949724 44.26288368 -62.62949724 44.26288368 -58.2351222 38.81000304 C-53.9762985 34.87026554 -49.24465576 31.93496826 -44.15490603 29.18992937 C-41.19539963 27.55570331 -38.5382586 25.64409841 -35.80859375 23.65234375 C-34.01941299 22.41235262 -32.22906853 21.17403872 -30.4375 19.9375 C-24.88017918 16.09253597 -19.3258878 12.24626493 -13.828125 8.31640625 C-13.03994385 7.75381104 -12.2517627 7.19121582 -11.43969727 6.61157227 C-9.97379849 5.56264025 -8.51059209 4.50993197 -7.05053711 3.45288086 C-2.22014171 0 -2.22014171 0 0 0 Z " fill="#EB1C23" transform="translate(407,134)"/>
<path d="M0 0 C0.30374325 28.39826645 0.53295589 56.79628933 0.67355824 85.19585323 C0.74057942 98.38250479 0.83194251 111.56814684 0.98071289 124.75415039 C1.11032716 136.24776923 1.19416563 147.740657 1.22315043 159.23498636 C1.24009336 165.32108571 1.27987506 171.40509376 1.37449074 177.49052238 C1.46286669 183.22116356 1.48992703 188.94885684 1.47039986 194.68011475 C1.47397073 196.78088482 1.49976109 198.88175536 1.54967117 200.9819355 C1.89934357 216.45755095 1.89934357 216.45755095 -1.26914048 220.69886327 C-4.74216233 223.96284749 -8.74197346 225.89752686 -13 228 C-19.07321289 232.64985352 -23.80807159 237.97284755 -28.37109375 244.09375 C-29.17740234 245.03734375 -29.17740234 245.03734375 -30 246 C-30.66 246 -31.32 246 -32 246 C-33.375 244.3828125 -33.375 244.3828125 -35 242.125 C-37.72901322 238.54070841 -40.56201533 235.18377635 -43.6875 231.9375 C-44.41324219 231.18339844 -45.13898438 230.42929687 -45.88671875 229.65234375 C-47.80318808 227.79075475 -49.44212344 226.78328625 -51.87611675 225.59022617 C-56.87183888 222.97077448 -60.3630369 221.00982515 -62.1204319 215.464674 C-62.69914816 210.97038766 -62.58948045 206.47593553 -62.50512695 201.95483398 C-62.51648723 200.22115132 -62.53299631 198.48749592 -62.554245 196.75390625 C-62.59603023 192.06074623 -62.56267177 187.37089521 -62.51311135 182.6779201 C-62.47146443 177.76043982 -62.49095042 172.84314551 -62.50151062 167.92555237 C-62.50960916 159.66930991 -62.46926007 151.41437784 -62.3996582 143.15844727 C-62.31980293 133.62041811 -62.31459634 124.08457794 -62.3498233 114.54632896 C-62.38218707 105.36021767 -62.36357481 96.17489636 -62.32115746 86.98884773 C-62.30390563 83.08413017 -62.30410297 79.17999252 -62.31835365 75.27526665 C-62.33269744 70.67538375 -62.30223232 66.07789057 -62.2374897 61.47846222 C-62.22083065 59.79313023 -62.2193504 58.10756782 -62.2343483 56.42222023 C-62.3333855 43.69499139 -62.3333855 43.69499139 -59.01493359 39.47659588 C-56.74923674 37.68798185 -54.55949538 36.32084779 -52 35 C-51.07082764 34.32638428 -50.14165527 33.65276855 -49.18432617 32.95874023 C-48.39517822 32.41419189 -47.60603027 31.86964355 -46.79296875 31.30859375 C-45.88611328 30.68057861 -44.97925781 30.05256348 -44.04492188 29.40551758 C-43.10197266 28.75607178 -42.15902344 28.10662598 -41.1875 27.4375 C-39.15997321 26.03411858 -37.13263318 24.6304673 -35.10546875 23.2265625 C-33.58252197 22.1732373 -33.58252197 22.1732373 -32.02880859 21.09863281 C-27.34220841 17.85133189 -22.67018549 14.58334601 -18 11.3125 C-17.19457764 10.74909912 -16.38915527 10.18569824 -15.55932617 9.60522461 C-14.79724854 9.0716333 -14.0351709 8.53804199 -13.25 7.98828125 C-12.53199219 7.48635254 -11.81398438 6.98442383 -11.07421875 6.46728516 C-9.69276524 5.49005639 -8.32023563 4.50008724 -6.95703125 3.49755859 C-2.19711286 0 -2.19711286 0 0 0 Z " fill="#E91C23" transform="translate(287,218)"/>
<path d="M0 0 C9.00871305 6.58381134 15.47884901 16.15666637 17.22265625 27.2734375 C18.43465628 40.99933785 15.98626777 51.84141648 7.5 62.79296875 C-0.45226922 71.45453128 -9.85160485 75.61616659 -21.4296875 76.46875 C-32.40091623 76.90125573 -42.37700183 74.4597685 -50.78515625 67.17578125 C-51.44257812 66.54800781 -52.1 65.92023438 -52.77734375 65.2734375 C-53.73253906 64.37818359 -53.73253906 64.37818359 -54.70703125 63.46484375 C-62.79494585 55.11658855 -66.10027524 44.04998018 -66.16455078 32.67578125 C-65.91588218 20.203235 -59.35950733 10.57256335 -50.71484375 2.0859375 C-35.96387609 -10.35789046 -15.89090269 -9.87873276 0 0 Z " fill="#2A2627" transform="translate(177.77734375,101.7265625)"/>
<path d="M0 0 C0 37.62 0 75.24 0 114 C-6.13480948 113.3183545 -10.74853941 112.68944713 -16.46484375 110.9609375 C-17.480411 110.65502182 -17.480411 110.65502182 -18.51649475 110.34292603 C-19.94193912 109.91134892 -21.36620682 109.47586742 -22.78930664 109.03662109 C-24.89865575 108.38696362 -27.01225963 107.75310519 -29.12695312 107.12109375 C-39.63284012 103.9386552 -49.81827814 100.09473387 -60 96 C-60.30540812 88.47542952 -60.51485594 80.95246553 -60.65917969 73.4230957 C-60.71936179 70.86487114 -60.80113429 68.30705658 -60.90527344 65.75024414 C-61.79445318 43.35076025 -61.79445318 43.35076025 -57.66210938 38.53930664 C-54.55049636 36.18975722 -51.54356759 34.61040542 -48 33 C-46.14085514 31.74174697 -44.3061476 30.44649209 -42.5 29.11328125 C-40.66815865 27.84419788 -38.83479245 26.57731303 -37 25.3125 C-35.00373309 23.9299375 -33.007643 22.54711965 -31.01171875 21.1640625 C-30.01575684 20.47473633 -29.01979492 19.78541016 -27.99365234 19.07519531 C-23.25759252 15.79216575 -18.53400322 12.49141644 -13.8125 9.1875 C-12.98169922 8.60718018 -12.15089844 8.02686035 -11.29492188 7.42895508 C-10.52341797 6.88907959 -9.75191406 6.3492041 -8.95703125 5.79296875 C-8.28647705 5.3239917 -7.61592285 4.85501465 -6.92504883 4.37182617 C-5.53632127 3.38219267 -4.16863576 2.36279726 -2.81518555 1.32543945 C-1 0 -1 0 0 0 Z " fill="#EB1C23" transform="translate(166,302)"/>
<path d="M0 0 C10.87961827 7.28163428 19.33551853 17.30458069 21.984375 30.328125 C22.87386234 39.06127338 21.53335187 46.32090515 16.40625 53.5546875 C9.10969566 62.33027312 0.52020614 67.19078007 -10.91796875 68.71484375 C-17.47202764 68.98141838 -22.35994419 67.57690348 -28.015625 64.328125 C-28.60859375 64.01230469 -29.2015625 63.69648438 -29.8125 63.37109375 C-38.22406213 58.21997658 -44.5159458 48.44608456 -47.4296875 39.18359375 C-49.11974188 30.94739541 -49.14129201 21.84569946 -45.015625 14.328125 C-34.97874975 0.21524173 -16.71783294 -8.92455744 0 0 Z " fill="#FAFAFA" transform="translate(370.015625,83.671875)"/>
<path d="M0 0 C3.64379092 1.21459697 4.17370501 2.2998671 6.30078125 5.42578125 C7.26177734 6.82425293 7.26177734 6.82425293 8.2421875 8.25097656 C9.26699219 9.76643066 9.26699219 9.76643066 10.3125 11.3125 C11.75617998 13.41819534 13.20019677 15.52365979 14.64453125 17.62890625 C15.37236816 18.69512207 16.10020508 19.76133789 16.85009766 20.85986328 C20.03522381 25.51204278 23.26397464 30.13314008 26.5 34.75 C27.07419678 35.57056885 27.64839355 36.3911377 28.23999023 37.23657227 C32.42549373 43.20810219 36.66763376 49.13381466 41 55 C34.43181818 61.95454545 34.43181818 61.95454545 30 64 C28.02931213 63.62358093 28.02931213 63.62358093 25.85766602 62.83081055 C25.06184113 62.54192963 24.26601624 62.25304871 23.44607544 61.95541382 C19.60207396 60.45398338 15.80667557 58.86414189 12.02734375 57.20703125 C11.21882462 56.85613937 10.41030548 56.5052475 9.57728577 56.14372253 C7.02912408 55.03687574 4.48328976 53.92478979 1.9375 52.8125 C0.19611561 52.05498888 -1.54541955 51.29782424 -3.28710938 50.54101562 C-7.52649101 48.69800667 -11.76379571 46.85029978 -16 45 C-14.69730078 47.73623393 -13.25753709 50.18815009 -11.49609375 52.65234375 C-10.76181152 53.68500366 -10.76181152 53.68500366 -10.01269531 54.73852539 C-9.49288086 55.46418701 -8.97306641 56.18984863 -8.4375 56.9375 C-7.3575808 58.45537916 -6.27815936 59.97361258 -5.19921875 61.4921875 C-4.66216309 62.24725586 -4.12510742 63.00232422 -3.57177734 63.78027344 C-1.27432984 67.0248203 0.99155024 70.29073227 3.25 73.5625 C3.97703125 74.61566406 4.7040625 75.66882813 5.453125 76.75390625 C5.96359375 77.49511719 6.4740625 78.23632812 7 79 C3.72291137 82.67033927 0.28477792 84.69281189 -4 87 C-11.19236974 77.35430075 -18.14211892 67.55546742 -24.98828125 57.66113281 C-28.19581244 53.02649604 -31.41364092 48.40172939 -34.69140625 43.81640625 C-35.25287354 43.02991699 -35.81434082 42.24342773 -36.39282227 41.43310547 C-37.44018679 39.96969078 -38.49128054 38.50893571 -39.54663086 37.05126953 C-43 32.22006854 -43 32.22006854 -43 30 C-41.12890625 28.16796875 -41.12890625 28.16796875 -38.5625 26.1875 C-37.73878906 25.52105469 -36.91507812 24.85460937 -36.06640625 24.16796875 C-31.42800423 22.40123983 -28.32830526 24.12212062 -24 26 C-23.39777618 26.25689606 -22.79555237 26.51379211 -22.17507935 26.7784729 C-17.00883604 28.98522303 -11.87812184 31.26888003 -6.75 33.5625 C-4.43717 34.59275625 -2.12382159 35.62183476 0.18988037 36.65013123 C1.6207144 37.28649066 3.05096449 37.92416523 4.48052979 38.56336975 C7.96056421 40.1155017 11.4496426 41.6157374 15 43 C14.35675781 42.06542969 13.71351563 41.13085938 13.05078125 40.16796875 C5.68208967 29.45790195 -1.66314039 18.73189337 -9 8 C-2.60551948 1.56331169 -2.60551948 1.56331169 0 0 Z " fill="#FAFAFA" transform="translate(299,114)"/>
<path d="M0 0 C2.59208915 1.20941979 4.88303676 2.54617587 7.26831055 4.12133789 C8.15703857 4.7047998 9.0457666 5.28826172 9.96142578 5.8894043 C11.39143921 6.83759033 11.39143921 6.83759033 12.8503418 7.80493164 C14.90761756 9.1578204 16.9649099 10.51068397 19.0222168 11.86352539 C20.10051758 12.57492676 21.17881836 13.28632813 22.28979492 14.01928711 C27.48489716 17.44584794 32.69398607 20.85104949 37.90274048 24.25680542 C39.56267376 25.34278798 41.22153516 26.43040837 42.88037109 27.51806641 C48.43683233 31.15676864 54.01413528 34.74852653 59.6628418 38.24243164 C58.42918851 41.94339151 57.0353962 42.78692245 53.9128418 45.05493164 C53.05174805 45.70075195 52.1906543 46.34657227 51.3034668 47.01196289 C48.6628418 48.24243164 48.6628418 48.24243164 46.1159668 47.64477539 C42.84815985 45.77671378 39.92608294 43.57829984 36.9440918 41.28930664 C34.72854239 40.00241973 34.72854239 40.00241973 32.43237305 40.68774414 C28.36740721 42.96962905 24.62598799 45.63934529 20.8503418 48.36743164 C20.06208008 48.93075195 19.27381836 49.49407227 18.46166992 50.07446289 C16.52537349 51.45920822 14.59261539 52.84861792 12.6628418 54.24243164 C12.8794043 55.05067383 13.0959668 55.85891602 13.3190918 56.69165039 C13.5975293 57.7602832 13.8759668 58.82891602 14.1628418 59.92993164 C14.4412793 60.98567383 14.7197168 62.04141602 15.0065918 63.12915039 C16.13036997 68.46040756 16.13036997 68.46040756 15.6628418 71.24243164 C13.58081055 73.29711914 13.58081055 73.29711914 10.8503418 75.11743164 C9.95702148 75.73360352 9.06370117 76.34977539 8.14331055 76.98461914 C7.32475586 77.39969727 6.50620117 77.81477539 5.6628418 78.24243164 C4.1778418 77.74743164 4.1778418 77.74743164 2.6628418 77.24243164 C1.68310547 74.37280273 1.68310547 74.37280273 0.83081055 70.51586914 C0.67362045 69.82455399 0.51643036 69.13323883 0.35447693 68.42097473 C-0.15853985 66.15557032 -0.65389843 63.88666879 -1.1496582 61.61743164 C-1.8510544 58.49505433 -2.56112549 55.37466592 -3.27075195 52.25415039 C-3.44580261 51.47854263 -3.62085327 50.70293488 -3.8012085 49.90382385 C-5.28375195 43.36960126 -6.95914816 36.89675083 -8.7121582 30.42993164 C-10.77978181 22.73554894 -12.45393488 15.17621358 -13.3371582 7.24243164 C-11.8804905 6.09448158 -10.42176884 4.94913745 -8.9621582 3.80493164 C-7.74399414 2.84780273 -7.74399414 2.84780273 -6.5012207 1.87133789 C-2.80650483 -0.90970276 -2.80650483 -0.90970276 0 0 Z " fill="#FAFAFA" transform="translate(229.337158203125,165.757568359375)"/>
<path d="M0 0 C1.21411133 1.44262695 1.21411133 1.44262695 2.58203125 3.48828125 C3.09580322 4.24842529 3.6095752 5.00856934 4.13891602 5.79174805 C4.96734009 7.03952026 4.96734009 7.03952026 5.8125 8.3125 C6.98399272 10.05494458 8.15587935 11.79712438 9.328125 13.5390625 C10.23401367 14.89112793 10.23401367 14.89112793 11.15820312 16.27050781 C12.95439157 18.93240957 14.77586187 21.57463754 16.609375 24.2109375 C17.18840576 25.04584717 17.76743652 25.88075684 18.36401367 26.7409668 C19.46764859 28.3306643 20.57441129 29.91819655 21.68481445 31.50317383 C27.36897587 39.73568765 31.81781422 46.67019854 30 57 C26.58385679 66.58816666 18.42394002 72.47972571 9.76171875 77.2265625 C3.56807878 79.88275279 -2.3860839 79.84176959 -8.6875 77.8125 C-14.81075101 74.4620419 -18.8851514 70.28216642 -22.875 64.625 C-23.32335205 64.00012695 -23.7717041 63.37525391 -24.23364258 62.73144531 C-25.24658853 61.31335473 -26.2548409 59.89190399 -27.25927734 58.46777344 C-28.52313431 56.67603905 -29.79240625 54.88812043 -31.06494141 53.10253906 C-33.28135145 49.99121971 -35.48609389 46.87194979 -37.6875 43.75 C-38.40728027 42.73760254 -39.12706055 41.72520508 -39.86865234 40.68212891 C-40.53461426 39.72999512 -41.20057617 38.77786133 -41.88671875 37.796875 C-42.48701904 36.94448242 -43.08731934 36.09208984 -43.70581055 35.21386719 C-45 33 -45 33 -45 30 C-42.8125 28.17578125 -42.8125 28.17578125 -40 26.3125 C-39.071875 25.68988281 -38.14375 25.06726563 -37.1875 24.42578125 C-36.465625 23.95527344 -35.74375 23.48476562 -35 23 C-30.9411979 26.79647378 -27.88590775 30.82096799 -24.8125 35.4375 C-23.85001112 36.86008786 -22.88644621 38.28194822 -21.921875 39.703125 C-21.43783203 40.41791016 -20.95378906 41.13269531 -20.45507812 41.86914062 C-18.19962661 45.17209043 -15.88788135 48.43354591 -13.5625 51.6875 C-12.96175659 52.53235962 -12.96175659 52.53235962 -12.34887695 53.39428711 C-8.42882489 59.51682454 -8.42882489 59.51682454 -3 64 C1.1129031 64.67410653 4.61664135 64.75182535 8.3359375 62.73046875 C13.46725908 58.92984041 13.46725908 58.92984041 15.5 53.0625 C15.33102567 47.12425927 11.29713802 42.66901987 8 38 C6.87572659 36.38711975 5.75207913 34.77380308 4.62890625 33.16015625 C2.23091823 29.72138146 -0.17957219 26.29185051 -2.59765625 22.8671875 C-5.81283422 18.29771809 -8.92570984 13.66516684 -12 9 C-10.44216693 5.63446019 -9.21251578 4.16333661 -6 2.25 C-4.948125 1.60804688 -4.948125 1.60804688 -3.875 0.953125 C-2 0 -2 0 0 0 Z " fill="#FAFAFA" transform="translate(189,193)"/>
<path d="M0 0 C1.5078125 1.96875 1.5078125 1.96875 3.125 4.5 C3.66382813 5.3353125 4.20265625 6.170625 4.7578125 7.03125 C5.16773438 7.6809375 5.57765625 8.330625 6 9 C3.17015973 11.9746228 0.23934977 14.39997658 -3.125 16.75 C-4.42824219 17.67039063 -4.42824219 17.67039063 -5.7578125 18.609375 C-8 20 -8 20 -10 20 C-7.16575035 25.14289902 -4.04838333 29.92064106 -0.625 34.6875 C0.43263926 36.17423195 1.48991467 37.6612228 2.546875 39.1484375 C3.10310547 39.92928711 3.65933594 40.71013672 4.23242188 41.51464844 C7.37769554 45.93714649 10.50377877 50.37300654 13.625 54.8125 C14.22876465 55.66610107 14.8325293 56.51970215 15.45458984 57.39916992 C16.01871582 58.20201416 16.5828418 59.0048584 17.1640625 59.83203125 C17.66373535 60.54077393 18.1634082 61.2495166 18.67822266 61.97973633 C20 64 20 64 22 68 C18.7 70.31 15.4 72.62 12 75 C8.14165575 73.07082788 7.30763325 72.46623824 5.0390625 69.1328125 C4.49145264 68.33866943 3.94384277 67.54452637 3.37963867 66.72631836 C2.80060791 65.8678833 2.22157715 65.00944824 1.625 64.125 C0.38451495 62.31613162 -0.85638319 60.50754648 -2.09765625 58.69921875 C-2.73590332 57.76384277 -3.37415039 56.8284668 -4.03173828 55.86474609 C-5.99728573 53.00395053 -7.99066578 50.16498695 -9.99609375 47.33203125 C-10.63562988 46.42759277 -11.27516602 45.5231543 -11.93408203 44.59130859 C-13.16886578 42.84681947 -14.40546716 41.10361523 -15.64404297 39.36181641 C-16.2010791 38.57081543 -16.75811523 37.77981445 -17.33203125 36.96484375 C-17.82421143 36.2699585 -18.3163916 35.57507324 -18.82348633 34.85913086 C-20 33 -20 33 -21 30 C-27.24430328 33.33619986 -33.16769769 36.98770692 -39 41 C-40.00873016 39.73608512 -41.00671822 38.46359117 -42 37.1875 C-42.556875 36.47980469 -43.11375 35.77210938 -43.6875 35.04296875 C-45 33 -45 33 -45 30 C-42.78717454 28.25384584 -40.60705401 26.71821295 -38.25 25.1875 C-36.78697425 24.21081203 -35.32477432 23.2328862 -33.86328125 22.25390625 C-33.07904785 21.73199707 -32.29481445 21.21008789 -31.48681641 20.67236328 C-27.09408366 17.71828717 -22.76880273 14.66810662 -18.4375 11.625 C-17.60573242 11.04258545 -16.77396484 10.4601709 -15.91699219 9.86010742 C-15.1180957 9.3004126 -14.31919922 8.74071777 -13.49609375 8.1640625 C-12.73409668 7.63071289 -11.97209961 7.09736328 -11.18701172 6.54785156 C-9.75779073 5.53632432 -8.33705791 4.51266654 -6.92626953 3.47558594 C-2.19649288 0 -2.19649288 0 0 0 Z " fill="#F9F9F9" transform="translate(137,229)"/>
<path d="M0 0 C8.21766526 4.18320064 13.94046014 12.91830101 16.9765625 21.37890625 C18.02308896 26.91054613 16.75443656 31.54002885 13.9765625 36.37890625 C9.68843887 40.88454339 5.51874106 44.12468839 -0.7734375 44.75390625 C-7.86254896 44.50447455 -12.50230446 41.2452731 -17.2734375 36.19140625 C-23.16341001 29.07242373 -25.91979565 22.61428269 -25.609375 13.25390625 C-24.60297807 8.31585197 -21.78131668 5.54887199 -18.0234375 2.37890625 C-17.2809375 1.71890625 -16.5384375 1.05890625 -15.7734375 0.37890625 C-10.720479 -1.45853321 -5.16125421 -1.58424598 0 0 Z " fill="#252122" transform="translate(361.0234375,94.62109375)"/>
<path d="M0 0 C1.47363281 1.79394531 1.47363281 1.79394531 3.203125 4.328125 C3.84701172 5.26366211 4.49089844 6.19919922 5.15429688 7.16308594 C6.19166992 8.6911084 6.19166992 8.6911084 7.25 10.25 C8.70281374 12.3647972 10.15594472 14.47937649 11.609375 16.59375 C12.34349609 17.66625 13.07761719 18.73875 13.83398438 19.84375 C17.0283942 24.49854376 20.26052183 29.12650268 23.5 33.75 C24.07411621 34.57048828 24.64823242 35.39097656 25.23974609 36.23632812 C29.42543741 42.20786558 33.66756534 48.13372202 38 54 C36.66532324 57.0856141 35.34911605 58.84376111 32.625 60.8125 C32.03976563 61.25207031 31.45453125 61.69164062 30.8515625 62.14453125 C29 63 29 63 27.06933594 62.7890625 C24.39894962 61.77081231 23.63113795 60.5873542 22.0390625 58.23046875 C21.49209717 57.43390869 20.94513184 56.63734863 20.3815918 55.81665039 C19.8019165 54.94903076 19.22224121 54.08141113 18.625 53.1875 C17.37401954 51.35655105 16.12270793 49.52582831 14.87109375 47.6953125 C14.23155762 46.75204102 13.59202148 45.80876953 12.93310547 44.83691406 C10.47820455 41.2342431 7.97784048 37.66489639 5.47045898 34.09863281 C3.71649805 31.60374767 1.97100799 29.10310681 0.2265625 26.6015625 C-1.79743027 23.70414546 -3.84166602 20.82390955 -5.9140625 17.9609375 C-6.34549561 17.35822021 -6.77692871 16.75550293 -7.22143555 16.13452148 C-8.3478311 14.5626332 -9.48404756 12.99779504 -10.62109375 11.43359375 C-11.30365234 10.22896484 -11.30365234 10.22896484 -12 9 C-10.79216249 5.37648747 -9.70346858 4.84784764 -6.5625 2.8125 C-5.75941406 2.28269531 -4.95632812 1.75289063 -4.12890625 1.20703125 C-2 0 -2 0 0 0 Z " fill="#FAF9F9" transform="translate(86,265)"/>
<path d="M0 0 C0.495 0.309375 0.99 0.61875 1.5 0.9375 C7.01600438 3.28180186 15.04132651 3.98723584 21 3 C22.63169746 1.5299689 22.63169746 1.5299689 24 0 C24.66 0 25.32 0 26 0 C24.125 4.875 24.125 4.875 23 6 C22.59707032 12.17825512 23.77653517 17.95914243 25 24 C23.86820313 24.61488281 22.73640625 25.22976562 21.5703125 25.86328125 C20.0883327 26.6793081 18.60657326 27.49573526 17.125 28.3125 C16.37863281 28.71662109 15.63226563 29.12074219 14.86328125 29.53710938 C14.14785156 29.93349609 13.43242187 30.32988281 12.6953125 30.73828125 C12.03547363 31.09962158 11.37563477 31.46096191 10.69580078 31.83325195 C8.69523292 33.05516712 8.69523292 33.05516712 7 36 C6.690625 35.175 6.38125 34.35 6.0625 33.5 C3.44983599 28.31181886 -1.59978362 23.15817935 -7.14453125 21.26953125 C-9.22451705 20.93186854 -9.22451705 20.93186854 -12 21 C-11.01 19.515 -11.01 19.515 -10 18 C-9.04867187 17.83757812 -9.04867187 17.83757812 -8.078125 17.671875 C-5.71646306 17.14549676 -5.71646306 17.14549676 -4.296875 14.453125 C-3.78640625 13.39609375 -3.2759375 12.3390625 -2.75 11.25 C-1.96882812 9.67992187 -1.96882812 9.67992187 -1.171875 8.078125 C-0.03746694 5.09841316 0.25623922 3.14475404 0 0 Z " fill="#272324" transform="translate(145,119)"/>
<path d="M0 0 C7.56696099 6.75474643 7.56696099 6.75474643 8.42578125 10.5859375 C8.18184775 12.93329756 7.64665667 14.90346547 6.875 17.12890625 C6.71 18.24265625 6.545 19.35640625 6.375 20.50390625 C4.32522359 24.09101497 2.11194876 24.54617436 -1.73828125 25.68359375 C-8.02876083 26.85726752 -8.02876083 26.85726752 -11.44140625 24.58984375 C-20.31732357 16.34681793 -20.31732357 16.34681793 -22.125 12.12890625 C-21.7909972 7.91756658 -20.45321995 4.11356611 -19.125 0.12890625 C-17.3046875 -0.6015625 -17.3046875 -0.6015625 -15 -1.05859375 C-14.25492188 -1.21714844 -13.50984375 -1.37570313 -12.7421875 -1.5390625 C-4.34887062 -2.60388628 -4.34887062 -2.60388628 0 0 Z " fill="#FAFAFA" transform="translate(143.125,141.87109375)"/>
<path d="M0 0 C2.49391592 1.1457289 4.65800553 2.54796343 7 4 C7.93327269 16.77200962 7.93327269 16.77200962 4.625 21.125 C2.98046875 22.109375 2.98046875 22.109375 1 23 C0.19175781 23.39703125 -0.61648437 23.7940625 -1.44921875 24.203125 C-6.04813527 26.2654194 -9.03181078 27.55755128 -14 26 C-16.01953125 24.80859375 -16.01953125 24.80859375 -17.8125 23.4375 C-18.41707031 22.98246094 -19.02164063 22.52742188 -19.64453125 22.05859375 C-20.09183594 21.70925781 -20.53914062 21.35992187 -21 21 C-20.88382356 19.62422639 -20.75654223 18.24938955 -20.625 16.875 C-20.55539063 16.10929687 -20.48578125 15.34359375 -20.4140625 14.5546875 C-19.66201436 9.91469236 -19.12501705 6.92797065 -15.390625 3.84765625 C-14.35421875 3.25855469 -13.3178125 2.66945312 -12.25 2.0625 C-11.22390625 1.45535156 -10.1978125 0.84820312 -9.140625 0.22265625 C-5.48274076 -1.20137082 -3.7349469 -1.07443678 0 0 Z " fill="#FCFCFC" transform="translate(172,145)"/>
<path d="M0 0 C3.76000463 0.89913154 4.26420942 2.23086578 6.3125 5.4375 C8.94462963 9.94972222 8.94462963 9.94972222 8.69140625 12.6328125 C8.42199219 13.31085938 8.15257812 13.98890625 7.875 14.6875 C7.5140625 15.65945312 7.153125 16.63140625 6.78125 17.6328125 C3.07406651 26.01516628 3.07406651 26.01516628 -0.3125 27.9140625 C-2.62938984 28.43849365 -4.75419295 28.62342413 -7.125 28.6875 C-8.176875 28.914375 -9.22875 29.14125 -10.3125 29.375 C-13.79847399 28.52287302 -14.45529115 27.46683212 -16.5625 24.625 C-18.39597389 21.51922101 -19.10970233 19.89784293 -19.375 16.25 C-17.60234008 11.19791923 -14.96962935 5.53212935 -11.125 1.6875 C-9.17108056 1.38944449 -7.21352207 1.10344063 -5.24609375 0.9140625 C-2.94195091 0.70724859 -2.94195091 0.70724859 0 0 Z " fill="#FAFAFA" transform="translate(137.125,110.3125)"/>
<path d="M0 0 C4.62220886 0.59540318 7.44201216 0.99168972 11.45703125 3.4453125 C13.98711034 7.10300345 15.37517176 10.68533351 15.58203125 15.1328125 C13.84709633 18.69906762 11.85334588 21.3279448 8.45703125 23.4453125 C5.36930046 24.04918605 2.56726289 23.7727053 -0.54296875 23.4453125 C-1.25066406 23.46851562 -1.95835937 23.49171875 -2.6875 23.515625 C-4.73046875 23.5078125 -4.73046875 23.5078125 -8.54296875 22.4453125 C-12.33458842 18.44762654 -15.00029546 13.98583175 -15.54296875 8.4453125 C-13.6122515 -0.1306641 -7.82406338 -0.50794966 0 0 Z " fill="#FAFAFA" transform="translate(157.54296875,99.5546875)"/>
<path d="M0 0 C9.54385965 1.43157895 9.54385965 1.43157895 12.62109375 4.74609375 C15.70210748 10.89683545 16.46336154 18.31410265 15 25 C12.77931536 28.01263965 10.46103426 29.616885 7 31 C4.5 31.1875 4.5 31.1875 2 30 C1.00419922 29.56107422 1.00419922 29.56107422 -0.01171875 29.11328125 C-3.15930472 27.50275701 -5.45027453 26.19817714 -6.95703125 22.9140625 C-7.50682877 20.5962111 -7.79484763 18.37156141 -8 16 C-8.20625 14.845 -8.4125 13.69 -8.625 12.5 C-7.64301869 7.00090465 -3.88886786 3.8281043 0 0 Z " fill="#FAFAFA" transform="translate(175,116)"/>
<path d="M0 0 C4.02408469 1.41682837 7.13416919 3.34785768 10.5625 5.875 C11.49191406 6.55304688 12.42132813 7.23109375 13.37890625 7.9296875 C15.77474485 9.82207865 17.89622695 11.79227581 20 14 C18.61019248 15.13243576 17.21285323 16.25563119 15.8125 17.375 C15.03519531 18.00148437 14.25789062 18.62796875 13.45703125 19.2734375 C11.03120618 20.97807134 8.78690955 22.01987906 6 23 C2.57410605 15.82193648 0 7.99655193 0 0 Z " fill="#2A2627" transform="translate(232,184)"/>
<path d="M0 0 C0.99 0.33 1.98 0.66 3 1 C2.34 4.63 1.68 8.26 1 12 C0.01 11.67 -0.98 11.34 -2 11 C-1.34 7.37 -0.68 3.74 0 0 Z " fill="#3E3A3B" transform="translate(150,154)"/>
<path d="M0 0 C3 1 3 1 4.6875 4.0625 C5.120625 5.031875 5.55375 6.00125 6 7 C4.125 6.875 4.125 6.875 2 6 C0.75 2.9375 0.75 2.9375 0 0 Z " fill="#363233" transform="translate(141,112)"/>
<path d="M0 0 C1.98 0.66 3.96 1.32 6 2 C5.01 3.485 5.01 3.485 4 5 C2.02 4.01 0.04 3.02 -2 2 C-1.34 1.34 -0.68 0.68 0 0 Z " fill="#454243" transform="translate(170,142)"/>
</svg>
