<svg xmlns="http://www.w3.org/2000/svg" viewBox="0 0 1314.3 1500" xml:space="preserve"><path fill="#9D9C9C" d="M656.5.3c-.1.2-4.1 12.4-8.9 27.2s-10.8 33.4-13.4 41.2L629.7 83c-82.2-.4-87.2-.3-87.2.2 0 .3 4.4 3.7 9.7 7.5 5.3 3.9 12.7 9.3 16.5 12 3.7 2.7 8.9 6.4 11.4 8.3 2.7 1.9 9.5 6.9 15.3 11.1 5.8 4.2 12.2 8.9 14.2 10.2l3.7 2.7c-2.1 6-8.2 24.6-15 45.3-6.9 20.7-12.3 37.8-12.1 37.9.1.2 9-6.1 19.6-13.9 10.6-7.8 21.1-15.3 23.3-17 2.2-1.6 4.8-3.5 5.8-4.2 1.1-.8 6.3-4.6 11.7-8.5 5.4-3.9 10-7.2 10.3-7.4.3-.3 3.8 2.1 10.3 6.9 5.5 4 10.8 7.9 11.8 8.7 1 .8 6 4.4 10.9 8s14.7 10.8 21.8 15.9c7 5.1 13.5 9.9 14.3 10.5.9.6 1.7 1.1 1.8 1.1.2 0 .3-.3.3-.5 0-.3-5.3-16.7-11.7-36.4s-12.5-38.3-13.4-41.2c-.9-2.9-1.5-5.4-1.4-5.5.2-.1 4.3-3.1 9.1-6.6 4.9-3.6 12.4-9 16.8-12.1 4.4-3.1 10-7.2 12.6-9 2.6-1.9 6.6-4.8 9-6.6 2.4-1.8 7.3-5.4 10.9-7.9 3.6-2.7 7.8-5.7 9.3-6.8 1.8-1.2 2.7-2.1 2.4-2.4-.3-.3-10.9-.4-43.8-.3h-43.7c-9.3-28.9-15-46.8-18.7-58.4-3.8-11.6-7.1-21.9-7.4-22.8-.3-1-.7-1.8-.9-1.8-.3 0-.5.2-.7.3zM642 285.8c.9.1 2.6.1 3.6 0 1.1-.1.3-.2-1.7-.2s-2.8.1-1.9.2z"/><path fill="#0E8E3A" d="M636.9 285.9c-5.8.1-14.8.6-20.1.9-5.3.3-13.5.9-18 1.4-4.7.5-12.8 1.3-18.1 1.9-5.3.6-13.1 1.6-17.4 2.3-4.4.6-11.5 1.8-15.8 2.5-4.4.7-11.1 1.9-14.9 2.7-3.9.8-10.8 2.2-15.4 3.2-4.7 1.1-12 2.7-16.2 3.8-4.3 1-11.8 3-16.8 4.4-5 1.4-13.2 3.8-18.2 5.3-5.1 1.5-13.8 4.4-19.4 6.3s-13.8 4.8-18.3 6.5c-4.5 1.7-12.4 4.8-17.7 6.9-5.3 2.2-12.9 5.4-17.1 7.2-4.2 1.8-10.5 4.8-14.3 6.5-3.7 1.8-12.9 6.3-20.3 10.1-7.5 3.8-17.1 8.9-21.4 11.3-4.4 2.5-11.1 6.4-15 8.7-3.9 2.4-10.1 6.1-13.8 8.4-3.6 2.3-9.6 6.2-13.3 8.6-3.8 2.5-9.6 6.4-13 8.8-3.4 2.4-9 6.4-12.4 8.9-3.4 2.5-9 6.6-12.4 9.3-3.4 2.6-9.4 7.3-13.4 10.5-3.9 3.3-9.3 7.7-12 9.9-2.7 2.4-7.8 6.8-11.4 10-3.6 3.3-10.2 9.3-14.5 13.3s-12 11.5-17 16.5c-5 5.1-11.3 11.7-14.1 14.7-2.8 3-7.2 7.8-9.8 10.8-2.6 3-7.5 8.5-10.8 12.4-3.3 4-8.1 9.8-10.7 13-2.7 3.3-6.7 8.4-9.1 11.5-2.4 3.1-6.7 8.9-9.6 12.8-2.9 4-7.2 9.9-9.4 13.2-2.4 3.3-6.2 9-8.5 12.6-2.4 3.6-6.2 9.6-8.5 13.2-2.3 3.6-6 9.7-8.3 13.5-2.3 3.9-5.8 9.9-7.8 13.6-2.1 3.6-5.6 10-7.8 14.3-2.3 4.2-5.4 10.4-7 13.5-1.7 3.3-4.8 9.8-7 14.5-2.3 4.8-5.5 12-7.2 16-1.8 4.1-4.5 10.6-6.2 14.5-1.6 3.9-4.3 10.8-6 15.3-1.7 4.5-4.2 11.2-5.5 15-1.4 3.9-3.6 10.5-5.1 14.9-1.5 4.4-3.7 11.7-5.1 16.2-1.4 4.5-3.3 11.4-4.3 15.3-1.1 3.9-2.8 10.4-3.9 14.7-1.1 4.2-2.7 11.2-3.6 15.4-.9 4.3-2.4 11.2-3.2 15.5-.9 4.2-2.1 11.3-2.9 15.6-.8 4.4-1.9 12-2.7 16.9-.7 5-1.8 13.4-2.4 18.6-.6 5.3-1.5 13.7-1.8 18.6-.5 5-1 12.1-1.2 15.9-.3 3.7-.6 10.5-.8 15-.3 4.6-.4 15.9-.4 25 0 9.3.3 22 .6 28.4.4 6.5.9 15.5 1.2 20.1.3 4.7 1 12.8 1.5 17.9.6 5.2 1.5 13.5 2.1 18.3.7 4.9 1.8 13.3 2.7 18.6.9 5.4 2.4 14.2 3.4 19.6 1 5.4 2.8 14.1 3.9 19.4 1.2 5.3 3.1 13.6 4.3 18.4 1.2 4.9 3.5 13.2 4.9 18.3 1.5 5.2 4 13.5 5.5 18.5s4.2 13.1 6 18c1.8 5 4.5 12.6 6.1 16.8 1.6 4.3 4.5 11.7 6.4 16.4 2 4.8 5.4 12.9 7.6 17.9 2.4 5.1 5.9 12.9 8 17.4 2.2 4.5 5.6 11.4 7.7 15.4 2.1 4.1 5.8 11.1 8.3 15.6 2.5 4.6 6.8 12.1 9.5 16.8 2.7 4.7 7.2 12 9.8 16.2 2.7 4.3 7.2 11.3 10.1 15.6 3 4.4 7.8 11.4 10.8 15.6 3 4.3 8.1 11.2 11.4 15.5 3.2 4.2 8.7 11.3 12.2 15.6 3.6 4.3 9 11 12.3 14.8 3.3 3.9 8.4 9.8 11.5 13.2 3.1 3.4 9.9 10.8 15.3 16.4 5.4 5.6 11.4 11.9 13.5 13.9 2.2 2.1 7.2 6.9 11.3 10.6 4 3.8 10.4 9.5 14.1 12.8 3.8 3.3 10 8.7 13.9 12 4 3.3 9.9 8.3 13.4 10.9 3.4 2.7 17.1 13.3 30.4 23.6 13.3 10.3 24.3 18.6 24.5 18.5s-1.2-29.3-2.7-64.8c-1.7-35.5-3-65.6-2.9-66.9 0-1.3.3-2.5.5-2.6.3-.1 2.5 1.6 5.1 3.8 2.7 2.1 7.5 6.1 10.9 8.8 3.5 2.7 9 6.9 12.3 9.4 3.3 2.5 8.4 6.3 11.3 8.3 3 2.1 8.6 6 12.6 8.7 4 2.7 10.5 6.9 14.3 9.3 3.9 2.4 10.4 6.3 14.7 8.8 4.2 2.5 11.4 6.5 15.8 8.9 4.5 2.4 11.2 6 15 7.8 3.9 2 9.5 4.7 12.6 6.2 3.1 1.4 8.7 4 12.4 5.7 3.7 1.7 11.1 4.8 16.3 6.9 5.4 2.2 13.4 5.3 17.9 6.9 4.6 1.7 12.6 4.5 17.9 6.1 5.3 1.8 13.7 4.3 18.8 5.7 5.1 1.4 11.5 3.3 14.3 3.9 2.8.7 6.9 1.8 9.3 2.3 2.3.6 7.2 1.7 10.9 2.4 3.7.9 9.4 2.1 12.6 2.7 3.3.6 7.8 1.5 10.2 1.9 2.4.4 7.8 1.3 12 1.9 4.3.7 10.5 1.5 13.8 1.9 3.3.4 8.5 1.1 11.5 1.4 3 .4 9.9 1 15.4 1.3 5.5.4 14.9.9 20.8 1.2 6.6.3 18 .4 28.4.3 9.6-.1 20.2-.4 23.5-.6 3.3-.3 8.4-.6 11.4-.8 3-.3 8.9-.8 13-1.2 4.2-.4 10.2-1.1 13.5-1.5 3.3-.4 8.8-1.2 12.3-1.7 3.4-.6 9.2-1.5 12.8-2.1 3.6-.6 9.6-1.8 13.3-2.5 3.8-.8 11-2.3 16-3.5 5.1-1.2 12.7-3 16.9-4.1 4.2-1.2 11.5-3.2 16.2-4.5 4.7-1.5 12.5-3.9 17.3-5.5 4.9-1.6 12.7-4.3 17.3-6 4.7-1.8 11.8-4.5 15.9-6 4-1.7 10.5-4.5 14.4-6.2 3.9-1.8 9.8-4.4 13-5.9 3.2-1.5 10.6-5.2 16.5-8.2 5.9-3 15-7.8 20.1-10.7 5.1-3 12.8-7.4 16.9-9.9 4.2-2.5 11.8-7.4 17.1-10.9 5.3-3.6 11.9-8.1 14.7-10 2.9-2 7.1-5.1 9.5-6.8 2.4-1.8 6.5-5 9.2-7 2.7-2.1 6.8-5.4 9-7.2 2.3-1.9 4.3-3.6 4.5-3.7.3-.2.3 21.4.3 64.6-.2 35.7-.1 64.9.1 64.9s10.6-7.8 23.2-17.3c12.6-9.6 26-19.8 29.8-22.7 3.9-3 10.2-8.1 14.2-11.4 4.1-3.3 10.2-8.5 13.8-11.6 3.6-3.2 9.1-8.1 12.4-11.1 3.3-3.1 9.8-9.3 14.4-13.8 4.7-4.5 11.1-11 14.3-14.3s9-9.3 12.6-13.4c3.7-4.1 9.6-10.8 13.2-14.9 3.6-4.2 9.1-10.8 12.3-14.8 3.3-4 8.7-10.8 11.9-15 3.3-4.3 8.8-11.7 12.2-16.5 3.4-4.8 8.5-12.1 11.2-16.2 2.8-4.2 6.9-10.3 9-13.8 2.2-3.4 6.2-9.9 8.9-14.3s7.7-13.1 11.1-19.2c3.4-6.2 9.2-17.2 12.9-24.7 3.8-7.5 8.7-17.7 11-22.9 2.3-5.2 6-13.8 8.1-19 2.2-5.3 5.4-13.2 7-17.5 1.7-4.4 4.4-12 6.1-17 1.8-5 4.5-13.3 6.2-18.6 1.7-5.3 4.2-13.8 5.7-18.8 1.5-5.1 3.6-12.9 4.8-17.5 1.2-4.6 3.1-12.9 4.3-18.6 1.3-5.7 3-14.4 4-19.4.9-5 2.4-12.8 3-17.4.8-4.5 2-12.6 2.7-18 .8-5.4 1.8-14.1 2.3-19.2.6-5.1 1.3-14 1.8-19.5.4-5.6.9-13.7 1.2-17.9.3-4.3.6-16.1.7-26.4.1-11.4 0-22.2-.3-28-.3-5.2-.7-13.7-1-18.8-.3-5.2-.9-13.1-1.3-17.5-.4-4.5-1.2-11.9-1.8-16.4-.6-4.6-1.5-12.4-2.3-17.4-.7-5-1.8-12.2-2.4-16-.7-3.9-1.8-10.5-2.7-14.9-.9-4.4-2.4-11.7-3.4-16.4-1-4.7-2.8-12.3-4-16.9-1.2-4.7-3-11.9-4.2-16-1.2-4.2-2.8-9.9-3.6-12.6-.8-2.8-2.8-9.2-4.4-14.1-1.6-5-4.2-13-6-17.9-1.8-4.8-4.4-12.1-6-16.2-1.6-4.1-4.3-10.8-6-15-1.8-4.3-4.6-11.1-6.4-15.1-1.8-4.1-4.5-10.2-6.2-13.8-1.7-3.6-4.7-9.7-6.7-13.8-2.1-4-5.3-10.4-7.2-14.1-2.1-3.7-5.4-10-7.6-13.9-2.2-3.9-5.8-10.3-8.1-14.1-2.4-3.9-6-9.9-8.2-13.4-2.2-3.5-6-9.4-8.4-13.2-2.5-3.8-6.6-9.9-9.2-13.5-2.7-3.8-6.8-9.6-9.3-13-2.5-3.5-6.7-9.1-9.4-12.6-2.7-3.6-7.1-9.1-9.8-12.4-2.7-3.3-7.1-8.7-9.8-11.9-2.7-3.3-7.7-9-11.1-12.8-3.4-3.9-9.3-10.3-13-14.4s-10.8-11.1-15.5-15.8c-4.8-4.7-12-11.7-16.1-15.5-4.2-3.9-9.8-8.9-12.4-11.3-2.7-2.4-8-6.9-11.7-10-3.8-3.2-9-7.5-11.7-9.6-2.7-2.2-7.5-6-10.5-8.4-3.2-2.4-8.7-6.5-12.3-9.2-3.6-2.7-9.9-7.2-13.9-9.9-4.1-2.8-10.2-7-13.8-9.3-3.6-2.3-9.6-6.2-13.5-8.7-3.9-2.5-10.2-6.3-13.9-8.5-3.7-2.2-9.6-5.6-13.2-7.5-3.6-2-9.3-5.1-12.8-7-3.6-1.9-10.2-5.4-14.9-7.7-4.7-2.4-11.4-5.6-14.8-7.2-3.6-1.7-10.3-4.7-15.1-6.8-4.8-2.1-12.8-5.4-17.8-7.5-5.1-2.1-12.9-5.1-17.3-6.7-4.5-1.7-12.9-4.7-18.8-6.6-6-2.1-15-4.9-20.1-6.4-5.2-1.6-12.6-3.8-16.5-4.8-3.9-1.1-10.5-2.8-14.7-3.9-4.2-1-11.7-2.8-16.8-3.9-5.1-1.2-12.9-2.7-17.3-3.6-4.5-.9-11.7-2.1-16.2-2.8-4.5-.8-11.7-1.8-16.2-2.5-4.5-.6-11.7-1.6-16.2-2.1s-12-1.2-16.6-1.7c-4.6-.4-12.8-1-18-1.4-5.3-.3-15.4-.8-22.5-.9-7.2-.3-16.2-.4-20.1-.4-4.1-.2-12.1 0-17.9.1z"/><path fill="#9D9C9C" d="M668.5 285.8c1 .1 2.6.1 3.4 0 .8-.1-.1-.2-1.9-.2-1.9 0-2.5.1-1.5.2z"/><path fill="#FEFEFE" d="M639.9 306.3c-6.4.1-16 .6-21.4.9-5.4.3-13.3.9-17.7 1.4-4.4.4-11.8 1.2-16.5 1.7-4.8.6-12.6 1.6-17.5 2.3-4.8.7-12 1.8-15.9 2.4-4 .7-10.3 1.8-14.1 2.6-3.9.7-11.1 2.2-16.2 3.3-5.1 1.2-12.3 2.8-16.2 3.8-3.9 1-10.1 2.7-13.9 3.6-3.9 1.1-10.7 3-15.3 4.4-4.5 1.4-11.4 3.5-15.2 4.8-3.9 1.3-10.8 3.6-15.3 5.2-4.6 1.7-11.1 4.1-14.7 5.4s-9.7 3.8-13.8 5.5c-4 1.7-10.8 4.5-15 6.4-4.2 1.9-10.8 4.8-14.5 6.6-3.7 1.8-12.4 6-19.3 9.6-6.9 3.6-16.2 8.4-20.5 10.9-4.4 2.4-10.6 6-13.9 8.1-3.3 2-9.4 5.7-13.5 8.3-4.2 2.6-10.6 6.8-14.3 9.3-3.8 2.5-9.6 6.5-13 8.8-3.4 2.4-10.8 7.8-16.3 12-5.7 4.2-13.2 10-16.8 12.9-3.6 3-9.5 7.8-13 10.7-3.5 3-9.3 8-12.8 11.1-3.5 3.2-9.3 8.5-12.9 11.9-3.6 3.4-10.2 9.9-14.7 14.3-4.5 4.5-11.3 11.6-15.3 15.9-3.9 4.2-9.1 9.9-11.5 12.6-2.4 2.7-6.2 7.2-8.5 9.9s-6.6 7.9-9.6 11.7-7.5 9.4-10 12.6c-2.5 3.2-6.6 8.7-9 12-2.5 3.5-6.6 9.3-9.3 13-2.6 3.8-6.6 9.6-8.7 13-2.3 3.4-5.7 8.7-7.5 11.7-1.8 3-5.4 8.7-7.7 12.6-2.4 3.9-6.3 10.8-8.7 15-2.4 4.4-6 11-8 14.7-2.1 3.7-4.7 8.9-6 11.5-1.4 2.6-4.1 8.4-6.2 12.8-2.1 4.5-5.1 11.1-6.8 14.9-1.7 3.7-4.4 10.1-6 14.1-1.6 4-4.3 10.9-6 15.3-1.7 4.3-4.2 11.1-5.6 15-1.5 3.9-3.6 10.3-4.9 14.1-1.2 3.9-3.3 10.4-4.5 14.5-1.2 4.2-3.3 11-4.4 15.3-1.2 4.2-3 11.2-4 15.4-1.1 4.3-2.7 11.6-3.8 16.2-1 4.7-2.5 12-3.3 16.3-.9 4.4-2.1 11.1-2.7 14.9-.6 3.9-1.7 10.5-2.3 14.7-.6 4.2-1.6 11.4-2.1 15.8-.6 4.5-1.3 11.7-1.8 16.2-.4 4.5-.9 10.7-1.2 13.9-.3 3.3-.6 11.5-.9 18.4-.3 7-.6 19.1-.6 27 0 7.8.3 19.5.6 25.9.3 6.5.9 15.3 1.2 19.8.3 4.5 1 12.2 1.5 17.1.6 5 1.5 13.2 2.1 18.1.6 5 1.8 13.4 2.7 18.6.9 5.3 2.3 13.7 3.2 18.6 1 5 2.6 12.9 3.6 17.7 1.1 4.8 2.9 12.8 4.2 17.7 1.3 5 3.4 12.9 4.7 17.7 1.4 4.8 3.6 12.3 4.9 16.6 1.4 4.4 4 12.3 5.8 17.7 1.9 5.4 4.7 13.3 6.3 17.5 1.6 4.3 4.3 11.3 6.1 15.6 1.8 4.4 4.8 11.4 6.6 15.6 1.9 4.2 5.4 12 7.8 17.1 2.4 5.2 6.5 13.3 8.9 18 2.5 4.8 6.2 11.7 8.2 15.5 2.1 3.7 5.7 10.2 8.3 14.5 2.5 4.2 6.6 11 9.1 15 2.5 4.1 6.9 10.9 9.7 15.3 2.9 4.4 7.5 11.1 10.3 15 2.9 4 7.7 10.6 10.8 14.7 3.1 4.1 8.4 10.9 11.7 15 3.3 4.1 8.8 10.8 12.3 14.9 3.4 4.1 9 10.5 12.5 14.3 3.5 3.9 10.2 11.1 14.9 16 4.8 5.1 12.6 12.9 17.4 17.5 4.8 4.6 12.6 11.7 17.1 15.8s11.1 9.8 14.4 12.6c3.5 3 9.1 7.5 12.5 10.2 3.4 2.7 9.8 7.7 14.1 11.1l7.9 6.2c.1-2.3-.9-26.6-2.3-55.6-1.3-29-2.4-52.7-2.4-52.7 0-.1 6.3-1.3 14.1-2.8l14-2.7c10.1 8.5 16.2 13.5 20.1 16.7 3.9 3.2 9.6 7.5 12.4 9.7 3 2.2 7.5 5.6 10.2 7.5 2.7 1.9 8.7 6 13.2 9 4.6 3.1 11.4 7.5 15 9.8 3.8 2.4 9.2 5.7 12 7.4 3 1.8 7.8 4.5 10.8 6.1s8.2 4.5 11.5 6.3c3.3 1.8 8.1 4.2 10.5 5.5 2.5 1.2 8.1 3.9 12.4 6 4.4 2 11.4 5.1 15.6 6.9 4.3 1.8 10.6 4.5 14.1 5.9 3.6 1.3 9.6 3.7 13.4 5.1 3.9 1.4 10.8 3.9 15.6 5.4 4.8 1.6 12.1 3.9 16.4 5.1 4.2 1.3 12.3 3.5 18 4.9 5.7 1.5 13.2 3.3 16.5 4.1 3.5.8 9.6 2.1 13.8 2.8 4.2.8 11.1 2.1 15.6 2.8 4.5.8 11.3 1.8 15 2.3 3.9.6 10.2 1.3 14.1 1.8 3.9.5 10.4 1 14.3 1.4 3.9.3 10.2.8 13.9 1 4.3.3 14.7.6 28.4.6 13.4 0 24.5-.3 29.2-.6 4.2-.3 10.6-.7 14.4-1.1 3.9-.3 9.3-.8 12.3-1.2 2.9-.3 7.2-.8 9.6-1.2 2.4-.3 7.5-1 11.1-1.5 3.8-.6 9.3-1.4 12.4-1.9 3.1-.6 8.7-1.5 12.4-2.3 3.8-.8 10.6-2.2 15.3-3.3 4.7-1 12.1-2.8 16.5-3.9 4.5-1.2 10.7-2.9 13.9-3.8 3.3-1 8.1-2.4 10.8-3.3 2.7-.8 7-2.2 9.6-3 2.7-.9 8.4-2.9 12.8-4.5 4.5-1.6 10.3-3.8 13-4.8 2.7-1.1 7.5-3 10.8-4.3 3.2-1.4 8.9-3.9 12.6-5.5 3.8-1.7 10.7-4.8 15.4-7.2 4.8-2.3 11.9-5.8 15.8-7.9 4-2.1 9.4-5 12-6.5 2.7-1.5 7.4-4.2 10.4-6 3-1.8 8.6-5.1 12.4-7.5 3.9-2.4 10.2-6.5 14.1-9.1 3.9-2.7 9.3-6.3 11.8-8.1 2.7-1.8 8.9-6.5 13.9-10.3 5.1-3.9 12.1-9.3 15.6-12.3 3.6-2.9 7.6-6.3 9-7.5 1.9-1.6 2.9-2.1 3.4-2.1.5.2 5.8 1.2 11.9 2.4l11.1 2.2c-.4 83.9-.4 108.2-.3 108.2s3.2-2.2 6.6-4.8c3.6-2.7 9.3-7 12.6-9.7 3.4-2.7 9.4-7.5 13.4-10.7 3.9-3.3 10.5-8.7 14.4-12.3 4.1-3.6 10.8-9.6 15-13.6 4.3-3.9 12.3-11.7 17.9-17.3 5.6-5.7 13.5-14 17.7-18.5 4.2-4.6 10.4-11.5 13.8-15.4 3.4-4 8.8-10.4 12-14.4 3.3-3.9 8.4-10.4 11.4-14.3s8.2-11.1 11.7-15.9c3.4-4.8 8.4-11.9 11-15.8 2.7-3.9 7-10.5 9.6-14.7 2.7-4.2 6.8-11 9.3-15.1 2.4-4.2 6.8-11.7 9.6-16.9 3-5.2 8.7-16.4 12.9-24.9 4.2-8.5 9.3-19.2 11.4-23.9 2.1-4.7 5.2-12 7-16.4 1.8-4.4 4.8-11.9 6.6-16.8 1.9-4.9 4.6-12.6 6.2-17.1 1.6-4.5 4-11.8 5.4-16.2 1.4-4.4 3.7-12 5.1-17 1.3-5 3.6-13.3 5.1-18.6 1.4-5.3 3.3-13.2 4.2-17.7 1-4.5 2.7-12.4 3.6-17.7 1.1-5.3 2.7-14.4 3.6-20.1.9-5.8 2.2-14.4 2.8-19.2.7-4.8 1.5-12.3 2-16.8.4-4.5 1-11.4 1.3-15.3.3-3.9.8-9.9 1-13.4.2-3.4.6-13.4.8-22.2.3-11.1.3-20.4 0-30.4-.3-7.8-.7-18.3-1-23.1-.3-4.9-.9-12.9-1.3-17.7-.5-4.9-1.2-12.6-1.8-17-.5-4.5-1.5-12.2-2.2-17.1-.8-5-1.8-11.7-2.4-14.9-.6-3.2-1.7-9.4-2.5-13.8-.9-4.3-2.4-12-3.6-17.1-1.2-5.1-2.9-12.7-3.9-17-1.1-4.2-2.7-10.6-3.7-14.1-.9-3.6-3-10.5-4.5-15.6s-4-12.7-5.4-16.9c-1.4-4.3-3.6-10.4-4.7-13.6-1.2-3.2-3-8.4-4.2-11.4-1.2-3.2-3.6-9.4-5.5-14-1.8-4.5-4.7-11.4-6.3-15-1.7-3.8-4.6-10.1-6.4-14.1-1.9-4.1-4.9-10.3-6.7-13.9-1.8-3.7-5.1-10-7.3-14.1-2.1-4.2-5.8-11-8.1-15.1-2.4-4.2-6-10.3-8-13.8-2.1-3.4-5.7-9.3-8.1-13.2-2.4-3.9-6-9.6-8.2-12.8-2.1-3.3-5.9-8.7-8.2-12.1-2.4-3.4-6.4-9-8.9-12.4-2.5-3.4-6.6-8.8-9-12-2.5-3.3-6.6-8.5-9.3-11.7-2.6-3.3-7-8.6-9.8-11.9-2.8-3.3-7.2-8.4-9.8-11.4-2.7-2.9-7.9-8.7-11.7-12.8-3.9-4.2-11.6-12-17.1-17.5-5.6-5.5-12.4-12.1-15.2-14.7-2.8-2.6-6.7-6.2-8.7-7.9-2-1.8-7-6.2-11.3-9.8-4.2-3.6-10.2-8.7-13.3-11.1-3.2-2.5-8.6-6.8-12.1-9.4-3.5-2.7-9.2-6.9-12.6-9.5-3.5-2.5-8.2-5.9-10.5-7.5-2.4-1.7-8.1-5.6-12.8-8.7-4.7-3.2-11.3-7.5-14.7-9.6-3.5-2.2-9.5-5.8-13.4-8.1-3.9-2.4-10.9-6.3-15.4-8.9-4.6-2.6-13.2-7.2-19.2-10.2-6-3.1-14.1-7.1-17.9-8.9-3.9-1.8-10.9-5-15.8-7.2-4.9-2.1-12.4-5.4-16.8-7.1-4.3-1.8-10.5-4.2-13.5-5.4-3.1-1.2-9.6-3.6-14.4-5.3-4.9-1.8-12.1-4.2-16-5.4-3.9-1.3-10-3.2-13.5-4.2-3.6-1-9.9-2.8-14.1-4-4.2-1.2-11.5-3-16.2-4.2-4.7-1.2-11.6-2.8-15.4-3.6-3.9-.9-10.5-2.2-14.7-3-4.2-.9-10.8-2.1-14.7-2.7-3.9-.6-11-1.8-15.8-2.4-4.9-.7-12.8-1.8-17.5-2.3-4.8-.6-12.3-1.3-16.8-1.8-4.5-.4-12.2-1-17.3-1.3-5.1-.3-15.9-.8-24.2-1s-16.2-.3-17.5-.3c-1 .8-7.3.9-13.8 1.2z"/><path fill="#0E8E3A" d="M633.8 320c-1.6.1-7.5.4-13.2.7-5.7.3-14.3.9-19 1.4-4.8.4-12.3 1.2-16.8 1.8-4.5.5-11.1 1.4-14.8 1.9-3.8.6-9.9 1.5-13.5 2.1-3.8.6-10.8 1.9-15.8 2.9-5 .9-13.3 2.7-18.5 3.8-5.1 1.2-12.4 2.9-16.2 3.8-3.7 1-9.6 2.5-12.9 3.4l-12.6 3.6c-3.6 1.1-9.6 3-13.5 4.2-3.9 1.2-11.1 3.7-16 5.4-4.8 1.8-12 4.4-15.9 5.9-3.9 1.5-10.5 4.1-14.7 5.8s-10.2 4.3-13.4 5.7c-3.3 1.4-9.3 4.2-13.5 6.1-4.2 2-10.1 4.8-13 6.2-2.9 1.5-8.7 4.5-12.8 6.6-4.1 2.2-10.5 5.5-14 7.5-3.6 2-9.3 5.3-12.8 7.3-3.6 2.1-9.6 5.8-13.4 8.2-3.8 2.4-9.6 6.2-12.9 8.3-3.3 2.2-8.8 5.9-12.3 8.3-3.4 2.4-9 6.3-12.4 8.8-3.4 2.6-8.3 6.2-10.9 8.1-2.6 2.1-7.7 6-11.3 8.9-3.6 3-9.4 7.7-12.8 10.5-3.4 3-9.2 8-12.8 11.2-3.6 3.2-9.3 8.4-12.6 11.5-3.3 3.2-8.3 7.9-11 10.6-2.7 2.7-7.8 7.8-11.2 11.4-3.5 3.6-8.9 9.4-12 12.8-3.1 3.5-8.7 9.8-12.4 14.1-3.8 4.4-8.9 10.5-11.5 13.8-2.6 3.2-6.9 8.7-9.6 12.3-2.7 3.5-6.9 9.2-9.4 12.6-2.5 3.5-6.1 8.4-7.9 11.1-1.9 2.7-5.4 8-7.9 11.7-2.5 3.8-6.7 10.2-9.3 14.4-2.6 4.2-6.5 10.6-8.7 14.3-2.2 3.8-5.5 9.6-7.4 12.9-1.9 3.3-5.1 9.3-7.2 13.2s-5 9.6-6.5 12.6-4.4 9-6.3 13.2c-2 4.3-4.9 10.8-6.6 14.5s-4.9 11.4-7.1 16.9c-2.3 5.7-5.3 13.2-6.6 17-1.4 3.8-4 11.3-5.9 16.8-1.8 5.5-4.5 13.8-6 18.6-1.5 4.8-3.6 12.2-4.8 16.5s-3 11.4-4 15.5c-1 4.2-2.5 10.8-3.4 14.7-.9 3.9-2.1 10.2-2.8 13.8-.7 3.6-2 10.7-2.8 15.6-.9 5-2.1 12.8-2.7 17.3-.7 4.6-1.6 11.9-2.1 16.2-.5 4.4-1.2 11.1-1.5 14.9-.3 3.9-.9 10.9-1.2 15.8-.3 4.9-.8 12.9-1 17.9-.2 5-.4 13.5-.4 18.9 0 5.4.3 15.1.4 21.6.3 6.5.8 16.8 1.2 22.9.5 6.2 1.2 14.7 1.6 19 .4 4.4 1.4 12.6 2.1 18.3.8 5.7 1.9 14.1 2.7 18.6.8 4.6 2.1 12 2.9 16.6.9 4.5 2.4 12.1 3.3 16.8 1.1 4.7 2.8 12.3 4 17.1 1.2 4.8 3 12 4.2 16.2 1.2 4.2 3.5 12 5.1 17.3 1.6 5.4 4.1 13.1 5.4 17 1.4 3.9 3.9 11.1 5.7 15.8 1.8 4.8 4.6 12.1 6.3 16.2 1.7 4.1 4.6 11.3 6.6 15.8 2 4.6 5 11.2 6.6 14.7 1.7 3.5 5 10.2 7.3 14.8 2.4 4.7 5.8 11.6 7.8 15.3 2 3.8 5.9 10.9 8.7 15.9 2.9 5 7.2 12.3 9.7 16.4 2.5 4 6.3 10.1 8.4 13.4 2.1 3.3 6.1 9.3 8.8 13.2 2.7 3.9 7.2 10.3 9.9 14.1 2.8 3.9 7.4 9.9 10.2 13.5 2.9 3.6 8.1 10.2 11.6 14.5 3.6 4.4 9 10.8 12 14.3 3.1 3.6 8.4 9.4 11.7 13 3.3 3.7 10.5 11.2 16 16.8s13.2 13.2 17.3 16.9 10.8 9.9 15 13.6c4.2 3.8 10.5 9.2 14.1 12.1l6.5 5.4c.1-4.2-.8-24.4-1.8-47.6l-2.1-42.1c22.8-4.2 43-8 59.8-11.1 16.8-3.1 30.7-5.8 31.1-6 .5-.3-.4-1.1-3.9-4-2.6-2.1-7.5-6.3-11.1-9.4s-9.3-8.4-13-11.7c-3.6-3.4-9.7-9.3-13.5-13.2-3.9-3.9-8.9-9.3-11.3-11.8-2.4-2.7-6.6-7.4-9.4-10.6-2.8-3.2-6.7-7.8-8.7-10.2-2.1-2.4-5.7-7-8.4-10.3-2.6-3.4-6.6-8.7-9-11.9-2.4-3.3-7.4-10.5-11.1-16-3.8-5.7-8.7-13.2-11-17-2.3-3.7-5.8-9.7-7.9-13.4-2.1-3.6-5.1-9.1-6.8-12.2-1.7-3.2-5.3-10.4-8-16-2.8-5.7-6.4-13.7-8.2-17.7-1.8-4-4.3-10.2-5.7-13.5-1.4-3.5-3.7-9.6-5.2-13.8-1.5-4.2-3.9-10.9-5.2-15-1.4-4.2-3.6-11.4-4.9-16-1.4-4.7-3.3-11.9-4.4-16-1.1-4.2-2.6-10.7-3.4-14.5-.9-3.9-2.1-10.2-2.9-14.1-.7-3.9-1.8-10.5-2.4-14.5-.6-4.1-1.6-10.7-2.1-14.7-.6-4.1-1.2-10.2-1.5-13.6-.3-3.4-.8-8.7-1-11.7-.1-3-.6-9.2-.8-13.8-.1-4.5-.4-14.4-.4-22 0-7.5.3-17.1.4-21.3.3-4.2.7-10.8 1-14.9.3-4.1.9-9.9 1.2-13.2.3-3.3 1.1-9 1.5-12.9.6-3.9 1.4-9.7 1.9-13.2.6-3.4 2-11.2 3.2-17.3 1.2-6.2 3-14.2 3.9-17.9.9-3.8 2.5-10.2 3.6-14.4 1.2-4.2 3-10.5 4.1-14.3 1.2-3.8 3.3-10.6 4.9-15.3 1.6-4.7 3.9-11.2 5.1-14.5 1.3-3.3 3.4-8.7 4.7-11.9 1.3-3.2 3.6-8.5 5.1-11.9 1.5-3.3 3.9-8.7 5.4-11.8 1.5-3.3 3.7-7.9 5-10.4 1.2-2.5 4.5-8.8 7.4-13.9 2.8-5.2 7.6-13.7 10.7-18.9 3.1-5.2 8.2-13.3 11.4-18 3.2-4.8 8.2-12.1 11.1-16.2 3-4.2 7.2-9.9 9.4-12.6 2.2-2.8 5.8-7.4 8.1-10.2 2.4-2.8 5.7-6.9 7.5-9 1.9-2.2 5.4-6.2 7.8-8.9s7-7.7 10.2-11.1c3.3-3.5 9.8-9.9 14.5-14.5 4.8-4.6 10.9-10.3 13.5-12.7 2.7-2.4 7.1-6.3 9.8-8.5s7.5-6.3 10.8-8.8c3.2-2.6 9.4-7.3 13.7-10.5 4.4-3.3 10.4-7.6 13.4-9.7 3-2.1 7.5-5.1 9.9-6.7 2.5-1.7 6.8-4.4 9.5-6 2.7-1.8 7.2-4.5 9.9-6.1 2.8-1.6 8.4-4.8 12.4-7.1 4.1-2.2 12.4-6.6 18.6-9.7 6.2-3.1 14.7-7.2 19-9 4.2-1.9 10.6-4.6 14.3-6.1 3.6-1.5 9.2-3.6 12.4-4.8 3.2-1.2 9.4-3.4 13.7-4.9 4.4-1.5 11.2-3.7 15.3-4.9 4.1-1.2 10.8-3.2 14.9-4.3 4.2-1.2 10.9-2.9 15-3.8 4.2-1 11.7-2.6 16.7-3.6 5.1-1.1 13.2-2.5 17.9-3.3 4.8-.7 12-1.8 16.2-2.3 4.2-.6 11.4-1.3 16.2-1.8 4.8-.4 11.4-.9 14.9-1.2 4.1-.3 14-.5 28.7-.5 15 0 24.7.1 29 .5 3.5.3 9.4.8 13.2 1.1 3.7.3 9.7.9 13.3 1.3 3.7.5 9.6 1.2 13.4 1.8 3.8.6 10.1 1.6 14.1 2.3 4 .7 11.7 2.2 17.1 3.3 5.4 1.2 12.6 2.8 16 3.6 3.4.9 9 2.3 12.4 3.3 3.4 1 9.9 2.9 14.3 4.2 4.5 1.4 11.7 3.7 16 5.2 4.3 1.5 10.8 3.9 14.3 5.2 3.6 1.4 8.9 3.6 11.8 4.8 3 1.2 7.8 3.3 10.5 4.5 2.9 1.3 7.8 3.6 11 5 3.2 1.5 9.5 4.6 13.9 6.9 4.5 2.3 11.1 5.8 14.7 7.8 3.6 2.1 8.9 5.1 11.7 6.7 2.8 1.7 7.6 4.6 10.7 6.5 3.2 2 8.5 5.4 11.9 7.7 3.4 2.3 8.6 5.9 11.5 7.9 2.9 2.1 7.6 5.6 10.5 7.8 2.9 2.2 8.1 6.2 11.4 8.9 3.5 2.8 8.6 7 11.5 9.5 2.9 2.4 7.4 6.4 9.9 8.7 2.7 2.4 8 7.4 11.9 11.1 3.9 3.8 10.5 10.4 14.6 14.7 4.2 4.3 9.7 10.4 12.5 13.5 2.7 3.1 7.3 8.4 10.2 11.9 2.9 3.4 7.5 9.2 10.3 12.8 2.9 3.6 7.8 10.2 10.8 14.5 3.2 4.4 7.7 11 10.2 14.7 2.6 3.7 6.6 10.1 9.1 14.1 2.5 4.1 6.3 10.5 8.4 14.4 2.2 3.9 5.4 9.6 7.2 12.8 1.8 3.3 5.3 10.3 8 15.9 2.7 5.5 6.3 13.2 8.1 17.3s4.2 9.8 5.4 12.8c1.2 3 3.9 10.1 6 15.6 2.1 5.7 4.8 13.8 6.2 18.1 1.4 4.4 3.3 10.6 4.2 13.9.9 3.3 2.7 10 4 14.9 1.2 4.9 2.9 12 3.7 15.8.8 3.9 2.3 11.2 3.3 16.4 1 5.2 2.2 12.9 2.8 17.1.6 4.3 1.5 11 1.9 14.9.4 4 1.1 10.2 1.4 14 .3 3.7.8 9.8 1 13.5.3 3.8.5 12.9.6 20.5.2 8.5.1 17.7-.3 24.1-.3 5.7-.7 13.5-1 17.5-.3 3.9-.9 10.2-1.3 14.1-.4 3.9-1.2 10.2-1.8 14-.6 3.9-1.4 10-2.1 13.8-.6 3.7-1.7 9.4-2.3 12.6-.6 3.2-1.8 9-2.7 12.8-.9 3.9-2.2 9.8-3.1 13.2-.9 3.5-2.7 10.2-4 14.9-1.4 4.7-3.9 13.2-5.7 18.6-1.8 5.5-4.6 13.5-6.3 17.7-1.6 4.2-4 10.3-5.3 13.5-1.3 3.3-3.6 8.6-5.1 11.9-1.5 3.3-3.7 8.4-5.1 11.3-1.4 3-3.9 8.1-5.6 11.5-1.7 3.4-4.9 9.5-7.1 13.5-2.1 4.1-5.6 10.2-7.6 13.6-2 3.4-5.2 8.7-7 11.7-1.9 3-4.9 7.8-6.7 10.5-1.9 2.8-5.2 7.8-7.5 11.1s-6.1 8.7-8.4 11.9c-2.4 3.2-6.6 8.7-9.4 12.3-2.9 3.5-6.8 8.4-8.7 10.7-2 2.4-5.4 6.4-7.5 8.9-2.2 2.5-7.1 7.9-11 12-3.9 4.2-10.7 11.1-15.2 15.5-4.6 4.4-10.3 9.9-12.8 12.1-2.5 2.3-7.3 6.5-10.8 9.4-3.4 3-7.9 6.7-10.1 8.4-2.1 1.8-3.9 3.3-3.9 3.6 0 .2 9.3 2.1 20.6 4.3 11.4 2.2 30.6 6 42.7 8.4l22.2 4.5.4 91.2c10.5-8.5 16.3-13.3 19.6-16.2 3.3-2.8 9.7-8.5 14.2-12.6 4.6-4.2 12.8-12 18.3-17.4 5.4-5.4 13.4-13.5 17.7-18 4.3-4.6 10.8-11.7 14.4-15.8 3.6-4.2 8.7-10.2 11.3-13.2 2.6-3.1 7.2-8.8 10.2-12.6 3-3.9 7.8-10.2 10.8-14.1 2.9-3.9 7.2-9.9 9.6-13.3 2.4-3.5 6.7-9.8 9.6-14.1 3-4.4 7.6-11.7 10.4-16.2 2.8-4.5 7-11.5 9.3-15.4 2.3-3.9 5.2-9.2 6.6-11.7 1.4-2.6 4.9-9.2 7.8-14.8 2.9-5.7 7.1-14.1 9.3-18.9 2.2-4.7 5.6-12 7.4-16.2 1.9-4.3 4.9-11.5 6.7-16 1.9-4.6 4.5-11.4 5.9-15.1 1.4-3.7 3.8-10.4 5.4-14.8 1.5-4.5 4.2-12.5 5.8-17.7 1.6-5.3 4.1-13.6 5.4-18.4 1.4-4.9 3.4-12.8 4.5-17.5 1.2-4.8 3-12.6 4-17.4 1.1-4.8 2.5-12 3.3-16 .8-4.1 2.1-11.5 2.9-16.5.8-5.1 2-13.2 2.6-18.1.7-4.8 1.6-13.3 2.1-18.8.6-5.5 1.2-13.5 1.5-17.9.3-4.4.7-9.6.8-11.7.2-2.1.4-9.9.6-17.4.3-9 .3-19 0-28.9-.3-8.3-.7-19-1-23.9-.3-4.9-.9-12.6-1.4-17.3-.4-4.7-1.2-12.2-1.7-16.6-.6-4.5-1.4-11.7-2.1-16.2-.6-4.5-1.8-11.7-2.4-16-.8-4.4-2.2-12.1-3.2-17.1-1.1-5.1-2.7-12.9-3.8-17.5-1.1-4.6-3-12.2-4.2-17-1.3-4.8-3.3-12-4.4-15.9-1.2-4.1-3.3-11.2-4.8-15.9-1.5-4.7-4.2-12.5-5.8-17.3-1.8-4.9-4.5-12.3-6-16.4-1.6-4.2-4.4-11.2-6.3-15.6-1.8-4.5-4.5-10.8-6-14.1-1.5-3.3-4.3-9.7-6.4-14.1-2.1-4.5-6.4-13-9.4-19-3.1-6-7.8-14.7-10.4-19.4-2.7-4.7-6.4-11.1-8.3-14.3-2-3.3-5.3-8.7-7.4-12.1-2.1-3.4-6.2-9.7-9-13.9-2.9-4.3-6.7-10-8.7-12.8-2-2.9-5.4-7.7-7.7-10.8s-6.1-8.2-8.5-11.3c-2.4-3.2-6.3-8.2-8.8-11.4-2.5-3.1-6.9-8.4-9.8-11.9-3-3.4-7.5-8.6-10-11.4-2.7-3-6.9-7.6-9.4-10.4-2.6-2.8-9-9.4-14.1-14.7-5.2-5.3-12.6-12.6-16.5-16.2-4-3.7-9-8.3-11.1-10.2-2.2-2.1-7.5-6.6-11.7-10.2-4.2-3.6-10.2-8.7-13.4-11.1-3.1-2.5-8.5-6.7-12-9.4s-9.2-7-12.6-9.4c-3.5-2.5-8.7-6.3-11.7-8.4-3-2.1-8.1-5.4-11.1-7.5-3.1-2.1-8.4-5.4-11.7-7.5-3.3-2.1-9.3-5.7-13.2-8.1-3.9-2.4-11.1-6.6-16-9.3-4.8-2.8-14.7-8-21.9-11.7-7.3-3.6-15.6-7.8-18.6-9.2-3-1.4-9.2-4.2-13.8-6.1-4.5-2-10.9-4.6-14.1-6-3.3-1.3-10-3.9-15-5.8-5.1-2-14.5-5.3-20.9-7.5-6.4-2.2-15-4.9-19.2-6.2-4.2-1.2-11-3.2-15.3-4.3-4.2-1.2-11.1-3-15.4-4.1-4.2-1-11.5-2.7-16.2-3.7-4.7-1-11.7-2.4-15.6-3.2-3.9-.8-10.6-2-14.8-2.7-4.3-.8-11.4-1.9-16-2.5-4.5-.6-11.3-1.5-15-1.9-3.7-.5-10.6-1.2-15.3-1.5-4.6-.5-12.9-1.1-18.2-1.4-6.9-.5-16.8-.7-33.7-.8-13.1-.7-25.1-.7-26.6-.6z"/><path fill="#FEFEFE" d="M679.2 352.1c-1.5.1-4.1.7-5.7 1.2-1.6.5-4.2 1.5-5.8 2.2-1.7.8-4.2 2.3-5.7 3.3-1.5 1.1-3.5 2.7-4.5 3.8-1 1.1-2.6 2.9-3.5 4-.9 1.2-2.3 3.3-3.1 4.9-.9 1.6-2.1 4.2-2.7 5.9-.7 1.7-1.6 4.6-2.1 6.6s-1.2 5.6-1.4 7.9c-.3 2.9-.5 6.8-.3 11.1.2 4.6.5 7.9 1 10.2.4 1.8 1.2 4.7 1.8 6.2.6 1.6 1.7 4.1 2.4 5.5.8 1.5 2.1 3.6 2.9 4.8.9 1.2 2.3 2.9 3 3.7.9.9 2.7 2.5 4.2 3.6 1.5 1.2 3.9 2.7 5.2 3.4 1.4.7 3.7 1.8 5.3 2.3 1.6.6 4.2 1.2 5.9 1.5 1.7.3 4.5.7 6.4.8 1.8.2 5.1.1 7.3-.1s5.4-.9 7.2-1.4c1.8-.6 4.2-1.5 5.5-2.1 1.2-.7 3.4-2 4.8-3 1.5-.9 3.7-2.9 4.9-4.2 1.3-1.4 3-3.4 3.7-4.6.8-1.2 2.1-3.5 3-5.3.9-1.8 2.1-4.8 2.7-6.6l1-3.4c-3.9-.4-8-.6-11.7-.7l-6.7-.1c-1 2.9-1.8 4.6-2.3 5.7-.5 1-1.8 2.8-2.8 3.9-1.1 1.2-2.9 2.7-4.2 3.3-1.2.7-3.3 1.5-4.5 1.8-1.3.3-3.8.6-5.7.6-2.6 0-4.2-.3-6.4-.9-1.7-.6-3.9-1.5-4.9-2.2-1.1-.7-2.7-2.3-3.8-3.5-1-1.3-2.4-3.6-3.2-5.1-.7-1.6-1.7-4.1-2.1-5.7-.6-2.2-.9-4.5-1-9.6-.2-5.3 0-7.6.5-10.5.4-2.1 1.2-5.3 1.8-7.2.6-1.9 1.9-4.8 2.9-6.4 1.2-2.1 2.5-3.6 4.1-4.8 1.2-1.1 3-2.4 3.9-2.8 1-.5 2.7-1.2 3.8-1.5 1.3-.4 3.5-.6 5.5-.6 2.1 0 4.5.3 6.2.7 1.6.4 3.6 1.2 4.5 1.6 1 .5 2.6 1.8 3.6 2.8 1.2 1.2 2.4 3 3.2 4.6.7 1.5 1.5 3.5 1.7 4.5l.5 2c11.7.4 15.8.6 16.6.7l1.7.2c-.1-2.5-.3-4.3-.6-5.7-.3-1.4-1.1-3.6-1.6-5.1-.6-1.5-1.8-3.8-2.7-5.1-.9-1.5-2.7-3.8-4-5.3-1.3-1.5-3.5-3.5-4.7-4.4-1.3-1-3.4-2.3-4.8-3-1.4-.7-3.8-1.7-5.3-2.2-1.5-.6-4.1-1.2-5.7-1.5-1.7-.3-5.1-.7-7.8-.8-2.5-.2-5.8-.1-7.4.1zm-62.3 2.1c-4.5.5-18.4 2-31 3.3-12.6 1.4-22.9 2.5-23 2.6 0 .1.6 5.4 1.3 12 .7 6.6 2.8 26.2 4.7 43.6 1.8 17.5 3.4 31.9 3.5 31.9 0 0 12.1-1.2 26.8-2.8 14.7-1.6 29.5-3.1 33-3.5 3.4-.4 6.3-.8 6.5-.9.1-.1-.2-3.6-.6-7.8-.4-4.2-.9-7.6-.9-7.6 0-.1-10.4 1-23 2.4s-23.5 2.5-24.3 2.7l-1.3.1c-1.9-17.6-2.4-22.8-2.4-22.8s9.6-1.1 21.2-2.3c11.6-1.2 21.2-2.4 21.3-2.4.1-.1-.2-3.6-.6-7.6-.5-4.1-.9-7.5-1-7.6-.2-.2-9.6.8-20.9 2.1-11.4 1.2-20.9 2.2-21.3 2.2-.5 0-.8-1.7-1.5-9.1-.6-5.1-1-9.2-1-9.2.1-.1 10.5-1.2 23.2-2.6 12.7-1.4 23.1-2.6 23.2-2.6.1-.1-.3-3.5-.7-7.5-.5-4.1-.8-7.5-.8-7.7 0-.2-.6-.3-1.2-.3-.6.5-4.8.9-9.2 1.4zm150.8 9.6c-1.7.3-4.5.9-6.4 1.3-1.8.6-4.7 1.6-6.2 2.4-1.6.8-3.8 2-4.9 2.7-1.2.8-3.3 2.6-4.9 4-1.5 1.5-3.8 4.2-5.1 6.1-1.2 1.8-2.7 4.3-3.3 5.4-.6 1.2-1.7 3.7-2.4 5.7-.8 2.1-1.8 5.5-2.4 7.8-.6 2.3-1.2 6-1.5 8.1-.3 2.2-.6 5.9-.6 8.3 0 2.4.3 5.9.6 7.8.3 1.9.9 4.5 1.3 5.8.5 1.4 1.6 3.9 2.5 5.7.9 1.8 2.4 4.1 3.3 5.2.9 1.2 2.8 3.2 4.2 4.5 1.5 1.5 3.7 3.3 4.9 4.1 1.3.9 3.6 2.3 5.3 3.1 1.7.9 4.7 2.1 6.6 2.7 2 .6 4.6 1.4 5.8 1.7 1.4.3 5 .5 8.7.5 5 .1 7.2-.1 9.4-.6 1.7-.5 4-1.1 5.1-1.5 1.2-.4 3.6-1.5 5.4-2.5 1.8-1 4.5-2.8 6-4.1 1.5-1.2 3.8-3.6 5.1-5.4 1.4-1.7 3.3-4.7 4.4-6.8 1.1-2.1 2.4-4.9 3-6.3.6-1.5 1.5-4.1 2-5.9.5-1.8 1.3-5.2 1.8-7.7.7-3.6.9-6 .9-10.8 0-4.4-.3-7.2-.7-9.3-.4-1.7-1-4.1-1.5-5.3-.5-1.3-1.3-3.3-1.9-4.5-.6-1.3-2.3-3.9-3.7-5.7-1.6-2.1-3.8-4.5-5.7-6-1.8-1.5-4.2-3.3-5.6-4-1.4-.9-3.9-2.1-5.7-2.9-1.8-.8-4.8-1.8-6.8-2.3-2-.6-5.3-1.1-7.4-1.3-2.1-.3-4.5-.4-5.3-.4s-2.7.2-4.3.4zm-248.4 5.7c-1.2.3-10.8 2.7-21.4 5.5-10.5 2.7-19.2 5-19.2 5.1 0 0 4.9 19.1 10.8 42.4 6 23.3 11.1 42.5 11.2 42.7.2.2 4.1-.7 8.8-1.9 4.7-1.2 8.6-2.3 8.7-2.4.2-.1-1.5-7.1-3.7-15.4-2.2-8.4-3.9-15.3-3.9-15.3.1-.1 5-1.4 10.8-2.9 5.9-1.6 11.9-3.3 13.4-3.9 1.5-.6 3.7-1.7 5.1-2.4 1.4-.8 3.6-2.5 4.9-3.9 1.7-1.7 3-3.5 4.1-5.5.9-1.7 1.9-4.4 2.4-6 .6-2.1.9-4.2.9-7.2 0-2.8-.3-5.3-.9-7.8-.5-2.4-1.4-4.8-2.7-7.3-1.1-2.2-2.7-4.9-4-6.4-1.3-1.5-3.4-3.3-4.8-4.3-1.5-1-3.9-2.2-5.3-2.7-2.3-.8-3.5-.9-7.8-1-3.3.2-5.9.3-7.4.6z"/><path fill="#0E8E3A" d="M772.2 379.4c-.4.1-1.7.4-2.8.6-1.2.3-3.2 1-4.5 1.7-1.4.7-3.5 2.1-4.7 3.3-1.3 1.2-2.9 2.9-3.6 3.9-.9 1.1-2.1 3.1-2.8 4.5-.7 1.5-1.8 4.2-2.4 6-.7 1.9-1.5 4.8-1.8 6.6-.3 1.8-.7 5.4-.9 7.9-.2 3.1-.1 5.7.3 7.4.3 1.5.9 3.6 1.3 4.9.5 1.2 1.5 3.3 2.2 4.5.8 1.2 2.2 2.9 3.1 3.8.9.9 2.7 2.3 4.1 3 1.3.8 3.5 1.8 4.8 2.2 1.5.5 4 .9 6.2 1 2.9.2 4.5.1 6.3-.4 1.4-.4 3.6-1.2 4.9-1.9 1.4-.7 3.6-2.3 5.1-3.6 1.5-1.5 3.4-3.8 4.5-5.5 1-1.7 2.4-4.4 3-6 .6-1.6 1.6-4.7 2.1-6.8.5-2.1 1.2-5.7 1.4-7.8.3-3.1.3-4.8-.1-7.9-.3-2.2-.9-5.2-1.5-6.6-.6-1.5-1.4-3.3-1.9-4.2-.5-.9-1.6-2.3-2.4-3.2-.7-.9-2.5-2.4-4-3.4s-3.7-2.2-5.1-2.7c-1.4-.5-3.5-1-4.8-1.2-1.2-.3-3-.4-3.8-.3-.8 0-1.8.1-2.2.2z"/><path fill="#FEFEFE" d="M827.1 423.7c-8.9 22.5-16 40.9-16 40.9.1.1 3.9 1.7 8.6 3.5 4.7 1.8 18.5 7.3 30.7 12.1 12.3 4.8 22.4 8.8 22.5 8.8.2 0 1.5-3 2.9-6.5 1.5-3.6 2.7-6.9 2.8-7.3.2-.7-2.1-1.6-22.4-9.6-12.4-4.8-22.6-9-22.6-9.1 0-.2 1.8-4.9 4.1-10.5 2.2-5.7 4.1-10.3 4.2-10.4.1-.1 8.8 3.3 19.4 7.5 10.6 4.2 19.6 7.7 20 7.8.7.2 1.2-.7 3.6-6.9 1.5-3.9 2.7-7.2 2.4-7.4-.2-.1-9-3.7-19.6-7.8-10.7-4.2-19.5-7.8-19.6-7.9-.2-.2 1.3-4.1 3.2-8.8l3.5-8.5c2.7 1.1 12.2 4.9 22.9 9.2 10.8 4.2 19.8 7.8 20.1 7.8.4 0 1.5-2.4 3.3-7.1 1.6-4 2.8-7.2 2.7-7.2-.1-.1-13.5-5.4-29.8-11.8-16.3-6.5-29.8-11.7-30.1-11.7-.6.1-8 18.5-16.8 40.9z"/><path fill="#0E8E3A" d="M519 385.5c-1.2.3-5.9 1.3-10.3 2.5-4.5 1.2-8.1 2.1-8.2 2.2-.1 0 1.1 4.8 2.6 10.6s3 11.4 3.3 12.6l.6 2c13.5-3.6 18.3-4.9 19.4-5.4 1-.4 2.7-1.3 3.6-2.1 1-.7 2.3-2.1 2.9-3.1.9-1.6 1.1-2.2 1.1-5.4 0-2.7-.3-4.3-.9-6.3-.6-1.9-1.4-3.2-2.5-4.5-.9-1.1-2.4-2.2-3.2-2.5-.9-.4-2.5-.8-3.8-.9-1.3.1-3.4.2-4.6.3z"/><path fill="#FEFEFE" d="m424 401.4-9.4 4.1c.1 5.5 1.5 26.5 3 50.1 1.5 23.7 2.9 43.1 3 43.2.1.1 3.9-1.5 8.6-3.6 4.6-2 8.5-3.8 8.7-3.9.3-.3.1-3.2-.3-8.8-.4-4.6-.8-8.7-.9-9.3-.1-1 .3-1.2 14.2-7.2 8-3.5 14.7-6.4 15.1-6.6.5-.1 2.1 1.5 6.3 6.5 3.2 3.7 6 6.9 6.3 7.3.4.5 1.6 0 9.6-3.4 5-2.2 9-4.2 9-4.2-.1-.1-5.9-6.6-12.9-14.1-7-7.7-21.2-23-31.5-34.1-10.3-11.1-18.8-20.2-18.9-20.2-.4 0-4.7 1.9-9.9 4.2zm494.9 21.1c-2.3 3.8-12.1 20.7-22 37.5-9.9 16.9-18 31-18.1 31.3-.1.4 2.1 1.8 6.9 4.8 3.9 2.3 7.2 4.2 7.5 4.2.2 0 7.3-12 15.8-26.5 8.6-14.7 15.8-26.6 16-26.7.3-.1.3 3.2.3 11.3-.2 6.3-.3 22.5-.5 35.9l-.3 24.4c11.6 6.9 15.2 9 15.5 9 .5.3 2.2-2.6 7.1-10.8 3.6-6.1 12.7-21.8 20.4-34.9 7.7-13.2 14.7-25.3 15.8-26.9l1.8-3c-11.4-6.9-14.8-8.7-14.8-8.7-.1 0-6.9 11.7-15.3 26s-15.4 26-15.6 26.1c-.3.1-.4-2.6-.3-9 .1-5.1.3-20.8.3-35.1l.2-26c-12.9-7.5-16.5-9.6-16.5-9.6s-2.1 3-4.2 6.7z"/><path fill="#0E8E3A" d="M431.7 419.8c0 .1.8 8.2 1.8 18 .9 9.9 1.8 18 1.8 18.1 0 .1 4.6-1.8 10.2-4.2 5.5-2.4 10.1-4.5 10.1-4.7s-5.3-6.4-11.7-13.8c-6.4-7.5-11.7-13.6-11.8-13.6l-.4.2z"/><path fill="#FEFEFE" d="M363.3 431.1c-3.9 2.5-7.2 4.7-7.5 4.8-.4.2 1.8 3.9 8.5 14.3 5.7 8.8 8.8 14.2 8.6 14.4-.1.3-5.8 3.9-12.4 8.1-6.6 4.2-12.9 8.3-14.1 9l-2.1 1.4-18-28.2c-1.8 1.2-5.3 3.5-8.9 5.8l-6.7 4.2c10.5 16.3 21.2 33 30.5 47.6 9.3 14.6 16.9 26.5 17 26.6 0 0 3.3-2.1 7.4-4.7 4-2.6 7.5-4.8 7.8-5 .3-.2-3.3-6-9.9-16.5-5.7-8.9-10.5-16.5-10.5-16.8-.1-.4 4.2-3.3 14.3-9.7 7.9-5.1 14.5-9 14.6-8.9.1.1 4.8 7.5 10.3 16.2 5.6 8.7 10.3 16 10.5 16.2.3.4 2.1-.6 8-4.4 4.2-2.7 7.5-5.1 7.4-5.3 0-.3-8.8-14.1-19.5-30.8-10.7-16.8-21.2-33.2-23.4-36.7-2.3-3.5-4.2-6.3-4.5-6.3-.2.2-3.5 2.2-7.4 4.7z"/><path fill="#0E8E3A" d="M639.9 471.9c-1.5.1-5.8.3-9.8.6-3.9.3-10.2.6-13.9 1-3.7.3-9.6.9-13.2 1.3-3.6.5-8.9 1.2-11.9 1.5-3 .5-8 1.2-11.1 1.8-3.1.6-8.7 1.5-12.4 2.2-3.8.8-9.1 1.8-11.9 2.4-2.8.7-8.2 1.9-12 2.9-3.9.9-12 3.1-18 4.9-6.1 1.8-14.7 4.5-19 5.9-4.3 1.5-11.6 4.2-16.2 5.9-4.5 1.7-13.1 5.1-18.9 7.7-6 2.5-16 7.2-22.4 10.4-6.4 3.2-14.4 7.2-17.7 9-3.3 1.9-8.7 4.9-11.9 6.8-3.2 1.9-8.8 5.3-12.4 7.5-3.6 2.3-9.1 5.9-12.2 7.9-3.2 2.1-8.7 6-12.3 8.5-3.6 2.7-9 6.6-12 8.9-3 2.4-7.3 5.7-9.6 7.6-2.3 1.8-6.8 5.6-9.9 8.3-3.3 2.7-8.7 7.5-12.3 10.8-3.6 3.2-9.3 8.7-12.7 12-3.6 3.5-9.3 9.4-12.9 13.2-3.6 3.9-7.9 8.6-9.6 10.5-1.8 2-4.7 5.3-6.4 7.4-1.8 2.1-5.7 6.8-8.7 10.5-3 3.7-7.8 10-10.8 13.9-3 4-7.3 10.1-9.7 13.6-2.4 3.5-6.9 10.2-9.8 14.8-3 4.7-6.6 10.5-8.1 13s-4.2 7.4-6.1 10.8c-2 3.5-6 11-8.8 16.8-3 5.8-6.8 13.7-8.5 17.5-1.8 3.9-4.3 9.8-5.7 13.2-1.5 3.5-4.1 10-5.8 14.5-1.8 4.6-4.4 11.9-5.8 16.2-1.5 4.4-4 12.2-5.5 17.5-1.5 5.3-3.7 13.3-4.8 17.9-1.2 4.5-2.7 11-3.5 14.3-.8 3.3-2 9.7-2.8 14.1-.9 4.5-2 10.9-2.5 14.3-.6 3.5-1.4 9.6-1.9 13.8-.6 4.2-1.2 10.3-1.5 13.8-.4 3.4-.9 9.9-1.2 14.3-.4 4.5-.7 15.5-.9 24.5-.2 10.5-.1 19.6.3 25.3.3 4.8.6 11.4.9 14.5.3 3.1.7 9 1.2 13.2.4 4.2 1.2 10.8 1.7 14.7.6 4 1.5 10.3 2.1 14.1.6 3.9 1.7 9.7 2.3 13 .6 3.3 1.8 8.7 2.5 12 .7 3.3 2.3 10 3.5 14.9 1.3 4.9 3.2 12.3 4.4 16.4 1.2 4.2 3.6 11.6 5.2 16.6 1.7 5 4.3 12.4 5.8 16.5 1.6 4.2 4 10.5 5.5 13.9 1.5 3.6 4.1 9.6 5.8 13.6 1.8 3.9 5.7 12.1 8.7 18.3 3.1 6.1 7.2 13.9 9.1 17.3 1.9 3.5 5.1 9 7.1 12.3 2 3.3 5.2 8.6 7.2 11.7 2 3.2 5.2 8.1 7.2 11 2.1 2.9 5.4 7.7 7.5 10.7 2.2 3 5.8 8 8.1 11s5.9 7.6 7.9 10.2c2.1 2.6 5.7 7 8.1 9.8 2.4 2.8 6.2 7.2 8.4 9.6 2.3 2.5 7.8 8.3 12.1 12.8 4.4 4.6 11.4 11.6 15.6 15.5 4.2 4 10.4 9.6 13.7 12.4 3.3 3 8.6 7.4 11.7 9.9 3.2 2.6 9.6 7.6 14.3 11.3 4.8 3.7 9.4 7.2 10.3 7.8 1.5 1.1 1.5 1.2 1 1.5-.4.2-14.6 2.9-31.6 6-16.9 3.2-30.9 5.8-31 5.9-.1.1 0 .3.3.5s1.9 1.6 3.8 3.2c1.9 1.5 5.9 4.8 8.9 7.2 3 2.4 7.2 5.7 9.4 7.3 2.2 1.7 7.2 5.4 11.3 8.2 4 3 11.1 7.8 15.6 10.8 4.6 3.1 12.7 8.2 18 11.4 5.4 3.3 13.4 7.8 17.7 10.2 4.3 2.5 12.3 6.7 17.8 9.4 5.5 2.8 14 6.8 18.8 9 4.9 2.2 11.5 5.1 14.7 6.4 3.3 1.4 9.8 3.9 14.5 5.8 4.8 1.8 14.4 5.2 21.4 7.5 7.1 2.4 16.1 5.2 20.1 6.3 4.1 1.2 10.3 2.9 13.9 3.9 3.6.9 11.1 2.7 16.8 4 5.6 1.2 13.8 3 18.2 3.8 4.5.8 12 2.1 16.8 2.8 4.8.7 11.6 1.7 15.3 2.1 3.6.4 9.3 1.1 12.6 1.3 3.3.3 8.1.8 10.5 1 2.5.2 7.7.6 11.5.8 4.2.3 15.1.5 27.6.5 12.8 0 23.4-.2 27.7-.5 3.9-.3 10.2-.8 14.1-1.1s11-1 15.6-1.5c4.7-.6 11-1.3 14-1.7 3-.4 8.5-1.3 12.2-2 3.8-.6 9.1-1.5 11.9-2.1 2.8-.6 7.8-1.6 11.3-2.3 3.4-.7 8.8-1.9 12-2.7 3.3-.8 8.7-2.1 12.2-3 3.6-1 11-3.1 16.6-4.8 5.6-1.6 14.2-4.4 19.2-6 5-1.8 11.7-4.1 15-5.4 3.3-1.2 9-3.5 12.8-5 3.8-1.5 10.8-4.5 15.8-6.7s14.3-6.6 20.7-9.9c6.5-3.2 15.3-7.8 19.8-10.2 4.5-2.5 12.3-7 17.5-10.2 5.1-3.1 12.8-7.9 16.9-10.6 4.2-2.7 10.5-7.1 14.1-9.6 3.6-2.6 8.7-6.2 11.1-8 2.5-1.9 7.8-6 11.8-9.2 4.1-3.2 8-6.3 8.7-6.9 1.2-1 1.2-1.1.5-1.3-.4-.1-14.7-3-31.6-6.3-17-3.4-30.9-6.1-31-6.2 0-.1 2.1-1.7 4.8-3.6s8-6 12-9c3.9-3 9.6-7.5 12.6-10s7.9-6.6 10.9-9.3c3-2.6 8.4-7.5 12-10.8 3.7-3.3 9.8-9.3 13.6-13.2 3.8-3.9 9.6-10.1 12.9-13.7 3.3-3.7 7.8-8.6 9.9-11 2.1-2.4 5.5-6.6 7.7-9.2 2.2-2.7 6-7.5 8.3-10.6 2.4-3.1 6.3-8.2 8.5-11.3 2.3-3.1 6-8.4 8.3-11.9 2.3-3.4 6-9 8.1-12.4 2.2-3.5 5.3-8.5 7-11.3 1.7-2.9 4.6-7.9 6.5-11.4 2-3.4 6-11 8.9-16.8 3-5.8 6.7-13.4 8.3-16.9 1.6-3.6 4.4-10 6.2-14.4 1.9-4.3 4.5-10.8 5.9-14.4 1.4-3.7 3.5-9.3 4.6-12.5 1.2-3.2 2.9-8.2 3.8-11.1.9-2.9 2.5-8.1 3.6-11.7s2.9-9.9 3.9-14.1c1.2-4.2 2.8-11.1 3.7-15.3 1-4.2 2.4-10.7 3-14.5.8-3.9 1.8-9.5 2.4-12.6.6-3.2 1.4-8.9 1.9-12.9.6-3.9 1.3-10.3 1.7-14.1.4-3.9 1.1-10.2 1.4-14.3.3-4.1.8-12.9 1-19.8.3-7.1.4-17.1.3-23.1-.2-5.9-.4-13.5-.6-17.1-.3-3.6-.7-9.7-1-13.6-.3-4-.9-10.1-1.4-13.6-.4-3.6-1.1-9-1.5-12-.4-3.1-1.3-8.7-1.9-12.4-.6-3.8-2.1-11.4-3.3-17-1.2-5.6-3.3-15.1-4.8-21-1.5-6-3.6-13.7-4.5-17-1-3.3-3.3-10.5-5.1-16-1.9-5.5-4.5-13.1-6-16.9-1.5-3.9-3.6-9.4-4.8-12.3-1.2-3-3.6-8.6-5.4-12.6-1.8-4.1-5.9-12.7-9.1-19.2-3.3-6.6-7.8-15-9.9-18.9-2.2-3.9-5.2-9.1-6.7-11.7-1.5-2.7-4.5-7.5-6.6-10.8-2.1-3.3-5.4-8.4-7.3-11.3-2-3-5.2-7.7-7.3-10.6-2.1-2.9-5.9-8.1-8.4-11.4-2.7-3.5-6.5-8.4-8.5-11-2.1-2.6-5.1-6.3-6.8-8.3-1.7-2-5-5.8-7.4-8.5-2.4-2.7-7.9-8.7-12.3-13.4-4.5-4.7-11.6-11.7-15.9-15.9-4.3-4.1-9.6-9-11.8-10.9-2.2-2-6.5-5.7-9.6-8.3-3.1-2.6-7.5-6.2-9.6-7.9-2.2-1.8-6-4.8-8.7-6.9-2.6-2-7.8-5.8-11.7-8.6s-9.9-6.9-13.4-9.3c-3.5-2.4-8.7-5.7-11.4-7.4-2.8-1.8-7.1-4.4-9.4-5.8-2.4-1.5-7.8-4.5-12-6.9-4.3-2.4-13.5-7.2-20.5-10.6-7-3.6-13.8-6.8-15-7.3-1.3-.5-6.2-2.6-10.9-4.6-4.8-2.1-10.7-4.5-13.2-5.4s-7.8-2.9-11.7-4.2c-4-1.5-10.5-3.6-14.5-4.9-4.1-1.3-10.9-3.3-15.3-4.6-4.3-1.2-10.4-2.9-13.5-3.6-3.1-.7-8.6-2-12.2-2.8-3.6-.9-9.9-2.1-13.8-2.8-3.9-.8-9.8-1.8-12.9-2.4-3.3-.5-9.9-1.5-14.7-2.1-4.8-.6-11.5-1.4-14.8-1.8-3.3-.3-9.9-.9-14.5-1.2-5.4-.4-15.2-.7-26.7-.8-10.5.7-19.9.7-21.4.7z"/><path fill="#FEFEFE" d="M998.9 473.4c-1.2.3-3.1 1-4.4 1.7-1.2.6-3.3 1.8-4.6 2.8-1.3 1-3.4 3-4.7 4.7-1.3 1.6-2.9 4.1-3.6 5.4-.7 1.5-1.5 3.6-1.8 4.8-.3 1.2-.6 3.3-.6 4.6 0 1.5.4 3.6.9 5.1.5 1.5 1.5 3.9 2.1 5.3.8 1.5 2.3 4 3.4 5.7 1.2 1.7 4.5 6 7.2 9.6 2.9 3.6 6.2 8.1 7.4 9.8 1.2 1.8 2.6 4.2 3 5.2.4 1.2.7 2.7.7 3.6.1.9-.2 2.2-.5 3-.3.7-1.2 1.9-1.8 2.7-.6.7-1.9 1.7-2.8 2.1-1.2.7-2.4.9-4.1.9-1.6 0-3.3-.3-4.8-.8-1.2-.5-3.3-1.5-4.5-2.2-1.3-.8-3.5-2.4-4.9-3.6-1.5-1.2-3.3-2.9-4-3.8s-1.8-2.4-2.4-3.2c-.5-.8-1.2-2.5-1.6-3.6-.5-1.5-.6-2.9-.6-4.5.1-2 .5-3.2 1.5-5.2l1.4-2.7-13.5-11.1c-1.2 1.4-2.1 2.9-2.9 4.2-.9 1.4-1.9 3.8-2.5 5.4-.6 2.1-1.1 4.2-1.2 6.5-.1 2 .1 4.5.3 6 .3 1.5.8 3.6 1.3 4.7.4 1.2 1.5 3.5 2.5 5.1.9 1.7 2.8 4.4 4.2 6 1.4 1.8 4.1 4.5 6.1 6.3 2 1.8 4.8 4.1 6.4 5.1 1.5 1.1 4.1 2.6 5.6 3.3 1.6.9 4.5 2 6.5 2.7 3.3 1.2 3.9 1.2 8.8 1.2 4.2.1 5.7-.1 7.4-.7 1.2-.4 2.9-1.1 3.9-1.6 1.1-.6 3-1.8 4.4-2.8 1.4-1 3.4-3 4.6-4.4 1.2-1.5 2.8-3.7 3.5-5.1.7-1.4 1.5-3.4 1.9-4.5.4-1.3.6-3.5.6-5.4 0-2.5-.3-3.9-1.1-6.2-.6-1.7-1.8-4.2-2.6-5.7s-5.6-8.2-10.7-14.9c-5.1-6.8-9.6-13-9.9-14-.5-.9-.8-2.5-.9-3.6 0-1.2.3-2.5.8-3.4.5-.9 1.5-2.2 2.3-3 .9-.9 2.4-1.8 3.4-2.1 1.6-.6 2.3-.6 4.5-.2 1.8.3 3.8 1 5.7 2.1 2.2 1.2 3.9 2.4 6.3 4.8 2.4 2.3 3.6 3.9 4.5 5.7.8 1.7 1.3 3.3 1.5 5 .2 1.5.1 3-.3 3.9-.3.9-.9 2.4-1.3 3.3-.6 1.2-.7 1.9-.4 2.1.3.3 3.3 2.7 6.7 5.5 3.5 2.8 6.5 5.1 6.6 5.1s.8-.9 1.5-2c.7-1.2 1.7-3 2.2-4.1.6-1.2 1.2-3.2 1.6-4.5.4-1.8.7-3.8.7-6.6-.1-3-.3-5-.9-7.2-.5-1.7-1.5-4.3-2.4-5.9-.8-1.5-2.2-3.8-3.1-4.8-.9-1.2-2.7-3.3-4.2-4.8-1.4-1.5-4.4-4.1-6.6-5.7-2.2-1.7-5.7-3.8-7.8-4.8-2.1-1-5.1-2.2-6.8-2.6-2.1-.6-4.2-.8-6.9-.8-2.4.5-5.1.8-6.2 1.1zm-711.2 15.2c-1.3.1-3.4.6-4.8 1-1.4.3-4.2 1.5-6.2 2.4-2.1 1-5.1 2.7-6.6 3.9-1.6 1.1-4.1 3.2-5.6 4.7-1.6 1.5-3.6 3.6-4.6 4.9-1 1.3-2.4 3.3-3.2 4.5-.7 1.3-1.8 3.6-2.5 5.3s-1.5 4.3-1.8 5.9c-.3 1.6-.6 4.9-.6 7.5 0 3.7.3 5.5.9 8.1.5 1.9 1.2 4.3 1.6 5.4.5 1.2 1.5 3.5 2.4 5.3s2.7 4.8 3.9 6.6c1.2 1.8 3.3 4.5 4.7 6.2s3.6 4.1 5 5.4c1.3 1.2 3.6 3.2 5.1 4.3 1.5 1.2 3.6 2.7 4.9 3.5 1.2.8 3.3 1.9 4.5 2.5 1.2.7 3.6 1.7 5.3 2.2 1.7.6 3.9 1.2 5.1 1.4 1.2.2 4 .4 6.3.4s5.4-.3 6.8-.6c1.5-.3 3.9-1 5.4-1.5 1.6-.6 3.8-1.6 4.9-2.2 1.2-.7 3.1-1.9 4.4-2.7 1.2-.9 3.9-3 5.8-4.9 2-1.9 4.3-4.5 5.4-5.9 1-1.4 2.5-3.9 3.3-5.5.8-1.7 1.8-4.2 2.3-5.7.5-1.5 1-4.3 1.3-6.4.3-3.3.3-4.4-.3-7.9-.4-2.4-1.2-5.8-1.9-7.7-.7-2-1.9-4.8-2.7-6.4-.9-1.6-1.6-2.9-1.8-2.9-.1 0-3.3 2.7-7 6l-6.8 6c1.6 3.2 2.4 5.1 2.7 6.4.4 1.2.6 3.4.6 4.7 0 1.4-.1 3.3-.4 4.2-.3.9-.9 2.7-1.4 3.8-.6 1.2-2.2 3.3-3.9 5.1-2.3 2.3-3.6 3.3-5.9 4.5-2.1 1-3.9 1.6-5.9 1.9-2.3.3-3.4.3-6-.3-1.9-.4-4.4-1.2-6.2-2.1-1.7-.8-4.2-2.4-5.5-3.3-1.5-1.1-3.5-2.7-4.5-3.8-1.2-1.1-3.1-3.1-4.3-4.5-1.3-1.5-3-3.6-3.9-4.9-.9-1.3-2.2-3.5-3-4.9-.8-1.5-1.8-4.1-2.4-5.9-.6-2.2-.9-4.2-.9-6.2 0-1.8.3-4.1.6-5.4.3-1.2 1.1-3.1 1.6-4.2.6-1 2.3-3.2 3.9-4.8 2.2-2.2 3.6-3.2 6.2-4.5l3.4-1.7h8.4c5.7 2.8 7.5 3.5 7.8 3.3.3-.1 3.3-2.8 6.8-5.9 3.5-3 6.3-5.7 6.3-6 0-.2-1.1-1.2-2.4-2.1-1.3-.9-3.9-2.5-5.7-3.4-1.9-.9-4.8-2-6.4-2.4-1.7-.5-4.7-.9-6.6-.9-2.1 0-4.7.1-5.9.2zm347.2 18.9c-3 .1-8 .5-11.1.7-3.1.3-8.9.9-12.8 1.2-3.9.5-10.2 1.2-13.9 1.7-3.7.6-10.2 1.6-14.5 2.4-4.2.7-11.2 2.1-15.6 3-4.4 1-11.1 2.5-14.9 3.4-3.9 1-10.2 2.7-14.3 3.9-4.1 1.2-11.5 3.5-16.5 5.1-5.1 1.7-12 4.1-15.3 5.3-3.3 1.3-9 3.5-12.6 5-3.6 1.5-9.6 4-13.4 5.7-3.7 1.7-10.8 5-15.8 7.5s-12.3 6.3-16.2 8.4c-3.9 2.2-10.6 6-14.9 8.6-4.2 2.6-10.9 6.8-14.8 9.3-4 2.7-9.1 6.1-11.5 7.8-2.4 1.7-6.9 5.1-10.2 7.4-3.3 2.4-8.7 6.7-12.3 9.5-3.5 2.9-8.4 6.9-10.7 8.9-2.4 2.1-6.8 6-9.8 8.7s-8.8 8.2-12.9 12.3c-4.2 4.1-10.2 10.2-13.4 13.8-3.3 3.6-7.9 8.6-10.2 11.3-2.4 2.8-6.1 7.2-8.3 9.9-2.2 2.7-5.8 7.2-8.1 10.2-2.3 2.9-5.6 7.3-7.3 9.8-1.8 2.5-4.8 6.7-6.7 9.4-1.9 2.7-5.1 7.5-7.2 10.8-2.1 3.3-5.3 8.4-7.2 11.5-1.9 3.1-4.9 8.3-6.7 11.4-1.8 3.3-5.3 9.6-7.6 14.1-2.4 4.6-5.7 11.3-7.3 14.9-1.8 3.6-4.3 9.4-5.7 12.9-1.5 3.4-3.8 9-5.1 12.4-1.4 3.4-3.6 9.3-4.8 13-1.4 3.7-3.5 10-4.8 13.9-1.2 3.9-3 9.8-3.9 13-.9 3.3-2.6 9.6-3.7 14.1-1.2 4.5-2.9 12.1-3.9 16.8-.9 4.7-2.3 12-3 16.2-.7 4.3-1.7 11.1-2.2 15.1-.6 4-1.4 10.9-1.8 15.3-.4 4.3-1 10.9-1.2 14.7-.3 4.3-.6 14.2-.6 26.8 0 12.5.3 22.5.6 26.7.3 3.8.6 8.7.9 11 .3 2.3.8 7.2 1.2 11.1.5 3.9 1.3 10.5 1.9 14.7.7 4.2 1.8 10.9 2.5 14.9.7 3.9 1.9 9.9 2.7 13.4.8 3.4 2.2 9.6 3.2 13.7 1.1 4.2 3 11.4 4.4 16 1.4 4.7 3.6 12 5.1 16.4 1.5 4.4 3.9 11.4 5.4 15.5 1.6 4.2 4.2 10.7 5.8 14.5 1.6 3.9 4.2 9.6 5.7 12.9 1.5 3.4 5 10.5 7.8 15.9 2.7 5.4 6.4 12.4 8.2 15.6 1.8 3.2 5.2 9 7.5 12.8 2.3 3.9 6.9 11 10.1 15.9 3.3 4.8 8 11.7 10.5 15.2 2.6 3.6 6.3 8.5 8.2 11 2 2.5 5.4 6.7 7.5 9.4 2.2 2.7 6 7.1 8.3 9.8 2.4 2.7 7.1 8 10.6 11.7 3.5 3.7 9 9.5 12.4 12.8 3.4 3.3 8.4 8.1 11.1 10.5 2.7 2.5 7.8 7 11.3 10 3.6 3 8.9 7.5 11.9 9.9 3 2.4 8.4 6.6 12 9.3 3.6 2.7 9 6.6 12 8.7 3 2.1 7.8 5.3 10.5 7.1 2.8 1.9 8.2 5.3 12 7.5 3.9 2.4 10.5 6.2 14.7 8.5 4.3 2.4 12.8 6.9 19 9.9 6.3 3.1 15.4 7.4 20.5 9.5 5.1 2.2 12.6 5.3 16.9 6.9 4.2 1.7 11.7 4.3 16.5 5.9 4.9 1.7 12.1 3.9 16.2 5.1 4.1 1.2 11 3 15.4 4.2 4.5 1.2 10.9 2.7 14.3 3.3 3.5.8 9.5 2 13.4 2.7 3.9.7 10.6 1.8 14.9 2.4 4.2.6 10.8 1.5 14.7 1.9 3.9.4 10.1 1.1 13.9 1.4 3.9.3 10.5.8 14.8 1 4.4.2 13.5.4 20.1.4s15.7-.3 19.9-.4c4.3-.3 11.1-.7 15-1 4.1-.3 10.3-.9 13.8-1.4 3.6-.4 9-1.1 12-1.5 3.1-.4 9-1.3 13.1-2.1 4.2-.7 10.5-1.9 14.1-2.7 3.6-.8 10.3-2.3 14.8-3.4 4.6-1.2 11.1-2.8 14.5-3.8 3.4-1 9.3-2.7 12.9-3.9 3.8-1.2 10.5-3.5 15.1-5.1 4.5-1.7 11.7-4.4 15.9-6 4.3-1.8 10.6-4.4 14.1-6 3.6-1.5 10.7-4.9 15.9-7.5 5.4-2.6 12.8-6.4 16.6-8.5 3.8-2.1 9.1-5.1 11.8-6.7s7.5-4.5 10.5-6.4c3.2-2 8-5.1 10.8-6.9 2.8-1.9 7.4-5 10.2-7 2.8-2 7.5-5.4 10.3-7.5 3-2.2 7.5-5.7 10-7.8 2.6-2.1 7.2-5.8 10.2-8.4s7.7-6.6 10.4-9c2.7-2.4 7.7-7.1 11.1-10.3 3.4-3.3 9.4-9.3 13.4-13.6 4-4.2 9.3-10.1 11.9-13 2.5-2.9 6.8-7.9 9.3-11.1 2.7-3.2 6.8-8.4 9.1-11.4 2.4-3.2 6.1-8.1 8.3-11.1 2.1-3 6.3-9.2 9.4-13.8 3-4.6 7.3-11.4 9.6-15.3 2.4-3.9 5.7-9.8 7.7-13.2 1.9-3.5 5.5-10.4 8.1-15.5 2.6-5.1 6-12.1 7.6-15.6 1.6-3.5 4-9 5.4-12.2 1.3-3.3 3.7-9.2 5.2-13.2 1.6-4 4.3-11.6 6-16.8 1.8-5.2 4.2-12.9 5.4-17.3 1.2-4.4 3-11 3.9-14.7.9-3.7 2.4-9.6 3.1-12.9.8-3.5 2.1-9.9 2.8-14.4.9-4.5 2.1-11.6 2.7-15.8.6-4.3 1.4-10.9 1.9-14.7.4-3.9 1-10.2 1.3-14.3.3-4.1.7-11.4.9-16.2.3-4.9.4-12.8.4-17.5 0-4.8-.2-12.7-.4-17.5-.3-4.9-.6-12.2-.9-16.2-.4-4-1-10.5-1.3-14.3-.5-3.9-1.3-10.5-1.9-14.7-.6-4.2-1.8-11-2.4-15-.8-4.1-2-10.2-2.7-13.5-.8-3.5-2.3-10-3.4-14.5-1.2-4.6-3-11.4-4.1-15.3-1.2-3.9-3.1-10.2-4.4-14.1-1.3-3.9-3.8-11.1-5.6-15.8-1.8-4.8-4.5-11.7-6-15.3-1.5-3.7-4-9.5-5.6-12.9-1.6-3.5-4.9-10.4-7.4-15.3-2.5-5-6-11.7-7.8-15-1.8-3.3-5.6-9.8-8.4-14.4-2.8-4.7-7.3-11.9-10.1-16-2.7-4.2-7.1-10.5-9.6-14-2.6-3.6-6.8-9.3-9.4-12.6-2.7-3.4-7.2-9-10.1-12.6-2.9-3.6-8-9.3-11.3-13-3.3-3.6-10.2-10.9-15.5-16.2-5.3-5.3-12.6-12.3-16.2-15.5-3.6-3.3-9.4-8.3-12.8-11.1-3.5-2.9-8.8-7.2-11.9-9.6-3.1-2.4-7.8-6-10.5-7.9-2.7-2-7.3-5.3-10.3-7.4s-8.5-5.7-12.3-8.1c-3.7-2.4-9.6-6-13.2-8.1-3.6-2.1-8.9-5.2-12-6.9-3-1.8-9.6-5.1-14.6-7.6s-11.8-5.9-15.3-7.4c-3.5-1.6-9.3-4.2-12.9-5.7-3.6-1.5-9.6-3.9-13.3-5.3-3.8-1.5-11.1-4-16.2-5.7-5.2-1.8-12.4-4-16-5-3.6-1.1-9.6-2.7-13.2-3.6-3.6-1-10.1-2.5-14.3-3.4-4.3-1-11.1-2.4-15-3-4.1-.8-10.8-1.9-14.9-2.5-4.2-.6-11.4-1.6-16.2-2.1-4.8-.6-11.1-1.2-13.9-1.4-3-.3-8.5-.6-12.4-.8-4-.3-14.1-.4-22.6-.4-7.6-.8-17-.7-20-.5z"/><path fill="#0E8E3A" d="M636.2 521c-3.1.2-9.1.6-13.3.9-4.3.4-10.6 1-14.1 1.4-3.6.5-9.3 1.2-12.8 1.8-3.6.5-9.3 1.5-13 2.1-3.6.7-9.8 1.9-13.7 2.7-3.9.9-10.7 2.4-15 3.6-4.4 1.1-11.7 3.1-16.4 4.5-4.7 1.4-12.3 3.8-16.9 5.4-4.7 1.6-12.7 4.6-17.9 6.6-5.1 2-12.3 5-15.9 6.6s-11.2 5.2-16.8 8-13.6 6.9-17.9 9.3c-4.2 2.4-10.5 6-14.1 8.1-3.6 2.2-9 5.7-12.3 7.8-3.2 2.1-9.4 6.3-13.7 9.4-4.4 3.1-10.8 7.8-14.1 10.5-3.4 2.7-8.4 6.7-11.1 8.9-2.7 2.2-8.1 6.8-11.9 10.2-3.9 3.4-9.9 9.1-13.5 12.6-3.6 3.5-9.6 9.6-13.2 13.5-3.7 3.9-8.5 9.3-10.8 11.9-2.3 2.6-6.3 7.4-9 10.8-2.7 3.3-7.6 9.6-11 14.1-3.3 4.5-8.8 12.3-12.2 17.4-3.5 5.1-8.6 13.2-11.5 18-3 4.9-6.6 11.3-8.2 14.1-1.6 3-5.5 10.5-8.7 17-3.2 6.4-7.2 15-8.9 19-1.8 4-4.4 10.5-5.8 14.3-1.5 3.9-3.6 9.4-4.7 12.4s-2.7 7.9-3.6 10.8c-.9 3-2.5 8-3.5 11.3-.9 3.4-2.8 10.3-4.2 15.5-1.3 5.2-3.3 13.7-4.2 18.8-1.1 5.2-2.5 13.4-3.3 18.1-.8 4.8-1.7 11.4-2.1 14.9-.4 3.4-1 9.1-1.3 12.6-.3 3.5-.9 9.6-1.1 13.5-.3 4.2-.6 14.4-.6 24.5s.3 20.3.6 24.4c.3 4 .8 10.1 1.1 13.6.3 3.5.9 9.2 1.3 12.6.5 3.5 1.4 10.2 2.1 14.9.8 4.8 2.1 12.5 3 17.1.9 4.7 2.5 11.7 3.4 15.6.9 4 3 11.8 4.7 17.5 1.7 5.7 4.4 14.4 6 19.4 1.8 5 4.2 12 5.6 15.5 1.4 3.5 4.1 10.3 6.1 15 2.1 4.7 5.7 12.6 8 17.5 2.4 4.9 5.7 11.5 7.5 14.7 1.8 3.3 4.8 8.9 6.9 12.5 2.1 3.6 4.9 8.4 6.3 10.5 1.4 2.2 5.3 8.2 8.7 13.4 3.5 5.2 9.1 13.2 12.6 17.9 3.6 4.7 8.6 11.2 11.3 14.5s7.1 8.5 9.7 11.5c2.7 3 8.7 9.6 13.6 14.7 4.8 5.1 11.7 12 15.3 15.3 3.6 3.3 8.7 7.9 11.3 10.2 2.6 2.4 6.2 5.4 7.9 6.9 1.8 1.5 6.3 5.1 10.2 8.1 3.9 3 8.9 6.9 11.3 8.6 2.4 1.8 8.7 6.1 13.9 9.6 5.3 3.6 13 8.5 17.1 11 4.2 2.5 9.8 5.8 12.6 7.4 2.9 1.6 8.1 4.4 11.7 6.3 3.6 1.9 9.3 4.8 12.8 6.3 3.4 1.6 8.3 3.9 10.9 5 2.6 1.2 8.5 3.6 13.2 5.4 4.7 1.9 11.1 4.4 14.3 5.5 3.3 1.2 7.6 2.7 9.8 3.4 2.2.7 6.9 2.2 10.5 3.3 3.6 1.1 8.8 2.7 11.5 3.4 2.7.7 6.7 1.8 9 2.3 2.3.6 6.7 1.6 9.8 2.3 3.1.8 8.4 1.8 11.7 2.4 3.3.7 8.6 1.6 11.7 2.1 3.1.5 8.3 1.3 11.5 1.8 3.2.4 8.2 1 11.1 1.4 3 .3 9.5.9 14.7 1.3 6 .6 14.9.9 24 1.1 9 .2 18.4 0 24.3-.3 5.3-.3 13.4-.8 18-1.2 4.7-.4 11.4-1.1 14.9-1.5 3.6-.4 8.3-1.1 10.5-1.3 2.3-.4 6.2-1 8.7-1.4 2.5-.4 7.6-1.4 11.3-2.1 3.8-.8 9.1-1.8 11.9-2.4 2.8-.7 9-2.2 13.7-3.4 4.8-1.2 12-3.3 16-4.5 4.1-1.2 10.4-3.3 14.1-4.5 3.7-1.3 9.1-3.3 12-4.4 2.9-1.1 7.5-2.9 10.2-3.9 2.7-1.2 8-3.4 11.8-5.1 3.9-1.7 12-5.6 18-8.6 6.2-3.1 13.5-6.9 16.4-8.6 3-1.6 8.9-5.1 13.4-7.8s11.7-7.3 16.2-10.3c4.5-3 10.5-7.2 13.5-9.4s7-5.1 8.8-6.6c1.9-1.4 5.4-4.2 7.8-6 2.4-1.9 6.7-5.4 9.6-8 2.9-2.5 6.3-5.4 7.5-6.6 1.2-1.2 5.4-5.1 9.3-8.7 3.9-3.7 10.5-10.4 14.9-15 4.3-4.5 9.3-9.9 11-11.8 1.8-2.1 4.5-5.2 6.2-7.2 1.8-2 4.8-5.8 7-8.4 2.2-2.7 6.5-8.4 9.6-12.5 3.1-4.2 8.4-11.6 11.7-16.5 3.3-5 7.8-12 9.9-15.5 2.2-3.5 5.9-9.9 8.3-14.1 2.4-4.3 6.3-11.6 8.6-16.3 2.4-4.8 5.6-11.4 7.2-14.9s4.3-9.7 6-13.8c1.8-4.2 4.6-11.4 6.3-16.2 1.8-4.8 4-11.4 5.1-14.7 1.1-3.3 2.7-8.7 3.7-12 .9-3.3 2.5-9 3.4-12.5.9-3.5 2.4-9.4 3.2-13.2.9-3.8 2.1-9.9 2.8-13.8.8-3.9 1.8-9.8 2.3-13.2.6-3.5 1.3-8.9 1.8-12 .4-3.3 1.1-9.6 1.5-14 .4-4.5 1-11.7 1.2-16.2.3-4.5.6-14.9.6-23.1-.1-8.4-.3-18.5-.6-22.6-.3-4.2-.8-10.5-1.1-14.1-.3-3.6-1-10-1.5-14.1-.4-4.2-1.4-10.3-1.9-13.8-.6-3.4-1.5-9-2.1-12.4-.6-3.4-2-9.9-3-14.5-1.1-4.5-2.7-11.5-3.8-15.4-1.1-4-3-10.9-4.4-15.5-1.4-4.5-3.6-11.3-4.9-15-1.3-3.8-3.4-9.4-4.6-12.6-1.2-3.3-3.3-8.3-4.5-11.3-1.2-3-3.6-8.4-5.2-11.9-1.6-3.6-4.8-10.2-7-14.7-2.2-4.6-5.9-11.7-8.1-15.6-2.3-4.1-6.3-10.9-9-15.3s-7.5-11.8-10.6-16.6c-3.3-4.8-8.3-11.9-11.2-15.8-3-3.9-7.2-9.5-9.4-12.3s-5.5-6.7-7.2-8.7-5.1-5.9-7.5-8.7-8.1-8.8-12.5-13.4-11.4-11.6-15.8-15.5c-4.3-4-10.2-9.3-13.1-11.7-3-2.5-8.6-7.1-12.6-10.3-4.1-3.3-10.4-8.1-14.1-10.8-3.7-2.7-10.5-7.3-15-10.4-4.5-3-10.7-6.9-13.7-8.7s-8.2-4.8-11.5-6.7c-3.3-2-12.3-6.6-19.9-10.4-7.7-3.9-16.9-8.2-20.5-9.8-3.6-1.5-10.3-4.2-14.8-6-4.6-1.8-11.9-4.5-16.2-5.9-4.4-1.5-11.7-3.9-16.2-5.1-4.5-1.4-12.7-3.6-18.2-4.9-5.5-1.4-13.7-3.3-18.3-4.2-4.5-.9-12.2-2.3-16.9-3-4.8-.8-10.6-1.6-13-1.9-2.4-.3-6.9-.9-10.2-1.2-3.2-.4-9.3-.9-13.5-1.2-5-.4-14.3-.6-26.1-.8-10.6-.1-21.4 0-24.5.2z"/><path fill="#FEFEFE" d="M1037 550.8c-17.7 16.4-32.2 29.8-32.2 29.9.1.1 10.2 11.1 22.6 24.6 12.3 13.5 22.5 24.5 22.7 24.4.2-.1 2.7-2.4 5.7-5.1 3-2.8 5.5-5.1 5.5-5.1s-7.4-8.1-16.3-18c-9-9.9-16.4-18-16.4-18.2 0-.2 3.6-3.6 8.1-7.7 4.5-4.2 8.2-7.5 8.4-7.5.2-.1 6.8 7 14.7 15.6l14.5 15.8c5.8-5.4 8.4-7.8 9.5-8.8l2-1.9c-28.9-31.3-29.1-31.5-28.3-32.2.4-.4 3.4-3.2 6.6-6.2 3.3-3.1 6.1-5.6 6.3-5.6s7.4 7.8 16 17.1L1102 579c5.7-5.1 8.3-7.5 9.4-8.5 1.9-1.8 2.1-1.9 1.5-2.7-.3-.4-10-11.1-21.6-23.7-11.7-12.6-21.3-23.1-21.5-23.2-.4.3-15.1 13.5-32.8 29.9zm-834.2 29.3c-.9.2-2.8.7-4.5 1.2-1.6.6-4.1 1.6-5.4 2.4-1.5.7-3.9 2.2-5.4 3.3-1.5 1.2-4.2 3.5-6 5.3-1.8 1.8-4.1 4.5-5.1 6-1.1 1.6-2.7 4.4-3.6 6.3-1 1.8-2.3 5.1-2.9 7.2-.6 2.1-1.4 5.4-1.6 7.5-.3 2.1-.4 5.2-.3 7 .2 1.8.6 4.5 1 6.2.5 1.7 1.8 5.1 3 7.6 1.7 3.3 3 5.4 5.4 8.3 1.8 2.1 4.7 5.1 6.6 6.7 1.9 1.7 5.4 4.4 7.9 6s6 3.8 7.9 4.7 4.9 2.1 6.8 2.7c1.9.6 4.8 1.4 6.6 1.6 2 .3 5 .4 7.9.3 3.2-.2 5.6-.5 7.5-1.1 1.5-.5 4.2-1.5 5.8-2.3 1.7-.8 4.4-2.3 6-3.4 1.7-1.2 4.4-3.3 6-4.9 1.6-1.6 3.9-4.1 4.9-5.5 1.2-1.5 3-4.5 4.2-6.6 1.2-2.2 2.6-5.5 3.2-7.3.6-1.9 1.4-4.6 1.6-6.1.3-1.7.4-4.6.3-8.1-.1-4.1-.5-6.3-1.1-8.4-.5-1.5-1.6-4.3-2.4-6.2-.9-1.9-2.5-4.5-3.5-5.9-1-1.4-2.7-3.6-3.9-4.8-1.2-1.4-3.7-3.8-5.7-5.4-2-1.7-5.4-4.2-7.5-5.7-2.2-1.5-5.5-3.4-7.4-4.3s-4.7-2.1-6.2-2.6c-1.6-.6-4.1-1.3-5.6-1.6-1.8-.4-4.5-.5-7.9-.5-2.8 0-5.8.1-6.6.4z"/><path fill="#0E8E3A" d="M203.8 597.6c-.6.1-1.8.5-2.9.8s-3 1.2-4.2 1.8c-1.3.7-3.2 2.1-4.3 3-1.2 1.1-2.7 3-3.6 4.3-.9 1.4-1.9 3.2-2.3 4-.4.9-.9 2.7-1.2 4.2-.3 1.5-.6 3.9-.6 5.1 0 1.7.4 3.4 1.3 6 .7 2.1 2 4.8 3.1 6.4 1.1 1.6 3.2 4.1 4.7 5.6 1.6 1.6 4.3 3.9 6.1 5.2 1.8 1.4 4.8 3.3 6.8 4.3s4.9 2.3 6.6 2.8c1.7.5 4.3 1.1 5.9 1.2 1.8.2 3.9.1 5.7-.2 1.8-.3 4-1.1 6-2.1 2.5-1.2 3.8-2.1 6-4.4 1.8-1.9 3.3-3.9 4.2-5.5.8-1.5 1.7-3.7 2-5 .3-1.2.6-3.8.6-5.7 0-2.7-.3-4.2-1-6.4-.6-1.6-1.6-4.2-2.5-5.6-1-1.7-3-4.2-5.6-6.6-2.4-2.4-5.4-5-7.5-6.3-2-1.4-4.8-3-6.3-3.8-1.5-.7-4-1.8-5.7-2.3-2.1-.6-4.2-.9-6.8-1.1-1.9.1-4 .2-4.5.3z"/><path fill="#FEFEFE" d="M720.9 610.8c-.8.4-1.8 1.3-2.3 2-.5.7-1.2 1.9-1.6 2.7-.4.8-1.1 2.7-1.5 4.2-.5 1.5-1.1 4.5-1.4 6.5-.4 2.1-.8 6.3-.9 9.2l-.3 5.4c-3.6 1.3-5.2 2-6 2.4-.9.4-3.9 3-7.4 6.6-4.6 4.7-6.1 6-7.3 6.4-.9.3-2.4.4-3.6.4-1.1 0-4.3-.3-7.2-.8-4.1-.6-6.3-.8-10.4-.6s-6 .4-8.3 1.2c-1.7.6-5.3 1.6-8 2.5-2.7.9-6.9 2.1-9.4 2.7-2.5.6-6 1.5-7.9 1.8-1.8.3-4.7.6-6.2.6-1.6 0-4.3.2-6 .4-1.8.3-4.5.7-6 1-1.6.3-4.8 1.2-7.2 1.8-2.4.8-6.5 2.2-9 3.3-2.7 1.1-6.6 3-8.8 4.2-2.3 1.4-5.4 3.4-6.8 4.7-1.5 1.3-3.6 3.4-4.5 4.7-1.1 1.4-2.4 3.5-3.1 4.8-.7 1.2-2.5 5.1-3.9 8.5-1.5 3.4-3.1 6.9-3.6 7.9-.5.9-2.1 3-3.6 4.6-1.5 1.7-3.4 4.1-4.5 5.4-1.1 1.4-2.7 3.8-3.7 5.4-1.2 2.1-2.7 3.9-4.7 5.7-2.3 2.1-3.2 3.2-4.1 5.1-1.1 2.4-1.2 2.9-1.4 9.1-.2 3.6-.5 8.4-.8 10.5l-.5 4c3 3.8 4.5 6 5.1 7.3.8 1.4 1.6 3.5 2 4.8.3 1.4.6 3.7.6 5.9 0 2.1-.3 4.5-.6 5.8-.4 1.3-1.2 3.3-1.8 4.5-.7 1.2-2.1 3.1-3.1 4.2-1.1 1.1-2.7 2.4-3.6 3-.9.6-4.2 2.1-7.2 3.3-3 1.2-6.2 2.7-7.2 3.3-1.1.8-1.9 1.8-2.4 2.9-.6 1.5-.8 2.6-.8 6.6 0 4.2.1 5.3.9 7.5.5 1.5 2 4.8 3.3 7.4 1.3 2.6 3.3 6.4 4.6 8.5 1.2 2.1 3.3 5.5 4.5 7.7 1.2 2.2 2.9 5.2 3.6 6.6.8 1.5 1.9 4.2 2.6 6 .7 1.9 1.7 5.4 2.3 7.8.6 2.4 2 8.4 3 13.4 1.1 5 2.4 10.8 3 13 .7 2.1 1.8 5.1 2.5 6.6.8 1.5 2.1 3.6 3 4.8.9 1.2 2.5 3.2 3.6 4.5 1.2 1.4 4.8 5.3 8.1 8.7 3.3 3.5 7.2 7.7 8.6 9.5 1.5 1.8 3.6 4.7 4.8 6.6 1.2 1.9 2.3 3.6 2.4 3.8 0 .2 1.8-.2 3.9-.7 2.1-.6 5-1.5 6.4-2 1.5-.5 3.9-1.6 5.3-2.4 1.5-.8 3.3-2.1 4.3-2.9 1.1-.9 2.2-2.6 3.1-4.4.8-1.5 2.7-4.8 4.1-7.3 1.5-2.5 3-5.4 3.5-6.6.4-1.1.8-2.8.8-3.9 0-1.2-.4-2.8-.9-4.1-.5-1.2-2.7-5.1-5-8.7-2.3-3.7-4.8-8.1-5.7-10-.9-1.9-2-4.8-2.4-6.6-.4-1.8-1.2-5.6-1.5-8.5-.5-2.9-1.2-8.9-1.5-13.3-.5-4.5-.9-11-1.2-14.5s-.6-13.3-.7-21.6c-.2-10.3-.1-17.3.3-21.5.3-3.4.7-8.4 1-11.1.4-2.7.9-7.2 1.4-10 .4-2.8 1.3-7.8 1.9-11.1.6-3.3 1.8-8.7 2.6-11.9.9-3.3 2.1-7.4 2.8-9.3.7-1.9 2.3-5 3.5-7 1.3-2 3.8-5.6 5.6-8s5.1-6.4 7.2-8.9c2.1-2.4 5.1-5.6 6.6-7.1 1.6-1.5 3.9-3.6 5.3-4.8 1.4-1.2 4.1-3.3 6-4.6 2-1.3 4.7-3 6-3.8 1.4-.8 4.3-2 6.6-2.8 3.6-1.2 4.7-1.4 8.8-1.6 3.5-.1 5.6 0 8.1.6 1.8.3 4.4 1.1 5.7 1.6 1.2.5 3.2 1.6 4.2 2.4 1.1.9 2.7 2.4 3.6 3.6.9 1.2 2.4 3.7 3.5 5.6 1.1 1.8 2.5 4 3.3 4.9.8.9 2.7 2.3 4.3 3.2 1.7.9 3.9 2.4 5.1 3.2 1.2.9 3.3 2.7 4.7 4.1 1.4 1.4 3.4 3.6 4.5 4.9 1 1.4 2.5 3.9 3.3 5.5.9 1.7 1.8 4.3 2.3 5.9.5 1.5 1 4.5 1.2 6.4.3 2.4.3 5.1 0 7.7-.2 2.4-.5 5.2-.8 6.5-.3 1.2-.9 3.9-1.3 5.8-.6 2-1.5 5.4-2.3 7.5-.8 2.2-2.3 5.9-3.4 8.1-1.2 2.3-3 5.5-4.1 7.2-1.1 1.7-3.1 4.2-4.5 5.7-1.3 1.5-3.3 3.3-4.3 4s-2.9 1.9-4 2.4c-1.2.5-3.7 1.7-5.7 2.6-2 .9-4.5 2.4-5.7 3.3s-2.7 2.4-3.3 3.4c-.8 1-1.5 2.4-1.7 3-.2.7-.2 1.9.1 2.7.3.9.9 2 1.6 2.7.7.7 2.3 1.7 3.6 2.3 1.2.6 4.1 1.4 6.4 1.8 2.9.6 5.1.7 7.3.6 1.8-.1 4.6-.6 6.3-1 1.7-.5 4.2-1.4 5.7-2.1 1.5-.8 4.1-2.4 5.8-3.7 1.8-1.4 5.8-4.8 8.9-7.8 3.1-3 7.2-6.7 9.3-8.3 2-1.6 4.3-3.6 5.1-4.5.9-.9 2.2-2.5 2.9-3.6.8-1.2 1.7-3 2.1-4.2.5-1.2 1.2-4.2 1.6-6.6.5-2.5 1-5 1.3-5.6.3-.6 1.2-2 2-3 .9-1.1 2-3 2.5-4.5.6-1.5 1.3-3.9 1.6-5.7.3-1.8.6-5.1.8-7.5.3-3.3.2-5.1-.3-7-.3-1.5-1.5-4.8-2.7-7.3-1.2-2.7-2.4-5.6-2.7-6.6s-.6-2.7-.6-3.8.2-2.5.4-3.3c.3-.7 1.4-3.3 2.4-5.8 1.2-2.6 2.3-5.6 2.6-6.9.4-1.2.8-3.3.9-4.5.2-1.3.1-3.6-.2-5.3-.3-1.7-.9-4.1-1.2-5.3-.4-1.3-2.8-6.3-5.3-11.3-4.4-8.7-4.5-9.2-4.9-12.5-.3-2.4-.3-5.1.1-9.6.3-3.5.5-9.6.6-13.8.2-5.4.1-8.1-.3-9.3-.4-1.5-1.4-2.6-5.3-6.6-2.7-2.7-5.2-5.7-5.7-6.8-.6-1.1-1.2-2.9-1.5-4.2-.3-1.3-.8-2.8-1.2-3.4-.4-.6-1.4-1.8-2.2-2.4-.8-.8-2-1.5-2.7-1.8s-2.1-.6-3-.6c-.8-1-2-.7-2.8-.3zm422.7 3.6c-1.4.9-18.3 11-37.7 22.4-19.3 11.5-35.2 20.8-35.2 20.9 0 0 4.5 7.6 9.9 16.9 5.6 9.3 10.7 17.9 11.4 19 .8 1.2 2.7 3.3 4.2 4.8s3.6 3.3 4.5 3.9c1 .7 2.7 1.7 4 2.4 1.2.6 3.8 1.5 5.7 2 2.9.8 4.3.9 8.9.9 3.8 0 6.4-.3 8.7-.7 1.8-.4 5-1.3 7.2-2.1 2.2-.7 5.6-2.1 7.5-3 2-.9 5-2.6 6.8-3.6 1.8-1.1 4.8-3.3 6.8-4.8 2-1.6 4.6-3.9 5.8-5.3 1.2-1.4 3-3.4 3.8-4.5.8-1.2 2.1-3.3 3-4.9.8-1.6 1.8-3.9 2.2-5.3.6-1.8.8-3.9 1-7.4.2-4.4.1-5.3-.8-8.7-.6-2.1-1.8-5.3-2.7-7.2-.9-1.9-6-10.8-11.4-19.8s-9.9-16.7-10.2-17c-.8-.4-1.1-.3-3.4 1.1z"/><path fill="#0E8E3A" d="M1137.9 638.8c-2.4 1.5-13.5 8.1-24.6 14.7l-20.3 12.1c7.2 12.3 9.8 16.6 10.5 17.4.7.9 1.8 2.1 2.5 2.7.8.6 2.2 1.6 3.3 2.1 1.1.5 2.8 1.2 3.9 1.4 1.2.3 3.2.4 4.7.4s3.9-.3 5.4-.6c1.5-.3 4-1 5.6-1.5 1.5-.6 4.4-1.9 6.4-2.9 2-1.1 5.2-3 7.2-4.4 2-1.5 4.9-3.9 6.5-5.5 2.3-2.3 3.3-3.7 4.5-6 1.2-2.4 1.6-3.8 1.8-5.8.2-1.5 0-3.6-.3-4.7-.3-1.2-1.1-3.3-1.8-4.8-.8-1.5-3.3-6-5.6-10.1-2.4-4.1-4.4-7.4-4.5-7.4-.8.2-2.9 1.4-5.2 2.9z"/><path fill="#FEFEFE" d="m113.9 655-1.7 3.5c2 3 2.5 4.2 2.5 4.8s-.4 1.7-.9 2.7c-.5 1.1-2.5 3.5-5.6 6.6-3.8 3.9-5.1 5.4-6 7.2-.9 1.9-1 2.7-1.1 5.4 0 3 .2 3.5 1.3 5.9 1 1.9 2.1 3.5 4.2 5.4l2.9 2.8 3.5-7.1c-1.3-1.5-1.8-2.3-2.1-2.7-.3-.6-.4-1.6-.4-2.4 0-.9.2-1.9.4-2.4.3-.5 2.4-3 4.8-5.6 2.4-2.6 5.1-5.7 5.9-6.9.9-1.2 1.8-3 2.1-3.9.4-1.1.5-2.6.4-4-.1-1.3-.6-3.1-1.2-4.3-.6-1.2-2-3.2-3.2-4.5-1.2-1.3-2.7-2.7-3.3-3.1l-1-.7-1.5 3.3zm14.3 27.7-4.8 9.4c2.4 2.5 17 17.6 34 35.2 17 17.5 31 31.9 31.2 31.9.1 0 2.2-3.8 4.5-8.5l4.2-8.5-13.5-13.5c11-22.3 14.3-28.9 14.4-29.1.2-.2 3.9.3 8.4 1 4.5.8 8.6 1.5 9.3 1.5l1.3.3c6.7-13.8 8.6-17.8 8.5-17.9 0-.1-10.9-1.5-24.1-3-13.2-1.6-33.9-4.1-45.8-5.5-12-1.5-22-2.7-22.2-2.7-.6 0-2.8 4.2-5.4 9.4z"/><path fill="#0E8E3A" d="M146.2 691.9c0 .1 5.8 5.8 12.8 12.6 7.1 6.9 12.9 12.4 13.1 12.4.2 0 2.5-4.4 5.2-9.8s4.8-9.9 4.7-9.9c-.1-.1-8.1-1.4-17.7-2.9s-17.6-2.7-17.7-2.7c-.2.1-.4.2-.4.3z"/><path fill="#FEFEFE" d="M1182.3 698.4c-5.4 2.2-23.7 9.6-40.8 16.4l-31 12.4c19.2 47.9 24.8 61.9 24.9 62 .1.1 3.3-1.1 7.2-2.7 3.9-1.6 7.1-3 7.2-3 .1-.1-4-10.4-9-22.8-5-12.5-9-22.6-8.9-22.7 0 0 4.8-1.9 10.5-4.2 5.7-2.3 10.5-4 10.6-3.9.1.1 3.7 9 8 19.6 4.3 10.7 7.9 19.5 8.1 19.6.2.2 3.4-1 7.2-2.6 3.9-1.6 7-2.9 7.1-2.9.1-.1-3.5-9.1-7.8-20.1-4.4-11-7.9-20-7.8-20 .1 0 3.9-1.6 8.6-3.5l8.5-3.4c13.3 33.4 17.3 43.1 17.4 43.2.1.2 3.3-1.1 7.2-2.6 3.9-1.6 7.1-2.9 7.2-3 .1-.1-5.3-13.6-11.8-30-6.6-16.4-12-29.9-12.2-30.1-.5.4-5 2.2-10.4 4.3zM118.1 741c-1.6.4-3.9 1.2-5.3 1.8-1.4.6-3.9 1.9-5.5 3-1.7 1.1-4.3 3.3-6 5.1-1.7 1.8-3.8 4.5-4.8 6.2-1 1.7-2.4 4.5-3.1 6.2-.8 1.8-1.8 4.8-2.3 6.9-.6 2-1.2 5-1.4 6.8-.3 2.2-.3 4.5 0 7.3.2 2.4.6 4.9.8 5.7l1.2 3.6c.5 1.2 1.2 3 1.8 4 .6 1.1 1.6 2.8 2.4 3.9.7 1.2 3 3.9 5.1 5.9 2.1 2.1 5.1 4.8 6.8 5.8 1.7 1.2 4.8 2.8 6.8 3.9 2.1 1 6 2.5 8.5 3.3 2.6.8 6 1.8 7.5 2.1 1.6.3 4.4.8 6.3 1 2 .3 5.4.4 8.4.3 3.8-.2 6.1-.5 8.9-1.2 2.1-.6 4.9-1.6 6.4-2.3 1.5-.7 3.7-2.1 5-3 1.3-.9 3.2-2.5 4.3-3.6 1.1-1.1 3-3.2 4.1-4.7 1.2-1.6 2.8-4.3 3.6-6 .9-1.8 1.6-3.1 1.7-3.1.2 0 2 3 4.2 6.6 2.1 3.8 4 6.6 4.2 6.3.1-.3 1-2.9 1.9-5.8.9-3 1.5-5.7 1.5-6-.1-.3-2.3-2.3-4.8-4.5-3.6-3.3-4.6-4.3-4.5-4.8.2-.5.4-2.4.7-4.2.3-2 .3-5 .3-7.2-.1-2.2-.7-5.3-1.2-7.3-.6-2.1-1.7-4.9-2.5-6.5-.9-1.5-2.4-3.9-3.4-5.1-1-1.3-3-3.4-4.4-4.8-1.5-1.5-4.2-3.6-6.2-4.8-2-1.3-3.8-2.4-3.9-2.2-.3.1-1.5 3.9-3 8.4-1.5 4.6-2.6 8.4-2.6 8.7 0 .3 1.1 1.1 2.4 1.9 1.2.9 3 2.3 3.9 3.3.9 1 2.1 2.6 2.6 3.6.6 1 1.3 2.9 1.6 4.1.4 1.3.6 3.3.6 4.5 0 1.2-.3 3.3-.6 4.8-.3 1.4-1.2 3.9-2 5.4-.7 1.6-2.1 3.6-2.9 4.4-.9.9-2.3 2.1-3.3 2.7-.9.6-2.8 1.6-4.2 2.1-1.4.6-4 1.2-5.8 1.5-2.7.4-4.3.4-7.4 0-2.2-.3-5.3-.8-6.9-1.2-1.7-.4-4.8-1.5-7-2.2-2.2-.9-5.2-2.2-6.8-3.1-1.6-.9-3.9-2.4-5.1-3.4-1.2-1-3-2.7-3.9-3.8-.9-1.2-2.1-3.2-2.7-4.5-.6-1.4-1.4-3.5-1.6-4.8-.3-1.2-.3-3.4-.2-4.9.1-1.5.6-3.9 1.2-5.4.6-1.6 1.6-3.8 2.3-5 .7-1.2 2.1-2.8 3.1-3.8 1.1-.9 2.7-2.1 3.6-2.5.9-.5 2.9-1.2 4.3-1.5 1.5-.3 3.6-.6 4.8-.6h2.1c4.2-13.5 5.4-17.6 5.3-17.7-.2-.2-2.8-.3-6-.3-5 0-6.7.1-8.9.7zM473 752.7c-1 .3-3.3 1.2-5.1 2.1-1.9.9-5.8 3.5-8.8 5.6-3 2.2-7.4 5.4-9.8 7.1-2.4 1.7-5.3 3.6-6.5 4.1-1.5.8-2.9 1.1-4.7 1.2-1.5.1-5.1-.2-8.1-.6-3-.4-7.5-.7-10.2-.7-2.9 0-5.4.2-6.4.5-.9.3-2.2 1.1-2.9 1.7-.8.8-1.3 1.8-1.5 2.7-.3 1.2-.1 1.8.5 2.5.5.6 2 1.5 4.3 2.3 2.4.9 4 1.8 4.9 2.7.8.8 1.5 2 1.8 2.8.3.9.4 2.4.4 3.6 0 1.1-.3 3.6-.7 5.7-.4 2.1-1.4 5.4-2.1 7.6-.8 2.2-2.3 6.1-3.3 8.7-1.2 2.6-4.2 9-6.8 14.1-3.1 6-5.2 10.5-5.7 12.6-.6 1.8-1.2 4.8-1.6 6.6-.3 1.9-.8 5.9-1 8.9-.3 3-.6 8.4-.8 11.9-.1 3.5-.6 7.3-.8 8.4-.3 1.2-.8 2.7-1.1 3.3-.3.6-2.1 2.7-4 4.7-1.9 1.9-4.4 4.8-5.4 6.2-1.2 1.5-2.5 3.5-3 4.5-.6.9-1.5 2.8-1.9 4.2-.6 1.4-1.8 6.6-2.7 11.5-1 5-2.1 9.9-2.6 11.1-.5 1.2-1.2 2.7-1.7 3.3-.5.8-2.9 3-5.2 5-2.4 2-5 4.5-5.7 5.5-.8 1-1.8 2.7-2.3 3.6-.6 1.3-.9 2.5-1 5.1-.1 2.6 0 4.5.7 7.9.6 2.8.9 6 .9 8.3 0 3-.3 4.8-1.1 7.9-.6 2.4-1.6 7-2.4 10.4-.8 3.4-1.8 7.2-2.3 8.2-.6 1.2-2.4 3.6-4.6 5.9-2.1 2.1-4.4 4.8-5.3 6-.9 1.2-2 2.9-2.5 3.9-.9 1.8-1 2.5-1.4 10.5-.3 4.8-.6 10.2-.9 12.1-.1 1.9-.6 4.8-.9 6.4-.3 1.7-.9 3.9-1.3 5.1-.4 1.2-1.5 3.5-2.3 5.3-.9 1.8-3.1 5.7-4.9 8.7-1.8 3-6.1 9.8-9.5 15-3.4 5.4-7.2 11.1-8.4 12.9-1.2 1.8-3.6 4.5-5.1 6.2-1.8 1.9-3.8 3.6-5.1 4.2-1.2.7-3 1.3-4.1 1.5-1.1.2-2.7.7-3.6 1.2-.9.6-2.7 2.1-3.9 3.3-1.3 1.3-2.8 3.3-3.3 4.4-.6 1.2-1.1 2.7-1.1 3.4 0 .9.3 1.7.9 2.3.6.6 1.5 1.2 2.1 1.5 1 .4 10.2.4 48.1.4 41 .1 47.1 0 48.6-.6.9-.3 2.6-1.2 3.6-2 1.1-.8 2.7-2.5 3.7-3.7 1-1.3 2.1-3.2 2.4-4.2.4-1.2.6-2.4.4-3.3-.1-1.1-.6-1.6-1.5-2.2-.9-.5-2.3-.8-4.8-.9-2-.2-5.1-.6-6.8-1-1.8-.5-4.8-1.5-6.6-2.5-1.8-.9-4.5-2.6-5.9-3.8-1.5-1.2-3.4-3.2-4.5-4.6-1.1-1.5-2.1-3.3-2.5-4.2-.3-1-.6-2.2-.6-2.7 0-.4.3-1.7.6-2.7.3-.9 1.9-3.4 3.4-5.4 1.7-2.2 3-4.3 3-4.9.1-.7.3-2.7.4-4.4.2-1.8.7-5.1 1.2-7.4.6-2.3 1.5-5.2 2.1-6.6.7-1.3 1.9-3 2.7-3.7l1.5-1.2 140.3.2c4.2 1.4 6.3 2.4 7.4 3 1.2.7 3 2.1 4 3.1s2.3 2.7 2.7 3.6c.5.9 1.2 3.4 1.7 5.4.7 3.3.8 5.1.8 13.1l.1 9.3c-1.6 2.1-3.3 3.3-5.5 4.5-2.7 1.5-4.5 2.9-7.7 5.8-2.4 2.2-5.1 5-6.2 6.3-1.1 1.3-2.4 3-2.7 3.9-.4.8-.8 2.1-.8 2.8 0 .8.3 1.8.8 2.4.6.8 1.5 1.3 3.5 2l2.7.8H598c8.4-4.2 11.8-5.8 13-6.3 1.3-.4 3.3-.9 4.4-1 1.3-.2 3 0 4.5.4 1.4.3 4.5 1.5 7.2 2.7 2.6 1.2 6 2.5 7.5 2.9 2.3.6 4.2.7 9.6.7 4.2 0 8.1-.3 10.2-.6 1.9-.3 4.4-.9 5.5-1.3s2.7-1 3.3-1.4c.7-.3 1.9-1.2 2.8-2.1.9-.8 2-2.1 2.4-2.8.6-.8 1.3-2.5 1.7-3.7.5-1.3.8-2.9.8-3.6 0-.9-.3-1.7-1.2-2.7s-2-1.6-3.7-2.1c-2.1-.7-3.8-.9-10.9-1.1-7.8-.3-8.6-.3-9.5-1-.5-.4-1.5-1.4-2.1-2.1-.6-.8-2.1-2.8-3.2-4.6-1.2-1.8-3.3-5.5-4.8-8.3-1.5-2.8-6.6-12.9-11.3-22.4-4.7-9.6-9.4-18.9-10.5-20.9-1.2-2-2.9-4.8-3.9-6.4-1.1-1.6-2.8-3.9-3.9-5-1.1-1.2-2.6-3.1-3.3-4.2-.8-1.1-1.8-3.3-2.4-4.8-.6-1.8-1.1-4-1.2-6.1-.2-1.8 0-5.1.3-7.5.3-2.4.7-4.6.9-4.9.2-.3 1.5-2.1 3-3.8 1.5-1.8 3.3-4.2 3.9-5.5.6-1.2 1.3-3.3 1.5-4.7.4-1.9.4-3.2 0-5.1-.3-1.5-.9-3.5-1.3-4.5-.5-1.1-1.5-2.6-2.4-3.4-.9-.9-2.7-2.1-4.1-2.9-1.5-.8-4.2-2.1-6-2.9-1.9-.8-4.5-2.1-6-3-1.5-.9-3.4-2.4-4.4-3.5-1-1-2.4-2.9-3-4.2-.7-1.2-2.1-3.6-3.2-5.1-1.1-1.6-3.1-4.3-4.6-6-1.5-1.8-5.1-5.7-7.9-8.7-3-3-6.4-6.7-7.8-8.3-1.5-1.5-3.5-4.2-4.7-5.8-1.2-1.8-2.8-4.3-3.6-5.9-.8-1.6-2.1-4.5-2.7-6.6-.8-2.1-2-6.4-2.7-9.6-.8-3.2-2.1-9.2-3-13.3-.9-4.2-2.2-9.3-2.9-11.5-.7-2.2-1.9-5.3-2.7-6.8-.9-1.6-3.5-6.2-5.9-10.3-2.4-4.1-5.4-9.4-6.6-11.9-1.3-2.4-2.8-6-3.5-7.8-.7-1.8-1.5-4.5-1.8-6-.3-1.4-.5-4.4-.5-6.6 0-2.3.2-5.1.4-6.3.2-1.3.7-3.4 1.2-4.8.4-1.4 1.5-3.6 2.4-4.9.9-1.4 2.7-3.3 3.9-4.2 1.2-1.1 3.4-2.5 4.9-3.3 1.5-.8 4.2-1.9 6-2.6 1.8-.6 4.2-1.6 5.1-2.1 1-.5 1.9-1.5 2.4-2.2.5-.9.7-2.1.7-3.6s-.3-2.9-.8-4c-.5-.9-1.3-2.3-1.8-3-.5-.7-2.1-2.1-3.3-2.9-1.3-.9-3.2-2.1-4.3-2.7-1.1-.5-3.3-1.4-4.9-1.8-1.8-.5-4.1-.8-5.7-.9-1.6 0-3.6.3-4.4.6-.9.3-3.1 1.4-5.1 2.5s-4.5 2.4-5.5 2.7c-1 .3-2.7.5-3.9.5-1.2 0-2.6-.3-3.4-.7-.8-.5-2.8-1.9-4.5-3.3-1.7-1.5-4.1-3.1-5.4-3.8-1.4-.7-3.6-1.5-4.9-1.9-1.4-.3-3.9-.8-5.7-1-1.8-.3-4-.4-4.9-.3-.4.4-1.9.6-2.8.7zm450.2 12c-1.5.2-4.2.6-5.9 1-1.8.4-4.3 1.1-5.7 1.5-1.4.5-3.2 1.2-4 1.6-.9.5-3.2 1.9-5.3 3.3-2.1 1.4-4.8 2.9-6.2 3.3-2 .6-3.3.9-6.4.9-2.5-.1-4.9-.3-6.4-.7-1.4-.4-3.3-1-4.3-1.4-1-.4-3.5-1.8-5.7-3.1-2.1-1.4-4.8-2.9-5.9-3.5-1.2-.6-3.4-1.4-4.9-1.8-1.6-.4-4-.8-5.3-.8-1.4 0-3.5.3-4.8.5-1.3.2-3.2.8-4.4 1.2-1.2.4-4.2 2.1-6.8 3.6-2.6 1.6-5.5 3.2-6.6 3.6-1.1.5-2.9 1.1-4 1.4-1.2.3-3.6.4-5.8.3-2.8-.2-4.4-.5-6-1.2-1.8-.7-3.1-1.6-6-4.5-2.1-2-4.4-3.9-5.1-4.2-.7-.4-2.1-.7-3.5-.7s-2.7.3-3.5.7c-.7.3-2.2 1.5-3.3 2.5-1.2 1.1-2.6 2.1-3.2 2.4-.7.4-3 1.2-5.1 2-2.2.8-4.8 1.8-5.7 2.4-.9.6-2.3 1.5-3 2.3-.7.7-1.6 1.9-2 2.7-.4.9-.7 2.1-.7 2.8s.3 1.9.8 2.7c.6 1 2.1 2.5 4.5 4.5 2.1 1.7 4.6 4 5.7 5.2 1.2 1.2 2.7 3.3 3.3 4.5.7 1.2 1.5 3.2 1.8 4.3.4 1.3.9 5.4 1.2 10 .3 4.4.8 9.9 1.2 12.5.3 2.5 1.5 9.9 2.4 16.3 1.1 6.6 2.1 14 2.4 16.6.4 2.6.6 7.1.6 10 0 2.9-.3 6.9-.5 9-.3 2.1-1 6.5-1.5 9.8-.6 3.6-1.2 9-1.4 13.2-.2 3.9-.6 8.1-.9 9.4-.3 1.2-1 3.3-1.5 4.7-.6 1.4-2 4.5-3.3 7-1.2 2.5-2.7 5.6-3.1 6.8-.7 1.8-.8 2.9-.7 5.4.1 2.8.3 3.3 2.1 6.8 1.1 2.1 2.9 5.5 3.9 7.6l2.1 3.9c.2 7.2 0 26.2-.4 46.8-.3 20.7-.7 41-.8 45.1-.1 5.1-.4 8.6-.8 10.6-.4 1.7-1.2 4.1-1.8 5.4-.6 1.4-1.7 3.4-2.4 4.5-.7 1.2-1.6 3.5-2.1 5.1-.4 1.7-1.2 3.7-1.8 4.5-.6.9-2 2.5-3.2 3.7-1.2 1.2-2.9 2.7-3.8 3.3-.9.6-2.7 1.3-3.8 1.7-1.2.3-3.1.7-4.4.8-1.2.2-3.1.7-4.1 1.2-1.1.4-2.4 1.4-3 2.1-.6.7-1.1 1.6-1.1 2 0 .4.2 1.2.4 1.5.3.4.9 1.1 1.6 1.5.7.4 2.9 1.5 4.8 2.3 2 .8 3.9 1.9 4.2 2.2.4.4.9 1.4 1.2 2.2.3.9 1 2.1 1.6 2.7.8.8 1.9 1.4 3.3 1.7 1.4.3 3.3.4 5.4.3 2.8-.2 4.1-.4 7-1.6 2-.8 6.8-3.1 10.8-5.1 3.9-2.1 8.6-4.3 10.3-4.9 1.8-.7 4.2-1.3 5.5-1.5 1.6-.2 2.9 0 4.3.4 1.2.4 3.2 1.5 4.7 2.7 1.5 1.1 3.6 2.7 4.8 3.6 1.4 1 3.3 1.9 5 2.4 2.3.7 3.3.8 6.3.6 2.7-.2 4.8-.6 7.9-1.6 2.4-.8 5.9-1.7 7.8-2 2.3-.4 6-.6 10.9-.6 5.7-.1 8.4.1 10.8.6 1.8.3 4.7 1.1 6.5 1.6 1.8.6 5.7 2 8.7 3.3 3 1.3 6.6 2.7 8.2 3 1.7.5 4.1.8 5.8.7 1.7 0 4.2-.2 5.5-.4 1.4-.3 3.6-.9 4.9-1.5 1.7-.9 3.3-2 5-3.7 1.4-1.4 3.7-4.4 5.2-6.6 1.5-2.4 3.2-5.4 3.8-6.9.6-1.4 1.2-3.5 1.4-4.5.2-1.5 0-2.2-.5-3.2-.4-.8-1.2-1.6-1.8-1.9-.8-.3-1.8-.4-2.8-.3-.9.1-2.1.6-2.7 1.1-.6.6-1.4 1.8-1.8 2.8-.5 1-1.5 2.4-2.1 3-.7.6-1.8 1.3-2.6 1.7-1 .4-3.2.6-8.9.6-6 0-8.8-.3-13.7-1-5.7-.8-6.5-1.1-8.5-2.3-1.2-.8-3.2-2.4-4.2-3.5-1.1-1.2-2.1-2.7-2.2-3.2-.2-.6-.4-1.8-.7-2.7-.3-1-1.4-3.2-2.6-5-1.2-1.8-3.4-4.5-4.9-6.3-2.1-2.3-3-3.6-3.5-5.1-.3-1.2-.9-3.7-1-5.7-.3-2-.4-7.6-.4-12.6 0-4.9-.3-10.2-.5-11.8-.3-1.7-1.1-5.6-1.9-8.8-1.2-4.8-1.5-6.5-1.5-9.4 0-3.1.3-4.6 1.8-10.4l1.8-6.8c0-25.5.1-26.1.9-27.5.5-.9 1.7-2.5 2.7-3.8 1.2-1.2 3.1-3.9 4.5-5.8 1.5-2.1 3.1-3.9 4-4.5.9-.5 2.3-1.1 3.3-1.2.9-.1 2.7.2 3.8.5 1.1.3 3.1 1.3 4.3 2.1 1.3.9 3.7 2.7 5.4 4.3 2.4 2.2 4.1 3.3 8.4 5.4 3 1.5 6.3 3.5 7.3 4.4 1.5 1.4 1.8 1.8 1.9 3 0 .7-.4 2.7-.9 4.3-.6 2.4-.8 3.6-.6 5.4.2 1.3.7 3.6 1.2 5.1.6 1.5 1.8 3.9 2.6 5.4.9 1.5 2.4 3.4 3.5 4.3 1 .9 2.4 1.8 3 1.9.6.1 1.6.1 2.3 0 .6-.2 1.9-1 3-1.9 1-.9 2.3-2.4 2.7-3.5.7-1.3 1.1-3 1.3-5.5.3-2 .6-4.2.9-5.1.3-.9 1.2-3.2 2.1-5.1 1.2-2.5 1.6-4.2 1.6-5.4 0-1.3-.4-2.8-1.3-4.8-.7-1.6-1.5-3.9-1.8-5.2-.3-1.5-.4-4.2-.3-7.2.2-4 .4-5.4 1.1-7 .5-1.2 1.8-3.6 3-5.4 1.2-1.9 2.4-4.2 2.7-5.1.3-1 .4-2.4.3-3.3-.1-.9-.6-2.3-.9-3-.4-.8-1.8-2.7-3.1-4.2-1.3-1.6-2.5-3.2-2.7-3.6-.3-.4-.5-1.5-.8-2.4-.3-1.2-.3-4.2.1-8.2.3-4.5.3-8.7 0-13.8-.3-4.1-.7-8.7-1.1-10.2-.3-1.6-1.2-4.1-1.8-5.5-.9-1.8-2-3.3-3.3-4.5-1.2-1.2-2.9-2.2-4.1-2.7-1.4-.6-3-.8-4.7-.8-2.1 0-3 .2-3.9.8-.8.4-1.7 1.2-2.1 1.8-.7 1-.8 1.6-.8 5.9 0 4 .3 5.7 1.3 10.2 1 4 1.3 6.3 1.3 8.8 0 3-.1 3.7-1.1 5.7-.7 1.4-2.1 3.2-3.6 4.7s-4 3.4-6.4 4.8c-3.1 1.8-4.7 3-7.2 5.7-3 3.1-3.4 3.5-5.5 4-1.4.4-3.6.7-5.8.7-2 0-4.5-.3-5.7-.4-1.2-.3-2.9-.9-3.8-1.3-.9-.5-2.2-1.5-2.8-2.4-.6-.9-1.6-2.9-2.2-4.5-.6-1.7-1.5-4.4-1.8-6-.6-2.7-.6-6.7-.6-33.5 0-26.7.1-31.2.7-36.1.4-3.1 1.2-8.9 1.8-12.8.6-4 1.2-8.9 1.4-11 .2-2.1.6-4.6.9-5.7.4-1.1 1.5-2.7 2.4-3.7.9-1.1 2.8-2.6 4.2-3.4 1.5-.9 4.2-2.1 6-2.7 1.9-.6 3.7-1.1 4-1.1.3 0 1.6-.5 2.8-1.1 1.3-.6 4.2-2.4 6.6-4 2.6-1.8 5.3-3.4 6.8-3.9 1.4-.5 3.8-1 5.4-1.2 1.8-.2 4.8-.1 7 .3 2.2.3 5.2.7 6.8 1 1.6.4 4.7 1.2 7 2 2.3.7 6.3 2.2 8.8 3.2 2.7 1.1 6.9 3 9.6 4.4 2.7 1.4 6.3 3.3 8.1 4.2 2.6 1.5 3.9 2.4 6.6 5.4 1.9 2.1 4.2 4.8 5.1 6.1 1 1.3 2.3 3.5 3 5 1 2.1 1.4 3.4 1.7 6.4.2 2.1.6 4.5.8 5.3.3.9 1.8 5.5 3.4 10.3 1.6 4.9 3.3 10.3 3.8 12.1.6 2.1.9 4.4.9 6.4 0 2.7-.2 3.6-1 5.3-.6 1.2-1.6 2.7-2.3 3.5-.8.8-3.1 3-5.3 4.9-2.1 1.9-4.8 4.5-5.9 5.7-1.2 1.2-2.3 2.8-2.7 3.5-.3.7-.7 2-.8 3-.2 1.4 0 2 .7 3 .6.8 1.5 1.7 2.2 2.1.8.4 2.6.9 4 1.1 1.5.3 3.4.8 4.3 1.2l1.8.8c4.1-1.3 7.8-3 10.9-4.5 3.1-1.6 7.1-3.9 8.9-5.1 1.8-1.2 4.5-3.4 6.2-4.9 1.6-1.6 3.9-4 5.1-5.4 1.2-1.5 3-3.9 4-5.5 1-1.5 2.5-4.4 3.4-6.2.9-1.9 2.1-4.8 2.6-6.5.6-1.7 1.4-4.7 1.8-6.8.6-2.6.8-5.2.8-8.3 0-2.5-.3-5.8-.6-7.4-.3-1.5-.9-4-1.3-5.4-.5-1.5-1.8-5.1-2.9-8.1-1.1-3-2.4-6.9-2.8-8.7-.5-1.8-1-5.1-1.2-7.3-.3-2.6-.2-5.9.1-9 .2-2.8.6-6.5 1-8.2.3-1.8 1.4-5.7 2.3-8.9 1-3.2 1.8-6.5 1.8-7.5 0-1.2-.3-2.4-.7-3.2-.4-.7-1.2-1.6-1.9-2-.7-.4-1.8-.7-2.8-.7-1.1 0-2.2.3-3 .7-.9.6-1.7 1.7-2.7 3.7-.9 1.9-2.1 3.6-3.1 4.7-1 .9-2.7 2.1-3.9 2.7-1.2.6-3 1.2-4.2 1.5-1.1.3-2.9.4-4 .3-1.5-.2-3-.6-4.9-1.6-1.8-.9-3.9-1.5-5.3-1.8-1.4-.3-3.7-.4-5.1-.4-1.6 0-3.6-.3-5.1-.8-1.3-.5-3.6-1.5-5.1-2.4-1.5-.9-3.9-2.2-5.5-3-1.5-.9-3.9-1.8-5.3-2.3-1.4-.5-3.6-1.2-4.9-1.5-1.4-.3-4-.9-5.8-1.2-2.3-.4-6.9-.6-13.5-.7-5 .4-10.8.5-12.2.6zm290.7 45.4c-9.3 1.8-28.7 5.4-43 8.1-14.4 2.7-26.2 5-26.2 5 0 .1.7 4.1 1.6 9 .9 4.9 1.8 8.9 2 9 .2.1 8.4-1.5 18.2-3.3 9.9-1.9 17.9-3.3 17.9-3.3.1 0 1.7 8.4 3.6 18.7 2 10.2 3.6 18.8 3.8 18.9.1.2 3.5-.3 7.4-1 4-.7 7.4-1.4 7.5-1.5.3-.3-1.3-8.7-3.3-19.2l-3.6-18.9c15.2-2.8 19.6-3.6 19.7-3.5 0 0 1.9 9.8 4.1 21.7 2.2 11.9 4.1 21.6 4.1 21.6 0 .1 3-.6 6.6-1.2 3.7-.7 7-1.3 7.5-1.3s.9-.2 1.1-.3c.1-.2-1.8-10.7-4.2-23.4-2.4-12.8-5-26.6-5.7-30.8-.8-4.2-1.5-7.6-1.7-7.6-.4.1-8.1 1.6-17.4 3.3zM120.8 837.2c-24.8 4.9-45.1 9-45.2 9.2-.2.2-.9 4.9-1.7 10.6-.8 5.7-1.4 10.3-1.3 10.3 0 0 18 9.6 39.7 21.1 21.8 11.7 40.3 21.5 41.2 21.9l1.5.8c2-13.5 2.6-17.8 2.7-18.3.2-.8-.7-1.3-8.3-5.1-6.9-3.4-8.5-4.4-8.5-5 0-.4 1.1-7.7 2.4-16.2 1.2-8.5 2.3-15.5 2.4-15.6 0 0 4.2-.7 9.4-1.5 8.4-1.3 9.3-1.5 9.5-2.2.1-.4.7-4.3 1.3-8.7.6-4.4 1.2-8.5 1.4-9.2.1-1 .1-1.2-.5-1.2-.5.3-21.1 4.3-46 9.1z"/><path fill="#0E8E3A" d="M453.4 850.9c-.8.3-2.2.8-3.2 1.3s-2.7 1.5-3.6 2.4c-1 .9-2.5 2.5-3.5 3.7-.9 1.3-2.4 3.9-3.2 5.9-.9 2-2.1 5.7-2.8 8.1-.8 2.5-2.1 8.1-3.1 12.6s-2.1 9.4-2.6 11.1c-.5 1.7-1.1 3.7-1.5 4.6-.3.9-1.2 2.1-1.8 2.8s-1.8 2.4-2.7 3.6c-.9 1.2-2 3.1-2.5 4.2-.6 1.1-1.5 3-2 4.3-.6 1.4-1.5 3.9-2 5.7-.9 2.7-1 4.3-1.3 11.4-.1 5.1-.6 9.3-.9 10.8-.3 1.5-.9 3.3-1.4 4.1-.4.9-1.9 2.9-3.3 4.5s-3.4 4.3-4.5 6c-1.2 1.7-2.8 4.5-3.7 6.4-.9 1.9-2 4.5-2.4 5.7-.5 1.3-1 3.6-1.2 5.3-.3 1.8-1.2 6.2-2.3 10-1.2 4.5-2.1 8.2-2.2 10.2-.3 2.7-.2 3.4.3 3.9.6.5 4.6.6 56.9.6h56.3c1.8-2.5 2.5-4 2.8-4.9.4-1 .6-2.7.6-3.9 0-1.5-.3-2.7-1-4.2-.7-1.4-2.1-3-3.9-4.9-1.7-1.5-4.8-4.6-7-6.8-2.3-2.2-4.8-4.9-5.7-6-.9-1.2-2.1-3-2.7-4.2-.7-1.2-1.8-3.6-2.4-5.3-.7-1.8-1.5-4.8-1.8-6.9s-.8-9.2-.9-16.9c-.3-8.1-.6-14.5-.9-16.2-.3-1.6-1.2-4.4-1.9-6.3-.7-1.9-3.5-8.4-6.1-14.4-2.7-6-6-13.6-7.3-16.9-1.5-3.3-3.4-8.1-4.3-10.8-1-2.6-2.2-6.3-2.7-8.1-.6-1.9-1.1-4.5-1.2-5.9-.1-1.4-.5-2.9-.7-3.4-.3-.5-1-1.5-1.6-2-.6-.6-1.7-1.2-2.4-1.5-.7-.3-2-.4-2.8-.4.2.3-1.1.6-1.9.7zm-341.6 5.8c-9.3 1.5-17.2 2.9-17.7 3-.5.1 5 3 15.8 8.4 9.1 4.5 16.6 8.1 16.6 8.1 0-.1.7-4.6 1.5-10.1.9-5.5 1.5-10.5 1.5-11 .1-.6-.1-1.1-.3-1.1-.2 0-8.1 1.2-17.4 2.7z"/><path fill="#FEFEFE" d="M1211.1 886.3c-18.5.8-27.7 1.2-30.4 1.7-2.2.4-5.1 1.1-6.4 1.6-1.4.5-3.5 1.5-4.7 2.1-1.2.7-3.2 2.2-4.4 3.3-1.2 1.2-2.9 3.2-3.8 4.5-.9 1.4-2.3 3.9-3 5.5-.7 1.7-1.6 4.5-2.1 6.2-.4 1.8-.8 5.3-1 7.8-.1 2.8 0 6.2.3 8.9.3 2.4.8 6 1.3 7.9.6 2 1.7 5.1 2.6 7 .9 1.8 2.5 4.4 3.5 5.6 1.1 1.3 2.8 3 3.9 3.9 1.2.9 3.3 2.2 4.7 3 1.5.7 4 1.7 5.7 2.1 2.4.7 4.5.9 9.5 1 3.6.2 18.3-.3 33.2-.9 14.8-.6 27-1.1 27.1-1.1 0-.1-.1-4.2-.3-9.2-.2-5.1-.4-9.3-.6-9.3-.1-.2-12.4.2-27.4.8-15 .6-29.5.9-32.3.9-4.8-.1-5.2-.2-7.6-1.4-2-.9-3-1.8-4.3-3.4-1.2-1.5-2-3.1-2.7-5.2-.8-2.5-1-3.7-1-7.2s.2-4.5.8-6.4c.6-1.3 1.6-3.1 2.4-4.2.8-1 2.5-2.4 3.6-3 1.2-.6 3.2-1.5 4.5-1.8 2.1-.6 6.9-.9 30.8-1.8 15.6-.6 29.2-1.2 30.2-1.2h1.8c-.3-7.8-.4-12-.6-14.4l-.3-4.4c-5 0-18.5.5-33 1.1z"/><path fill="#0E8E3A" d="M836.7 907.5c-.2.4-1.7 5-3.4 10.2l-3 9.4-21.7.4c13.6 9.9 17.4 13 17.4 13.2-.1.2-1.6 4.7-3.3 9.9-1.8 5.4-3 9.7-3 9.7.2.1 3-1.9 6.4-4.3 3.3-2.5 7.2-5.3 8.4-6.3l2.4-1.8c2.2 1.7 6 4.5 9.9 7.3 3.9 2.9 7.2 5.1 7.3 5 .2-.2-.3-2-1-4.1-.8-2.1-2.2-6.6-3.3-10l-2.1-6.1 17.6-12.6-21.8-.4c-4.8-14.9-6.3-19.5-6.4-19.8 0-.4-.1-.3-.4.3z"/><path fill="#FEFEFE" d="M68.3 917.3c-.1 3.5-.3 7.7-.4 9.3l-.2 3c3.9 0 23.7.8 46.6 1.7s41.5 1.6 41.5 1.6c.1 0 .3-4.2.4-9.2l.4-9.1c-2.7-.3-22.2-1.1-45.1-2-22.9-.9-42-1.5-42.3-1.5-.5-.1-.7.8-.9 6.2z"/><path fill="#0E8E3A" d="M391.9 929.9c-1 1.1-2.6 2.7-3.5 3.8-1.3 1.4-2.1 1.9-3.3 2.1-.9.2-2.2.6-3 1-.9.5-2 1.5-2.7 2.6-.7 1-1.4 2.3-1.5 3-.3.6-.3 2.2-.1 3.6.2 1.4.6 3.3 1.2 4.4.6 1 1.5 2.1 2.1 2.5.7.4 1.8.9 2.5.9.8.2 2.1.2 3 0 1.4-.3 2.1-.6 3.6-2.2 1.1-1.2 2.4-2.7 3-3.4.8-1 1.8-1.7 2.9-2.1.9-.3 2.1-.9 2.6-1.4.5-.5 1.1-1.5 1.3-2.2.3-.8.3-1.8.1-2.4-.2-.7-.9-1.8-1.5-2.6-.7-.9-1.4-1.8-1.5-2.3-.1-.6-.3-2-.4-3.3-.1-1.4-.4-2.7-.6-3-.1-.3-.8-.6-1.3-.7-.9-.3-1.3 0-2.9 1.7zm138.7.1c-.6.5-1.6 2-2.2 3.3-.6 1.4-1.2 3.4-1.3 4.5-.1 1.6.1 2.9.9 5.1.9 2.6 1 3.7 1 7.7 0 4.3.1 4.9.9 6.1.6.7 1.6 1.7 2.4 2.1.9.5 2.5.9 4.3.9 2.6.2 3.2 0 6.3-1.2 2.4-1 4-1.5 5.3-1.5 1 0 2.5-.2 3.3-.4.9-.2 2-.8 2.6-1.3.7-.6 1.2-1.5 1.4-2.2.2-1-.2-2.1-1.7-5.2-1.3-2.7-2.1-4.6-2.2-6-.1-1.2-.4-2.6-.6-3.2-.3-.6-.9-1.3-1.5-1.7-.6-.4-1.8-.6-3.1-.6-1.2.1-2.6-.2-3-.4-.5-.3-2.2-1.7-3.9-3.3-1.7-1.5-3.6-3-4.3-3.3-.7-.3-1.8-.6-2.4-.6-.7.3-1.6.7-2.2 1.2z"/><path fill="#FEFEFE" d="M124.3 942.7c.2 1.2.5 5.3.7 9.2.4 5.1.7 7.2 1.1 7.5.3.1 1.3.3 2.2.5.9.2 2.4.5 3.2.9.9.4 2.4 1.2 3.6 1.9 1.1.7 2.5 1.8 3.1 2.3.7.6 1.7 1.8 2.3 2.8.6.9 1.5 2.7 1.8 3.8.4 1.2.9 3.3 1.2 4.8.3 2 .3 3.4 0 5.5-.3 1.7-.7 3.9-1.2 5-.4 1.1-1.6 3.1-2.6 4.4-1.1 1.4-2.9 3.2-4.1 4.1-1.2.9-3.2 2.1-4.3 2.6-1.2.6-3.7 1.5-5.7 2.1-2 .6-4.8 1.2-6.4 1.5-1.8.3-5.3.4-9.8.3-5.7-.1-7.6-.3-10-1-1.7-.5-4-1.3-5.3-1.9-1.2-.6-3.1-1.8-4.2-2.6-1.1-.9-2.7-2.6-3.7-3.9-1.2-1.7-2.1-3.4-2.7-5.4-.8-2.3-.9-3.8-.9-6.8 0-2.3.3-4.8.6-6s.9-2.9 1.4-3.7c.4-.9 1.5-2.4 2.4-3.3.9-1 2.4-2.3 3.3-2.8.9-.6 2.7-1.5 3.9-2l2.2-.9c0-3-.3-6.9-.6-10.8-.3-3.9-.6-7.1-.6-7.2 0-.2-.4-.3-.8-.3-.5 0-2.4.6-4.3 1.2s-4.9 2.1-6.8 3.1c-2.4 1.5-4.4 3.1-6.9 5.6-3.1 3.3-3.7 4.1-5.7 8.4-1.3 2.6-2.6 5.8-2.9 7.2-.3 1.4-.9 4-1.1 5.8-.3 2.1-.4 5.1-.3 7.4.2 2.2.6 5.4.9 7 .3 1.7 1 4.2 1.5 5.7.6 1.5 1.5 3.9 2.3 5.3.8 1.5 2.1 3.8 3.2 5.1 1 1.4 2.6 3.2 3.5 4.1 1 .9 2.7 2.4 3.9 3.3 1.2.9 3.3 2.3 4.9 3.1 1.5.9 4.2 2.1 6 2.7 1.8.6 4.6 1.5 6.4 1.8 1.8.3 5.1.8 7.3.9 2.4.1 6.5.1 9.3-.1 2.8-.2 6.6-.6 8.3-.9 1.8-.3 4.2-.9 5.3-1.2 1.2-.3 3.3-1 4.8-1.5 1.5-.6 4.1-1.8 5.8-2.7s4.3-2.5 5.7-3.5c1.4-1 3.4-2.9 4.5-4.1 1.2-1.2 2.7-3.2 3.5-4.3.8-1.2 2-3.1 2.6-4.4.6-1.2 1.5-3.4 2-4.8.4-1.3 1.1-3.9 1.4-5.7.3-1.8.6-4.9.6-6.9 0-2.1-.1-5.1-.4-6.6-.3-1.6-.7-3.9-1-5.3-.3-1.4-1.1-3.8-1.7-5.3-.6-1.6-2-4.2-3-5.9-1.2-1.7-3-4-4.1-5.3-1.2-1.2-3-2.8-4-3.6-1.1-.8-3.3-2.1-4.9-2.9-1.7-.9-4.3-2.1-5.9-2.6-1.6-.6-3.9-1.3-5.3-1.5-1.4-.3-3.1-.7-3.9-.8l-1.4-.3-.2 1.9zm1105.5 40c-.8 7.2-1.5 13.2-1.5 13.2-.1.1-16.2-1.7-35.8-3.9-19.7-2.2-35.8-3.9-36-3.9-.2 0-.7 4.2-1.2 9.1-.6 5-.9 9.1-.8 9.1.1.1 16.2 1.8 36 4l35.9 3.9c-2.2 20.4-2.8 26.4-2.7 26.5 0 0 3.4.4 7.5.9 4.1.4 7.6.7 7.8.6s2.1-16.2 4.2-35.5c2.1-19.4 3.8-35.3 3.8-35.4-.1 0-3.6-.5-7.8-.9l-7.7-.9-1.7 13.2zm-522.1 28.6c-.7.3-1.6.9-2 1.2-.5.4-.7 1.2-.7 2.1s.3 2 .6 2.6c.3.6 1.9 2.6 3.4 4.2 1.6 1.8 3.5 3.9 4.1 4.8.7 1 1.5 2.6 1.9 3.6.5 1.3.8 2.8.7 4.9 0 1.7.2 3.6.3 4.4.3.8 1.3 2.3 2.5 3.6 1.2 1.3 2.7 3.6 3.6 5.1.9 1.6 1.8 3.9 2.1 5.1.3 1.2.9 5.4 1.1 9.2.5 6 .8 7.6 1.8 10.8.7 2.1 1.5 5.1 1.8 6.6.3 1.5.5 5.4.5 8.6 0 3.2-.2 7.1-.4 8.7s-.9 4.5-1.3 6.3c-.5 1.9-1.5 5.1-2.4 7.2-.9 2.1-3.3 7.9-5.6 13-2.2 5.1-4.5 10.2-5.1 11.3-.7 1.2-1.8 3-2.6 4s-2.1 2.4-2.9 3c-.9.6-2.1 1.1-2.7 1.1-.6 0-1.8.3-2.7.7-.9.4-2.7 1.7-4.2 2.8-1.5 1.2-3.6 2.7-4.8 3.3-1.2.6-3.4 1.5-5.1 2-2.8.8-3.6.8-10.5.6-6-.2-8.1-.4-10.5-1-1.6-.5-3.9-1.2-4.9-1.7-1.2-.4-3-1.6-4.2-2.4-1.3-.8-3.3-2.4-4.4-3.6-1.2-1.2-3.6-4.1-5.5-6.6-1.8-2.5-4.5-5.7-5.8-7-1.4-1.4-5.5-4.8-9.3-7.6-3.7-2.8-7.8-6-9.1-7.2s-3.2-3-4.3-4.3c-1.1-1.2-2.4-3-2.9-3.8-.5-.9-1.2-1.7-1.4-1.8-.3-.2-.9-.2-1.4-.1-.5.2-2.4.9-4.2 1.7-1.8.9-6.2 2.4-9.7 3.6l-6.5 2.1-40-.1c-9 9.3-10.5 11-11.4 12.9-.7 1.3-1.3 3.4-1.5 4.5-.2 1.3 0 2.8.3 3.8.5 1.5 1.3 2.5 5.3 6.4 4.2 4.2 5 5.1 6.3 7.8.8 1.7 2.4 4.5 3.5 6.3 1.2 1.8 3.1 4.6 4.4 6.4 1.3 1.8 4.2 5.7 6.6 8.6 2.4 3 5.5 6.8 7 8.5 1.5 1.7 4.5 4.9 6.6 7.2 2.2 2.3 5.4 5.3 7 6.7 1.7 1.4 4.1 3.2 5.3 3.9 1.3.8 3.6 1.8 5.1 2.3 1.5.6 4.4 1.9 6.4 3.1 2 1.2 4.6 2.7 5.9 3.3 1.4.6 4.1 1.3 6 1.8 2.1.4 5.8.9 8.4 1.2 2.5.3 7.7.4 11.4.4s9.2-.2 12-.4 6.9-.7 9-1c2.2-.3 5.8-1.1 8.1-1.7 2.3-.6 6.3-1.8 8.8-2.8 2.7-.9 6.5-2.4 8.7-3.2 2.2-.8 5.5-1.9 7.4-2.4 3.2-.8 4.1-.8 14.4-.7 9.6.2 11.4.3 13.3.9 1.3.4 3 1.3 3.7 2 .9.7 1.7 1.8 1.9 2.7.3.8.9 2.2 1.4 3.2.5 1 2.5 3.6 4.5 5.7 2.5 2.7 3.8 4.3 4 5.2.2.8.5 2.7.7 4.4s.9 3.9 1.4 5c.5 1.2 1.5 2.4 2 2.8.7.4 1.6.8 2.6.8s2.1-.4 3.3-1.2c.9-.6 2.7-2.2 3.8-3.5 1.2-1.4 2.9-3.6 3.9-4.9 1-1.3 3-4.6 4.5-7.3s3.4-5.8 4.3-6.9c.9-1.2 2.1-2.7 2.6-3.4.7-.9 1.3-2.5 1.8-4.6.4-1.8.9-4.8 1.2-6.8.2-2.1.6-6.3.8-9.6.2-3.3.5-13.7.8-23 .3-9.3.5-19.5.8-22.8.2-3.3.7-7.5 1-9.4.4-2 .5-4.5.5-5.7-.2-1.2-.6-2.9-1.1-3.8-.5-1-2.3-3.2-3.9-4.9-1.8-1.8-4.2-4.7-5.5-6.5-1.4-1.8-2.8-4-3.3-5.1-.6-1.3-1.1-3.6-1.5-6.8-.5-4-.5-5.6-.2-8.4.3-1.8.8-4.9 1.2-6.8.7-3 .8-3.6.3-5.1-.4-1.3-1.1-2.4-2.8-4-1.3-1.3-3.2-3-4.2-4-1.8-1.7-1.9-1.9-2.6-5.1-.4-1.8-1.3-4.9-2-6.7-.8-1.9-2.2-5.1-3.3-7-1.1-2-3-5.1-4.2-6.8-1.2-1.8-3.9-5.1-6-7.3s-4.5-5.1-5.4-6.2c-1-1.4-2.1-3.5-2.7-5.4-.9-2.5-1.5-3.6-2.7-4.8-1.1-1.1-2.3-1.8-3.6-2.2-1.1-.4-3.3-.7-5-.8-2.4-.4-3.6-.2-4.6.2zm-583.3 16.9c-2 .3-5.7 1-8.1 1.7-2.5.6-5.8 1.6-7.3 2.1-1.6.6-4.2 1.8-5.9 2.6-1.7.8-4.1 2.2-5.4 3.1-1.4.9-3.7 2.8-5.3 4.2-1.5 1.5-3.5 3.6-4.4 4.7-.9 1.2-2.2 3.2-3 4.5-.8 1.4-1.8 3.9-2.4 5.7-.6 1.8-1.4 4.5-1.7 5.9-.3 1.5-.6 4.8-.6 7.9.1 3 .3 6.6.6 8.1s.9 4 1.3 5.4c.4 1.5 1.6 4.5 2.7 6.9 1.1 2.3 2.7 5.1 3.5 6.3.8 1.2 2.5 3.3 3.7 4.7 1.3 1.5 3.6 3.6 5.3 4.8 1.7 1.2 4 2.7 5.1 3.3 1.2.6 3.7 1.5 5.7 2.2 2 .6 5.2 1.3 7.2 1.6 2.4.3 5.4.4 8.8.3s7-.6 10-1.2c2.6-.6 6.5-1.6 8.7-2.4 2.2-.7 5.4-2 7.2-2.8 1.8-.8 4.7-2.5 6.4-3.7 1.8-1.2 4.5-3.4 6.1-5 1.5-1.5 3.6-4.1 4.7-5.7 1-1.6 2.4-4.2 3.1-5.9.7-1.7 1.6-4.4 2-6 .6-2.1.9-4.8 1.1-8.4.1-4.2 0-6.4-.5-9.3-.3-2.1-1.2-5.6-2-7.8-.7-2.2-2-5.2-2.9-6.8-.9-1.6-2.2-3.8-3-4.9-.8-1.2-2.4-3.2-3.6-4.5s-3.6-3.5-5.2-4.7c-1.7-1.3-4.5-3-6.3-3.8-1.8-.8-4.8-1.9-6.8-2.4-2.8-.8-4.8-1-9.4-1.1-3.7-.1-7.1.1-9.4.4zm1026 8.2c-.1.3-3.8 14.8-8.2 32.2-4.5 17.5-8.1 31.9-8.1 31.9.1.1 3.4 1 7.5 2 4 1.1 7.4 1.8 7.5 1.8.1-.2 2.9-10.8 6.1-23.4 3.3-12.8 6-23.3 6.2-23.4.1-.1 5.1 1.2 11.1 2.7 8.7 2.3 10.9 3 10.8 3.4-.1.3-2.5 9.6-5.3 20.7-2.9 11.1-5.1 20.1-5.1 20.2 0 .1 3.4 1 7.5 2.1s7.5 1.8 7.5 1.7c.1-.2 2.6-9.5 5.4-20.7 2.9-11.2 5.3-20.4 5.4-20.6.1-.1 4.1.8 8.7 2.1 4.8 1.2 8.7 2.3 8.8 2.4s-2.3 10.2-5.4 22.5c-3.1 12.2-5.7 22.3-5.7 22.5s3.4 1.3 7.5 2.3l7.5 1.9c12.3-48.4 15.9-62.5 15.9-62.6 0-.1-1.4-.6-3.3-1-1.8-.6-21-5.4-42.6-10.9s-39.3-10-39.4-9.9c-.1-.3-.2-.2-.3.1z"/><path fill="#0E8E3A" d="M127.2 1046.3c-.6.1-3 .6-5.4 1.2-2.4.6-5.4 1.5-6.8 1.9-1.4.6-3.8 1.7-5.3 2.5-1.6.8-4 2.5-5.4 3.6-1.6 1.3-3.3 3.3-4.5 5-1.1 1.7-2.3 4-2.7 5.5-.6 2-.8 3.6-.8 6.4 0 2.4.3 4.7.6 6.1.4 1.4 1.2 3.6 1.9 5 .9 1.7 2.1 3.4 3.9 5.2 1.5 1.5 3.6 3.2 4.8 3.9 1.2.6 3.2 1.5 4.5 2 1.8.6 3.8.9 7.3 1.1 3.7.2 6 0 8.9-.5 2.2-.4 5.4-1.1 7.2-1.6 1.8-.6 4.4-1.5 5.9-2.1 1.5-.6 3.9-2.1 5.6-3.1 1.7-1.1 3.9-3 5.1-4.2 1.1-1.2 2.7-3.6 3.5-5.3.9-1.7 1.8-3.9 1.9-5.1.3-1.2.4-3.3.4-4.6 0-1.3-.3-3.6-.6-5.1-.3-1.4-1.2-3.9-2-5.5-.9-1.8-2.4-3.8-3.9-5.4-1.5-1.6-3.5-3.2-4.8-3.9-1.2-.7-3.3-1.6-4.7-2.1-2-.7-3.6-.8-7.9-1-3.1 0-6 0-6.7.1z"/><path fill="#FEFEFE" d="M1131.3 1108.3c-.3.7-3.9 9-8 18.6-4.1 9.5-8.1 19.2-8.8 21.4-.8 2.3-1.8 5.5-2.1 7.1-.4 1.6-.7 4.5-.7 6.3.1 2.4.3 4.1 1 6.3.6 1.7 1.7 4.3 2.6 5.8 1.1 1.8 2.7 3.9 4.5 5.5s3.9 3.3 5.8 4.2c1.7.9 4.4 2 6 2.4 2 .6 4.2.8 6.4.8 2.4 0 4.1-.3 5.5-.8 1.2-.4 2.7-1 3.3-1.3.7-.4 2.2-1.4 3.3-2.4 1.2-.9 2.2-1.6 2.3-1.5.2.2.3.9.3 1.5s.3 2.4.8 3.6 1.5 3.3 2.2 4.4c.8 1.2 2.4 2.7 3.5 3.6 1.2.9 3.2 2.1 4.5 2.8 1.4.6 3.5 1.5 4.7 1.8 1.3.4 3.8.6 5.5.6s4.2-.3 5.3-.6c1.2-.3 3.2-1.1 4.5-1.8 1.8-.9 3.3-2.1 5.3-4.1 1.6-1.7 3.7-4.4 4.8-6.1 1-1.8 5.8-12.3 10.6-23.7 4.8-11.3 8.8-20.7 8.9-20.8 0-.2-17.8-7.9-39.6-17.3-21.8-9.3-40-17.1-40.5-17.3-1.3-.2-1.5-.1-1.9 1zm-968.9 3c-1.2.3-3.4 1-5.1 1.6-1.7.6-4 1.8-5.1 2.5-1.2.7-2.8 2-3.6 2.8-.8.9-2 2.1-2.5 2.8-.6.8-1.5 2.7-2.1 4.3-.8 2.1-1.2 4.2-1.4 6.5-.3 2-.2 5.1.1 7.5.3 2.3 1.2 8.9 2.1 14.7.9 5.8 1.9 11.7 2.1 13.2.3 1.6.3 3.3 0 4.5-.3 1.1-.9 2.5-1.4 3.3-.6.9-1.7 1.8-2.9 2.4-1.2.6-2.9 1.2-3.9 1.2-1.7.3-2.4.1-4.4-.9-1.5-.8-3-1.8-3.9-2.8-.8-.9-2.1-2.8-2.9-4.2-.9-1.4-2-3.7-2.5-5.3-.7-2-1.1-4-1.2-6.4-.3-3-.2-3.9.6-5.7.5-1.2 1.5-2.9 2.3-3.8.8-1 2.1-2.1 2.9-2.6.8-.4 1.4-1.1 1.4-1.4 0-.3-1.5-3.9-3.3-8.2-1.8-4.2-3.3-7.8-3.3-7.8 0-.1-1.2.6-2.6 1.4-1.5.8-3.6 2.3-4.8 3.3-1.2 1.1-3 3-4 4.4-1.1 1.3-2.4 3.4-3 4.7-.6 1.3-1.3 3.4-1.7 4.8-.3 1.4-.7 3.9-.9 5.7-.1 2.1.1 4.7.5 7.2.3 2.2 1.2 5.7 2 7.9s2.1 5.4 2.9 7c.9 1.7 2.4 4.4 3.5 6 1.2 1.7 2.9 3.9 3.9 4.9 1.1 1.1 2.8 2.7 3.9 3.6 1.1.9 3 2.1 3.9 2.6 1.1.6 3.2 1.3 4.8 1.8 1.8.4 4.2.7 6.1.7 1.8 0 4.5-.3 6-.6s4.5-1.5 6.7-2.5c3.3-1.6 4.5-2.4 6.6-4.6 2-2 3.1-3.5 4-5.4.7-1.6 1.5-4 1.8-6 .6-2.9.6-4.2.1-8.1-.3-2.6-1.1-8.2-1.8-12.4-.7-4.3-1.6-9.7-1.9-12.1-.4-2.4-.6-5.4-.6-6.9.1-1.8.6-3.2 1.2-4.4.5-.9 1.6-2.1 2.4-2.7.9-.6 2.4-1.2 3.6-1.5 1.2-.3 2.7-.3 3.4-.2.8.2 1.9.6 2.5.9.6.3 1.9 1.2 2.8 2 .9.8 2.4 2.4 3.3 3.8.9 1.4 2.1 3.4 2.6 4.5.6 1.2 1.5 3.3 2 4.8s1.1 4 1.3 5.6c.3 2.1.3 3.4 0 4.9-.3 1.2-.9 2.9-1.5 3.9s-1.9 2.7-3.1 3.7c-1.2 1-2.4 2-2.8 2.1-.7.3-.6.8 2.6 8.2 1.9 4.4 3.5 8.1 3.6 8.1.1.2 1.4-.4 2.9-1.2 1.5-.8 3.7-2.2 5-3.3 1.2-1 3-2.7 3.9-3.9.9-1.2 2.1-3.1 2.7-4.3.6-1.3 1.5-3.6 2-5.4.7-2.4.9-3.9.9-7.7 0-2.9-.3-6-.6-7.9-.4-1.8-1.3-5.1-2.1-7.4-.8-2.3-2.4-6-3.5-8.3-1.2-2.4-3.2-5.6-4.5-7.2-1.2-1.7-3.4-4-4.7-5.3-1.4-1.2-3.5-3-4.7-3.8-1.3-.8-3.7-2-5.5-2.6-2.6-.9-4-1.2-7.2-1.2-2.3-.2-4.7-.1-5.9.2z"/><path fill="#0E8E3A" d="M1138.6 1129.9c-.2.4-2.3 5.1-4.6 10.6-2.4 5.5-4.5 11-4.9 12.2-.4 1.2-.7 3.3-.7 4.5-.1 1.3.2 3 .4 3.7.3.8.8 1.9 1.3 2.5.4.7 1.5 1.8 2.4 2.4.9.6 2.4 1.5 3.4 2.1 1 .4 2.6 1 3.6 1.1.9.2 2.4.1 3.4-.3.9-.3 2.4-.9 3.3-1.5.9-.7 2.4-2.1 3.2-3.3.8-1.2 3.5-6.8 6.2-13.2 2.7-6.2 4.8-11.4 4.9-11.7.2-.4-1.8-1.3-7.7-3.9-4.3-1.8-9.1-3.9-10.8-4.6-2.8-1.1-3.1-1.2-3.4-.6zm35.3 15.2c-.2.4-2.2 5.2-4.5 10.5s-4.5 10.5-4.8 11.7c-.4 1.2-.6 3.1-.6 4.2 0 1.2.3 2.9.6 3.6.3.8 1.2 2 1.8 2.7.7.7 2.1 1.7 3.1 2.2 1.4.6 2.6.8 4.2.8s2.7-.3 3.4-.7c.7-.4 1.8-1.3 2.5-2.1.8-.7 1.9-2.4 2.5-3.6.7-1.2 3.2-6.8 5.6-12.4 3.1-7.2 4.2-10.2 3.9-10.4-.3-.2-4.3-1.9-8.9-3.9-8.3-3.3-8.6-3.3-8.8-2.6z"/><path fill="#FEFEFE" d="M195.4 1180.9c-1.3.3-4.2 1.5-6.2 2.4-2.1 1.1-4.8 2.8-6.2 3.9-1.4 1.1-3.1 3-3.9 4.2-.9 1.2-2 3.5-2.5 5.1-.9 2.7-1 3.3-.8 7.6.2 3.3.5 5.8 1.2 8.3.6 2 2.8 9.3 5 16.2 2.9 9.2 4 13.1 3.9 14.5 0 1-.3 2.5-.5 3.3-.3.9-1.1 2.1-2 2.8-.9.8-2.3 1.7-3.3 2.1-1.2.6-2.2.7-3.8.6-1.2-.1-2.9-.6-3.9-1.1-1.1-.5-2.9-1.9-4.1-3.2-1.2-1.3-3-3.6-3.9-5.1-.9-1.6-2.1-3.9-2.6-5.1-.7-1.8-.9-3-.9-6 0-3.3.1-4 .9-5.4.5-1 1.8-2.6 2.7-3.6l1.8-1.9-9-14.9c-1.7 1.1-3 2.1-3.9 2.9-1 .9-2.6 2.6-3.6 3.9-1 1.3-2.2 3.3-2.7 4.4s-1.4 3.1-1.8 4.5c-.5 1.5-.9 4-1 5.7-.2 1.7-.1 4.5.3 6.3.3 1.8.9 4.7 1.5 6.5.7 1.8 1.8 4.8 2.7 6.4.9 1.8 2.6 4.7 3.9 6.6 1.3 1.8 3.6 4.7 5.1 6.3 1.6 1.7 3.9 3.8 5.1 4.6 1.2.9 3.3 2.2 4.7 2.8 1.4.7 3.8 1.5 5.3 1.8 2.1.4 3.9.6 6.4.4 2.4-.1 4.7-.6 6.6-1.2 1.7-.6 4.5-1.9 6.2-3 1.8-1.2 4.3-3 5.5-4.3 1.5-1.5 2.8-3.3 3.7-5.1.8-1.5 1.6-3.9 1.8-5.1.3-1.3.3-3.9.3-6-.1-2.3-.6-5.2-1.2-7.4-.6-2-2.5-8.4-4.3-14.1-1.9-5.8-3.6-11.4-3.8-12.6-.3-1.1-.5-2.8-.5-3.8s.3-2.4.5-3.1c.3-.8.9-1.9 1.4-2.6.5-.7 1.8-1.7 3-2.3 1.7-.8 2.8-1 4.5-1 1.6 0 2.8.3 4 .9.9.4 2.5 1.6 3.6 2.4 1 .9 2.9 3 4.2 4.8 1.3 1.8 2.9 4.3 3.6 5.6.7 1.3 1.5 3.7 2 5.3.6 2.1.8 3.6.7 5.4-.2 1.3-.6 3.3-1.1 4.3-.5 1.2-1.8 2.9-3.1 4.1l-2.2 2.2 9.2 15c2.7-1.9 4.6-3.6 6-5.1 1.5-1.5 3.3-3.6 3.9-4.8.7-1.1 1.8-3.3 2.3-4.8.9-2.4 1.1-3.6 1.2-7.4.1-3.3-.1-5.5-.6-7.9-.3-1.9-1.2-4.9-1.9-6.8-.8-1.9-2.4-5.3-3.5-7.5-1.2-2.2-3.3-5.4-4.5-7.2-1.3-1.7-3.9-4.6-5.9-6.5-2.1-1.9-4.8-4.1-6.3-5-1.5-.9-4-2.1-5.6-2.7-2.4-.9-3.8-1.1-7.1-1.2-2.5.2-4.9.4-6.5.7zm909.2 11.1c-.9.2-3 .8-4.6 1.3-1.8.6-3.9 1.4-4.9 1.9-1 .4-3.3 1.9-5.2 3.2-1.9 1.2-4.7 3.6-6.3 5.2-1.6 1.7-3.6 4-4.6 5.3-.9 1.2-2.4 3.5-3.3 4.9-.8 1.5-2.1 4.2-2.8 6-.8 1.9-1.8 5-2.2 6.9-.4 2-.8 5.1-1 6.9-.2 1.8-.1 4.8.3 6.7.3 1.8.8 4.8 1.3 6.4.6 1.7 1.7 4.3 2.4 5.8.8 1.6 2.4 4.2 3.7 5.9s3.6 4.4 5.4 6c1.7 1.6 4.4 3.9 6 5.1 1.6 1.2 4.5 3.1 6.5 4.3 2 1.2 4.9 2.7 6.4 3.5 1.6.7 4.4 1.8 6.3 2.4 1.9.7 5.1 1.5 7.2 1.8 2.7.4 5 .6 7.9.4 2.3-.1 5.4-.6 7-.9 1.5-.4 3.9-1.2 5.1-1.7 1.3-.4 3.6-1.7 5.2-2.6 1.7-.9 4.5-3.1 6.4-4.8 2.1-1.8 4.7-4.6 6.5-7 1.6-2.1 3.7-5.4 4.6-7.2.9-1.8 2.1-4.6 2.7-6.2.6-1.7 1.2-4.2 1.5-5.6.3-1.5.7-4.2.8-5.9.2-1.8.1-4.8-.3-7-.3-2.1-1-5.2-1.6-6.9-.6-1.8-1.8-4.4-2.5-5.7-.7-1.4-2.1-3.6-3.1-5-1-1.3-3.7-4.2-5.9-6.4-2.7-2.6-5.8-5.1-8.8-7.1-2.7-1.8-6.6-4.1-8.9-5.1-2.3-1.2-5.5-2.5-7.2-3-1.7-.6-4.3-1.3-6-1.6-1.8-.3-4.8-.6-7.7-.6-2.6.1-5.5.3-6.3.4z"/><path fill="#0E8E3A" d="M1104.4 1209.9c-1.3.3-3.3 1-4.3 1.5-1.1.6-3 1.7-4.2 2.7-1.4 1-3.2 2.7-4.1 3.9-.9 1.2-2.2 3.3-2.9 4.5-.6 1.3-1.4 3.3-1.7 4.5-.3 1.3-.6 3.6-.6 5.3s.3 4.1.6 5.3c.3 1.3 1 3.3 1.5 4.4.6 1.2 2 3.3 3.2 4.9 1.2 1.5 3 3.6 4.1 4.5 1.2 1 3.3 2.7 4.9 3.9 1.7 1.2 4.5 3 6.5 4 2.1 1.1 5.1 2.4 7 3.1 2.7.9 4.2 1.2 7.5 1.4 3.1.2 4.8.1 6.7-.4 1.3-.4 3.4-1.1 4.5-1.7 1.1-.6 2.8-1.6 3.9-2.4 1.1-.8 2.7-2.4 3.6-3.6.9-1.2 2.2-3.2 2.9-4.5.7-1.3 1.5-3.5 1.9-4.8.4-1.8.6-3.5.4-6.2-.2-2.6-.4-4.6-1-6.2-.5-1.3-1.6-3.6-2.5-5.1-1-1.8-2.9-3.9-5.2-6.1-2-1.9-4.9-4.4-6.6-5.5-1.7-1.2-4.9-3-7.2-4-2.3-1.2-5.4-2.4-7-2.8-1.5-.4-4.3-.9-6.2-1-2.2-.1-4 0-5.7.4z"/><path fill="#FEFEFE" d="M242 1238.7c-2.2 3.6-12.9 21.6-23.9 40.2l-19.9 33.7c10.3 12.3 13.5 15.9 13.8 15.9.3.1 2-.4 3.8-1.1 1.8-.6 21.3-7.9 43.3-16 22.2-8.2 40.3-15 40.3-15 .1-.1-2.6-3.4-5.8-7.2-3.3-3.9-6-7.2-6.1-7.4-.1-.2-4.2 1.2-9 3.1-4.8 1.9-8.9 3.4-9 3.5-.1 0-4.7-5.3-10-11.7-5.4-6.3-10.1-11.9-10.5-12.3-.7-.8-.7-.8 4.2-8.4 2.7-4.2 5-7.9 5.1-8.1.1-.3-2.5-3.8-5.9-7.8-3.4-4.1-6.3-7.5-6.4-7.7.1 0-1.8 2.7-4 6.3zm338.3 15.3c-.8 1.2-2.6 3.5-4.1 5-1.6 1.6-4.1 3.8-5.6 4.9-1.5 1.2-4.4 3-6.3 4l-3.4 2c-.2 6.6-.1 8.4.1 8.4s2.1-.9 4.2-1.9c2.2-1.1 5.4-2.9 7.1-4 1.8-1.2 3.8-2.7 4.7-3.5l1.5-1.4-.1 56.3h9v-71.9h-5.9l-1.2 2.1zm41.6-1.7c-1.1.3-2.9 1-4.2 1.5-1.2.6-3.1 1.8-4.2 2.5-1.1.8-2.8 2.6-3.9 4-1.2 1.5-2.5 3.9-3.1 5.6-.7 1.7-1.4 4.5-1.6 6.4-.4 2.7-.4 4.4 0 7.2.3 2.1.9 4.8 1.4 6.3.5 1.4 1.5 3.4 2.2 4.4.7 1.1 2.3 2.9 3.5 4 1.3 1.2 3.4 2.7 4.8 3.4 1.4.6 3.7 1.5 5.1 1.8 2.2.4 3.5.6 6.3.3 2.6-.3 4.2-.7 6-1.6 1.4-.6 3.3-1.8 4.3-2.6s2.6-2.2 3.4-3.3l1.5-1.9c-.4 7-.9 10.1-1.4 12.4-.6 2.1-1.7 5.1-2.5 6.8-1.1 2.3-2.1 3.6-3.6 5.1-1.5 1.3-3 2.4-4.3 2.8-1.7.6-2.8.8-5.5.6-2.7-.1-3.8-.3-5.3-1.1-1.2-.6-2.4-1.8-3.2-2.7-.8-.9-1.7-2.6-2-3.6-.4-1.1-.8-2.4-.9-2.9-.3-1-.4-1.1-1.5-.9-.7.1-2.5.3-4.2.4l-2.9.3c.3 2.8.8 4.5 1.2 5.7.5 1.2 1.3 3 2 4s1.9 2.4 2.7 3.2c.8.7 2.1 1.7 2.8 2.1.7.6 2.4 1.3 3.6 1.7 1.3.4 3.8 1 5.7 1.2 2.6.3 4.2.3 6.6-.3 1.8-.3 4.3-1.1 5.7-1.7 1.4-.7 3.3-1.8 4.3-2.6s2.7-2.6 3.9-4c1.2-1.5 2.7-3.9 3.3-5.4.7-1.5 1.8-4.4 2.3-6.6.5-2.2 1.2-5.5 1.4-7.4.3-1.9.4-6.6.4-10.4 0-3.9-.2-8.6-.4-10.5s-.9-5.1-1.4-6.8c-.6-1.8-1.5-4.2-2.1-5.3-.6-1.2-1.9-3-2.9-4.2-.9-1.2-2.4-2.7-3.3-3.4-.9-.7-3-1.9-4.7-2.7-1.7-.8-4-1.6-5.3-1.8-1.2-.3-3.6-.4-5.3-.4s-3.7.2-4.7.4zm102.5-.2c-.6.2-1.8.5-2.9.8s-3 1.2-4.2 1.8c-1.3.7-3.2 2.3-4.5 3.7-1.3 1.3-2.8 3.5-3.5 4.9-.6 1.4-1.5 3.6-1.8 4.9-.3 1.4-.6 2.5-.6 2.5.1 0 2 .3 4.1.7 2.2.4 4.2.7 4.4.7s.6-1 .9-2.1c.3-1.2.9-2.9 1.3-3.8.5-.8 1.3-2.2 1.8-2.9.6-.8 2.1-2 3.5-2.7 2.3-1.3 2.7-1.4 6-1.4 2.9 0 3.9.2 5.3.9.9.4 2.4 1.5 3.1 2.3.9.8 1.8 2.1 2.3 3 .7 1.3.9 2.2.9 5.1 0 3-.2 3.9-.9 5.1-.5.9-1.4 2.1-2.1 2.8-.7.6-2.4 1.7-3.7 2.4-1.4.6-3.7 1.3-5.1 1.5-1.5.3-3 .4-3.4.3-.7-.2-.8.1-1.1 2.4-.2 1.5-.4 3.2-.6 3.9l-.2 1.4c4.4-.8 6.4-.9 7.8-.8 1.3.2 3.2.6 4.4 1.1 1.4.6 2.7 1.5 4.2 2.9 1.5 1.5 2.4 2.7 3 4.4.5 1.3 1 3.3 1.1 4.5.2 1.5 0 3.1-.4 4.8-.4 1.4-1.1 3.2-1.6 4.1-.6.9-1.7 2.3-2.6 3.2-.9.9-2.7 2.1-4 2.7-2.3 1.1-2.8 1.2-6.3 1.2-3 0-4.2-.2-5.4-.8-1-.4-2.5-1.5-3.5-2.3-.9-.9-2.2-2.6-2.9-4-.7-1.3-1.5-3.4-1.8-4.5-.5-1.8-.8-2.2-1.4-2.2-.4 0-2 .2-3.5.4-1.5.3-3.1.4-3.6.6-.9.3-.9.4-.7 2.2.2 1.2.6 3 1.1 4.1.4 1.2 1.4 3 2.1 4.2.8 1.2 2.4 3 3.5 4.1 1.2 1.2 3.3 2.7 4.8 3.3 1.5.8 3.8 1.6 5.1 2 1.5.4 3.9.6 6.4.6 2.4 0 4.8-.3 6.4-.7 1.3-.4 3.7-1.3 5.3-2.1 2.1-1 3.6-2.2 5.7-4.2 1.7-1.7 3.3-3.8 4-5.1.7-1.2 1.5-3.3 1.9-4.5.4-1.4.6-3.6.7-5.8 0-2.4-.3-4.4-.7-5.9-.4-1.2-1.2-3.1-1.7-4.1-.6-1.1-2-2.7-3.1-3.8-1.2-1-3-2.3-4.1-2.8-1.2-.4-2.3-.9-2.6-.9s-.5-.3-.5-.6.2-.6.5-.6 1.5-.8 2.7-1.7c1.2-1 2.7-2.7 3.5-3.7.7-1.2 1.5-3 1.9-4.1.3-1.2.6-3.2.6-4.5 0-1.3-.3-3.6-.8-4.9-.4-1.4-1.5-3.6-2.3-4.8-.9-1.3-2.4-3.1-3.6-3.9-1.1-.9-3-2.1-4.4-2.7-1.4-.6-3.6-1.3-4.9-1.7-1.4-.3-3.9-.5-5.5-.5-1.6-.6-3.4-.5-3.8-.4zm-68.4 5.1.1 4.2c26.5.2 34.3.2 34.6.3.2 0-1.1 1.7-2.7 3.7-1.6 2.1-4 5.5-5.3 7.7-1.4 2.1-3.5 5.7-4.6 8.1-1.2 2.3-2.8 5.6-3.6 7.3-.8 1.8-2.1 5.2-3 7.6-.8 2.4-2.1 6.7-2.8 9.6-.8 3-1.7 7.5-2.1 10.2-.5 2.7-.8 5.6-.8 6.5v1.6h8.9c.8-6.3 1.3-9.9 1.8-12 .4-2.2 1.4-6 2.1-8.5.8-2.5 2.2-6.7 3.3-9.4 1.1-2.7 3.1-7.2 4.5-9.8 1.4-2.7 3.6-6.7 4.8-8.9 1.3-2.2 3.5-5.4 4.8-7.2 1.3-1.8 3.3-4.4 4.5-5.8l2.1-2.4v-6.9H656v4.1zm376 17.9c-10.8 12.2-20 22.6-20.5 23.3l-1 1.3 11.8 10.5c22.3-25.3 28.9-32.7 29.1-32.7.2 0 12.3 10.7 27.1 23.7 14.8 13.1 27 23.7 27.1 23.7.2-.1 2.9-3.2 6.2-6.9l5.9-6.9c-2-1.8-16.5-14.6-33.7-29.7-17.1-15.2-31.5-27.7-31.8-28-.6-.4-2.9 2-20.2 21.7z"/><path fill="#0E8E3A" d="M625.9 1259.3c-.8.2-2.2.7-3.3 1.2-1.1.4-2.8 1.8-3.9 2.9-1.2 1.2-2.5 3.1-3.1 4.4-.8 1.5-1.3 3.6-1.6 5.6-.4 2.4-.4 3.9 0 5.9.3 1.5.9 3.6 1.5 4.9.7 1.5 1.8 2.9 3.1 4.1 1.2 1 3 2.2 4.2 2.7 1.6.6 2.9.9 5.4.9 2.9 0 3.8-.2 5.5-1 1.2-.6 2.7-1.6 3.6-2.4.9-.7 2.1-2.3 2.7-3.3.6-1.2 1.4-3 1.6-3.9.3-1.1.6-3.6.6-5.5s-.3-4.5-.6-5.5-.9-2.7-1.5-3.8c-.6-1.1-1.8-2.7-2.8-3.6-1.1-.9-2.7-2.1-3.8-2.6-1-.5-2.9-.9-4.2-1.1-1.1-.1-2.7 0-3.4.1zm-395.6 33.3c-5.4 8.4-9.6 15.2-9.3 15.3.1 0 7.8-3 16.8-6.6 9-3.7 16.5-6.7 16.5-6.7.1-.1-3-3.9-6.9-8.7-3.9-4.8-7.1-8.6-7.3-8.6 0 .1-4.5 6.9-9.8 15.3z"/><path fill="#FEFEFE" d="M419.1 1332.1c-1.3.3-3.7 1.2-5.5 2.1-2.1 1.2-4.2 2.6-6.2 4.5-1.6 1.5-3.9 4.2-5 5.8-1.1 1.7-2.5 4.2-3.1 5.4-.7 1.3-1.8 3.9-2.4 5.8-.9 2.8-1.2 4.4-1.4 7.5-.1 3 0 4.7.5 6.6.4 1.5 1.3 3.9 2.1 5.3.9 1.8 2.4 3.6 4.2 5.5 2.4 2.4 3.6 3.3 6.8 4.8 2.2 1.1 5.1 2.3 6.4 2.6 1.8.4 3.6.6 6 .4 2.8-.2 4.2-.4 6.3-1.2 1.5-.6 3.6-1.8 4.7-2.5 1.2-.8 3-2.2 4.2-3.3 1.2-1.2 2.1-2.1 1.9-2.2-.1-.1-2.3-1.4-4.8-2.9-2.6-1.4-4.8-2.7-4.9-2.7-.3 0-1 .6-1.8 1.4-.9.8-2.3 1.8-3.3 2.2-1.2.6-2.5.8-4.5.8-2.4 0-3.2-.2-5.1-1.2-1.2-.6-3-1.8-3.8-2.7-.9-.8-2-2.4-2.4-3.3-.5-1-.9-2.9-1.1-4.2-.1-1.5 0-3.3.4-5.2.4-1.6 1.4-4.3 2.4-6.2.9-1.9 2.5-4.6 3.6-6 1.1-1.5 2.9-3.3 4.1-4.3 1.2-.9 3.1-2.1 4.2-2.5 1.7-.6 2.7-.8 4.9-.6 2.4.2 3.3.4 5.3 1.4 1.4.8 3.1 2.1 4.1 3.2 1.2 1.3 1.9 2.7 2.3 4 .4 1.4.5 2.7.3 4-.1 1-.3 2.2-.3 2.6-.1.6 1 1.4 4.6 3.5 2.7 1.5 4.8 2.8 4.9 2.8.1 0 .6-.9 1-2.1.6-1.8.8-3.2.8-6.6 0-3.3-.2-4.9-.8-6.6-.5-1.2-1.6-3.5-2.7-5.1-1.2-1.7-3-3.7-4.5-5.1-1.5-1.2-3.9-2.9-5.5-3.6-1.5-.8-4.1-1.8-5.7-2.3-1.8-.6-3.9-.8-5.8-.8-1.8.5-4.2.7-5.4 1zm466.1.1c-1.2.3-3.8 1.3-5.7 2.2-1.9.9-4.4 2.5-5.7 3.6-1.2 1-3 2.8-3.9 3.9-.9 1.2-2.1 3.2-2.7 4.5-.7 1.4-1.5 3.9-1.8 5.6-.5 2.4-.5 3.9-.3 6.6.3 2 .9 4.8 1.4 6.5.5 1.6 1.6 4.2 2.4 5.7s2 3.6 2.8 4.8c.8 1.2 2.2 3.1 3.3 4.3 1.1 1.3 3 3.2 4.3 4.2 1.4 1.1 3.6 2.4 5.1 3.1 1.5.7 3.6 1.4 4.7 1.6 1.1.3 3.1.4 4.5.4s3.9-.3 5.4-.8c1.6-.4 4-1.3 5.3-2 1.3-.6 3.3-1.8 4.5-2.6 1.2-.8 3-2.4 4.2-3.7 1.2-1.3 2.7-3.5 3.3-4.9.8-1.4 1.6-3.8 1.9-5.2.3-1.8.5-3.7.3-5.7-.1-1.7-.5-4.2-.9-5.6-.4-1.5-.9-2.6-1-2.5s-2.4 1.3-5 2.8c-4.5 2.5-4.7 2.7-4.5 3.6.2.6.3 2.4.3 4.2 0 2.6-.2 3.6-.9 4.8-.4.8-1.5 2.3-2.4 3.2-.9.9-2.6 2.1-3.7 2.7-1.8.8-2.7 1-5.1 1-2.7 0-3.3-.2-5.4-1.2-1.8-.9-3.3-2-5.1-4-1.5-1.5-3.4-4.2-4.3-5.7-1-1.7-2.2-4.4-2.7-6-.9-2.4-1.1-3.8-1.1-6 0-1.7.2-3.6.4-4.4.2-.8.9-2.1 1.5-3.1s1.9-2.4 2.9-3.1c1.1-.8 2.9-1.7 4.2-2.1 1.4-.4 3-.8 3.9-.8.8 0 2.1.3 3.1.6.9.4 2.6 1.3 3.6 2.1 1.6 1.2 2.1 1.4 2.7 1.1.5-.3 2.7-1.5 4.8-2.7 2.3-1.3 4.1-2.5 4.1-2.7 0-.2-1.1-1.4-2.4-2.7-1.3-1.2-3.3-2.8-4.6-3.5-1.2-.7-3.3-1.5-4.7-1.8-1.4-.3-3.9-.6-5.5-.6-1.9-.3-4.2 0-5.5.3zm-425.7 21.6c-.9 2-5.7 13.2-10.8 24.9-5.1 11.8-9.1 21.6-9 21.7s2.5 1.2 5.2 2.4 5 2 5 1.8c.1-.2 2.3-5.1 4.8-11.1 2.6-5.9 4.8-10.8 5.1-10.8.3-.1 4.2 1.6 8.8 3.6 4.6 2.1 8.8 3.9 9.4 4.1.6.3 1.1.6 1.1.6 0 .1-2.1 5.1-4.8 11.1-2.6 6-4.7 10.9-4.7 11.1 0 .2 2.3 1.3 5.1 2.5s5.2 2.1 5.3 2.1c.1-.1 2.4-5.2 5.1-11.4 2.7-6.3 7.5-17.2 10.5-24.5 3.1-7.2 5.7-13.4 5.8-13.7s-1.5-1.2-4.5-2.5c-2.5-1.1-4.8-2.1-5.2-2.2-.6-.3-1.2 1.2-4.7 9.2-3.6 8.3-4.2 9.4-4.8 9.3-.4-.1-4.8-2-9.7-4.1-4.9-2.2-9-4.1-9-4.3s1.8-4.3 3.9-9c2.1-4.8 3.9-9 3.9-9.3.1-.4 0-.7-.1-.7-.3 0-2.6-.9-5.1-2.1-2.6-1.2-4.8-2.1-4.9-2.1-.1 0-.9 1.6-1.7 3.4zm376.9 2.7c-1.5.4-4 1.4-5.7 2.2-1.7.8-4.1 2.2-5.3 3.1-1.3.9-3 2.4-3.7 3.4-.8.9-1.8 2.7-2.4 3.9-.7 1.5-1.1 3.1-1.2 4.9-.1 1.5.1 3.6.3 4.8.3 1.2 1 3 1.6 4.2.6 1.2 1.8 3 2.7 3.9.9.9 2.5 2.2 3.6 2.7 2 .9 2.5 1.1 6.6 1 3.5 0 6-.3 11.1-1.2 3.7-.8 7.9-1.3 9.4-1.3 2 0 3.3.2 4 .6.6.3 1.5 1.2 1.8 2.1.5.9.8 2.2.8 3 0 .8-.3 2.1-.8 2.8-.5.8-1.5 1.9-2.3 2.6-.8.6-2.7 1.8-4.1 2.4-1.5.8-3.8 1.5-5.1 1.8-2.1.4-2.7.4-4.6-.2-1.2-.3-2.7-1-3.2-1.5-.6-.4-1.3-1.3-1.7-1.9-.3-.6-.7-1-.9-1-.3 0-2.5.9-5.1 2.1-2.5 1.1-4.6 2.1-4.6 2.3s.4 1 .9 1.9c.5.8 1.8 2.6 3 3.7 1.2 1.2 2.8 2.5 3.7 3 .9.4 2.8 1.1 4.2 1.4 1.8.4 3.5.6 5.7.4 1.8-.2 4.5-.6 5.9-1 1.5-.4 4.2-1.5 6-2.4 1.9-1 4.5-2.5 5.8-3.6 1.4-1 3.1-2.7 3.9-3.7.9-1.1 1.9-2.7 2.4-3.8.5-1.1 1.1-3 1.3-4.2.3-1.7.3-3 0-4.8-.3-1.4-1-3.6-1.7-5.1-.7-1.5-2.1-3.4-3-4.4-1.1-1.2-2.4-2-3.9-2.6-1.8-.8-3-.9-6-.9-2.6 0-6.4.4-12 1.5-4.6.8-9 1.4-10 1.4-1 .1-2.1-.2-2.7-.6-.6-.3-1.4-1.2-1.8-1.9-.5-.8-.8-1.8-.8-2.9.1-1.1.4-2.3.9-3.2.5-.9 1.7-2.1 2.7-2.7 1.1-.8 2.9-1.7 4.2-2.1 1.2-.4 3.1-.9 4.2-1 1.3-.2 2.5-.1 3.7.4 1.2.4 2.2 1.2 3.2 2.4l1.5 1.8 10-4.2c-1.4-2.5-2.7-4.2-3.8-5.3-1.4-1.4-3.1-2.6-4.8-3.4-2.5-1.2-3-1.3-7-1.4-3.4-.2-4.8-.1-6.9.6z"/><path fill="#9D9C9C" d="M1008.8 1385.4c0 6.9.1 9.9.1 6.4.1-3.4.1-9.1 0-12.6 0-3.6-.1-.7-.1 6.2z"/><path fill="#FEFEFE" d="M731.5 1374.8c-2.7.6-5.1 1.1-5.1 1.2-.2.1-.9 2.9-1.8 6.2-.9 3.3-1.5 6.1-1.5 6.2.1.1 1.6-.3 3.4-.6 2.4-.5 3.5-.9 3.9-1.5.3-.4 2.1-3.4 4.1-6.6 3.3-5.4 3.6-6 2.8-6-.5 0-3 .5-5.8 1.1zm-211.3 4.6c-1.9 2.6-6.9 9.5-11.3 15.3-4.4 6-10.5 14.3-13.7 18.6-3.2 4.4-5.7 8.1-5.5 8.2.2.1 2.8.9 5.8 1.8s5.5 1.6 5.5 1.5 1.5-2.2 3.4-4.8c1.8-2.6 3.6-4.7 3.7-4.6.3 0 4.6 1.3 9.6 2.8l9.3 2.7.2 11.8c2.8.9 5.4 1.7 7.8 2.3 2.3.7 4.2 1.2 4.2 1.1 0-.1-.6-12.9-1.4-28.6-.8-16.7-1.5-28.7-1.7-28.9-.3-.2-3-1.2-6.3-2.1-3.3-1-6-1.8-6-1.8-.2.1-1.8 2.2-3.6 4.7zm33.8 31.9c-2.7 14.7-4.8 26.9-4.6 27.1.2.2 2.5.7 5.1 1.2 2.6.4 5 .8 5.3.8.5 0 1-2 2.3-9.3 1-5.1 1.8-9.4 1.9-9.6.2-.2 2.5.1 5.5.6 2.9.6 6.6 1.2 8.1 1.5 2.1.3 3.6.3 5.5.1 1.5-.3 3.6-.9 4.8-1.5 1.3-.6 3.1-2 4.2-3 1.2-1.2 2.4-3.1 3.3-4.9 1.1-2.1 1.7-3.9 2-6 .3-2.4.3-3.6 0-5.7-.3-1.5-1-3.8-1.5-5-.6-1.2-1.8-2.9-2.7-3.8-1-1-3-2.3-4.4-3-2.3-1.2-4.5-1.6-15.3-3.6-6.9-1.3-13-2.4-13.5-2.5l-.9-.2-5.1 26.8zm173.5-23.1c-1.6.3-4.2 1.1-5.7 1.7-1.5.6-3.8 1.8-5 2.6-1.3.9-3.3 2.6-4.5 3.9-1.3 1.3-2.8 3.6-3.5 4.8-.7 1.4-1.5 3.5-1.8 4.8-.4 1.3-.8 4.1-.9 6.3-.2 2.4-.1 5.1.3 6.9.3 1.7.9 4.4 1.2 6 .5 1.8 1.5 4.7 2.5 6.6 1.5 3 2.3 4.2 4.8 6.6 2.3 2.3 3.8 3.4 5.7 4.3 1.4.6 3.6 1.4 4.9 1.8 1.7.4 3.8.7 7.2.7s5.6-.3 7.4-.7c1.4-.4 3.6-1.2 5.1-1.9 1.5-.8 3.7-2.1 5-3 1.4-1 3.3-3 4.3-4.4 1-1.3 2.4-3.8 3-5.4.6-1.6 1.4-4.3 1.6-6 .3-2 .4-4.7.3-7-.2-2.2-.7-5.6-1.3-8.1-.6-2.4-1.7-5.5-2.3-6.9-.7-1.3-1.9-3.5-2.8-4.7-.9-1.3-2.7-3.1-3.9-4.2-1.2-1-3.3-2.3-4.5-2.9-1.2-.6-3.3-1.4-4.5-1.7-1.2-.4-3.9-.7-5.8-.8-2.6.2-4.9.3-6.8.7z"/><path fill="#0E8E3A" d="M525.2 1389.9c-.6.8-3.4 4.8-6.3 9.2-3 4.3-5.4 7.9-5.3 8 .1.1 3 1.1 6.3 2.1 3.4 1.1 6.3 1.9 6.5 1.9.2.1.3-2.3.3-5.1 0-2.9-.2-7.9-.3-11.2l-.3-6-.9 1.1z"/><path fill="#FEFEFE" d="m810.5 1391.3-21 6c-10.6 3-19.3 5.5-19.4 5.7-.2.1.3 1.8.9 3.9.9 3 1.2 3.8 1.8 3.8.3-.1 2.1-.4 3.9-1 1.8-.6 10.5-3.1 19.5-5.7 9-2.5 16.8-4.8 17.3-4.8.6-.2 1.2-.4 1.5-.6.6-.3.5-.9-.6-4.2-.7-2.1-1.4-3.8-1.5-3.8-.3.1-1.4.3-2.4.7zm-204.7 1.7c-.1.3-1 12.5-2.1 27.1-1.1 14.7-1.9 26.8-1.8 26.8.1.1 3.6.4 7.8.7 4.2.3 12.8.9 18.9 1.3 6.3.4 12 .9 12.9 1l1.6.3c.3-3.1.5-5.3.6-6.9l.3-3c-6.3-.3-9.8-.6-11.9-.8-2.1-.2-6.9-.6-10.9-.8-3.9-.3-7.2-.6-7.3-.6-.2-.1 0-3.3.3-7 .3-3.9.6-6.9.6-7 .1-.1 4.9.3 10.8.7 5.9.4 11.9.8 13.2 1l2.6.2c.3-5.1.5-7.3.5-8.1l.1-1.5c-20.1-1.4-26.2-2-26.2-2.1-.1-.2 0-2.7.3-5.7s.4-5.6.5-5.6c0-.1 4.6.3 10.2.6 5.7.4 12 .9 14.4 1.1l4.2.3c.3-2.7.6-4.8.6-6.5l.3-3.2c-3.1-.3-11.4-.9-20.5-1.5s-17.2-1.2-18-1.3c-1.4.1-2 .2-2 .5zm66.1.8c-1.8.4-4.4 1.2-6.3 2.1-2.4 1.2-3.9 2.2-5.8 4.1-1.8 1.8-3.2 3.6-4.2 5.6-.9 1.6-2.1 4.3-2.5 6-.8 2.7-.9 3.9-.9 10s.1 7.4.9 10.2c.6 1.8 1.6 4.6 2.4 6.3 1 2.2 2.2 3.9 3.8 5.6 1.3 1.5 3.3 3.1 4.5 3.8 1.2.7 3.5 1.8 5.1 2.4 2.7.9 3.5 1 8.3 1.1 4.9 0 5.5-.1 8.4-1.2 1.8-.7 4.2-1.8 5.4-2.7 1.3-.9 3.1-2.4 4.2-3.6 1-1.2 2.5-3.4 3.3-5.1.8-1.7 1.7-4.2 2.1-5.7.3-1.5.5-2.7.5-2.8-.1 0-2.6.1-5.7.3l-5.6.3c-.9 2.9-1.7 4.6-2.4 5.7-.7 1-1.9 2.4-2.7 2.9-.9.6-2.6 1.3-3.8 1.7-1.6.4-3 .6-4.5.4-1.3-.2-3.1-.6-4-1-1-.4-2.6-1.6-3.7-2.8-1.1-1.2-2.4-3-2.9-4.1-.6-1.2-1.2-3.5-1.6-5.2-.5-2.5-.6-4.4-.5-8.1.2-3.9.4-5.4 1.2-7.3.5-1.4 1.3-3.1 1.8-3.9.5-.8 1.8-2.1 2.7-2.7.9-.8 2.6-1.7 3.6-2.1 1.4-.4 2.7-.6 5.3-.4 2.4.2 3.8.4 4.9 1 .9.4 2.1 1.3 2.7 2.1.7.7 1.7 2.4 2.2 3.6l1 2.3c8.6-.4 11.1-.6 11.1-.7.1 0-.1-.9-.3-2-.3-1.1-1-3.1-1.7-4.5-.8-1.5-2.2-3.6-3.3-4.7-1.1-1.2-3-2.7-4.2-3.6-1.3-.8-3.3-1.8-4.5-2.2-1.3-.4-3.4-.9-4.8-1.2-1.4-.2-3.4-.4-4.5-.3-1.1-.1-3.4.1-5 .4z"/><path fill="#0E8E3A" d="M568.2 1396.7c-.2.6-.8 4-1.5 7.8-.7 3.9-1.2 7.1-1.1 7.2.1.1 1.8.4 3.9.8 2 .4 4.9.9 6.4 1.1 1.8.3 3.4.3 4.4 0 .9-.3 2-.7 2.4-1.1.5-.4 1.4-1.2 1.8-1.8.5-.6 1-2.3 1.3-3.6.4-1.8.4-3 .1-4-.3-1-.9-2.1-1.9-3-1-.8-2.4-1.7-3.6-2-1.1-.4-3.9-.9-6.1-1.3-2.3-.5-4.5-.9-5-1-.7.1-.9.3-1.1.9zm160.2 1.3c-1.2.3-2.9 1-3.7 1.5-.9.6-2.3 1.6-3 2.4-.8.8-1.9 2.4-2.4 3.7-.6 1.3-1.2 3.5-1.5 5.1s-.3 4.1-.1 6c.3 1.8.6 4.3 1 5.7.4 1.4 1.2 3.6 1.9 5 .8 1.5 2.1 3.3 3 4.3.9.9 2.7 2.1 3.9 2.7 2 .9 2.7 1.1 6 1.1 3.4 0 4-.2 6.2-1.2 1.5-.8 3-1.8 4.1-3 .9-1 2.1-2.7 2.6-3.9.5-1.2 1.2-3.4 1.4-5.1.3-2.1.3-4 0-6.3-.3-1.9-.8-4.6-1.2-6-.5-1.5-1.3-3.6-2-4.9-.7-1.2-2.2-3.1-3.4-4.2-1.7-1.6-2.7-2.2-4.7-2.8-1.5-.4-3.3-.8-4.2-.8-1.1.1-2.7.4-3.9.7z"/><path fill="#9D9C9C" d="m1120.9 1407.8-2.4 2.6c3.9-3.8 5.1-5 5.1-5 0-.1-.1-.2-.2-.2s-1.2 1.3-2.5 2.6z"/></svg>