<?xml version="1.0" encoding="UTF-8"?>
<svg version="1.1" xmlns="http://www.w3.org/2000/svg" width="512" height="512">
<path d="M0 0 C5.60633178 0.59645174 10.86263384 1.60990681 16.30078125 3.07421875 C17.91602821 3.49689825 19.5315175 3.9186525 21.1472168 4.33959961 C21.98860199 4.55985809 22.82998718 4.78011658 23.6968689 5.00704956 C59.55390968 14.33517657 95.90484975 20.05550222 133 21 C134.04051514 21.03287109 134.04051514 21.03287109 135.10205078 21.06640625 C179.08765716 22.3379728 223.53548851 15.11997734 265.85131836 3.62792969 C267.67095093 3.13728027 267.67095093 3.13728027 269.52734375 2.63671875 C270.58687256 2.34498779 271.64640137 2.05325684 272.73803711 1.75268555 C276.49392616 0.88602841 280.16992638 0.42365654 284 0 C292.40423309 17.20828078 300.75555523 34.4330592 308.7487793 51.83691406 C309.23773682 52.90006836 309.72669434 53.96322266 310.23046875 55.05859375 C310.6898584 56.0626123 311.14924805 57.06663086 311.62255859 58.10107422 C313.34757669 61.73150046 315.24656174 65.25812954 317.20825195 68.76586914 C318.21129447 71.59622439 317.89941607 73.16288639 317 76 C315.03125 78.515625 315.03125 78.515625 312.5 81.25 C301.86447322 93.38256447 294.0603565 109.03675537 294.72265625 125.48828125 C297.34578669 149.24423721 313.76440848 167.02810234 331.375 181.75 C350.55058045 198.24424928 360.74038083 225.4026695 363 250 C364.89518208 284.49451331 354.97432165 317.20690353 331.75 343.1875 C309.25316716 367.34813647 275.78137229 375.34868756 245.27441406 384.77587891 C203.58401461 397.72920887 169.18465154 413.97289079 143 450 C138.97522017 448.47491527 137.31624439 446.02618438 134.875 442.5625 C116.9972979 418.01351623 92.07126779 403.40925862 63.8984375 393.21484375 C62.94834305 392.87033173 61.9982486 392.5258197 61.0193634 392.17086792 C51.32306963 388.69504139 41.51359768 385.61183016 31.67837524 382.55688477 C-9.26801624 369.79897435 -44.74674754 356.86438719 -65.92919922 317.10351562 C-80.47522916 288.5288248 -83.27366969 254.93202103 -73.8125 224.375 C-66.69254763 204.46471403 -55.28359695 187.6280726 -39.125 173.84765625 C-24.59395589 161.21312709 -12.53972914 145.5588342 -10.796875 125.68359375 C-10.44031861 108.59859992 -17.78911135 93.25860455 -29.125 80.8125 C-29.62257812 80.30847656 -30.12015625 79.80445312 -30.6328125 79.28515625 C-32.0078125 77.83203125 -32.0078125 77.83203125 -34 75 C-33.67712901 70.3494317 -32.13438297 66.76097033 -30.078125 62.6171875 C-29.78169098 62.01320633 -29.48525696 61.40922516 -29.17984009 60.78694153 C-28.5417978 59.48852371 -27.90034445 58.1917775 -27.25579834 56.89657593 C-25.53742286 53.44277572 -23.8442283 49.97664838 -22.1484375 46.51171875 C-21.80173004 45.80487442 -21.45502258 45.09803009 -21.09780884 44.36976624 C-17.03276608 36.06229897 -13.16275451 27.66702277 -9.30175781 19.26318359 C-6.31683893 12.78028247 -3.2399558 6.35955001 0 0 Z " fill="#06A758" transform="translate(114,31)"/>
<path d="M0 0 C6.361793 0.63098297 12.27107634 2.03632108 18.4375 3.6875 C37.70561984 8.66476854 57.422583 12.06377773 77.125 14.8125 C78.31923584 14.98011841 78.31923584 14.98011841 79.53759766 15.15112305 C134.82339561 22.36256432 200.26737823 19.26588137 253.38671875 0.82421875 C256.07477311 -0.02358315 258.2002816 -0.16468932 261 0 C263.21966579 4.37897813 265.41459593 8.76966243 267.59472656 13.16845703 C268.61699905 15.22827571 269.64287245 17.28630849 270.67089844 19.34326172 C272.17941754 22.36354393 273.6739574 25.39046492 275.1612854 28.42123413 C275.76155584 29.63931702 276.36602739 30.85533868 276.97470093 32.06924438 C277.83938334 33.79580879 278.68758553 35.53059641 279.53515625 37.265625 C280.28357788 38.77817871 280.28357788 38.77817871 281.04711914 40.32128906 C282.04954359 43.13927549 282.08886914 44.26705633 281 47 C276.55773206 48.18390631 272.1130969 49.35739543 267.6640625 50.515625 C264.04675631 51.45754121 260.43916366 52.42759823 256.8359375 53.421875 C215.31275174 64.62395499 171.86580228 69.1850264 128.9375 69.3125 C128.07292175 69.31511841 127.20834351 69.31773682 126.31756592 69.32043457 C105.73464797 69.32697966 85.42068226 67.44096927 65 65 C63.71996094 64.85046875 62.43992187 64.7009375 61.12109375 64.546875 C36.71253462 61.60148462 12.57543282 55.91823274 -11.1875 49.6875 C-12.54065308 49.34259521 -12.54065308 49.34259521 -13.92114258 48.99072266 C-15.9776288 48.42766906 -17.99600906 47.72813819 -20 47 C-21.35711166 42.92866502 -20.16550206 41.69131011 -18.28125 37.890625 C-17.84076828 36.99101295 -17.84076828 36.99101295 -17.39138794 36.07322693 C-16.43650471 34.12761584 -15.46830212 32.18896217 -14.5 30.25 C-13.84835784 28.92737506 -13.19780316 27.60421378 -12.54833984 26.28051758 C-11.27604771 23.68815474 -10.00007041 21.0976608 -8.72167969 18.50830078 C-6.63621191 14.25870181 -4.61031457 9.9846323 -2.625 5.6875 C-2.10164063 4.55699219 -1.57828125 3.42648438 -1.0390625 2.26171875 C-0.69617188 1.51535156 -0.35328125 0.76898438 0 0 Z " fill="#FBEF13" transform="translate(125,56)"/>
<path d="M0 0 C13.86 0 27.72 0 42 0 C42.2260785 36.93538242 42.40510339 73.87058289 42.51065329 110.80651802 C42.52316032 115.16739989 42.53610355 119.52828037 42.54931641 123.88916016 C42.55193951 124.75733057 42.55456261 125.62550099 42.55726521 126.5199796 C42.60077525 140.57625411 42.6796187 154.63211952 42.77152796 168.68815136 C42.86505317 183.11164274 42.92058971 197.53491992 42.94088495 211.95870209 C42.95460466 220.85878599 42.99792853 229.75771362 43.07916467 238.65744156 C43.13203758 244.76088881 43.14799867 250.8637386 43.13501377 256.96739823 C43.12860948 260.4890956 43.13839933 264.00877347 43.19205475 267.53011131 C43.24984799 271.35097797 43.22986373 275.16922281 43.20254517 278.99047852 C43.23167358 280.09944174 43.26080199 281.20840496 43.29081309 282.35097313 C43.20012514 287.0405622 43.03592462 289.86123097 39.8045547 293.41340446 C37.28192871 295.43722015 34.69830607 297.22139789 32 299 C30.01419807 300.75009271 28.22315189 302.59904377 26.375 304.5 C25.53710938 305.3559375 24.69921875 306.211875 23.8359375 307.09375 C23.23007812 307.7228125 22.62421875 308.351875 22 309 C17.24252067 307.03590303 14.31405705 303.36897613 10.828125 299.703125 C8.28521278 297.06299698 8.28521278 297.06299698 6.0076375 295.83727729 C2.69373367 293.85502143 0.40119359 292.33986015 -0.73629856 288.54099488 C-1.01113245 285.41256547 -1.02767395 282.37106179 -0.96203613 279.23098755 C-0.96887153 278.03754726 -0.97570693 276.84410698 -0.98274946 275.61450183 C-0.99363987 272.30877967 -0.96869298 269.00685807 -0.92852497 265.70159626 C-0.89394097 262.13520805 -0.90567068 258.56893489 -0.91174316 255.00242615 C-0.91593584 248.82587052 -0.89086038 242.64999153 -0.84584045 236.47360611 C-0.78079269 227.54373842 -0.75998588 218.61419754 -0.74993652 209.68411861 C-0.73243223 195.19547698 -0.67920602 180.70719589 -0.60351562 166.21875 C-0.53007093 152.14552615 -0.47344981 138.07240027 -0.43945312 123.99902344 C-0.43735134 123.13138407 -0.43524955 122.26374469 -0.43308407 121.36981322 C-0.42264369 117.01707291 -0.41253404 112.6643319 -0.40258884 108.31159043 C-0.31966983 72.20746216 -0.17657452 36.10378275 0 0 Z " fill="#FEF112" transform="translate(235,140)"/>
<path d="M0 0 C9.10172775 0.7001329 18.12410639 1.49129173 27.1875 2.5 C28.39986328 2.63019531 29.61222656 2.76039063 30.86132812 2.89453125 C32.01439453 3.02214844 33.16746094 3.14976562 34.35546875 3.28125 C35.39340576 3.39533203 36.43134277 3.50941406 37.50073242 3.62695312 C40 4 40 4 42 5 C42 97.07 42 189.14 42 284 C38.30057012 282.76685671 35.24331818 281.74183932 31.85546875 280.046875 C31.09427734 279.67433594 30.33308594 279.30179687 29.54882812 278.91796875 C28.01533475 278.15946665 26.48394794 277.39668514 24.95507812 276.62890625 C16.75813169 272.63604622 8.81267366 270.11035541 0 267 C0 178.89 0 90.78 0 0 Z " fill="#EB3237" transform="translate(175,134)"/>
<path d="M0 0 C0 88.11 0 176.22 0 267 C-13.86 272.445 -13.86 272.445 -28 278 C-31.96 279.98 -35.92 281.96 -40 284 C-40.33 284 -40.66 284 -41 284 C-41 191.93 -41 99.86 -41 5 C-29.7370892 2.74741784 -29.7370892 2.74741784 -24.51171875 2.1484375 C-23.39345703 2.01953125 -22.27519531 1.890625 -21.12304688 1.7578125 C-19.98931641 1.63148438 -18.85558594 1.50515625 -17.6875 1.375 C-15.95790039 1.17390625 -15.95790039 1.17390625 -14.19335938 0.96875 C-9.40412611 0.42458205 -4.83049566 0 0 0 Z " fill="#EC3237" transform="translate(336,134)"/>
<path d="M0 0 C13.47389641 2.49760031 26.64619725 5.79508734 40 9 C40 96.45 40 183.9 40 274 C9.82142857 265.875 9.82142857 265.875 -2 261 C-2.09346298 236.10451233 -2.16398892 211.20905097 -2.20724869 186.31342316 C-2.2278693 174.75381097 -2.25598047 163.19430782 -2.30175781 151.63476562 C-2.34164073 141.55885479 -2.36743645 131.48302293 -2.37635398 121.40703535 C-2.38156622 116.07240999 -2.39380673 110.73801056 -2.42292023 105.40345764 C-2.45011217 100.38020064 -2.45843729 95.35726221 -2.45243073 90.3339386 C-2.45352926 88.49251574 -2.46146056 86.65108201 -2.4768219 84.8097229 C-2.49680927 82.2897936 -2.49190782 79.77105722 -2.48101807 77.25109863 C-2.49266943 76.52733929 -2.5043208 75.80357995 -2.51632524 75.05788851 C-2.46068619 70.27419024 -1.31832684 66.96363267 1.02174783 62.79332685 C2.48650186 60.10814728 3.31624868 57.29813709 4.1875 54.375 C4.51105469 53.31023437 4.83460937 52.24546875 5.16796875 51.1484375 C9.12886579 36.16025434 7.48015514 20.7019824 1.90234375 6.41015625 C1.1055283 4.28186563 0.49831698 2.21417133 0 0 Z " fill="#FDF112" transform="translate(117,121)"/>
<path d="M0 0 C-0.33773437 0.83402344 -0.67546875 1.66804688 -1.0234375 2.52734375 C-1.69246094 4.21537109 -1.69246094 4.21537109 -2.375 5.9375 C-2.81585938 7.03964844 -3.25671875 8.14179688 -3.7109375 9.27734375 C-6.27500726 16.68206641 -7.34363134 23.54998069 -7.25 31.375 C-7.24250732 32.20789551 -7.23501465 33.04079102 -7.22729492 33.89892578 C-7.01994312 45.79559082 -4.35353921 56.29292159 1 67 C1.09555015 69.53167583 1.13015196 72.03569232 1.12025452 74.5675354 C1.12110894 75.35736986 1.12196337 76.14720431 1.12284368 76.96097314 C1.12449793 79.62195399 1.11897801 82.28287256 1.11352539 84.94384766 C1.11324348 86.8455963 1.11340133 88.74734505 1.1139679 90.64909363 C1.11425572 95.82443945 1.10836136 100.99976226 1.10139394 106.17510271 C1.09515796 111.57900407 1.09455641 116.9829059 1.09336853 122.3868103 C1.09025594 132.62550495 1.08204352 142.86418897 1.07201904 153.10287893 C1.06085567 164.75687385 1.05534689 176.41086927 1.05032361 188.06486821 C1.03986085 212.04325138 1.02226279 236.02162509 1 260 C-0.59897399 260.64528426 -2.19851487 261.28916392 -3.79829407 261.93244934 C-4.6889774 262.29116025 -5.57966074 262.64987116 -6.49733448 263.0194521 C-9.29214103 264.11446127 -12.09993532 265.04352988 -14.98046875 265.88671875 C-15.99947266 266.18513672 -17.01847656 266.48355469 -18.06835938 266.79101562 C-19.09767578 267.08685547 -20.12699219 267.38269531 -21.1875 267.6875 C-22.74887695 268.14866211 -22.74887695 268.14866211 -24.34179688 268.61914062 C-29.64920827 270.15913238 -34.46915393 271.20987913 -40 272 C-40 184.88 -40 97.76 -40 8 C-30.43 5.69 -20.86 3.38 -11 1 C-3 -1 -3 -1 0 0 Z " fill="#FEF112" transform="translate(395,122)"/>
<path d="M0 0 C5.60633178 0.59645174 10.86263384 1.60990681 16.30078125 3.07421875 C17.91602821 3.49689825 19.5315175 3.9186525 21.1472168 4.33959961 C21.98860199 4.55985809 22.82998718 4.78011658 23.6968689 5.00704956 C59.55390968 14.33517657 95.90484975 20.05550222 133 21 C134.04051514 21.03287109 134.04051514 21.03287109 135.10205078 21.06640625 C179.08765716 22.3379728 223.53548851 15.11997734 265.85131836 3.62792969 C267.67095093 3.13728027 267.67095093 3.13728027 269.52734375 2.63671875 C270.58687256 2.34498779 271.64640137 2.05325684 272.73803711 1.75268555 C276.49392616 0.88602841 280.16992638 0.42365654 284 0 C292.40423309 17.20828078 300.75555523 34.4330592 308.7487793 51.83691406 C309.23773682 52.90006836 309.72669434 53.96322266 310.23046875 55.05859375 C310.6898584 56.0626123 311.14924805 57.06663086 311.62255859 58.10107422 C313.34757669 61.73150046 315.24656174 65.25812954 317.20825195 68.76586914 C318.21129447 71.59622439 317.89941607 73.16288639 317 76 C315.03125 78.515625 315.03125 78.515625 312.5 81.25 C301.86447322 93.38256447 294.0603565 109.03675537 294.72265625 125.48828125 C297.34578669 149.24423721 313.76440848 167.02810234 331.375 181.75 C350.55058045 198.24424928 360.74038083 225.4026695 363 250 C364.89518208 284.49451331 354.97432165 317.20690353 331.75 343.1875 C309.25316716 367.34813647 275.78137229 375.34868756 245.27441406 384.77587891 C203.58401461 397.72920887 169.18465154 413.97289079 143 450 C138.97522017 448.47491527 137.31624439 446.02618438 134.875 442.5625 C116.9972979 418.01351623 92.07126779 403.40925862 63.8984375 393.21484375 C62.94834305 392.87033173 61.9982486 392.5258197 61.0193634 392.17086792 C51.32306963 388.69504139 41.51359768 385.61183016 31.67837524 382.55688477 C-9.26801624 369.79897435 -44.74674754 356.86438719 -65.92919922 317.10351562 C-80.47522916 288.5288248 -83.27366969 254.93202103 -73.8125 224.375 C-66.69254763 204.46471403 -55.28359695 187.6280726 -39.125 173.84765625 C-24.59395589 161.21312709 -12.53972914 145.5588342 -10.796875 125.68359375 C-10.44031861 108.59859992 -17.78911135 93.25860455 -29.125 80.8125 C-29.62257812 80.30847656 -30.12015625 79.80445312 -30.6328125 79.28515625 C-32.0078125 77.83203125 -32.0078125 77.83203125 -34 75 C-33.67712901 70.3494317 -32.13438297 66.76097033 -30.078125 62.6171875 C-29.78169098 62.01320633 -29.48525696 61.40922516 -29.17984009 60.78694153 C-28.5417978 59.48852371 -27.90034445 58.1917775 -27.25579834 56.89657593 C-25.53742286 53.44277572 -23.8442283 49.97664838 -22.1484375 46.51171875 C-21.80173004 45.80487442 -21.45502258 45.09803009 -21.09780884 44.36976624 C-17.03276608 36.06229897 -13.16275451 27.66702277 -9.30175781 19.26318359 C-6.31683893 12.78028247 -3.2399558 6.35955001 0 0 Z M3 4 C-4.20513069 18.33480872 -11.22989521 32.75238152 -18.19541931 47.2048645 C-20.05602783 51.06133109 -21.93863878 54.90545865 -23.84765625 58.73828125 C-24.58596684 60.24217309 -25.3242516 61.74607762 -26.0625 63.25 C-26.39056641 63.89122803 -26.71863281 64.53245605 -27.05664062 65.19311523 C-28.29551082 67.74775346 -29.00364368 69.70167364 -28.96875 72.55859375 C-27.66194593 75.85195079 -25.71658465 78.10195505 -23.4375 80.8125 C-11.75157782 95.3245397 -5.0065577 112.20804516 -7 131 C-11.20917381 153.17332632 -27.52421245 170.64218069 -44.3125 184.6875 C-62.4578802 200.28949009 -72.46708318 225.66793925 -75 249 C-75.64559206 262.30580482 -75.4868407 275.09157342 -72 288 C-71.69015093 289.31611134 -71.38160568 290.63253018 -71.07421875 291.94921875 C-66.60360976 309.9507009 -57.22961351 326.17112934 -45 340 C-44.02160156 341.12728516 -44.02160156 341.12728516 -43.0234375 342.27734375 C-24.38104664 362.30799776 4.56037221 370.52346817 30 378 C35.35370082 379.60611025 40.68197498 381.28024557 46 383 C47.04816895 383.33773438 48.09633789 383.67546875 49.17626953 384.0234375 C82.86677745 394.97816467 115.1442851 408.92118103 137 438 C138.32908598 439.67005569 139.66124371 441.3376862 141 443 C144.62085583 441.79304806 145.3469568 440.56707961 147.625 437.5625 C174.83431643 402.86076311 214.85950759 389.92027971 255.54684448 377.224823 C291.98025083 365.8406493 325.56639624 353.53622616 344.71484375 318.1328125 C357.92395477 292.35211949 363.79652823 262.36809066 356 234 C355.82839355 233.35514648 355.65678711 232.71029297 355.47998047 232.04589844 C349.37015645 209.43026743 337.00185929 191.75116543 319.5390625 176.26171875 C305.37688039 163.64648268 292.335897 147.12102728 290.7109375 127.51171875 C289.80413804 109.07499356 297.08820306 92.79930642 309.0625 79 C310.22458984 77.7625 310.22458984 77.7625 311.41015625 76.5 C313.28629661 74.10325418 313.28629661 74.10325418 312.78198242 71.24267578 C311.93351758 67.72431485 310.68657378 64.85854268 309.078125 61.6171875 C308.63333801 60.71087585 308.63333801 60.71087585 308.17956543 59.78625488 C307.54144138 58.48760342 306.89989678 57.19062812 306.25524902 55.89520264 C304.54002383 52.4481936 302.84919114 48.98924328 301.15625 45.53125 C300.80995544 44.82543793 300.46366089 44.11962585 300.10687256 43.39242554 C295.96935119 34.93634366 292.04092439 26.38458903 288.12597656 17.82373047 C287.37525879 16.19008545 287.37525879 16.19008545 286.609375 14.5234375 C286.17592773 13.57388184 285.74248047 12.62432617 285.29589844 11.64599609 C283.99907473 8.99811077 282.55377185 6.50430796 281 4 C279.37580423 4.40604894 277.75161307 4.81211634 276.12744141 5.21826172 C274.68187956 5.57956924 273.23623866 5.94056056 271.79052734 6.30126953 C268.28816448 7.17554017 264.7871946 8.05420938 261.2890625 8.9453125 C257.99004361 9.78237699 254.68729652 10.60060172 251.38134766 11.40966797 C249.70458122 11.82533552 248.0299435 12.24963767 246.35693359 12.68017578 C232.26389726 16.29594536 218.21916576 18.8805758 203.8125 20.8125 C203.03621246 20.91754852 202.25992493 21.02259705 201.46011353 21.13082886 C186.61950993 23.11666383 171.86588341 24.14995087 156.88671875 24.203125 C155.59345169 24.20882507 154.30018463 24.21452515 152.96772766 24.22039795 C150.24760561 24.2307888 147.52751202 24.23670722 144.80737305 24.24023438 C142.08034691 24.24459181 139.35364202 24.25840159 136.62670898 24.28125 C118.52972455 24.42968524 100.92650968 23.52986115 83 21 C80.8256786 20.70622123 78.65128046 20.4130098 76.47680664 20.12036133 C63.64546601 18.36575829 51.01625366 15.84463461 38.375 13.0625 C37.25149139 12.81773422 37.25149139 12.81773422 36.10528564 12.56802368 C27.25685825 10.62807415 18.59178753 8.39386179 9.98031616 5.57130432 C6.56219895 4.39745546 6.56219895 4.39745546 3 4 Z " fill="#F6FBF8" transform="translate(114,31)"/>
<path d="M0 0 C0 51.15 0 102.3 0 155 C-15.59636047 148.76145581 -25.64092187 129.1725833 -32.12109375 114.54296875 C-42.74182931 89.48475281 -42.06311396 58.294698 -32 33 C-27.91201561 24.43529652 -11.08573371 0 0 0 Z " fill="#EB3237" transform="translate(97,216)"/>
<path d="M0 0 C17.49206485 11.66137657 31.61688278 25.92155803 36.48046875 47.0703125 C42.01254657 78.26624006 39.20602554 107.39340026 21.32861328 134.12841797 C15.8332306 141.86961673 9.57268979 149.23747227 2 155 C1.34 155 0.68 155 0 155 C0 103.85 0 52.7 0 0 Z " fill="#EB3237" transform="translate(415,216)"/>
<path d="M0 0 C0.77843262 0.00322266 1.55686523 0.00644531 2.35888672 0.00976562 C9.13014301 0.17175072 15.03757086 1.70890367 21.25 4.4375 C21.25 7.0775 21.25 9.7175 21.25 12.4375 C18.55239725 11.96145246 16.11004546 11.38506746 13.5390625 10.421875 C9.8187849 9.30844275 6.62961898 9.10192702 2.75 9.0625 C1.4815625 9.03414062 0.213125 9.00578125 -1.09375 8.9765625 C-5.33006206 9.51062748 -7.45907951 10.77106141 -10.75 13.4375 C-12.17662219 16.29074437 -12.06033868 18.27204549 -11.75 21.4375 C-9.28811185 25.44946588 -7.17367218 27.02394427 -2.75 28.4375 C5.41140607 29.17354193 13.28914383 28.22430539 21.25 26.4375 C21.25 29.0775 21.25 31.7175 21.25 34.4375 C15.77563221 36.90735678 10.91834274 36.76880033 5 36.75 C4.00097656 36.76611328 3.00195312 36.78222656 1.97265625 36.79882812 C-7.3220113 36.80490307 -15.82575727 35.0239748 -22.75 28.4375 C-26.06530827 23.73190116 -26.65463723 19.03619932 -25.75 13.4375 C-22.40111789 6.86376845 -17.83463018 3.56167059 -10.97949219 1.07250977 C-7.31500928 0.02878221 -3.79037919 -0.04927904 0 0 Z " fill="#ED3636" transform="translate(217.75,79.5625)"/>
<path d="M0 0 C-0.75 5.75 -0.75 5.75 -3 8 C-3.61746094 7.65066406 -4.23492187 7.30132812 -4.87109375 6.94140625 C-10.74820798 3.78368734 -15.3344493 2.32252665 -22 2 C-22 3.32 -22 4.64 -22 6 C-21.28199219 6.2578125 -20.56398437 6.515625 -19.82421875 6.78125 C-16.84449042 8.06710787 -14.45064879 9.61617817 -11.8125 11.5 C-10.95269531 12.1084375 -10.09289062 12.716875 -9.20703125 13.34375 C-5.12044897 16.41049493 -5.12044897 16.41049493 -4.59375 18.98828125 C-4.34643448 25.11964518 -4.34643448 25.11964518 -6.23828125 27.66796875 C-11.23989962 31.90010737 -15.67025269 32.34337183 -21.94921875 32.28515625 C-29.40492798 31.58827178 -36.07958085 28.48031719 -42 24 C-41.125 18.25 -41.125 18.25 -40 16 C-37.01270141 17.05434068 -34.84544466 18.11861224 -32.3125 20.0625 C-27.92849716 22.62672808 -23.99997037 22.80237271 -19 23 C-19.09519454 21.10423634 -19.09519454 21.10423634 -20 19 C-22.4271387 17.12618179 -22.4271387 17.12618179 -25.375 15.5 C-29.04265445 13.37101852 -31.83907123 11.71364911 -34 8 C-34.6398743 2.96098988 -34.86536657 1.12978413 -31.75 -2.9375 C-22.17021798 -10.12233652 -9.46678265 -4.88750174 0 0 Z " fill="#ED3735" transform="translate(163,73)"/>
<path d="M0 0 C2.35863496 2.86371638 3 4.28071518 3 8 C1.865625 8.02578125 0.73125 8.0515625 -0.4375 8.078125 C-11.81620099 8.3385736 -11.81620099 8.3385736 -22 13 C-23.55024464 16.10048928 -23.28992015 18.57894218 -23 22 C-21.20437595 24.75329021 -19.94745078 26.52627461 -17 28 C-6.68857982 28.99524783 1.41079176 26.72613882 10 21 C10.99 23.64 11.98 26.28 13 29 C1.28672585 36.87983898 -9.64725645 38.72062384 -23.62890625 36.6015625 C-29.18095677 34.9283418 -32.79179942 30.61236953 -36 26 C-37.24333968 22.26998095 -37.52293341 18.87412635 -37 15 C-33.48669278 8.10851276 -28.62262232 4.38835216 -21.5625 1.6875 C-14.68322869 -0.41593634 -7.10876398 -1.41822925 0 0 Z " fill="#ED3835" transform="translate(365,71)"/>
<path d="M0 0 C0.495 3.465 0.495 3.465 1 7 C-5.27 7.33 -11.54 7.66 -18 8 C-18 10.31 -18 12.62 -18 15 C-16.72125 14.835 -15.4425 14.67 -14.125 14.5 C-9.0715842 13.92958264 -4.07937351 13.90456292 1 14 C1.38133299 15.9914056 1.71325582 17.99279077 2 20 C0.48578999 21.51421001 -0.92472768 21.21309856 -3.03515625 21.31640625 C-3.84404297 21.35830078 -4.65292969 21.40019531 -5.48632812 21.44335938 C-6.33646484 21.48267578 -7.18660156 21.52199219 -8.0625 21.5625 C-8.91650391 21.60568359 -9.77050781 21.64886719 -10.65039062 21.69335938 C-12.76672037 21.79976702 -14.88333813 21.90041731 -17 22 C-16.34 26.62 -15.68 31.24 -15 36 C-18.62189172 36.72437834 -21.23765264 37.11585593 -24.8125 37.0625 C-25.60269531 37.05347656 -26.39289063 37.04445312 -27.20703125 37.03515625 C-27.79871094 37.02355469 -28.39039063 37.01195312 -29 37 C-29.43046104 32.8194143 -29.85760419 28.63850659 -30.28173828 24.45727539 C-30.42634448 23.03628491 -30.57184104 21.61538474 -30.71826172 20.19458008 C-30.92912811 18.14688097 -31.13674139 16.09887351 -31.34375 14.05078125 C-31.46943359 12.82012939 -31.59511719 11.58947754 -31.72460938 10.3215332 C-31.95657666 7.52373627 -32.05585531 4.8044021 -32 2 C-28.35475481 1.66002426 -24.70872831 1.32925063 -21.0625 1 C-19.53012695 0.85691406 -19.53012695 0.85691406 -17.96679688 0.7109375 C-11.94822031 0.17253448 -6.04236648 -0.10081112 0 0 Z " fill="#ED3835" transform="translate(306,80)"/>
<path d="M0 0 C3.7109611 0.31991044 4.99743948 0.7900419 7.625 3.3125 C7.25 5.75 7.25 5.75 6.625 8.3125 C3.4431784 9.9034108 0.08863796 9.70834434 -3.375 9.3125 C-5.4375 8.0625 -5.4375 8.0625 -6.375 6.3125 C-5.97527297 1.91550272 -4.42879907 0.41007399 0 0 Z " fill="#ED3B35" transform="translate(169.375,100.6875)"/>
<path d="M0 0 C3.7109611 0.31991044 4.99743948 0.7900419 7.625 3.3125 C7.3125 5.1875 7.3125 5.1875 6.625 7.3125 C2.93782562 9.77061625 0.98154296 9.62368164 -3.375 9.3125 C-4.365 8.6525 -5.355 7.9925 -6.375 7.3125 C-5.61774666 2.51656217 -5.26213282 0.48723452 0 0 Z " fill="#ED3A35" transform="translate(316.375,104.6875)"/>
<path d="M0 0 C1.19109375 0.00773437 1.19109375 0.00773437 2.40625 0.015625 C3.2003125 0.01046875 3.994375 0.0053125 4.8125 0 C6.90625 0.265625 6.90625 0.265625 8.90625 2.265625 C9.21875 4.765625 9.21875 4.765625 8.90625 7.265625 C5.21907562 9.72374125 3.26279296 9.57680664 -1.09375 9.265625 C-2.08375 8.605625 -3.07375 7.945625 -4.09375 7.265625 C-4.40625 4.765625 -4.40625 4.765625 -4.09375 2.265625 C-2.09375 0.265625 -2.09375 0.265625 0 0 Z " fill="#ED3B35" transform="translate(252.09375,108.734375)"/>
<path d="M0 0 C1.9375 1.1875 1.9375 1.1875 3 3 C2.57894737 7.42105263 2.57894737 7.42105263 1 9 C-6.36633663 9.47524752 -6.36633663 9.47524752 -9 7.5 C-9.33 7.005 -9.66 6.51 -10 6 C-7.90382454 0.16065407 -6.23468203 -0.50895363 0 0 Z " fill="#EE3F34" transform="translate(392,91)"/>
</svg>
