<?xml version="1.0" encoding="UTF-8"?>
<svg version="1.1" xmlns="http://www.w3.org/2000/svg" width="512" height="512">
<path d="M0 0 C1.34707283 -0.00855011 1.34707283 -0.00855011 2.72135925 -0.01727295 C4.6181828 -0.02667551 6.51502233 -0.03323794 8.41186523 -0.03710938 C11.24689173 -0.04671882 14.08116169 -0.07774759 16.91601562 -0.109375 C32.6027145 -0.20138738 47.84416578 1.35101184 62.91796875 5.890625 C63.77793457 6.14408691 64.63790039 6.39754883 65.52392578 6.65869141 C95.3433972 15.71811529 120.75953188 30.93822433 143.48046875 52.203125 C144.41761719 53.07453125 145.35476563 53.9459375 146.3203125 54.84375 C176.17350228 83.24756371 198.70005695 126.97600304 200.58761597 168.56385803 C200.64448345 171.18096785 200.67134754 173.79636155 200.68359375 176.4140625 C200.68929382 177.38107086 200.6949939 178.34807922 200.7008667 179.34439087 C200.71027338 181.38664676 200.71683335 183.42891752 200.72070312 185.47119141 C200.73033152 188.5344642 200.76136481 191.59704265 200.79296875 194.66015625 C200.8588682 206.83207485 200.00554004 218.29241136 197.48046875 230.203125 C197.17423584 231.65477051 197.17423584 231.65477051 196.86181641 233.13574219 C196.34674378 235.4045897 195.78005094 237.64623705 195.16796875 239.890625 C194.96139648 240.66462646 194.75482422 241.43862793 194.54199219 242.23608398 C192.26417168 250.46407785 189.30231467 258.55943317 185.48046875 266.203125 C186.62515625 266.574375 186.62515625 266.574375 187.79296875 266.953125 C190.80751191 268.3552381 191.84574101 269.34235145 193.48046875 272.203125 C194.77958822 277.04444792 194.81639504 282.03471764 195.04296875 287.015625 C195.08615234 287.89927734 195.12933594 288.78292969 195.17382812 289.69335938 C195.27938411 291.86312123 195.38037946 294.0331041 195.48046875 296.203125 C196.27710938 295.67203125 197.07375 295.1409375 197.89453125 294.59375 C201.08984375 292.46354167 204.28515625 290.33333333 207.48046875 288.203125 C208.50914062 287.46578125 209.5378125 286.7284375 210.59765625 285.96875 C214.67988822 283.4685212 217.83358828 283.35672891 222.48046875 284.203125 C227.94388338 287.12995427 227.94388338 287.12995427 229.48046875 290.203125 C232.02860228 302.61142742 224.68448179 312.26884451 218.20263672 322.15136719 C215.43272173 326.27480097 212.49333537 330.25499541 209.48046875 334.203125 C209.04089844 334.78545898 208.60132813 335.36779297 208.1484375 335.96777344 C201.70375195 344.4786586 194.81901417 352.4529397 187.48046875 360.203125 C187.91359375 360.76 188.34671875 361.316875 188.79296875 361.890625 C194.61403769 369.8676454 194.61403769 369.8676454 194.10546875 375.25 C187.27078419 396.60838926 145.44089347 415.51903027 127.6015625 424.7734375 C107.65055726 434.76909265 86.27289525 441.60722627 64.48046875 446.203125 C63.54364258 446.41340332 62.60681641 446.62368164 61.64160156 446.84033203 C29.34656251 453.85109764 -9.32466585 453.55998975 -41.51953125 446.203125 C-42.60234375 445.96706543 -43.68515625 445.73100586 -44.80078125 445.48779297 C-89.22093434 435.61169529 -134.39802418 414.09731437 -166.51953125 381.203125 C-168.25716335 377.7278608 -168.12679597 373.99373531 -167.51953125 370.203125 C-166.3671875 368.41796875 -166.3671875 368.41796875 -164.95703125 366.890625 C-162.28356814 364.57330144 -162.28356814 364.57330144 -162.59375 362.30859375 C-163.84470094 359.46360406 -165.61312699 357.93680465 -167.89453125 355.828125 C-174.12038701 349.77964405 -179.3204232 343.13841776 -184.51953125 336.203125 C-185.15375 335.3680542 -185.15375 335.3680542 -185.80078125 334.51611328 C-206.96743322 306.52817699 -206.96743322 306.52817699 -206.875 293.75390625 C-206.29737615 289.6089791 -204.58489654 287.98334003 -201.51953125 285.203125 C-197.01410477 283.70131617 -192.82367599 283.20560872 -188.41943359 285.11230469 C-186.28388387 286.35515343 -184.24486443 287.68108355 -182.20703125 289.078125 C-181.50513672 289.53832031 -180.80324219 289.99851562 -180.08007812 290.47265625 C-178.21470359 291.69964236 -176.36528322 292.94691012 -174.51953125 294.203125 C-173.52953125 294.863125 -172.53953125 295.523125 -171.51953125 296.203125 C-171.5055127 295.20514893 -171.5055127 295.20514893 -171.49121094 294.18701172 C-171.43727106 291.14998481 -171.35367063 288.11445921 -171.26953125 285.078125 C-171.25535156 284.03140625 -171.24117187 282.9846875 -171.2265625 281.90625 C-171.03395465 275.81984208 -170.8056705 271.71725038 -166.51953125 267.203125 C-164.38183594 266.55810547 -164.38183594 266.55810547 -162.51953125 266.203125 C-162.84377075 265.36841675 -162.84377075 265.36841675 -163.17456055 264.5168457 C-167.12209443 254.26164545 -170.83426126 244.02657552 -173.39453125 233.328125 C-173.58490967 232.54735596 -173.77528809 231.76658691 -173.97143555 230.9621582 C-177.11192558 217.14996233 -177.93078541 203.31221884 -177.89453125 189.203125 C-177.89398743 188.39875 -177.8934436 187.594375 -177.8928833 186.765625 C-177.85013496 172.93294683 -176.76078918 159.69356611 -173.51953125 146.203125 C-173.30522461 145.30255371 -173.09091797 144.40198242 -172.87011719 143.47412109 C-164.86592867 110.92724975 -148.48116308 82.32890766 -125.83203125 57.765625 C-125.32196533 57.21084473 -124.81189941 56.65606445 -124.28637695 56.08447266 C-93.25962649 23.05072108 -45.54916148 0.23053877 0 0 Z " fill="#FBEA00" transform="translate(244.51953125,30.796875)"/>
<path d="M0 0 C1.34707283 -0.00855011 1.34707283 -0.00855011 2.72135925 -0.01727295 C4.6181828 -0.02667551 6.51502233 -0.03323794 8.41186523 -0.03710938 C11.24689173 -0.04671882 14.08116169 -0.07774759 16.91601562 -0.109375 C32.6027145 -0.20138738 47.84416578 1.35101184 62.91796875 5.890625 C63.77793457 6.14408691 64.63790039 6.39754883 65.52392578 6.65869141 C95.3433972 15.71811529 120.75953188 30.93822433 143.48046875 52.203125 C144.41761719 53.07453125 145.35476563 53.9459375 146.3203125 54.84375 C176.17350228 83.24756371 198.70005695 126.97600304 200.58761597 168.56385803 C200.64448345 171.18096785 200.67134754 173.79636155 200.68359375 176.4140625 C200.68929382 177.38107086 200.6949939 178.34807922 200.7008667 179.34439087 C200.71027338 181.38664676 200.71683335 183.42891752 200.72070312 185.47119141 C200.73033152 188.5344642 200.76136481 191.59704265 200.79296875 194.66015625 C200.8588682 206.83207485 200.00554004 218.29241136 197.48046875 230.203125 C197.17423584 231.65477051 197.17423584 231.65477051 196.86181641 233.13574219 C196.34674378 235.4045897 195.78005094 237.64623705 195.16796875 239.890625 C194.96139648 240.66462646 194.75482422 241.43862793 194.54199219 242.23608398 C192.26417168 250.46407785 189.30231467 258.55943317 185.48046875 266.203125 C186.62515625 266.574375 186.62515625 266.574375 187.79296875 266.953125 C190.80751191 268.3552381 191.84574101 269.34235145 193.48046875 272.203125 C194.77958822 277.04444792 194.81639504 282.03471764 195.04296875 287.015625 C195.08615234 287.89927734 195.12933594 288.78292969 195.17382812 289.69335938 C195.27938411 291.86312123 195.38037946 294.0331041 195.48046875 296.203125 C196.27710938 295.67203125 197.07375 295.1409375 197.89453125 294.59375 C201.08984375 292.46354167 204.28515625 290.33333333 207.48046875 288.203125 C208.50914062 287.46578125 209.5378125 286.7284375 210.59765625 285.96875 C214.67988822 283.4685212 217.83358828 283.35672891 222.48046875 284.203125 C227.94388338 287.12995427 227.94388338 287.12995427 229.48046875 290.203125 C232.02860228 302.61142742 224.68448179 312.26884451 218.20263672 322.15136719 C215.43272173 326.27480097 212.49333537 330.25499541 209.48046875 334.203125 C209.04089844 334.78545898 208.60132813 335.36779297 208.1484375 335.96777344 C201.70375195 344.4786586 194.81901417 352.4529397 187.48046875 360.203125 C187.91359375 360.76 188.34671875 361.316875 188.79296875 361.890625 C194.61403769 369.8676454 194.61403769 369.8676454 194.10546875 375.25 C187.27078419 396.60838926 145.44089347 415.51903027 127.6015625 424.7734375 C107.65055726 434.76909265 86.27289525 441.60722627 64.48046875 446.203125 C63.54364258 446.41340332 62.60681641 446.62368164 61.64160156 446.84033203 C29.34656251 453.85109764 -9.32466585 453.55998975 -41.51953125 446.203125 C-42.60234375 445.96706543 -43.68515625 445.73100586 -44.80078125 445.48779297 C-89.22093434 435.61169529 -134.39802418 414.09731437 -166.51953125 381.203125 C-168.25716335 377.7278608 -168.12679597 373.99373531 -167.51953125 370.203125 C-166.3671875 368.41796875 -166.3671875 368.41796875 -164.95703125 366.890625 C-162.28356814 364.57330144 -162.28356814 364.57330144 -162.59375 362.30859375 C-163.84470094 359.46360406 -165.61312699 357.93680465 -167.89453125 355.828125 C-174.12038701 349.77964405 -179.3204232 343.13841776 -184.51953125 336.203125 C-185.15375 335.3680542 -185.15375 335.3680542 -185.80078125 334.51611328 C-206.96743322 306.52817699 -206.96743322 306.52817699 -206.875 293.75390625 C-206.29737615 289.6089791 -204.58489654 287.98334003 -201.51953125 285.203125 C-197.01410477 283.70131617 -192.82367599 283.20560872 -188.41943359 285.11230469 C-186.28388387 286.35515343 -184.24486443 287.68108355 -182.20703125 289.078125 C-181.50513672 289.53832031 -180.80324219 289.99851562 -180.08007812 290.47265625 C-178.21470359 291.69964236 -176.36528322 292.94691012 -174.51953125 294.203125 C-173.52953125 294.863125 -172.53953125 295.523125 -171.51953125 296.203125 C-171.5055127 295.20514893 -171.5055127 295.20514893 -171.49121094 294.18701172 C-171.43727106 291.14998481 -171.35367063 288.11445921 -171.26953125 285.078125 C-171.25535156 284.03140625 -171.24117187 282.9846875 -171.2265625 281.90625 C-171.03395465 275.81984208 -170.8056705 271.71725038 -166.51953125 267.203125 C-164.38183594 266.55810547 -164.38183594 266.55810547 -162.51953125 266.203125 C-162.84377075 265.36841675 -162.84377075 265.36841675 -163.17456055 264.5168457 C-167.12209443 254.26164545 -170.83426126 244.02657552 -173.39453125 233.328125 C-173.58490967 232.54735596 -173.77528809 231.76658691 -173.97143555 230.9621582 C-177.11192558 217.14996233 -177.93078541 203.31221884 -177.89453125 189.203125 C-177.89398743 188.39875 -177.8934436 187.594375 -177.8928833 186.765625 C-177.85013496 172.93294683 -176.76078918 159.69356611 -173.51953125 146.203125 C-173.30522461 145.30255371 -173.09091797 144.40198242 -172.87011719 143.47412109 C-164.86592867 110.92724975 -148.48116308 82.32890766 -125.83203125 57.765625 C-125.32196533 57.21084473 -124.81189941 56.65606445 -124.28637695 56.08447266 C-93.25962649 23.05072108 -45.54916148 0.23053877 0 0 Z M-25.51953125 40.203125 C-26.25623047 40.38504395 -26.99292969 40.56696289 -27.75195312 40.75439453 C-52.68381082 46.97623859 -74.81824553 59.6721473 -93.51953125 77.203125 C-94.01388672 77.66041992 -94.50824219 78.11771484 -95.01757812 78.58886719 C-111.73746894 94.17539628 -124.38211591 113.89523249 -132.51953125 135.203125 C-132.87869629 136.14019287 -132.87869629 136.14019287 -133.24511719 137.09619141 C-136.82449034 146.63539462 -138.97335485 156.16342556 -140.51953125 166.203125 C-140.70257813 167.36070312 -140.885625 168.51828125 -141.07421875 169.7109375 C-145.84825317 209.85843224 -135.70365503 250.53189426 -110.81201172 282.60400391 C-107.94790613 286.14761774 -104.87714901 289.49124564 -101.74609375 292.80078125 C-99.51953125 295.203125 -99.51953125 295.203125 -97.73046875 297.57421875 C-76.97074943 322.25847865 -39.88616864 338.99772797 -8.23535156 342.03759766 C11.5883738 343.24583982 32.27634132 343.75883411 51.48046875 338.203125 C52.29257812 337.97238281 53.1046875 337.74164063 53.94140625 337.50390625 C72.98558615 331.89744207 90.97714719 322.60944193 106.48046875 310.203125 C107.363396 309.49736328 107.363396 309.49736328 108.26416016 308.77734375 C132.29783701 289.32975682 149.52446051 263.80970442 158.48046875 234.203125 C158.67866211 233.55359863 158.87685547 232.90407227 159.08105469 232.23486328 C163.38465 217.86172582 164.89702502 203.60088196 164.85546875 188.640625 C164.85492493 187.89844727 164.8543811 187.15626953 164.8538208 186.39160156 C164.81216999 173.97499398 163.84388158 162.21311968 160.48046875 150.203125 C160.15900879 149.04586914 160.15900879 149.04586914 159.83105469 147.86523438 C148.87988532 109.76727981 123.0728411 75.75785253 88.38085938 56.23144531 C76.9473001 50.04463241 65.07658604 44.52404609 52.48046875 41.203125 C51.21082275 40.8625708 51.21082275 40.8625708 49.91552734 40.51513672 C25.23680172 34.14629442 -0.81458584 33.74011585 -25.51953125 40.203125 Z " fill="#FBEA00" transform="translate(244.51953125,30.796875)"/>
<path d="M0 0 C1.89599609 0.18652344 1.89599609 0.18652344 4 1 C5.39697266 2.74316406 5.39697266 2.74316406 6.6640625 5.015625 C7.37961304 6.26472656 7.37961304 6.26472656 8.10961914 7.5390625 C8.85973267 8.88097656 8.85973267 8.88097656 9.625 10.25 C17.32471356 23.52674621 26.38559718 34.941325 37 46 C37.69875244 46.73162354 37.69875244 46.73162354 38.41162109 47.47802734 C43.72188949 53.00856266 49.07037943 58.11824581 55.41796875 62.46484375 C55.94003906 62.97144531 56.46210938 63.47804688 57 64 C57 65.32 57 66.64 57 68 C54.36 68 51.72 68 49 68 C88.73232088 100.09406695 140.3014169 115.4391392 191.20703125 110.46875 C225.61630471 106.51874929 257.48114341 94.71974596 286 75 C287.485 74.01 287.485 74.01 289 73 C288.649375 72.278125 288.29875 71.55625 287.9375 70.8125 C286.8557785 67.56733549 286.96778815 66.22628534 288 63 C289.6875 61.359375 289.6875 61.359375 292 59.75 C309.77758237 46.19427553 324.05132983 28.60060248 335.09765625 9.26953125 C338.77266033 2.95335381 338.77266033 2.95335381 341 0 C341.99 0 342.98 0 344 0 C345.61732041 3.23464083 344.99875197 6.74708451 344.87890625 10.2890625 C344.85529526 11.10748627 344.83168427 11.92591003 344.80735779 12.76913452 C344.73067056 15.3879306 344.64666817 18.00643471 344.5625 20.625 C344.50928437 22.39842312 344.45654393 24.17186058 344.40429688 25.9453125 C344.2750486 30.29706054 344.13923848 34.64856061 344 39 C354.31766989 33.40553011 364.36452738 27.7201245 374 21 C377 19 377 19 379.1875 19.375 C379.785625 19.58125 380.38375 19.7875 381 20 C380.43162876 23.56020886 379.53594223 26.20467056 377.69921875 29.30078125 C377.22291016 30.10499512 376.74660156 30.90920898 376.25585938 31.73779297 C375.73830078 32.58744629 375.22074219 33.43709961 374.6875 34.3125 C374.15060547 35.19824707 373.61371094 36.08399414 373.06054688 36.99658203 C362.48346285 54.17354433 349.59379288 70.06956134 335 84 C336.49076434 87.2826932 338.38620321 89.93077441 340.625 92.75 C341.57246094 93.94882812 341.57246094 93.94882812 342.5390625 95.171875 C343.26222656 96.07679688 343.26222656 96.07679688 344 97 C342.42285979 101.18927868 339.33462628 103.63794666 336 106.4375 C335.07392944 107.21867187 335.07392944 107.21867187 334.12915039 108.015625 C320.07609656 119.69717154 305.12479844 129.42534475 289 138 C288.19320801 138.4340918 287.38641602 138.86818359 286.55517578 139.31542969 C263.0146149 151.80320531 236.34252717 160.17347043 210 164 C208.75484619 164.18183838 207.50969238 164.36367676 206.22680664 164.55102539 C194.96074529 166.08848961 183.79633373 166.36047899 172.4375 166.3125 C171.51591095 166.31034485 170.5943219 166.3081897 169.64480591 166.30596924 C106.26998666 166.06870026 49.77085697 141.89474877 2 101 C3.49076434 97.7173068 5.38620321 95.06922559 7.625 92.25 C8.25664063 91.45078125 8.88828125 90.6515625 9.5390625 89.828125 C10.02117187 89.22484375 10.50328125 88.6215625 11 88 C9.36918275 83.74346441 6.15435146 81.01754179 2.9375 77.9375 C-2.83337829 72.27763063 -8.07830887 66.42482542 -13 60 C-13.42490723 59.45150391 -13.84981445 58.90300781 -14.28759766 58.33789062 C-21.30495299 49.23729738 -27.34921498 39.76296298 -32.9909668 29.75561523 C-33.88676547 28.19701657 -34.83996561 26.67172467 -35.80078125 25.15234375 C-37 23 -37 23 -36.6875 20.6875 C-36.460625 20.130625 -36.23375 19.57375 -36 19 C-32.20862595 19.54632647 -30.00794865 20.47108542 -27 22.8125 C-18.5206114 29.00997363 -9.15053833 33.87665829 0 39 C-0.03552979 37.854104 -0.07105957 36.70820801 -0.10766602 35.52758789 C-0.23765837 31.29172925 -0.36095036 27.05569789 -0.48217773 22.81958008 C-0.53567534 20.9832625 -0.59101046 19.14699753 -0.64819336 17.31079102 C-0.72988864 14.67736153 -0.80505738 12.04381595 -0.87890625 9.41015625 C-0.90594131 8.58411392 -0.93297638 7.75807159 -0.96083069 6.90699768 C-1.01283011 4.9386419 -1.01187837 2.96900669 -1 1 C-0.67 0.67 -0.34 0.34 0 0 Z " fill="#FAE900" transform="translate(84,306)"/>
<path d="M0 0 C1.34707283 -0.00855011 1.34707283 -0.00855011 2.72135925 -0.01727295 C4.6181828 -0.02667551 6.51502233 -0.03323794 8.41186523 -0.03710938 C11.24689173 -0.04671882 14.08116169 -0.07774759 16.91601562 -0.109375 C32.6027145 -0.20138738 47.84416578 1.35101184 62.91796875 5.890625 C63.77793457 6.14408691 64.63790039 6.39754883 65.52392578 6.65869141 C95.3433972 15.71811529 120.75953188 30.93822433 143.48046875 52.203125 C144.41761719 53.07453125 145.35476563 53.9459375 146.3203125 54.84375 C176.17350228 83.24756371 198.70005695 126.97600304 200.58761597 168.56385803 C200.64448345 171.18096785 200.67134754 173.79636155 200.68359375 176.4140625 C200.68929382 177.38107086 200.6949939 178.34807922 200.7008667 179.34439087 C200.71027338 181.38664676 200.71683335 183.42891752 200.72070312 185.47119141 C200.73033152 188.5344642 200.76136481 191.59704265 200.79296875 194.66015625 C200.8588682 206.83207485 200.00554004 218.29241136 197.48046875 230.203125 C197.17423584 231.65477051 197.17423584 231.65477051 196.86181641 233.13574219 C196.34674378 235.4045897 195.78005094 237.64623705 195.16796875 239.890625 C194.96139648 240.66462646 194.75482422 241.43862793 194.54199219 242.23608398 C192.26417168 250.46407785 189.30231467 258.55943317 185.48046875 266.203125 C186.62515625 266.574375 186.62515625 266.574375 187.79296875 266.953125 C190.80751191 268.3552381 191.84574101 269.34235145 193.48046875 272.203125 C194.77958822 277.04444792 194.81639504 282.03471764 195.04296875 287.015625 C195.08615234 287.89927734 195.12933594 288.78292969 195.17382812 289.69335938 C195.27938411 291.86312123 195.38037946 294.0331041 195.48046875 296.203125 C196.27710938 295.67203125 197.07375 295.1409375 197.89453125 294.59375 C201.08984375 292.46354167 204.28515625 290.33333333 207.48046875 288.203125 C208.50914062 287.46578125 209.5378125 286.7284375 210.59765625 285.96875 C214.67988822 283.4685212 217.83358828 283.35672891 222.48046875 284.203125 C227.94388338 287.12995427 227.94388338 287.12995427 229.48046875 290.203125 C232.02860228 302.61142742 224.68448179 312.26884451 218.20263672 322.15136719 C215.43272173 326.27480097 212.49333537 330.25499541 209.48046875 334.203125 C209.04089844 334.78545898 208.60132813 335.36779297 208.1484375 335.96777344 C201.70375195 344.4786586 194.81901417 352.4529397 187.48046875 360.203125 C187.91359375 360.76 188.34671875 361.316875 188.79296875 361.890625 C194.61403769 369.8676454 194.61403769 369.8676454 194.10546875 375.25 C187.27078419 396.60838926 145.44089347 415.51903027 127.6015625 424.7734375 C107.65055726 434.76909265 86.27289525 441.60722627 64.48046875 446.203125 C63.54364258 446.41340332 62.60681641 446.62368164 61.64160156 446.84033203 C29.34656251 453.85109764 -9.32466585 453.55998975 -41.51953125 446.203125 C-42.60234375 445.96706543 -43.68515625 445.73100586 -44.80078125 445.48779297 C-89.22093434 435.61169529 -134.39802418 414.09731437 -166.51953125 381.203125 C-168.25716335 377.7278608 -168.12679597 373.99373531 -167.51953125 370.203125 C-166.3671875 368.41796875 -166.3671875 368.41796875 -164.95703125 366.890625 C-162.28356814 364.57330144 -162.28356814 364.57330144 -162.59375 362.30859375 C-163.84470094 359.46360406 -165.61312699 357.93680465 -167.89453125 355.828125 C-174.12038701 349.77964405 -179.3204232 343.13841776 -184.51953125 336.203125 C-185.15375 335.3680542 -185.15375 335.3680542 -185.80078125 334.51611328 C-206.96743322 306.52817699 -206.96743322 306.52817699 -206.875 293.75390625 C-206.29737615 289.6089791 -204.58489654 287.98334003 -201.51953125 285.203125 C-197.01410477 283.70131617 -192.82367599 283.20560872 -188.41943359 285.11230469 C-186.28388387 286.35515343 -184.24486443 287.68108355 -182.20703125 289.078125 C-181.50513672 289.53832031 -180.80324219 289.99851562 -180.08007812 290.47265625 C-178.21470359 291.69964236 -176.36528322 292.94691012 -174.51953125 294.203125 C-173.52953125 294.863125 -172.53953125 295.523125 -171.51953125 296.203125 C-171.5055127 295.20514893 -171.5055127 295.20514893 -171.49121094 294.18701172 C-171.43727106 291.14998481 -171.35367063 288.11445921 -171.26953125 285.078125 C-171.25535156 284.03140625 -171.24117187 282.9846875 -171.2265625 281.90625 C-171.03395465 275.81984208 -170.8056705 271.71725038 -166.51953125 267.203125 C-164.38183594 266.55810547 -164.38183594 266.55810547 -162.51953125 266.203125 C-162.84377075 265.36841675 -162.84377075 265.36841675 -163.17456055 264.5168457 C-167.12209443 254.26164545 -170.83426126 244.02657552 -173.39453125 233.328125 C-173.58490967 232.54735596 -173.77528809 231.76658691 -173.97143555 230.9621582 C-177.11192558 217.14996233 -177.93078541 203.31221884 -177.89453125 189.203125 C-177.89398743 188.39875 -177.8934436 187.594375 -177.8928833 186.765625 C-177.85013496 172.93294683 -176.76078918 159.69356611 -173.51953125 146.203125 C-173.30522461 145.30255371 -173.09091797 144.40198242 -172.87011719 143.47412109 C-164.86592867 110.92724975 -148.48116308 82.32890766 -125.83203125 57.765625 C-125.32196533 57.21084473 -124.81189941 56.65606445 -124.28637695 56.08447266 C-93.25962649 23.05072108 -45.54916148 0.23053877 0 0 Z M-26.51953125 13.203125 C-28.40671875 13.60144531 -28.40671875 13.60144531 -30.33203125 14.0078125 C-58.61566068 20.45146195 -84.71829675 34.13870738 -106.51953125 53.203125 C-107.02693848 53.64350098 -107.5343457 54.08387695 -108.05712891 54.53759766 C-141.29641795 83.57526281 -164.8529514 126.82236848 -168.2734375 171.1953125 C-170.22670661 205.58143458 -165.94246856 237.15018316 -150.51953125 268.203125 C-150.16632813 268.92580566 -149.813125 269.64848633 -149.44921875 270.39306641 C-130.81209352 308.22877703 -99.55745857 336.59948305 -61.51953125 354.203125 C-60.875 354.50847168 -60.23046875 354.81381836 -59.56640625 355.12841797 C-37.68088375 365.37631388 -13.12165273 369.61220484 10.91796875 369.578125 C11.60745605 369.57724884 12.29694336 369.57637268 13.00732422 369.57546997 C59.6504049 369.38192744 102.78727144 351.04265126 136.48046875 319.203125 C137.76824219 318.01203125 137.76824219 318.01203125 139.08203125 316.796875 C160.32668971 296.47057354 174.06081437 270.75436145 183.48046875 243.203125 C183.88265625 242.04941406 184.28484375 240.89570313 184.69921875 239.70703125 C199.28767543 195.44432746 191.74440306 146.64914544 171.32250977 105.69799805 C150.79082342 65.8418316 115.27549762 35.72207532 73.48046875 20.203125 C72.77486816 19.93516113 72.06926758 19.66719727 71.34228516 19.39111328 C40.43654407 7.78657827 5.63832324 6.00650837 -26.51953125 13.203125 Z M-160.51953125 275.203125 C-161.94259407 276.39191174 -161.94259407 276.39191174 -161.54125977 279.80493164 C-161.49891403 281.40786249 -161.45088912 283.01064926 -161.3984375 284.61328125 C-161.37482651 285.45531601 -161.35121552 286.29735077 -161.32688904 287.16490173 C-161.2500618 289.86530631 -161.16612013 292.56543771 -161.08203125 295.265625 C-161.02882961 297.09178332 -160.97608911 298.91795514 -160.92382812 300.74414062 C-160.79442104 305.23064309 -160.65863126 309.71691301 -160.51953125 314.203125 C-170.24209846 308.93695607 -179.79737301 303.69369668 -188.74633789 297.16455078 C-192.02085811 294.75657854 -192.02085811 294.75657854 -195.93359375 294.43359375 C-196.45695312 294.68753906 -196.9803125 294.94148438 -197.51953125 295.203125 C-196.96253471 300.21609382 -194.63073084 303.90505413 -192.08203125 308.140625 C-191.63609619 308.88844238 -191.19016113 309.63625977 -190.73071289 310.40673828 C-179.3768336 329.18438453 -165.18413256 345.88662594 -149.51953125 361.203125 C-151.03965802 366.60802019 -154.79338343 370.18805128 -158.51953125 374.203125 C-156.07447675 380.15055487 -150.46430045 383.39334889 -145.51953125 387.203125 C-144.84680176 387.7276123 -144.17407227 388.25209961 -143.48095703 388.79248047 C-113.3377481 412.17257319 -78.82554009 428.31730199 -41.51953125 436.203125 C-40.16912735 436.50195652 -38.81885623 436.80138899 -37.46875 437.1015625 C-21.25513402 440.56001068 -5.35158366 441.58181477 11.16796875 441.515625 C12.09111877 441.51413452 13.0142688 441.51264404 13.96539307 441.5111084 C26.86572322 441.47369752 39.49542843 441.11239121 52.19580078 438.63867188 C54.48157512 438.20291408 56.76935281 437.84565658 59.0703125 437.5 C106.18257989 429.89443217 148.14293876 405.28447071 183.48046875 374.203125 C181.98970441 370.9204318 180.09426554 368.27235059 177.85546875 365.453125 C176.90800781 364.25429688 176.90800781 364.25429688 175.94140625 363.03125 C175.21824219 362.12632812 175.21824219 362.12632812 174.48046875 361.203125 C176.05462057 357.32621393 178.54206369 355.00646823 181.54296875 352.140625 C195.56750544 338.43733097 206.75430533 322.151687 216.48046875 305.203125 C217.04967041 304.2594104 217.04967041 304.2594104 217.63037109 303.29663086 C219.89636497 299.78898063 219.89636497 299.78898063 220.23046875 295.765625 C219.98296875 295.25 219.73546875 294.734375 219.48046875 294.203125 C215.60049356 294.75256205 213.32959469 295.77168881 210.23046875 298.140625 C205.51604818 301.57317895 200.63436463 304.57533451 195.60546875 307.515625 C194.86780273 307.9480249 194.13013672 308.3804248 193.37011719 308.82592773 C190.11466812 310.72021732 186.86279834 312.54283624 183.48046875 314.203125 C183.53376343 312.53757568 183.53376343 312.53757568 183.58813477 310.83837891 C183.71829005 306.72736634 183.84152524 302.61617065 183.96264648 298.50488281 C184.01608895 296.72390043 184.07142004 294.94297369 184.12866211 293.16210938 C184.21051056 290.60559083 184.28561405 288.04895055 184.359375 285.4921875 C184.38641006 284.69318024 184.41344513 283.89417297 184.44129944 283.07095337 C184.66199128 279.0085271 184.66199128 279.0085271 183.48046875 275.203125 C181.54424345 275.46008587 181.54424345 275.46008587 179.48046875 276.203125 C177.82404211 278.70276883 176.39270759 281.13339975 174.98046875 283.765625 C167.17336668 297.63236464 157.54935142 309.80297546 146.48046875 321.203125 C145.9798291 321.72422852 145.47918945 322.24533203 144.96337891 322.78222656 C139.16774487 328.79776393 133.37515284 334.42988217 126.48046875 339.203125 C126.96625418 342.32603135 127.47906995 345.19892859 128.48046875 348.203125 C111.33485246 360.44612431 92.94248785 370.23717838 72.79003906 376.48583984 C70.57100593 377.17500679 68.365912 377.89854701 66.16015625 378.62890625 C55.44488731 382.07994467 44.63484226 383.82989557 33.48046875 385.203125 C32.77100098 385.29956299 32.0615332 385.39600098 31.33056641 385.49536133 C15.6126371 387.49527461 -0.94601782 386.99384728 -16.51953125 384.203125 C-18.16894319 383.95355411 -19.8187121 383.70633576 -21.46875 383.4609375 C-54.56035851 378.29758036 -85.61045763 364.40784108 -111.51953125 343.203125 C-108.87953125 343.203125 -106.23953125 343.203125 -103.51953125 343.203125 C-103.82024396 340.03744024 -104.15037935 338.56336377 -106.4609375 336.30859375 C-107.32589844 335.67566406 -108.19085938 335.04273438 -109.08203125 334.390625 C-126.55454848 320.68002458 -140.6221663 303.7119027 -151.6171875 284.47265625 C-154.38401414 279.71660683 -154.38401414 279.71660683 -157.51953125 275.203125 C-158.50953125 275.203125 -159.49953125 275.203125 -160.51953125 275.203125 Z " fill="#FBFDFC" transform="translate(244.51953125,30.796875)"/>
<path d="M0 0 C0 90.09 0 180.18 0 273 C-9.00791278 270.7480218 -9.00791278 270.7480218 -12.10546875 269.37890625 C-13.11577148 268.93514648 -13.11577148 268.93514648 -14.14648438 268.48242188 C-14.82001953 268.17884766 -15.49355469 267.87527344 -16.1875 267.5625 C-16.87263672 267.26279297 -17.55777344 266.96308594 -18.26367188 266.65429688 C-20.19475708 265.79748236 -22.10896473 264.94225348 -24 264 C-25.27679642 263.42362431 -25.27679642 263.42362431 -26.57938671 262.83560467 C-29 261 -29 261 -29.63085651 258.17892933 C-29.63362189 257.02392272 -29.63638727 255.86891611 -29.63923645 254.6789093 C-29.65176996 253.71338781 -29.65176996 253.71338781 -29.66455668 252.72836083 C-29.68653711 250.56746444 -29.67286665 248.40825946 -29.65942383 246.24731445 C-29.66787411 244.70008042 -29.67851688 243.15285704 -29.69119263 241.60565186 C-29.71940372 237.40127054 -29.71685609 233.19739824 -29.70889878 228.99295068 C-29.70577945 224.60062606 -29.73079118 220.2084652 -29.75285339 215.81620789 C-29.79034826 207.49706796 -29.80244459 199.17809152 -29.8054778 190.85887545 C-29.81016274 181.38853225 -29.84306788 171.91835341 -29.87837565 162.44808257 C-29.95037865 142.96536679 -29.98311224 123.48284689 -30 104 C-33.3 114.56 -36.6 125.12 -40 136 C-45.61 136 -51.22 136 -57 136 C-60.61590632 127.67245818 -63.72615085 119.2635313 -66.67602539 110.68066406 C-66.96340576 109.8450293 -67.25078613 109.00939453 -67.546875 108.1484375 C-67.93117676 107.02187744 -67.93117676 107.02187744 -68.32324219 105.87255859 C-68.97826231 103.94632509 -68.97826231 103.94632509 -70 102 C-77.18136044 121.58552847 -77.07532076 143.8535742 -72 164 C-71.83371094 164.66402832 -71.66742188 165.32805664 -71.49609375 166.01220703 C-67.53660265 181.20125482 -60.15108828 200.25353341 -47.95507812 210.76196289 C-43.5118569 214.83081616 -41.56779728 217.92617233 -41.24304199 224.0705719 C-41.20152115 227.90924112 -41.33161309 231.72812362 -41.5 235.5625 C-41.54019436 237.15941555 -41.57668466 238.75642884 -41.609375 240.35351562 C-41.69687596 244.23812092 -41.83452272 248.11796661 -42 252 C-46.61644905 250.31261164 -49.67527435 247.86848408 -53.1875 244.5 C-54.04396118 243.68825317 -54.04396118 243.68825317 -54.91772461 242.86010742 C-56.07628123 241.75823958 -57.23167738 240.65303851 -58.38378906 239.54443359 C-59.7866875 238.2038391 -61.215403 236.89036215 -62.6484375 235.58203125 C-85.81772022 213.79990624 -100.95320718 179.93651286 -102.13916016 148.28613281 C-102.2538531 144.08678521 -102.29557093 139.88826716 -102.3125 135.6875 C-102.31644775 135.01349152 -102.32039551 134.33948303 -102.32446289 133.64505005 C-102.41646643 100.83928971 -91.26212512 68.50435355 -69 44 C-68.34 43.67 -67.68 43.34 -67 43 C-60.48761575 55.92042909 -54.02132102 68.84247183 -48 82 C-43.96565317 70.28856786 -40.43654594 58.46083254 -37 46.5625 C-35.24998795 40.51564278 -33.49076485 34.47170787 -31.71142578 28.43341064 C-31.0130576 26.04466312 -30.33223381 23.65138522 -29.65234375 21.25732422 C-29.22734533 19.80543468 -28.80160569 18.35376184 -28.375 16.90234375 C-28.01148438 15.63769287 -27.64796875 14.37304199 -27.2734375 13.07006836 C-25.59639944 9.02697908 -23.78769391 7.86030633 -19.95703125 6.0168457 C-17.64054765 5.1083432 -15.32400479 4.20163602 -13 3.3125 C-12.19304687 2.99216797 -11.38609375 2.67183594 -10.5546875 2.34179688 C-9.77351563 2.03951172 -8.99234375 1.73722656 -8.1875 1.42578125 C-7.47980469 1.15161377 -6.77210938 0.87744629 -6.04296875 0.5949707 C-4 0 -4 0 0 0 Z " fill="#02722B" transform="translate(216,84)"/>
<path d="M0 0 C1.13217957 -0.00492462 1.13217957 -0.00492462 2.28723145 -0.00994873 C16.81227967 -0.03038048 29.90479666 1.69743222 43.75 6.3125 C43.75 15.5525 43.75 24.7925 43.75 34.3125 C39.94815461 33.55213092 36.65187856 32.63316582 33 31.4375 C22.14024413 28.64029015 10.8843371 27.64862045 -0.25 26.3125 C-0.25 59.6425 -0.25 92.9725 -0.25 127.3125 C9.32 127.3125 18.89 127.3125 28.75 127.3125 C28.75 137.2125 28.75 147.1125 28.75 157.3125 C19.18 157.3125 9.61 157.3125 -0.25 157.3125 C-0.25 199.5525 -0.25 241.7925 -0.25 285.3125 C-6.62227753 285.3125 -12.45479509 285.22573707 -18.6875 284.375 C-19.38037109 284.28798828 -20.07324219 284.20097656 -20.78710938 284.11132812 C-23.74123488 283.72600741 -26.41598631 283.25717123 -29.25 282.3125 C-29.25 190.2425 -29.25 98.1725 -29.25 3.3125 C-19.85813976 -0.44424409 -9.98484027 0.0354034 0 0 Z " fill="#01722B" transform="translate(255.25,77.6875)"/>
<path d="M0 0 C27.13985122 5.42797024 52.21739575 31.25474157 67.15234375 53.1171875 C68.60201669 55.37904507 69.87705227 57.5659667 71 60 C65.94500956 64.14079004 60.83982104 68.20749082 55.5625 72.0625 C54.75941406 72.65160156 53.95632813 73.24070312 53.12890625 73.84765625 C52.42636719 74.22792969 51.72382813 74.60820312 51 75 C46.35696868 73.45232289 45.02404246 69.61274381 42.5234375 65.56640625 C39.09638695 60.72291221 34.96917189 56.41019099 31 52 C31 105.13 31 158.26 31 213 C39.84533711 202.87035522 39.84533711 202.87035522 47 191.9375 C49.17306219 188.11686157 51.35111263 184.53184982 54 181 C64.395 187.93 64.395 187.93 75 195 C70.7171902 216.41404901 46.61486685 238.44618697 29.296875 250.31640625 C6.57028596 265 6.57028596 265 0 265 C0 177.55 0 90.1 0 0 Z " fill="#04742B" transform="translate(308,88)"/>
<path d="M0 0 C1.89599609 0.18652344 1.89599609 0.18652344 4 1 C5.39697266 2.74316406 5.39697266 2.74316406 6.6640625 5.015625 C7.37961304 6.26472656 7.37961304 6.26472656 8.10961914 7.5390625 C8.85973267 8.88097656 8.85973267 8.88097656 9.625 10.25 C17.32471356 23.52674621 26.38559718 34.941325 37 46 C37.69875244 46.73162354 37.69875244 46.73162354 38.41162109 47.47802734 C43.72188949 53.00856266 49.07037943 58.11824581 55.41796875 62.46484375 C55.94003906 62.97144531 56.46210938 63.47804688 57 64 C57 65.32 57 66.64 57 68 C54.36 68 51.72 68 49 68 C88.73232088 100.09406695 140.3014169 115.4391392 191.20703125 110.46875 C225.61630471 106.51874929 257.48114341 94.71974596 286 75 C287.485 74.01 287.485 74.01 289 73 C288.649375 72.278125 288.29875 71.55625 287.9375 70.8125 C286.8557785 67.56733549 286.96778815 66.22628534 288 63 C289.6875 61.359375 289.6875 61.359375 292 59.75 C309.77758237 46.19427553 324.05132983 28.60060248 335.09765625 9.26953125 C338.77266033 2.95335381 338.77266033 2.95335381 341 0 C341.99 0 342.98 0 344 0 C345.61732041 3.23464083 344.99875197 6.74708451 344.87890625 10.2890625 C344.85529526 11.10748627 344.83168427 11.92591003 344.80735779 12.76913452 C344.73067056 15.3879306 344.64666817 18.00643471 344.5625 20.625 C344.50928437 22.39842312 344.45654393 24.17186058 344.40429688 25.9453125 C344.2750486 30.29706054 344.13923848 34.64856061 344 39 C354.31766989 33.40553011 364.36452738 27.7201245 374 21 C377 19 377 19 379.1875 19.375 C379.785625 19.58125 380.38375 19.7875 381 20 C380.43162876 23.56020886 379.53594223 26.20467056 377.69921875 29.30078125 C377.22291016 30.10499512 376.74660156 30.90920898 376.25585938 31.73779297 C375.73830078 32.58744629 375.22074219 33.43709961 374.6875 34.3125 C374.15060547 35.19824707 373.61371094 36.08399414 373.06054688 36.99658203 C362.48346285 54.17354433 349.59379288 70.06956134 335 84 C336.49076434 87.2826932 338.38620321 89.93077441 340.625 92.75 C341.57246094 93.94882812 341.57246094 93.94882812 342.5390625 95.171875 C343.26222656 96.07679688 343.26222656 96.07679688 344 97 C342.42285979 101.18927868 339.33462628 103.63794666 336 106.4375 C335.07392944 107.21867187 335.07392944 107.21867187 334.12915039 108.015625 C320.07609656 119.69717154 305.12479844 129.42534475 289 138 C288.19320801 138.4340918 287.38641602 138.86818359 286.55517578 139.31542969 C263.0146149 151.80320531 236.34252717 160.17347043 210 164 C208.75484619 164.18183838 207.50969238 164.36367676 206.22680664 164.55102539 C194.96074529 166.08848961 183.79633373 166.36047899 172.4375 166.3125 C171.51591095 166.31034485 170.5943219 166.3081897 169.64480591 166.30596924 C106.26998666 166.06870026 49.77085697 141.89474877 2 101 C3.49076434 97.7173068 5.38620321 95.06922559 7.625 92.25 C8.25664063 91.45078125 8.88828125 90.6515625 9.5390625 89.828125 C10.02117187 89.22484375 10.50328125 88.6215625 11 88 C9.36918275 83.74346441 6.15435146 81.01754179 2.9375 77.9375 C-2.83337829 72.27763063 -8.07830887 66.42482542 -13 60 C-13.42490723 59.45150391 -13.84981445 58.90300781 -14.28759766 58.33789062 C-21.30495299 49.23729738 -27.34921498 39.76296298 -32.9909668 29.75561523 C-33.88676547 28.19701657 -34.83996561 26.67172467 -35.80078125 25.15234375 C-37 23 -37 23 -36.6875 20.6875 C-36.460625 20.130625 -36.23375 19.57375 -36 19 C-32.20862595 19.54632647 -30.00794865 20.47108542 -27 22.8125 C-18.5206114 29.00997363 -9.15053833 33.87665829 0 39 C-0.03552979 37.854104 -0.07105957 36.70820801 -0.10766602 35.52758789 C-0.23765837 31.29172925 -0.36095036 27.05569789 -0.48217773 22.81958008 C-0.53567534 20.9832625 -0.59101046 19.14699753 -0.64819336 17.31079102 C-0.72988864 14.67736153 -0.80505738 12.04381595 -0.87890625 9.41015625 C-0.90594131 8.58411392 -0.93297638 7.75807159 -0.96083069 6.90699768 C-1.01283011 4.9386419 -1.01187837 2.96900669 -1 1 C-0.67 0.67 -0.34 0.34 0 0 Z M304.6875 67.125 C268.41042532 101.25130911 214.15743919 117.5938861 165.22265625 116.32421875 C155.38311764 115.89934701 145.70144296 114.65861073 136 113 C135.16919922 112.86078125 134.33839844 112.7215625 133.48242188 112.578125 C101.84919188 107.09875236 72.05580084 92.91429257 47 73 C46.02546875 72.22914063 45.0509375 71.45828125 44.046875 70.6640625 C41.6888607 68.78687235 39.33980797 66.89979984 37 65 C26.33609708 75.39825409 17.06544146 87.5029973 9 100 C43.01957804 132.92538108 89.85191035 151.78972131 136 159 C137.09046631 159.17950195 138.18093262 159.35900391 139.30444336 159.54394531 C149.94742978 161.15353054 160.44043009 161.39683008 171.1875 161.375 C172.10498016 161.37512085 173.02246033 161.3752417 173.96774292 161.37536621 C189.94676617 161.34553162 205.28948006 160.08544947 221 157 C221.78906738 156.85578613 222.57813477 156.71157227 223.39111328 156.56298828 C263.87104376 149.06670486 304.88313723 128.09300959 335 100 C335.66 99.01 336.32 98.02 337 97 C331.14198784 89.31459909 325.210611 81.69978195 319.11230469 74.20288086 C316.84473208 71.3959379 314.70723008 68.60748648 312.7734375 65.55859375 C312.18820312 64.71425781 311.60296875 63.86992187 311 63 C307.89838091 63 306.86086311 64.96896834 304.6875 67.125 Z " fill="#0C782F" transform="translate(84,306)"/>
<path d="M0 0 C0.77166504 0.32371582 1.54333008 0.64743164 2.33837891 0.98095703 C40.85609258 17.46938854 71.97686469 47.85507494 91 85 C91.31662598 85.61407715 91.63325195 86.2281543 91.95947266 86.86083984 C104.11646528 110.76218565 110.43204351 137.72049597 110.3125 164.5 C110.30831055 165.8001001 110.30412109 167.1002002 110.29980469 168.43969727 C110.10806123 185.02652634 108.08243627 201.17549377 103 217 C102.75765625 217.76521973 102.5153125 218.53043945 102.265625 219.31884766 C98.48248561 231.10175054 93.91822242 242.13574775 88 253 C87.45859375 254.0209375 86.9171875 255.041875 86.359375 256.09375 C78.79612671 269.75165467 68.80861213 281.80765017 58 293 C57.19046875 293.86109375 56.3809375 294.7221875 55.546875 295.609375 C31.80865494 320.2664939 -0.86627899 335.84344912 -34 343 C-34.74411133 343.16371094 -35.48822266 343.32742188 -36.25488281 343.49609375 C-57.37609909 347.92724619 -81.67893795 348.09322752 -102.76171875 343.48730469 C-105.15744936 342.9657211 -107.56136253 342.50366232 -109.96875 342.0390625 C-154.95314054 332.84291329 -194.6724198 303.74475566 -220.28076172 266.11816406 C-233.8320346 245.5425819 -244.06643057 221.6164914 -247.66748047 197.17895508 C-247.92440323 195.49537532 -248.21034843 193.81620914 -248.50830078 192.1394043 C-249.90216927 183.97964623 -250.31528883 176.08260284 -250.25 167.8125 C-250.24178223 166.53802002 -250.23356445 165.26354004 -250.22509766 163.95043945 C-249.65442768 115.58155689 -229.83993525 70.65230997 -195.59375 36.5625 C-144.05178867 -13.33985419 -66.08645398 -27.75657142 0 0 Z M-76.8203125 -6.921875 C-88.52051819 -6.51059835 -99.60891793 -4.64057232 -111 -2 C-112.02287109 -1.76990234 -112.02287109 -1.76990234 -113.06640625 -1.53515625 C-139.55632319 4.51203691 -165.15189326 18.36752355 -184.88671875 37.0078125 C-186.82133632 38.83157398 -188.81900095 40.50417695 -190.875 42.1875 C-217.21227459 65.29223183 -234.43570421 101.04964039 -240.64160156 135.04785156 C-240.96043778 136.78450989 -241.31740734 138.51406951 -241.6796875 140.2421875 C-249.25224991 181.83941386 -237.25735627 228.13762787 -213.71411133 262.76635742 C-207.46865149 271.75296672 -200.45102808 279.99312258 -193 288 C-192.08154297 288.99966797 -192.08154297 288.99966797 -191.14453125 290.01953125 C-161.57231293 320.97893252 -118.04231481 337.92196803 -75.765625 339.23828125 C-26.02732487 340.0685166 17.25024853 322.00198584 53 288 C53.63292969 287.41992188 54.26585937 286.83984375 54.91796875 286.2421875 C86.38007944 256.49890946 101.84612357 211.31815659 103.25390625 169.03515625 C103.94026132 130.91453617 92.12649726 93.47711256 69 63 C68.36835938 62.15824219 67.73671875 61.31648438 67.0859375 60.44921875 C58.50664615 49.38087373 49.10090872 39.54862223 38 31 C37.02804687 30.20078125 36.05609375 29.4015625 35.0546875 28.578125 C21.85074413 17.82028871 6.70808622 10.38623833 -9 4 C-9.88042969 3.62359375 -10.76085937 3.2471875 -11.66796875 2.859375 C-32.10091118 -5.3267959 -55.00126901 -7.36807221 -76.8203125 -6.921875 Z " fill="#09762F" transform="translate(326,54)"/>
<path d="M0 0 C0.91523438 0.67160156 1.83046875 1.34320313 2.7734375 2.03515625 C21.97740056 17.00040674 36.99436151 35.37452954 48 57 C48.52787109 58.03350586 48.52787109 58.03350586 49.06640625 59.08789062 C66.7183998 94.35930946 69.38225539 137.61605046 57.26391602 175.04418945 C50.44568211 194.92099127 40.69573747 212.99509749 27 229 C26.31421875 229.80824219 25.6284375 230.61648438 24.921875 231.44921875 C3.58896475 255.88998104 -23.45545268 270.97074598 -54.375 279.8125 C-55.05095215 280.0074707 -55.7269043 280.20244141 -56.42333984 280.40332031 C-67.96306709 283.53920593 -79.39249288 284.33598279 -91.3125 284.25 C-91.99453491 284.24656586 -92.67656982 284.24313171 -93.37927246 284.23959351 C-139.10228724 283.96983923 -177.38374989 265.56840479 -209.41796875 233.5859375 C-239.44592668 201.80413424 -251.10892019 159.03095939 -250.13623047 116.27490234 C-248.61701545 79.75384446 -231.92874926 45.2572406 -207 19 C-206.53110352 18.49855469 -206.06220703 17.99710938 -205.57910156 17.48046875 C-152.56290059 -38.93288685 -61.98371069 -45.6712199 0 0 Z M-130 -22 C-130.73669922 -21.81808105 -131.47339844 -21.63616211 -132.23242188 -21.44873047 C-157.16427957 -15.22688641 -179.29871428 -2.5309777 -198 15 C-198.49435547 15.45729492 -198.98871094 15.91458984 -199.49804688 16.38574219 C-216.21793769 31.97227128 -228.86258466 51.69210749 -237 73 C-237.35916504 73.93706787 -237.35916504 73.93706787 -237.72558594 74.89306641 C-241.30495909 84.43226962 -243.4538236 93.96030056 -245 104 C-245.18304688 105.15757812 -245.36609375 106.31515625 -245.5546875 107.5078125 C-250.32872192 147.65530724 -240.18412378 188.32876926 -215.29248047 220.40087891 C-212.42837488 223.94449274 -209.35761776 227.28812064 -206.2265625 230.59765625 C-204 233 -204 233 -202.2109375 235.37109375 C-181.45121818 260.05535365 -144.36663739 276.79460297 -112.71582031 279.83447266 C-92.89209495 281.04271482 -72.20412743 281.55570911 -53 276 C-52.18789063 275.76925781 -51.37578125 275.53851563 -50.5390625 275.30078125 C-31.4948826 269.69431707 -13.50332156 260.40631693 2 248 C2.88292725 247.29423828 2.88292725 247.29423828 3.78369141 246.57421875 C27.81736826 227.12663182 45.04399176 201.60657942 54 172 C54.19819336 171.35047363 54.39638672 170.70094727 54.60058594 170.03173828 C58.90418125 155.65860082 60.41655627 141.39775696 60.375 126.4375 C60.37445618 125.69532227 60.37391235 124.95314453 60.37335205 124.18847656 C60.33170124 111.77186898 59.36341283 100.00999468 56 88 C55.67854004 86.84274414 55.67854004 86.84274414 55.35058594 85.66210938 C44.39941657 47.56415481 18.59237235 13.55472753 -16.09960938 -5.97167969 C-27.53316865 -12.15849259 -39.40388271 -17.67907891 -52 -21 C-53.269646 -21.3405542 -53.269646 -21.3405542 -54.56494141 -21.68798828 C-79.24366703 -28.05683058 -105.29505459 -28.46300915 -130 -22 Z " fill="#127A28" transform="translate(349,93)"/>
<path d="M0 0 C3.32183586 3.32183586 5.61295669 6.20302979 8.1875 10.0625 C16.51750876 22.32358233 26.15506203 34.96044207 38 44 C35 45 35 45 32.2265625 44.5859375 C27.84364433 45.14839431 26.7075677 47.02806795 24.046875 50.39453125 C23.49515625 51.13058594 22.9434375 51.86664063 22.375 52.625 C21.81554687 53.33785156 21.25609375 54.05070312 20.6796875 54.78515625 C17.60041168 58.74318767 14.7226894 62.78979249 12 67 C3.70494715 66.03321062 -4.64610157 53.30702 -9.54296875 47.1484375 C-10.75919922 45.58996094 -10.75919922 45.58996094 -12 44 C-12.51385254 43.35192383 -13.02770508 42.70384766 -13.55712891 42.03613281 C-20.14410925 33.72157674 -26.44277286 25.63468569 -31 16 C-27.46925003 17.32732595 -24.29922029 18.89403289 -21.05859375 20.8203125 C-19.68864258 21.62275391 -19.68864258 21.62275391 -18.29101562 22.44140625 C-16.38235074 23.5675316 -14.47610805 24.69777203 -12.57226562 25.83203125 C-11.66025391 26.36441406 -10.74824219 26.89679688 -9.80859375 27.4453125 C-8.98157959 27.93531738 -8.15456543 28.42532227 -7.30249023 28.93017578 C-4.81855779 30.28091603 -4.81855779 30.28091603 -1 30 C-0.67 20.1 -0.34 10.2 0 0 Z " fill="#FBEA00" transform="translate(89,321)"/>
<path d="M0 0 C0.33 0 0.66 0 1 0 C1.33 9.9 1.66 19.8 2 30 C5.79563353 29.24087329 7.78920507 28.78873367 10.99609375 27.07421875 C11.71990234 26.68943359 12.44371094 26.30464844 13.18945312 25.90820312 C13.93130859 25.50537109 14.67316406 25.10253906 15.4375 24.6875 C16.17548828 24.29626953 16.91347656 23.90503906 17.67382812 23.50195312 C21.95030728 21.2097603 26.01120046 18.76244913 30 16 C30.66 16.33 31.32 16.66 32 17 C21.22734696 34.35594101 8.81493273 50.8584733 -6 65 C-9.06060443 63.66550094 -10.82889325 62.32729547 -12.875 59.69921875 C-13.38546875 59.05146484 -13.8959375 58.40371094 -14.421875 57.73632812 C-14.94265625 57.06021484 -15.4634375 56.38410156 -16 55.6875 C-16.78117187 54.69073242 -16.78117187 54.69073242 -17.578125 53.67382812 C-19.81468104 50.81883045 -22.03039264 47.95891566 -24.1875 45.04296875 C-25.88274156 42.67952759 -25.88274156 42.67952759 -29 42.625 C-31.42599708 42.92824963 -33.66722746 43.28222384 -36 44 C-35.30003906 43.30519531 -34.60007812 42.61039062 -33.87890625 41.89453125 C-21.47676521 29.47496535 -10.38691528 16.26662711 -0.98828125 1.40625 C-0.66214844 0.9421875 -0.33601563 0.478125 0 0 Z " fill="#FAE900" transform="translate(422,321)"/>
<path d="M0 0 C3.57770548 1.38297859 6.74845193 2.95616979 10 5 C9.85636473 6.37523135 9.70996483 7.75017402 9.5625 9.125 C9.48128906 9.89070313 9.40007812 10.65640625 9.31640625 11.4453125 C8.96120001 14.31327401 8.49109894 17.1524515 8 20 C8.88751953 18.89978516 8.88751953 18.89978516 9.79296875 17.77734375 C10.97826172 16.37162109 10.97826172 16.37162109 12.1875 14.9375 C12.96480469 13.99777344 13.74210937 13.05804688 14.54296875 12.08984375 C17 10 17 10 19.59375 10.0625 C22.72862171 11.28387859 25.27905047 13.03838522 28 15 C26.42195846 20.60476823 23.73583615 25.35050626 20.875 30.375 C20.40707031 31.20644531 19.93914062 32.03789062 19.45703125 32.89453125 C18.30929451 34.93234954 17.15686718 36.96735569 16 39 C14.02 38.67 12.04 38.34 10 38 C9 35 9 35 10.21484375 32.08203125 C10.78332031 31.00308594 11.35179687 29.92414063 11.9375 28.8125 C12.78634766 27.18248047 12.78634766 27.18248047 13.65234375 25.51953125 C14.31943359 24.27236328 14.31943359 24.27236328 15 23 C13.51780033 24.45525059 12.03932861 25.914299 10.5625 27.375 C9.73878906 28.18710937 8.91507813 28.99921875 8.06640625 29.8359375 C5.96565328 31.82348515 5.96565328 31.82348515 5 34 C2.0625 33.1875 2.0625 33.1875 -1 32 C-2.76733448 26.69799657 -0.31300906 21.30455661 1 16 C-1.31 19.96 -3.62 23.92 -6 28 C-7.98 27.34 -9.96 26.68 -12 26 C-12.33 25.34 -12.66 24.68 -13 24 C-11.92016602 21.56982422 -11.92016602 21.56982422 -10.25390625 18.5546875 C-9.66416016 17.47832031 -9.07441406 16.40195312 -8.46679688 15.29296875 C-7.83837891 14.16503906 -7.20996094 13.03710938 -6.5625 11.875 C-5.93794922 10.73933594 -5.31339844 9.60367187 -4.66992188 8.43359375 C-3.12037247 5.61838186 -1.56347285 2.80749597 0 0 Z " fill="#09762A" transform="translate(143,398)"/>
<path d="M0 0 C3.67429437 3.35009193 5.78860268 6.54160351 6.4765625 11.44140625 C6.63672989 16.32651161 6.54804992 20.18318718 3.125 23.9375 C-1.88104262 27.79632452 -5.97926152 28.64705815 -12.28515625 28.37890625 C-16.61259833 27.64134825 -18.04647874 26.33172551 -20.875 22.9375 C-23.26873471 18.48807708 -24.64556224 14.00119471 -23.875 8.9375 C-19.08005731 -0.65238539 -9.85507541 -3.64209309 0 0 Z " fill="#07752A" transform="translate(343.875,416.0625)"/>
<path d="M0 0 C5.02083792 0.49117648 9.91997117 1.03027063 14.8125 2.3125 C15.70582031 2.53550781 16.59914062 2.75851562 17.51953125 2.98828125 C20.47154261 4.19232998 22.02416132 5.50832465 24 8 C24 12.0578175 23.64495946 14.20940453 21.0625 17.375 C19 19 19 19 17 20 C17.495 21.03125 17.99 22.0625 18.5 23.125 C19.97473902 26.52451578 20.27291106 29.27021549 20 33 C16.76872085 32.79000073 13.94710337 32.38194545 11 31 C9.26949584 28.14329472 8.64895841 25.25058634 8 22 C7.67 21.01 7.34 20.02 7 19 C6.34 18.67 5.68 18.34 5 18 C4.34 21.3 3.68 24.6 3 28 C0.03 27.67 -2.94 27.34 -6 27 C-5.37547911 20.79786153 -4.0842258 15.00570586 -2.4375 9 C-2.20353516 8.12988281 -1.96957031 7.25976562 -1.72851562 6.36328125 C-1.15709256 4.24085272 -0.58085043 2.11986406 0 0 Z " fill="#09762A" transform="translate(195,422)"/>
<path d="M0 0 C3.3 0.33 6.6 0.66 10 1 C12.22302233 6.70423618 14.06889645 12.4102206 15.6875 18.3125 C15.91244141 19.10978516 16.13738281 19.90707031 16.36914062 20.72851562 C16.58119141 21.49486328 16.79324219 22.26121094 17.01171875 23.05078125 C17.20209717 23.73825439 17.39247559 24.42572754 17.58862305 25.1340332 C18 27 18 27 18 30 C15.03 29.67 12.06 29.34 9 29 C8.505 26.525 8.505 26.525 8 24 C6.35333797 24.1135629 4.70763918 24.24117381 3.0625 24.375 C1.68771484 24.47941406 1.68771484 24.47941406 0.28515625 24.5859375 C-0.46894531 24.72257812 -1.22304687 24.85921875 -2 25 C-2.33 25.66 -2.66 26.32 -3 27 C-5.97 27 -8.94 27 -12 27 C-9.97583801 20.45586465 -7.45057347 14.51845576 -4.3125 8.4375 C-3.89677734 7.61958984 -3.48105469 6.80167969 -3.05273438 5.95898438 C-2.0407051 3.96982339 -1.02114804 1.98449524 0 0 Z " fill="#08762A" transform="translate(234,429)"/>
<path d="M0 0 C1.43472656 -0.02126953 1.43472656 -0.02126953 2.8984375 -0.04296875 C5.71850283 0.19540353 7.28031337 0.63298309 9.625 2.1875 C11.625 5.1875 11.625 5.1875 11.625 8.1875 C6.1860835 8.40505666 1.75419186 8.29178384 -3.375 6.1875 C-3.045 7.1775 -2.715 8.1675 -2.375 9.1875 C-1.63894531 9.27386719 -0.90289062 9.36023438 -0.14453125 9.44921875 C4.56386342 10.12717782 7.87588092 10.65871006 11.8125 13.4375 C14.01029381 16.77208372 14.35949369 18.27020034 13.625 22.1875 C11.40138539 25.68175153 9.45147828 27.6662906 5.625 29.1875 C-0.07420345 29.93223773 -4.81028973 30.27076096 -9.625 26.9375 C-11.375 24.1875 -11.375 24.1875 -11.375 20.1875 C-7.415 19.6925 -7.415 19.6925 -3.375 19.1875 C-2.715 20.1775 -2.055 21.1675 -1.375 22.1875 C1.20880177 22.43780977 1.20880177 22.43780977 3.625 22.1875 C3.625 21.1975 3.625 20.2075 3.625 19.1875 C2.87734375 19.00574219 2.1296875 18.82398438 1.359375 18.63671875 C0.37453125 18.38535156 -0.6103125 18.13398438 -1.625 17.875 C-2.59953125 17.63136719 -3.5740625 17.38773437 -4.578125 17.13671875 C-7.4327351 16.16790554 -9.22663815 15.29570555 -11.375 13.1875 C-12.2469346 6.32101499 -12.2469346 6.32101499 -9.5 2.75 C-6.1289775 0.27130699 -4.15488584 0.02784776 0 0 Z " fill="#09762A" transform="translate(270.375,428.8125)"/>
<path d="M0 0 C2.6875 2 2.6875 2 4 4 C3.67 4.99 3.34 5.98 3 7 C0.6739143 7.38063221 -1.66055264 7.71269945 -4 8 C-4.33 7.67 -4.66 7.34 -5 7 C-6.66617115 6.95936168 -8.33388095 6.957279 -10 7 C-10 7.66 -10 8.32 -10 9 C-9.11957031 9.01417969 -8.23914063 9.02835937 -7.33203125 9.04296875 C2.11275416 9.43082342 2.11275416 9.43082342 6.3125 12.125 C8.48160037 15.82050433 8.75334938 17.78124348 8 22 C4.73872356 26.07659555 1.56396015 28.60260528 -3.62109375 29.40625 C-11.10824822 29.65547567 -11.10824822 29.65547567 -13.828125 27.65625 C-15.1875 26 -15.1875 26 -17 23 C-16.67 22.34 -16.34 21.68 -16 21 C-12.5625 20.25 -12.5625 20.25 -9 20 C-8.34 20.66 -7.68 21.32 -7 22 C-4.41645782 22.16687448 -4.41645782 22.16687448 -2 22 C-2 20.68 -2 19.36 -2 18 C-2.80824219 17.98582031 -3.61648438 17.97164063 -4.44921875 17.95703125 C-13.11077216 17.57044805 -13.11077216 17.57044805 -17.3125 14.875 C-19 12 -19 12 -19.125 8.4375 C-17.81404262 4.43179688 -16.51063814 3.22625833 -13 1 C-9.07735595 -0.96132202 -4.27654774 -0.48640203 0 0 Z " fill="#08752A" transform="translate(308,425)"/>
<path d="M0 0 C1.50519387 2.62214328 3.00431319 5.24744208 4.5 7.875 C4.92925781 8.62136719 5.35851562 9.36773437 5.80078125 10.13671875 C6.20683594 10.85214844 6.61289062 11.56757813 7.03125 12.3046875 C7.40830078 12.96452637 7.78535156 13.62436523 8.17382812 14.30419922 C9 16 9 16 9 18 C9.75925781 17.55527344 10.51851563 17.11054688 11.30078125 16.65234375 C12.29464844 16.08644531 13.28851563 15.52054687 14.3125 14.9375 C15.29863281 14.36902344 16.28476562 13.80054688 17.30078125 13.21484375 C20 12 20 12 23 13 C24.1875 15.5625 24.1875 15.5625 25 18 C22.26213439 19.70781734 19.5080408 21.38749473 16.75 23.0625 C15.58404297 23.79049805 15.58404297 23.79049805 14.39453125 24.53320312 C13.26337891 25.21479492 13.26337891 25.21479492 12.109375 25.91015625 C11.41811523 26.33433838 10.72685547 26.75852051 10.01464844 27.19555664 C8 28 8 28 5.93383789 27.91723633 C3.21608486 26.62818215 2.4317055 25.01202326 0.94921875 22.4140625 C0.41619141 21.48335938 -0.11683594 20.55265625 -0.66601562 19.59375 C-1.20935547 18.6140625 -1.75269531 17.634375 -2.3125 16.625 C-3.15651367 15.16707031 -3.15651367 15.16707031 -4.01757812 13.6796875 C-7.06386706 8.2806344 -7.06386706 8.2806344 -8 6 C-6.72879117 2.18637351 -4.19078006 0 0 0 Z " fill="#08752A" transform="translate(358,404)"/>
<path d="M0 0 C4.46840411 0.49648935 5.68987756 0.68987756 9 4 C5.7 12.25 2.4 20.5 -1 29 C-3.31 28.34 -5.62 27.68 -8 27 C-9.17771597 22.86005107 -8.8069687 20.63002257 -7.12890625 16.69921875 C-6.71962891 15.72275391 -6.31035156 14.74628906 -5.88867188 13.74023438 C-5.45103516 12.73283203 -5.01339844 11.72542969 -4.5625 10.6875 C-4.12873047 9.66076172 -3.69496094 8.63402344 -3.24804688 7.57617188 C-2.17695536 5.04557104 -1.09400947 2.52075769 0 0 Z " fill="#09762A" transform="translate(179,416)"/>
<path d="M0 0 C2.98053403 2.7321562 3.92273772 4.70125253 4.9375 8.625 C5 12 5 12 3.9375 13.9375 C1.10124887 15.49286352 -0.82282567 15.46333792 -4 15 C-6.72704455 12.74313555 -7.28541532 10.30744193 -7.875 6.9375 C-8 3 -8 3 -6.875 1 C-4.28014744 -0.38392137 -2.90081183 -0.56601206 0 0 Z " fill="#F4E601" transform="translate(337,422)"/>
<path d="M0 0 C2.64 0 5.28 0 8 0 C8.66 1.32 9.32 2.64 10 4 C8 6 8 6 5.5625 6.375 C3 6 3 6 1.1875 4.125 C0 2 0 2 0 0 Z " fill="#DFDC05" transform="translate(298,442)"/>
<path d="M0 0 C4.13949057 -0.11187812 7.07512885 0.69170962 11 2 C10.67 2.66 10.34 3.32 10 4 C6.7 4 3.4 4 0 4 C0 2.68 0 1.36 0 0 Z " fill="#D3D607" transform="translate(298,431)"/>
<path d="M0 0 C1.98 0.66 3.96 1.32 6 2 C6 3.32 6 4.64 6 6 C3.69 6 1.38 6 -1 6 C-1.042721 4.33388095 -1.04063832 2.66617115 -1 1 C-0.67 0.67 -0.34 0.34 0 0 Z " fill="#EBE203" transform="translate(203,429)"/>
<path d="M0 0 C4.08718695 -0.24042276 7.17679443 0.57741188 11 2 C10.67 2.66 10.34 3.32 10 4 C7.03 4 4.06 4 1 4 C0.67 2.68 0.34 1.36 0 0 Z " fill="#DDDB05" transform="translate(267,435)"/>
<path d="M0 0 C0.33 0 0.66 0 1 0 C1.33 2.97 1.66 5.94 2 9 C0.35 9 -1.3 9 -3 9 C-2.44271087 5.65626525 -1.64826111 2.96687001 0 0 Z " fill="#D7D906" transform="translate(238,438)"/>
</svg>
