<?xml version="1.0" encoding="UTF-8"?>
<svg version="1.1" xmlns="http://www.w3.org/2000/svg" width="512" height="512">
<path d="M0 0 C3.42433456 1.12320444 6.69400443 2.22953771 9.8984375 3.8828125 C43.45472697 20.74045657 81.79633535 29.73013339 119 21 C120.02601318 20.76651855 120.02601318 20.76651855 121.07275391 20.52832031 C132.06693247 17.93200475 142.01786969 13.48448588 152.125 8.5 C152.93936523 8.09934326 153.75373047 7.69868652 154.59277344 7.28588867 C157.03790653 6.03059318 157.03790653 6.03059318 159.35253906 4.42700195 C161.56503545 2.9753758 163.47844251 1.80719886 166 1 C169.09318243 1.65610624 171.2429515 3.31979363 173.75 5.1875 C201.19816264 23.3587575 236.87493133 27.96406852 268.89453125 22.08984375 C288.22435179 18.13335951 308.81775439 11.90846557 325.63208008 1.34667969 C328 0 328 0 331 0 C331.04585536 34.36181664 331.08105868 68.72362625 331.10213066 103.08546692 C331.10463184 107.14934453 331.10722051 111.21322209 331.10986328 115.27709961 C331.11065021 116.49058152 331.11065021 116.49058152 331.11145304 117.72857822 C331.12013726 130.79888603 331.13589623 143.86917612 331.15430559 156.93947344 C331.17305997 170.36749178 331.18412839 183.79550088 331.18817699 197.22353178 C331.1909106 205.49816971 331.19951999 213.7727575 331.21583293 222.04737998 C331.2264683 227.73447872 331.22958593 233.42155185 331.22700275 239.1086598 C331.22573157 242.38161025 331.22869313 245.65445617 331.23841095 248.92739487 C331.28648583 265.96427735 330.96614858 282.60967538 326.875 299.25 C326.66182129 300.12076172 326.44864258 300.99152344 326.22900391 301.88867188 C319.152963 329.47978451 305.34956275 355.27542838 287 377 C286.55398438 377.5347998 286.10796875 378.06959961 285.6484375 378.62060547 C275.9816917 390.20325376 265.89775708 400.65746592 254 410 C252.9569364 410.83451688 251.91397017 411.66915546 250.87109375 412.50390625 C243.59577134 418.2745221 236.09597605 423.42576347 228 428 C227.25250488 428.4242627 226.50500977 428.84852539 225.73486328 429.28564453 C204.61859691 441.13381871 177.62704748 455.11521597 152.95703125 448.80078125 C151.23878458 448.31660518 149.52396289 447.82013458 147.8125 447.3125 C146.8932373 447.04195801 145.97397461 446.77141602 145.02685547 446.49267578 C91.78143267 430.49208688 46.51983008 391.07834748 20.23535156 342.39160156 C14.27085371 330.84452232 9.24875757 318.84168527 5.5625 306.375 C5.22847168 305.27043457 5.22847168 305.27043457 4.88769531 304.14355469 C-0.22074074 285.54380985 -0.42536205 266.51116008 -0.34057617 247.37182617 C-0.33804563 244.65940097 -0.34007737 241.94698341 -0.34190369 239.23455811 C-0.34346239 233.43992585 -0.33420207 227.64539642 -0.31719017 221.85079002 C-0.29261137 213.47320072 -0.28497582 205.09566016 -0.2812262 196.71803872 C-0.27469098 183.11969634 -0.25481021 169.52140853 -0.22631836 155.9230957 C-0.19870134 142.72843698 -0.17750538 129.53379319 -0.16479492 116.33911133 C-0.16400675 115.52320474 -0.16321858 114.70729815 -0.16240653 113.86666711 C-0.15849088 109.77273093 -0.15469988 105.67879465 -0.15097082 101.5848583 C-0.11996635 67.72319932 -0.06721144 33.8616064 0 0 Z " fill="#241F20" transform="translate(90,30)"/>
<path d="M0 0 C3.61213885 1.43488338 6.91721139 3.28912571 10.296875 5.19921875 C43.75295335 23.48635848 83.03926167 25.39604847 119.27099609 14.91259766 C121.36584234 14.28807885 123.45662172 13.65141059 125.546875 13.01171875 C127.11115234 12.55152344 127.11115234 12.55152344 128.70703125 12.08203125 C136.7324185 9.5872066 144.29913447 6.10155745 151.93359375 2.62109375 C155.546875 1.01171875 155.546875 1.01171875 156.546875 1.01171875 C156.546875 47.21171875 156.546875 93.41171875 156.546875 141.01171875 C52.596875 141.01171875 -51.353125 141.01171875 -158.453125 141.01171875 C-158.453125 95.14171875 -158.453125 49.27171875 -158.453125 2.01171875 C-154.89569198 2.72320535 -152.54026763 3.26929591 -149.37109375 4.68359375 C-148.6121582 5.01593018 -147.85322266 5.3482666 -147.07128906 5.69067383 C-146.26916992 6.04411865 -145.46705078 6.39756348 -144.640625 6.76171875 C-131.21544272 12.52733206 -117.89850076 16.55815174 -103.453125 19.01171875 C-101.75542969 19.32109375 -101.75542969 19.32109375 -100.0234375 19.63671875 C-82.31574401 22.4762598 -63.9181573 22.10654704 -46.453125 18.01171875 C-45.76234863 17.85074707 -45.07157227 17.68977539 -44.35986328 17.52392578 C-30.9551296 14.26433042 -17.38063529 9.02522293 -5.6796875 1.671875 C-2.453125 0.01171875 -2.453125 0.01171875 0 0 Z " fill="#FDFDFD" transform="translate(256.453125,40.98828125)"/>
<path d="M0 0 C16.5 0 33 0 50 0 C50 87.45 50 174.9 50 265 C32.71915067 274.21645297 32.71915067 274.21645297 26.375 276.25 C25.67407227 276.48541504 24.97314453 276.72083008 24.25097656 276.96337891 C22.17162072 277.65634007 20.08663357 278.32933237 18 279 C16.74960937 279.41507812 15.49921875 279.83015625 14.2109375 280.2578125 C9.14191745 281.8940876 5.38639933 283 0 283 C0 189.61 0 96.22 0 0 Z " fill="#EC2F23" transform="translate(258,189)"/>
<path d="M0 0 C16.83 0 33.66 0 51 0 C51 86.79 51 173.58 51 263 C37.35650197 257.54260079 25.7957202 247.32231828 14.6875 237.875 C14.13731201 237.40876221 13.58712402 236.94252441 13.02026367 236.4621582 C11.94480874 235.5355407 10.88744001 234.58743947 9.85094452 233.61743927 C8.04233336 231.95298273 8.04233336 231.95298273 5.95119476 230.70652008 C2.7216859 228.32127817 0.45389538 226.01074145 -0.45520401 221.98346138 C-1.21573515 215.5264285 -1.00077775 209.01791422 -0.90820312 202.52929688 C-0.90594535 200.32124921 -0.9072155 198.11319554 -0.91174316 195.90515137 C-0.91403623 189.92181666 -0.86704027 183.93976793 -0.8111515 177.9567318 C-0.76110241 171.7001029 -0.7564386 165.4434437 -0.74694824 159.18664551 C-0.72491753 148.68867275 -0.67496646 138.19109705 -0.60351562 127.69335938 C-0.53001709 116.88348739 -0.47342255 106.07374348 -0.43945312 95.26367188 C-0.43735134 94.59668665 -0.43524955 93.92970143 -0.43308407 93.24250454 C-0.42264332 89.89623843 -0.41255183 86.54997145 -0.40258884 83.20370388 C-0.31899363 55.4687325 -0.17229735 27.73457197 0 0 Z " fill="#FEFEFE" transform="translate(149,189)"/>
<path d="M0 0 C16.83 0 33.66 0 51 0 C51.1580085 28.93743284 51.28695823 57.87451647 51.3626852 86.81227112 C51.36982412 89.48698973 51.37711336 92.1617079 51.38452148 94.83642578 C51.38635766 95.50123439 51.38819383 96.166043 51.39008565 96.85099733 C51.42052783 107.6092654 51.47571015 118.36727109 51.54006957 129.12538362 C51.60557837 140.16789022 51.64389772 151.21025215 51.65861946 162.25294304 C51.667746 168.4540467 51.68919748 174.65455567 51.7401104 180.85546875 C51.78765166 186.69307272 51.80227487 192.52983748 51.79175377 198.36761665 C51.79367828 200.50900395 51.80758611 202.65041953 51.83443832 204.79163933 C51.86935151 207.71945957 51.86086858 210.64412589 51.84178162 213.57202148 C51.86217151 214.41640022 51.8825614 215.26077896 51.90356916 216.13074493 C51.79914009 222.07044409 49.9653175 225.0184445 45.85566002 229.25796604 C42.64474491 232.2722699 39.3683262 235.16291988 36 238 C35.08734375 238.81210937 34.1746875 239.62421875 33.234375 240.4609375 C26.96921605 245.9910328 20.45052129 250.91825604 13.5 255.5625 C12.73445801 256.07514404 11.96891602 256.58778809 11.18017578 257.1159668 C7.43020948 259.57551082 4.23483786 261.30606485 0 263 C0 176.21 0 89.42 0 0 Z " fill="#FDFDFD" transform="translate(311,189)"/>
<path d="M0 0 C15.84 0 31.68 0 48 0 C48 72.27 48 144.54 48 219 C42.36649327 214.49319461 42.36649327 214.49319461 40.16796875 211.56640625 C39.68376465 210.92469482 39.19956055 210.2829834 38.70068359 209.62182617 C38.20133301 208.94224854 37.70198242 208.2626709 37.1875 207.5625 C36.65979004 206.84876221 36.13208008 206.13502441 35.58837891 205.3996582 C31.01768987 199.14756372 26.80605566 192.74816003 23 186 C22.60570801 185.30567871 22.21141602 184.61135742 21.80517578 183.89599609 C4.9055828 153.8327832 -0.33905356 124.88978317 -0.1953125 90.72265625 C-0.19157589 88.09850676 -0.18873199 85.47435586 -0.18673706 82.85020447 C-0.18056708 76.68829096 -0.16421825 70.52645 -0.14403808 64.36456817 C-0.1215379 57.33897129 -0.11065047 50.3133706 -0.10064721 43.28774655 C-0.079847 28.85845524 -0.0432282 14.42924208 0 0 Z " fill="#EB2F23" transform="translate(98,189)"/>
<path d="M0 0 C3.61213885 1.43488338 6.91721139 3.28912571 10.296875 5.19921875 C43.75295335 23.48635848 83.03926167 25.39604847 119.27099609 14.91259766 C121.36584234 14.28807885 123.45662172 13.65141059 125.546875 13.01171875 C127.11115234 12.55152344 127.11115234 12.55152344 128.70703125 12.08203125 C136.7324185 9.5872066 144.29913447 6.10155745 151.93359375 2.62109375 C155.546875 1.01171875 155.546875 1.01171875 156.546875 1.01171875 C156.546875 47.21171875 156.546875 93.41171875 156.546875 141.01171875 C52.596875 141.01171875 -51.353125 141.01171875 -158.453125 141.01171875 C-158.453125 95.14171875 -158.453125 49.27171875 -158.453125 2.01171875 C-154.89569198 2.72320535 -152.54026763 3.26929591 -149.37109375 4.68359375 C-148.6121582 5.01593018 -147.85322266 5.3482666 -147.07128906 5.69067383 C-146.26916992 6.04411865 -145.46705078 6.39756348 -144.640625 6.76171875 C-131.21544272 12.52733206 -117.89850076 16.55815174 -103.453125 19.01171875 C-101.75542969 19.32109375 -101.75542969 19.32109375 -100.0234375 19.63671875 C-82.31574401 22.4762598 -63.9181573 22.10654704 -46.453125 18.01171875 C-45.76234863 17.85074707 -45.07157227 17.68977539 -44.35986328 17.52392578 C-30.9551296 14.26433042 -17.38063529 9.02522293 -5.6796875 1.671875 C-2.453125 0.01171875 -2.453125 0.01171875 0 0 Z M-9.828125 12.69921875 C-16.78025311 16.85984383 -23.72622613 19.53526079 -31.453125 22.01171875 C-32.12972168 22.25688232 -32.80631836 22.5020459 -33.50341797 22.75463867 C-66.62892961 34.56323627 -110.70254219 29.09974699 -142.78515625 16.328125 C-146.58796767 14.73022171 -146.58796767 14.73022171 -151.453125 15.01171875 C-151.453125 53.95171875 -151.453125 92.89171875 -151.453125 133.01171875 C-52.453125 133.01171875 46.546875 133.01171875 148.546875 133.01171875 C148.546875 94.07171875 148.546875 55.13171875 148.546875 15.01171875 C141.84854989 15.77481342 141.84854989 15.77481342 135.734375 17.53515625 C134.47488037 17.98145386 134.47488037 17.98145386 133.18994141 18.43676758 C132.31772949 18.75025146 131.44551758 19.06373535 130.546875 19.38671875 C121.5681279 22.4905123 112.94051828 24.60761628 103.546875 26.01171875 C102.44601562 26.21539062 101.34515625 26.4190625 100.2109375 26.62890625 C78.97408889 30.1764805 57.48525503 28.3813562 36.546875 24.01171875 C35.38414062 23.79644531 34.22140625 23.58117187 33.0234375 23.359375 C22.81092462 21.21894422 11.87421605 16.66240258 3.2578125 10.7578125 C-1.95798346 7.3983589 -5.17897131 9.79729391 -9.828125 12.69921875 Z " fill="#FBFBFB" transform="translate(256.453125,40.98828125)"/>
<path d="M0 0 C3.63139093 1.12363714 6.86979559 2.83794472 10.21484375 4.609375 C24.72035187 12.00227093 38.78803643 15.31884806 54.77734375 17.859375 C55.88722656 18.05402344 56.99710938 18.24867187 58.140625 18.44921875 C82.99839225 21.25272633 109.28231198 18.43993384 132.77734375 9.859375 C135.00391688 9.0810819 137.23292918 8.30971537 139.46484375 7.546875 C140.37621094 7.22074219 141.28757812 6.89460938 142.2265625 6.55859375 C144.77734375 5.859375 144.77734375 5.859375 149.77734375 5.859375 C149.77734375 44.799375 149.77734375 83.739375 149.77734375 123.859375 C50.77734375 123.859375 -48.22265625 123.859375 -150.22265625 123.859375 C-150.22265625 84.919375 -150.22265625 45.979375 -150.22265625 5.859375 C-144.41862582 6.5848788 -140.90885481 7.15837649 -135.72265625 9.109375 C-125.17965596 12.84263862 -114.20167435 14.85224899 -103.22265625 16.859375 C-102.11470703 17.06288574 -102.11470703 17.06288574 -100.984375 17.27050781 C-62.9154241 23.93445139 -31.20625603 -1.97438527 0 0 Z M-9.28515625 9.609375 C-46.97391845 30.09843811 -92.0465808 26.24142182 -132.18920898 15.58959961 C-136.50471147 14.5507531 -140.87007481 13.72989129 -145.22265625 12.859375 C-145.22265625 47.839375 -145.22265625 82.819375 -145.22265625 118.859375 C-49.52265625 118.859375 46.17734375 118.859375 144.77734375 118.859375 C144.77734375 83.549375 144.77734375 48.239375 144.77734375 11.859375 C141.80734375 12.849375 138.83734375 13.839375 135.77734375 14.859375 C91.41896682 28.53733277 44.32990764 28.16885253 2.76000977 6.69799805 C-1.97683325 4.69442019 -5.21033386 7.32263907 -9.28515625 9.609375 Z " fill="#262324" transform="translate(255.22265625,50.140625)"/>
<path d="M0 0 C5.424375 -0.0825 10.84875 -0.165 16.4375 -0.25 C18.97715454 -0.30462402 18.97715454 -0.30462402 21.56811523 -0.36035156 C30.87421404 -0.47890489 37.90487333 0.19637376 45.52734375 5.88671875 C48.45919557 10.093965 47.76971927 15.12087043 47 20 C45.61851094 22.86336315 44.16511795 24.61837025 42 27 C42.78375 27.763125 43.5675 28.52625 44.375 29.3125 C48.05649252 33.08164711 49.29093961 35.11644701 49.3125 40.3125 C49.20857301 44.94642096 48.80647449 48.16448486 46 52 C37.39880482 59.55226894 25.09964732 58.25737413 14.375 58.125 C9.63125 58.08375 4.8875 58.0425 0 58 C0 38.86 0 19.72 0 0 Z " fill="#242021" transform="translate(142,92)"/>
<path d="M0 0 C0.69931641 -0.01224609 1.39863281 -0.02449219 2.11914062 -0.03710938 C9.2758711 -0.05719374 14.61731681 1.68394763 20.1875 6.1875 C24.48865463 11.41286968 26.05380649 16.59146502 27.1875 23.1875 C21.5775 23.1875 15.9675 23.1875 10.1875 23.1875 C9.5275 20.8775 8.8675 18.5675 8.1875 16.1875 C4.49266081 15.00515146 1.04396386 14.9070299 -2.8125 15.1875 C-6.16987705 17.2713892 -6.76201838 20.52171145 -7.8125 24.1875 C-8.37627591 30.94452011 -8.53344523 37.88636367 -5.8125 44.1875 C-2.11040513 45.42153162 1.34568725 45.89234871 5.1875 45.1875 C7.9202424 42.59489824 9.00061669 40.74814994 10.1875 37.1875 C15.7975 37.1875 21.4075 37.1875 27.1875 37.1875 C27.1875 44.72956969 24.6965599 49.30953893 19.6640625 54.87109375 C12.39008068 61.3560987 3.23962183 60.87182127 -5.89697266 60.36962891 C-13.36136773 59.65991202 -17.42590372 54.91318299 -22.1484375 49.50390625 C-27.62874727 41.87521214 -27.41863547 32.21458899 -26.8125 23.1875 C-24.77941874 13.11178847 -19.21907277 6.80736357 -10.8125 1.1875 C-7.16693406 -0.02768865 -3.79555836 0.00344112 0 0 Z " fill="#262223" transform="translate(328.8125,90.8125)"/>
<path d="M0 0 C13.53 0 27.06 0 41 0 C41 4.62 41 9.24 41 14 C33.41 14 25.82 14 18 14 C18 16.97 18 19.94 18 23 C24.27 23 30.54 23 37 23 C37 27.62 37 32.24 37 37 C30.73 37 24.46 37 18 37 C18 43.93 18 50.86 18 58 C12.06 58 6.12 58 0 58 C0 38.86 0 19.72 0 0 Z " fill="#242021" transform="translate(233,92)"/>
<path d="M0 0 C5.28 0 10.56 0 16 0 C16 5.61 16 11.22 16 17 C10.72 17 5.44 17 0 17 C0 11.39 0 5.78 0 0 Z " fill="#262223" transform="translate(270,133)"/>
<path d="M0 0 C5.28 0 10.56 0 16 0 C16 5.61 16 11.22 16 17 C10.72 17 5.44 17 0 17 C0 11.39 0 5.78 0 0 Z " fill="#262223" transform="translate(197,133)"/>
<path d="M0 0 C4.95 0 9.9 0 15 0 C15 5.61 15 11.22 15 17 C10.05 17 5.1 17 0 17 C0 11.39 0 5.78 0 0 Z " fill="#231F20" transform="translate(362,133)"/>
<path d="M0 0 C1.93719378 -0.05406122 3.87481921 -0.09282025 5.8125 -0.125 C6.89144531 -0.14820312 7.97039062 -0.17140625 9.08203125 -0.1953125 C12 0 12 0 15 2 C15.375 5.5 15.375 5.5 15 9 C11.47320901 11.35119399 9.97120515 11.21443452 5.8125 11.125 C4.72582031 11.10695312 3.63914063 11.08890625 2.51953125 11.0703125 C1.27236328 11.03550781 1.27236328 11.03550781 0 11 C0 7.37 0 3.74 0 0 Z " fill="#EEEEEE" transform="translate(159,125)"/>
<path d="M0 0 C1.97909398 -0.02686553 3.95828971 -0.04633375 5.9375 -0.0625 C7.03964844 -0.07410156 8.14179688 -0.08570312 9.27734375 -0.09765625 C12 0 12 0 13 1 C12.28 7.72 12.28 7.72 11 9 C9.14712498 9.07226502 7.29166122 9.0838122 5.4375 9.0625 C4.42558594 9.05347656 3.41367188 9.04445313 2.37109375 9.03515625 C1.58863281 9.02355469 0.80617187 9.01195313 0 9 C0 6.03 0 3.06 0 0 Z " fill="#F0F0F0" transform="translate(159,106)"/>
</svg>
