<?xml version="1.0" encoding="UTF-8"?>
<svg version="1.1" xmlns="http://www.w3.org/2000/svg" width="500" height="590">
<path d="M0 0 C72.93 0 145.86 0 221 0 C223.31 11.22 225.62 22.44 228 34 C235.69847939 54.01604641 244.89204653 68.23179287 264.65625 77.58984375 C287.52362851 87.23367978 311.90666913 87.9795808 336.375 88.5625 C338.09375743 88.60582593 339.81250753 88.64944394 341.53125 88.69335938 C345.68742336 88.79893028 349.84367507 88.90058321 354 89 C354.69754381 95.2943461 355.39081343 101.58915307 356.08129883 107.88427734 C356.31602281 110.01979899 356.55167739 112.15521858 356.78833008 114.29052734 C357.13094922 117.3835162 357.47006941 120.4768731 357.80859375 123.5703125 C357.91280136 124.50424835 358.01700897 125.4381842 358.12437439 126.40042114 C359.57350332 139.72715497 360.17080791 152.946887 360.203125 166.33984375 C360.20595238 167.14885195 360.20877975 167.95786015 360.21169281 168.79138374 C360.22657935 173.08708123 360.23587077 177.38274614 360.24023438 181.6784668 C360.24458393 185.15416158 360.25835318 188.62960321 360.28125 192.10522461 C360.42419384 214.27751998 359.7922014 235.97668193 357 258 C356.82960205 259.35286606 356.82960205 259.35286606 356.65576172 260.73306274 C356.00593062 265.73843638 355.23619916 270.71445946 354.375 275.6875 C354.25194489 276.41339325 354.12888977 277.1392865 354.00210571 277.88717651 C347.91493597 313.49223163 337.67397179 347.97925942 323 381 C322.60731934 381.88848633 322.21463867 382.77697266 321.81005859 383.69238281 C304.90905794 421.54556032 280.76445637 455.83852444 252.62890625 486.1484375 C250.15025851 488.83701528 247.72919315 491.56833042 245.3125 494.3125 C242.063394 497.93739228 238.67251563 501.16321517 234.953125 504.296875 C232.92207045 506.06795457 231.06193232 507.93961054 229.1875 509.875 C225.37052313 513.75185102 221.26217609 517.15063883 217.00390625 520.53125 C214.50688729 522.58341643 212.10662818 524.68859682 209.70703125 526.8515625 C205.33663284 530.75349338 200.81645542 534.36825554 196.125 537.875 C195.28493408 538.5035791 194.44486816 539.1321582 193.5793457 539.77978516 C177.40543287 551.73270479 160.50875738 563.10029758 143 573 C141.93628174 573.60183105 141.93628174 573.60183105 140.85107422 574.21582031 C136.28999051 576.786348 131.70764571 579.31540531 127.11425781 581.82763672 C125.11982524 582.93355649 123.14779823 584.07070518 121.1796875 585.22265625 C120.04789062 585.87105469 118.91609375 586.51945313 117.75 587.1875 C116.77546875 587.75855469 115.8009375 588.32960938 114.796875 588.91796875 C111.15087044 590.32850403 109.75352642 590.16993031 106 589 C102.34639304 587.26171837 98.8333851 585.30360474 95.3125 583.3125 C94.38244141 582.79494141 93.45238281 582.27738281 92.49414062 581.74414062 C90.61066926 580.69602731 88.72932424 579.64408404 86.85009766 578.58837891 C83.12096926 576.51011016 79.36026687 574.49216793 75.59448242 572.48120117 C72.62767172 570.78743618 69.82772419 568.91679893 67 567 C65.3515728 565.90911082 63.70312478 564.81825269 62.05404663 563.72834778 C59.49729484 562.03749644 56.94321121 560.34263231 54.38916016 558.64770508 C53.0579714 557.76524795 51.7259537 556.88403989 50.39306641 556.00415039 C42.60282095 550.85995877 34.9745221 545.61069118 27.56665039 539.92358398 C24.48497969 537.61401646 21.30038078 535.52278107 18.03515625 533.484375 C15.41304382 531.57189377 13.28426686 529.30451147 11 527 C8.9095389 525.14637204 6.76530664 523.35814493 4.625 521.5625 C-6.02672036 512.52692238 -16.22434485 502.97652477 -26 493 C-27.17175781 491.83984375 -27.17175781 491.83984375 -28.3671875 490.65625 C-31.1466837 487.85201051 -33.83644397 484.97599756 -36.5 482.0625 C-36.96019531 481.56298828 -37.42039062 481.06347656 -37.89453125 480.54882812 C-43.052539 474.9186084 -47.80252191 469.01134616 -52.44921875 462.953125 C-53.99922053 460.92472774 -53.99922053 460.92472774 -56 459 C-57.52897224 456.75551987 -58.99421333 454.47445654 -60.46484375 452.19140625 C-61.88791196 450.02421528 -61.88791196 450.02421528 -63.5078125 448.49609375 C-65.34036434 446.65874466 -66.56628862 444.70510329 -67.9375 442.5 C-68.54335937 441.530625 -69.14921875 440.56125 -69.7734375 439.5625 C-70.11858398 439.00820313 -70.46373047 438.45390625 -70.81933594 437.8828125 C-72.17168193 435.72621773 -73.54210983 433.58167362 -74.9140625 431.4375 C-90 407.81457739 -90 407.81457739 -90 404 C-90.66 404 -91.32 404 -92 404 C-93.31942401 401.27399186 -94.63067715 398.54454161 -95.9375 395.8125 C-96.49727539 394.65911133 -96.49727539 394.65911133 -97.06835938 393.48242188 C-98.90851603 389.61975069 -100.22027472 386.22693176 -101 382 C-101.66 381.67 -102.32 381.34 -103 381 C-103.98632812 378.97583008 -103.98632812 378.97583008 -105.03125 376.26953125 C-105.42473633 375.2542334 -105.81822266 374.23893555 -106.22363281 373.19287109 C-106.64483398 372.07734863 -107.06603516 370.96182617 -107.5 369.8125 C-107.93924805 368.65572754 -108.37849609 367.49895508 -108.83105469 366.30712891 C-116.86640879 344.90334761 -124.01321965 323.3321033 -129 301 C-129.18224121 300.20674316 -129.36448242 299.41348633 -129.55224609 298.59619141 C-132.16108721 287.12363565 -133.91126174 275.50836294 -135.625 263.875 C-135.7295047 263.18215912 -135.8340094 262.48931824 -135.94168091 261.77548218 C-139.44790586 238.34643692 -140.38177344 214.88707012 -140.31765366 191.21976089 C-140.31241015 189.15206853 -140.31049929 187.0843913 -140.30899048 185.01669312 C-140.28134169 163.20964063 -139.3842011 141.67871892 -137 120 C-136.78684374 117.91069955 -136.57921444 115.82090791 -136.37269592 113.73094177 C-135.82491379 108.19020535 -135.25877073 102.65140827 -134.6484375 97.1171875 C-134.54708496 96.19534668 -134.44573242 95.27350586 -134.34130859 94.32373047 C-134 92 -134 92 -133 89 C-131.48369995 88.970271 -131.48369995 88.970271 -129.93676758 88.93994141 C-72.55777472 89.07033491 -72.55777472 89.07033491 -23.0625 63.22265625 C-19.34582139 59.21737191 -16.63465835 54.7662161 -14 50 C-13.54882812 49.21625 -13.09765625 48.4325 -12.6328125 47.625 C-5.96253872 34.69875516 -4.26502607 18.88746319 -1.578125 4.703125 C-1 2 -1 2 0 0 Z " fill="#FEFAFA" transform="translate(140,0)"/>
<path d="M0 0 C54.78 0 109.56 0 166 0 C166.99 3.63 167.98 7.26 169 11 C173.59985448 24.93174316 179.48261176 37.69110339 189 49 C189.43441406 49.57878906 189.86882812 50.15757813 190.31640625 50.75390625 C208.56697419 74.23448769 241.81590991 82.56690332 269.75 86.40625 C278.46074552 87.48017753 287.23360646 87.7447536 296 88 C296.34951621 89.99723547 296.67826628 91.99810127 297 94 C297.185625 95.11375 297.37125 96.2275 297.5625 97.375 C298.1029686 101.67258862 298.04922332 105.96556428 298.02734375 110.2890625 C298.02536987 111.0313208 298.023396 111.7735791 298.0213623 112.53833008 C298.01623602 114.35889343 298.00839025 116.17944877 298 118 C280.18885875 125.27120264 262.35249871 132.47737127 244.48828125 139.6171875 C243.55172573 139.99152168 242.61517021 140.36585587 241.65023422 140.75153351 C233.8994126 143.84907052 226.1476948 146.94436242 218.39593506 150.03955078 C211.65546391 152.73104609 204.91534244 155.42341438 198.17578125 158.1171875 C197.22646162 158.49661121 196.27714199 158.87603493 195.2990551 159.26695633 C182.77629382 164.27347393 170.26730303 169.31245599 157.7734375 174.390625 C143.53031047 180.17952773 129.26466393 185.91080145 114.98828125 191.6171875 C113.94494692 192.03423321 112.90161259 192.45127892 111.82666206 192.88096237 C103.24619935 196.31035997 94.66483723 199.73750485 86.08343506 203.16455078 C62.64546639 212.52500158 39.211743 221.89426312 15.82375145 231.37901115 C0.43982232 237.61730891 -14.96101071 243.81295731 -30.3671875 249.99609375 C-32.72343766 250.94194755 -35.07968462 251.88780936 -37.43592834 252.8336792 C-47.0534682 256.69415113 -56.67131166 260.5538648 -66.29003906 264.41137695 C-72.28474968 266.8156021 -78.27880432 269.22145614 -84.27243423 271.6283741 C-86.52965556 272.53445466 -88.78712678 273.43991295 -91.04485703 274.34472466 C-94.16057063 275.59343021 -97.27544747 276.84420098 -100.39013672 278.09545898 C-101.77038277 278.64773415 -101.77038277 278.64773415 -103.17851257 279.21116638 C-104.023629 279.55115662 -104.86874542 279.89114685 -105.73947144 280.24143982 C-106.47028868 280.5346131 -107.20110592 280.82778639 -107.95406914 281.12984371 C-110.03455041 281.97919214 -110.03455041 281.97919214 -112.07878304 283.10991001 C-114 284 -114 284 -117 284 C-123.31667062 262.05935205 -127.49483861 239.63935828 -130.3125 217 C-130.47177979 215.72036377 -130.63105957 214.44072754 -130.79516602 213.12231445 C-132.44348398 199.18290262 -133.16049176 185.35001092 -133.16796875 171.3203125 C-133.17120017 169.85464448 -133.17456547 168.38897675 -133.17805481 166.92330933 C-133.18398747 163.86943824 -133.18590104 160.81559518 -133.18530273 157.76171875 C-133.18522189 154.68841616 -133.1921078 151.61526395 -133.20581055 148.54199219 C-133.41237296 101.50300233 -133.41237296 101.50300233 -130 89 C-128.83319702 88.90295776 -128.83319702 88.90295776 -127.64282227 88.80395508 C-87.76423281 85.39415275 -48.24078266 79.09192249 -20.5703125 47.23046875 C-9.4135355 33.69241974 -4.17733013 16.70932052 0 0 Z " fill="#FF2E34" transform="translate(167,34)"/>
<path d="M0 0 C-0.93569438 12.84159871 -2.77193116 25.49412999 -4.875 38.1875 C-5.05932587 39.31702087 -5.05932587 39.31702087 -5.24737549 40.46936035 C-7.5450778 54.48248898 -10.26764015 68.48100453 -14.6875 82 C-15.06032104 83.15411377 -15.06032104 83.15411377 -15.44067383 84.33154297 C-16.27888098 86.89294221 -17.13569018 89.44729276 -18 92 C-18.32097656 92.94907227 -18.64195312 93.89814453 -18.97265625 94.87597656 C-33.44703265 137.23966948 -53.8793168 176.79317008 -83 211 C-83.88578563 212.0595875 -84.77118103 213.11950131 -85.65625 214.1796875 C-96.61843589 227.2259819 -108.11108465 239.83247569 -121 251 C-122.75161832 252.62325545 -124.5015373 254.24834602 -126.25 255.875 C-132.0267902 261.13106545 -138.10412989 265.9236708 -144.29296875 270.67822266 C-145.85429458 271.88717832 -147.3969437 273.12015565 -148.9375 274.35546875 C-163.76627202 286.12777845 -179.86480485 296.43935631 -196.22607422 305.94384766 C-198.19735404 307.11749981 -200.1316085 308.34140706 -202.06640625 309.57421875 C-202.74501709 310.00033447 -203.42362793 310.4264502 -204.12280273 310.86547852 C-205.41989042 311.68143698 -206.71030641 312.50813887 -207.99243164 313.34741211 C-212.36081336 316.06413353 -212.36081336 316.06413353 -215.39672852 315.75952148 C-218.18851746 314.9449988 -220.3799643 313.86098377 -222.89453125 312.40234375 C-223.8378833 311.85642578 -224.78123535 311.31050781 -225.75317383 310.74804688 C-227.26754028 309.85182617 -227.26754028 309.85182617 -228.8125 308.9375 C-229.86912842 308.31552734 -230.92575684 307.69355469 -232.0144043 307.05273438 C-255.23281141 293.23409545 -277.67790196 277.84023262 -298 260 C-299.09828125 259.05060547 -299.09828125 259.05060547 -300.21875 258.08203125 C-302.15759357 256.40093077 -304.07901129 254.70144714 -306 253 C-306.67289062 252.41992188 -307.34578125 251.83984375 -308.0390625 251.2421875 C-314.15950427 245.87891379 -319.92550047 240.18128107 -325.6875 234.4375 C-326.49550049 233.6340918 -327.30350098 232.83068359 -328.13598633 232.00292969 C-332.96257604 227.16393994 -337.5862728 222.2181635 -342 217 C-342.51699463 216.38970947 -343.03398926 215.77941895 -343.56665039 215.15063477 C-357.97003017 197.98220826 -370.67677477 179.55534953 -381.84765625 160.125 C-382.26152588 159.40570313 -382.67539551 158.68640625 -383.10180664 157.9453125 C-384 156 -384 156 -384 153 C-368.53835355 146.52389742 -353.0259615 140.18288018 -337.45554352 133.97286987 C-332.52503079 132.00617442 -327.59591018 130.03599549 -322.66674805 128.06591797 C-321.632913 127.65275707 -320.59907795 127.23959618 -319.53391457 126.81391525 C-307.84471797 122.1409158 -296.16417853 117.4464168 -284.484375 112.75 C-283.40658846 112.31666981 -282.32880192 111.88333961 -281.21835518 111.4368782 C-275.67532877 109.20825853 -270.13239987 106.9793965 -264.58953857 104.75036621 C-231.55336073 91.46525564 -198.51387897 78.1887922 -165.44714737 64.97989655 C-143.88067014 56.36470139 -122.33742304 47.69347489 -100.80517578 38.99316406 C-85.55002902 32.83000438 -70.28348177 26.69643599 -54.9987793 20.60693359 C-46.8055532 17.34000045 -38.62844486 14.03738184 -30.46875 10.6875 C-28.73733202 9.97844888 -27.0058871 9.26946355 -25.27441406 8.56054688 C-22.0022887 7.22059808 -18.7340533 5.87170318 -15.46777344 4.51757812 C-14.00469615 3.91763001 -12.54148742 3.3180023 -11.078125 2.71875 C-10.41663452 2.441521 -9.75514404 2.16429199 -9.0736084 1.87866211 C-5.75423623 0.52857907 -3.65854312 0 0 0 Z " fill="#FF2E34" transform="translate(465,236)"/>
<path d="M0 0 C72.93 0 145.86 0 221 0 C223.31 11.22 225.62 22.44 228 34 C235.69847939 54.01604641 244.89204653 68.23179287 264.65625 77.58984375 C287.52362851 87.23367978 311.90666913 87.9795808 336.375 88.5625 C338.09375743 88.60582593 339.81250753 88.64944394 341.53125 88.69335938 C345.68742336 88.79893028 349.84367507 88.90058321 354 89 C354.69754381 95.2943461 355.39081343 101.58915307 356.08129883 107.88427734 C356.31602281 110.01979899 356.55167739 112.15521858 356.78833008 114.29052734 C357.13094922 117.3835162 357.47006941 120.4768731 357.80859375 123.5703125 C357.91280136 124.50424835 358.01700897 125.4381842 358.12437439 126.40042114 C359.57350332 139.72715497 360.17080791 152.946887 360.203125 166.33984375 C360.20595238 167.14885195 360.20877975 167.95786015 360.21169281 168.79138374 C360.22657935 173.08708123 360.23587077 177.38274614 360.24023438 181.6784668 C360.24458393 185.15416158 360.25835318 188.62960321 360.28125 192.10522461 C360.42419384 214.27751998 359.7922014 235.97668193 357 258 C356.82960205 259.35286606 356.82960205 259.35286606 356.65576172 260.73306274 C356.00593062 265.73843638 355.23619916 270.71445946 354.375 275.6875 C354.25194489 276.41339325 354.12888977 277.1392865 354.00210571 277.88717651 C347.91493597 313.49223163 337.67397179 347.97925942 323 381 C322.60731934 381.88848633 322.21463867 382.77697266 321.81005859 383.69238281 C304.90905794 421.54556032 280.76445637 455.83852444 252.62890625 486.1484375 C250.15025851 488.83701528 247.72919315 491.56833042 245.3125 494.3125 C242.063394 497.93739228 238.67251563 501.16321517 234.953125 504.296875 C232.92207045 506.06795457 231.06193232 507.93961054 229.1875 509.875 C225.37052313 513.75185102 221.26217609 517.15063883 217.00390625 520.53125 C214.50688729 522.58341643 212.10662818 524.68859682 209.70703125 526.8515625 C205.33663284 530.75349338 200.81645542 534.36825554 196.125 537.875 C195.28493408 538.5035791 194.44486816 539.1321582 193.5793457 539.77978516 C177.40543287 551.73270479 160.50875738 563.10029758 143 573 C141.93628174 573.60183105 141.93628174 573.60183105 140.85107422 574.21582031 C136.28999051 576.786348 131.70764571 579.31540531 127.11425781 581.82763672 C125.11982524 582.93355649 123.14779823 584.07070518 121.1796875 585.22265625 C120.04789062 585.87105469 118.91609375 586.51945313 117.75 587.1875 C116.77546875 587.75855469 115.8009375 588.32960938 114.796875 588.91796875 C111.15087044 590.32850403 109.75352642 590.16993031 106 589 C102.34639304 587.26171837 98.8333851 585.30360474 95.3125 583.3125 C94.38244141 582.79494141 93.45238281 582.27738281 92.49414062 581.74414062 C90.61066926 580.69602731 88.72932424 579.64408404 86.85009766 578.58837891 C83.12096926 576.51011016 79.36026687 574.49216793 75.59448242 572.48120117 C72.62767172 570.78743618 69.82772419 568.91679893 67 567 C65.3515728 565.90911082 63.70312478 564.81825269 62.05404663 563.72834778 C59.49729484 562.03749644 56.94321121 560.34263231 54.38916016 558.64770508 C53.0579714 557.76524795 51.7259537 556.88403989 50.39306641 556.00415039 C42.60282095 550.85995877 34.9745221 545.61069118 27.56665039 539.92358398 C24.48497969 537.61401646 21.30038078 535.52278107 18.03515625 533.484375 C15.41304382 531.57189377 13.28426686 529.30451147 11 527 C8.9095389 525.14637204 6.76530664 523.35814493 4.625 521.5625 C-6.02672036 512.52692238 -16.22434485 502.97652477 -26 493 C-27.17175781 491.83984375 -27.17175781 491.83984375 -28.3671875 490.65625 C-31.1466837 487.85201051 -33.83644397 484.97599756 -36.5 482.0625 C-36.96019531 481.56298828 -37.42039062 481.06347656 -37.89453125 480.54882812 C-43.052539 474.9186084 -47.80252191 469.01134616 -52.44921875 462.953125 C-53.99922053 460.92472774 -53.99922053 460.92472774 -56 459 C-57.52897224 456.75551987 -58.99421333 454.47445654 -60.46484375 452.19140625 C-61.88791196 450.02421528 -61.88791196 450.02421528 -63.5078125 448.49609375 C-65.34036434 446.65874466 -66.56628862 444.70510329 -67.9375 442.5 C-68.54335937 441.530625 -69.14921875 440.56125 -69.7734375 439.5625 C-70.11858398 439.00820313 -70.46373047 438.45390625 -70.81933594 437.8828125 C-72.17168193 435.72621773 -73.54210983 433.58167362 -74.9140625 431.4375 C-90 407.81457739 -90 407.81457739 -90 404 C-90.66 404 -91.32 404 -92 404 C-93.31942401 401.27399186 -94.63067715 398.54454161 -95.9375 395.8125 C-96.49727539 394.65911133 -96.49727539 394.65911133 -97.06835938 393.48242188 C-98.90851603 389.61975069 -100.22027472 386.22693176 -101 382 C-101.66 381.67 -102.32 381.34 -103 381 C-103.98632812 378.97583008 -103.98632812 378.97583008 -105.03125 376.26953125 C-105.42473633 375.2542334 -105.81822266 374.23893555 -106.22363281 373.19287109 C-106.64483398 372.07734863 -107.06603516 370.96182617 -107.5 369.8125 C-107.93924805 368.65572754 -108.37849609 367.49895508 -108.83105469 366.30712891 C-116.86640879 344.90334761 -124.01321965 323.3321033 -129 301 C-129.18224121 300.20674316 -129.36448242 299.41348633 -129.55224609 298.59619141 C-132.16108721 287.12363565 -133.91126174 275.50836294 -135.625 263.875 C-135.7295047 263.18215912 -135.8340094 262.48931824 -135.94168091 261.77548218 C-139.44790586 238.34643692 -140.38177344 214.88707012 -140.31765366 191.21976089 C-140.31241015 189.15206853 -140.31049929 187.0843913 -140.30899048 185.01669312 C-140.28134169 163.20964063 -139.3842011 141.67871892 -137 120 C-136.78684374 117.91069955 -136.57921444 115.82090791 -136.37269592 113.73094177 C-135.82491379 108.19020535 -135.25877073 102.65140827 -134.6484375 97.1171875 C-134.54708496 96.19534668 -134.44573242 95.27350586 -134.34130859 94.32373047 C-134 92 -134 92 -133 89 C-131.48369995 88.970271 -131.48369995 88.970271 -129.93676758 88.93994141 C-72.55777472 89.07033491 -72.55777472 89.07033491 -23.0625 63.22265625 C-19.34582139 59.21737191 -16.63465835 54.7662161 -14 50 C-13.54882812 49.21625 -13.09765625 48.4325 -12.6328125 47.625 C-5.96253872 34.69875516 -4.26502607 18.88746319 -1.578125 4.703125 C-1 2 -1 2 0 0 Z M17 21 C14.525 31.89 14.525 31.89 12 43 C3.84589117 66.0442206 -8.96326549 83.70915634 -31.125 94.8125 C-33.40686686 95.89588635 -35.69791678 96.96026194 -38 98 C-38.886875 98.40089844 -39.77375 98.80179687 -40.6875 99.21484375 C-58.25364533 106.67482534 -77.70690608 108.37368325 -96.5625 109.1875 C-98.26762589 109.26919143 -99.9727048 109.35186945 -101.67773438 109.43554688 C-105.78470692 109.63501144 -109.8920721 109.82133866 -114 110 C-114.47049096 113.31087976 -114.92364704 116.62396166 -115.375 119.9375 C-115.50132813 120.82501953 -115.62765625 121.71253906 -115.7578125 122.62695312 C-118.73267912 144.71533778 -119.37712444 166.79952425 -119.3125 189.0625 C-119.30997741 190.46779376 -119.3074649 191.87308755 -119.30496216 193.27838135 C-119.25725761 213.3095086 -119.04796014 233.15456071 -116 253 C-115.87886841 253.79367981 -115.75773682 254.58735962 -115.63293457 255.40509033 C-110.48336657 289.22278819 -110.48336657 289.22278819 -101.59375 322.20703125 C-101.34882812 322.9438916 -101.10390625 323.68075195 -100.8515625 324.43994141 C-100.57054688 325.28476074 -100.28953125 326.12958008 -100 327 C-99.66226563 328.0317334 -99.32453125 329.0634668 -98.9765625 330.12646484 C-82.27095479 380.97055797 -57.03904562 428.03226195 -20.4140625 467.375 C-18.46895542 469.49006789 -16.58345566 471.63353275 -14.70703125 473.80859375 C-10.9927296 478.06735328 -7.06871564 482.07946401 -3.0625 486.0625 C-2.39798828 486.73087891 -1.73347656 487.39925781 -1.04882812 488.08789062 C3.46951413 492.59746791 8.16175456 496.83814265 13 501 C14.0480688 501.92573352 15.09501895 502.85273572 16.140625 503.78125 C42.01999179 526.52271763 71.28867989 545.64048267 101.5078125 562.07421875 C105 564 105 564 108 566 C112.21532716 565.68141009 115.30320879 564.56147175 118.94921875 562.48046875 C120.33065063 561.69808838 120.33065063 561.69808838 121.73999023 560.89990234 C122.71266846 560.33480957 123.68534668 559.7697168 124.6875 559.1875 C125.70336182 558.60436035 126.71922363 558.0212207 127.76586914 557.42041016 C153.30776611 542.64885602 177.37317074 525.94223759 200 507 C200.50024689 506.58380905 201.00049377 506.1676181 201.51589966 505.73881531 C210.14993698 498.5387109 218.30194757 490.9902171 226.20727539 482.99853516 C227.95591224 481.2313929 229.7126699 479.47263385 231.47070312 477.71484375 C237.18788834 471.98020371 242.80003896 466.21481853 248 460 C248.50152588 459.41057617 249.00305176 458.82115234 249.51977539 458.21386719 C285.26540962 415.94337335 312.899357 363.69719314 325.38964844 309.60888672 C325.98980589 307.04357371 326.63251989 304.49281204 327.2890625 301.94140625 C336.26641022 266.60954553 339.55595529 230.95545693 339.3225708 194.61968994 C339.30914707 191.79428026 339.3144141 188.96902865 339.31944275 186.14360142 C339.35340977 160.67915403 338.25930383 135.27694139 335 110 C334.30777344 109.98541748 333.61554688 109.97083496 332.90234375 109.95581055 C298.48718896 109.15381048 262.76746744 106.63048596 235 84 C234.3090625 83.48308594 233.618125 82.96617188 232.90625 82.43359375 C222.54285476 74.22923919 215.85746654 62.05143596 211 50 C210.63390625 49.13375 210.2678125 48.2675 209.890625 47.375 C206.451629 38.69814855 205.07934218 30.35703981 203 21 C141.62 21 80.24 21 17 21 Z " fill="#FF3036" transform="translate(140,0)"/>
<path d="M0 0 C72.93 0 145.86 0 221 0 C223.31 11.22 225.62 22.44 228 34 C235.69847939 54.01604641 244.89204653 68.23179287 264.65625 77.58984375 C287.52362851 87.23367978 311.90666913 87.9795808 336.375 88.5625 C338.09375743 88.60582593 339.81250753 88.64944394 341.53125 88.69335938 C345.68742336 88.79893028 349.84367507 88.90058321 354 89 C354.69754381 95.2943461 355.39081343 101.58915307 356.08129883 107.88427734 C356.31602281 110.01979899 356.55167739 112.15521858 356.78833008 114.29052734 C357.13094922 117.3835162 357.47006941 120.4768731 357.80859375 123.5703125 C357.91280136 124.50424835 358.01700897 125.4381842 358.12437439 126.40042114 C359.57350332 139.72715497 360.17080791 152.946887 360.203125 166.33984375 C360.20595238 167.14885195 360.20877975 167.95786015 360.21169281 168.79138374 C360.22657935 173.08708123 360.23587077 177.38274614 360.24023438 181.6784668 C360.24458393 185.15416158 360.25835318 188.62960321 360.28125 192.10522461 C360.42419384 214.27751998 359.7922014 235.97668193 357 258 C356.82960205 259.35286606 356.82960205 259.35286606 356.65576172 260.73306274 C356.00593062 265.73843638 355.23619916 270.71445946 354.375 275.6875 C354.25194489 276.41339325 354.12888977 277.1392865 354.00210571 277.88717651 C347.91493597 313.49223163 337.67397179 347.97925942 323 381 C322.60731934 381.88848633 322.21463867 382.77697266 321.81005859 383.69238281 C304.90905794 421.54556032 280.76445637 455.83852444 252.62890625 486.1484375 C250.15025851 488.83701528 247.72919315 491.56833042 245.3125 494.3125 C242.063394 497.93739228 238.67251563 501.16321517 234.953125 504.296875 C232.92207045 506.06795457 231.06193232 507.93961054 229.1875 509.875 C225.37052313 513.75185102 221.26217609 517.15063883 217.00390625 520.53125 C214.50688729 522.58341643 212.10662818 524.68859682 209.70703125 526.8515625 C205.33663284 530.75349338 200.81645542 534.36825554 196.125 537.875 C195.28493408 538.5035791 194.44486816 539.1321582 193.5793457 539.77978516 C177.40543287 551.73270479 160.50875738 563.10029758 143 573 C141.93628174 573.60183105 141.93628174 573.60183105 140.85107422 574.21582031 C136.28999051 576.786348 131.70764571 579.31540531 127.11425781 581.82763672 C125.11982524 582.93355649 123.14779823 584.07070518 121.1796875 585.22265625 C120.04789062 585.87105469 118.91609375 586.51945313 117.75 587.1875 C116.77546875 587.75855469 115.8009375 588.32960938 114.796875 588.91796875 C111.15087044 590.32850403 109.75352642 590.16993031 106 589 C102.34639304 587.26171837 98.8333851 585.30360474 95.3125 583.3125 C94.38244141 582.79494141 93.45238281 582.27738281 92.49414062 581.74414062 C90.61066926 580.69602731 88.72932424 579.64408404 86.85009766 578.58837891 C83.12096926 576.51011016 79.36026687 574.49216793 75.59448242 572.48120117 C72.62767172 570.78743618 69.82772419 568.91679893 67 567 C65.3515728 565.90911082 63.70312478 564.81825269 62.05404663 563.72834778 C59.49729484 562.03749644 56.94321121 560.34263231 54.38916016 558.64770508 C53.0579714 557.76524795 51.7259537 556.88403989 50.39306641 556.00415039 C42.60282095 550.85995877 34.9745221 545.61069118 27.56665039 539.92358398 C24.48497969 537.61401646 21.30038078 535.52278107 18.03515625 533.484375 C15.41304382 531.57189377 13.28426686 529.30451147 11 527 C8.9095389 525.14637204 6.76530664 523.35814493 4.625 521.5625 C-6.02672036 512.52692238 -16.22434485 502.97652477 -26 493 C-27.17175781 491.83984375 -27.17175781 491.83984375 -28.3671875 490.65625 C-31.1466837 487.85201051 -33.83644397 484.97599756 -36.5 482.0625 C-36.96019531 481.56298828 -37.42039062 481.06347656 -37.89453125 480.54882812 C-43.052539 474.9186084 -47.80252191 469.01134616 -52.44921875 462.953125 C-53.99922053 460.92472774 -53.99922053 460.92472774 -56 459 C-57.52897224 456.75551987 -58.99421333 454.47445654 -60.46484375 452.19140625 C-61.88791196 450.02421528 -61.88791196 450.02421528 -63.5078125 448.49609375 C-65.34036434 446.65874466 -66.56628862 444.70510329 -67.9375 442.5 C-68.54335937 441.530625 -69.14921875 440.56125 -69.7734375 439.5625 C-70.11858398 439.00820313 -70.46373047 438.45390625 -70.81933594 437.8828125 C-72.17168193 435.72621773 -73.54210983 433.58167362 -74.9140625 431.4375 C-90 407.81457739 -90 407.81457739 -90 404 C-90.66 404 -91.32 404 -92 404 C-93.31942401 401.27399186 -94.63067715 398.54454161 -95.9375 395.8125 C-96.49727539 394.65911133 -96.49727539 394.65911133 -97.06835938 393.48242188 C-98.90851603 389.61975069 -100.22027472 386.22693176 -101 382 C-101.66 381.67 -102.32 381.34 -103 381 C-103.98632812 378.97583008 -103.98632812 378.97583008 -105.03125 376.26953125 C-105.42473633 375.2542334 -105.81822266 374.23893555 -106.22363281 373.19287109 C-106.64483398 372.07734863 -107.06603516 370.96182617 -107.5 369.8125 C-107.93924805 368.65572754 -108.37849609 367.49895508 -108.83105469 366.30712891 C-116.86640879 344.90334761 -124.01321965 323.3321033 -129 301 C-129.18224121 300.20674316 -129.36448242 299.41348633 -129.55224609 298.59619141 C-132.16108721 287.12363565 -133.91126174 275.50836294 -135.625 263.875 C-135.7295047 263.18215912 -135.8340094 262.48931824 -135.94168091 261.77548218 C-139.44790586 238.34643692 -140.38177344 214.88707012 -140.31765366 191.21976089 C-140.31241015 189.15206853 -140.31049929 187.0843913 -140.30899048 185.01669312 C-140.28134169 163.20964063 -139.3842011 141.67871892 -137 120 C-136.78684374 117.91069955 -136.57921444 115.82090791 -136.37269592 113.73094177 C-135.82491379 108.19020535 -135.25877073 102.65140827 -134.6484375 97.1171875 C-134.54708496 96.19534668 -134.44573242 95.27350586 -134.34130859 94.32373047 C-134 92 -134 92 -133 89 C-131.48369995 88.970271 -131.48369995 88.970271 -129.93676758 88.93994141 C-72.55777472 89.07033491 -72.55777472 89.07033491 -23.0625 63.22265625 C-19.34582139 59.21737191 -16.63465835 54.7662161 -14 50 C-13.54882812 49.21625 -13.09765625 48.4325 -12.6328125 47.625 C-5.96253872 34.69875516 -4.26502607 18.88746319 -1.578125 4.703125 C-1 2 -1 2 0 0 Z M7 9 C5.34119672 14.74167791 5.34119672 14.74167791 4.140625 20.49609375 C0.02001086 43.51389547 -7.69554492 64.07284936 -27.171875 78.3203125 C-40.27309199 86.72426388 -53.80834501 91.34966805 -69 94 C-70.24571777 94.21849609 -70.24571777 94.21849609 -71.51660156 94.44140625 C-89.24321078 97.41481558 -107.07165282 97.70264539 -125 98 C-130.10404689 125.76456713 -131.51682532 153.69888005 -131.39111328 181.86572266 C-131.37402261 185.72709429 -131.38422834 189.5878452 -131.40141964 193.44919586 C-131.50694239 221.38036841 -129.83561818 248.99819195 -124.6875 276.5 C-124.37651602 278.20644126 -124.06564607 279.9129033 -123.75488281 281.61938477 C-117.60261202 315.02822743 -107.90758318 346.98011556 -94 378 C-93.61021973 378.87978516 -93.22043945 379.75957031 -92.81884766 380.66601562 C-84.33609027 399.67021387 -74.00563823 417.98995816 -62 435 C-60.88818359 436.61261719 -60.88818359 436.61261719 -59.75390625 438.2578125 C-53.73855673 446.90648052 -47.20057089 455.0722455 -40.48828125 463.18701172 C-39.17304204 464.78920436 -37.88152347 466.41080563 -36.59375 468.03515625 C-32.13374339 473.65056312 -27.39416409 478.78501076 -22.24780273 483.76660156 C-19.81790804 486.12658006 -17.52197957 488.51817066 -15.3828125 491.140625 C-13.3954149 493.52550211 -11.49839733 495.4629516 -9.125 497.4375 C-6.51951533 499.65483053 -4.06041227 501.91104073 -1.6875 504.375 C1.96467624 508.08488557 5.94842462 511.30490824 10.00390625 514.5625 C12.54211759 516.6274855 15.02277326 518.74280373 17.4909668 520.89038086 C38.73967837 539.27380089 63.07222742 554.58087569 87.40136719 568.50390625 C90.00248938 570.0014332 92.5837359 571.52947664 95.1640625 573.0625 C96.77535677 574.00117666 98.38730309 574.93873521 100 575.875 C100.72364746 576.31054199 101.44729492 576.74608398 102.19287109 577.19482422 C105.25245555 578.93848961 107.3221191 579.98068453 110.87890625 580.08203125 C115.51269947 578.47557227 119.66610285 576.20622274 123.9375 573.8125 C124.8960791 573.28148682 125.8546582 572.75047363 126.84228516 572.20336914 C143.40094201 562.94747005 159.60273705 553.0907207 175 542 C175.77359863 541.44280273 176.54719727 540.88560547 177.34423828 540.31152344 C186.79470071 533.47613071 196.0922059 526.5332177 205 519 C205.98613281 518.18660156 206.97226562 517.37320312 207.98828125 516.53515625 C223.98904418 503.27985241 239.55521335 488.86651841 253 473 C253.8881022 471.98590881 254.7775464 470.9729921 255.66796875 469.9609375 C271.83379241 451.49713561 285.84095996 431.30912044 298 410 C298.48049805 409.1632373 298.96099609 408.32647461 299.45605469 407.46435547 C323.89394891 364.59526438 337.15527072 319.18297019 346 271 C346.2949939 269.40877319 346.2949939 269.40877319 346.59594727 267.78540039 C347.91175476 260.346677 348.69946685 252.87638309 349.37768555 245.35668945 C349.56076909 243.33164517 349.75152282 241.3074349 349.94335938 239.28320312 C351.61037293 221.42705326 352.23716961 203.6827255 352.25 185.75 C352.25133942 184.63660248 352.25267883 183.52320496 352.25405884 182.37606812 C352.24670879 154.00308983 349.9186473 126.09753493 346 98 C345.13536133 97.98018066 344.27072266 97.96036133 343.37988281 97.93994141 C299.24099597 96.87896684 299.24099597 96.87896684 280 92 C278.8759375 91.73574219 277.751875 91.47148438 276.59375 91.19921875 C257.43974986 86.30286962 239.37873976 75.7900003 228.8359375 58.58984375 C219.8239014 42.99289094 217.25716756 26.91442159 214 9 C145.69 9 77.38 9 7 9 Z " fill="#FDF9F9" transform="translate(140,0)"/>
<path d="M0 0 C4.091923 2.0459615 5.334783 3.35700985 8.0625 6.875 C11.94527348 11.76227209 16.01497303 16.38435543 20.28149414 20.93896484 C27 28.14253921 27 28.14253921 27 31 C22.545 32.485 22.545 32.485 18 34 C17.443125 33.319375 16.88625 32.63875 16.3125 31.9375 C14.19034526 29.71300388 14.19034526 29.71300388 11.5625 30.125 C9.81569144 30.72147122 8.08599369 31.36995494 6.375 32.0625 C4 33 4 33 1 33 C1 35.64 1 38.28 1 41 C-5.70924991 44.20684412 -12.53722559 47.10807206 -19.4375 49.875 C-20.21851074 50.19734619 -20.99952148 50.51969238 -21.80419922 50.85180664 C-22.54814941 51.14563232 -23.29209961 51.43945801 -24.05859375 51.7421875 C-24.72173584 52.0088623 -25.38487793 52.27553711 -26.06811523 52.55029297 C-28.58267141 53.13563512 -29.67396188 53.18233929 -32 52 C-33.53979492 49.19604492 -33.53979492 49.19604492 -34.98046875 45.48046875 C-35.23878983 44.82548904 -35.4971109 44.17050934 -35.76325989 43.49568176 C-36.58601898 41.39834233 -37.38657557 39.2932608 -38.1875 37.1875 C-38.73756104 35.78006227 -39.28897801 34.37315366 -39.84179688 32.96679688 C-44.15390662 21.91691824 -44.15390662 21.91691824 -45 18 C-38.375 15 -38.375 15 -35 15 C-33.32760079 18.95593578 -31.66305618 22.9151284 -30 26.875 C-29.28457031 28.56689453 -29.28457031 28.56689453 -28.5546875 30.29296875 C-27.87792969 31.90751953 -27.87792969 31.90751953 -27.1875 33.5546875 C-26.76855469 34.54968262 -26.34960938 35.54467773 -25.91796875 36.56982422 C-25 39 -25 39 -25 41 C-23.84371094 40.566875 -23.84371094 40.566875 -22.6640625 40.125 C-21.66117188 39.75375 -20.65828125 39.3825 -19.625 39 C-18.62726563 38.62875 -17.62953125 38.2575 -16.6015625 37.875 C-14 37 -14 37 -12 37 C-11.34 38.65 -10.68 40.3 -10 42 C-10 29.46 -10 16.92 -10 4 C-6.7 2.68 -3.4 1.36 0 0 Z " fill="#FF3338" transform="translate(169,290)"/>
<path d="M0 0 C4.97772182 2.80691007 8.22825619 7.45651239 10.75 12.5 C11.74937529 19.78658441 10.79948901 25.22586659 6.640625 31.328125 C2.8075325 35.73142961 -1.20819894 37.9732812 -6.95703125 38.96875 C-13.74892814 39.34871626 -18.92340976 37.752413 -24.25 33.5 C-29.0852931 28.14233452 -29.66548923 22.5375089 -29.58984375 15.578125 C-28.98311897 10.08273272 -26.57069187 6.53124015 -22.46484375 2.9375 C-15.73838092 -2.08949558 -7.83691524 -3.42770667 0 0 Z " fill="#FF3238" transform="translate(277.25,252.5)"/>
<path d="M0 0 C3.21930464 1.61182726 3.72918478 4.20824943 5.03833008 7.47949219 C5.43292671 8.45840424 5.43292671 8.45840424 5.835495 9.45709229 C6.3882762 10.83949381 6.93332423 12.22500896 7.47119141 13.61328125 C8.29472348 15.73142029 9.14774862 17.83579877 10.00512695 19.94042969 C10.5388436 21.28606515 11.07080306 22.63239916 11.60083008 23.97949219 C12.08334229 25.2037793 12.56585449 26.42806641 13.06298828 27.68945312 C14.00257605 31.04884535 14.18243515 32.74620834 12.98754883 35.99511719 C10.30567139 37.63404229 8.7067277 38.0881642 5.58349609 37.68408203 C2.9174754 36.97651969 1.03782007 36.04791792 -1.29760742 34.59667969 C-2.07555664 34.11714844 -2.85350586 33.63761719 -3.6550293 33.14355469 C-4.45360352 32.64082031 -5.25217773 32.13808594 -6.07495117 31.62011719 C-6.87739258 31.12511719 -7.67983398 30.63011719 -8.5065918 30.12011719 C-12.12664135 27.8729827 -15.62802346 25.58815186 -19.01245117 22.99511719 C-18.76487061 23.54973633 -18.51729004 24.10435547 -18.26220703 24.67578125 C-17.1461643 27.1937885 -16.04794166 29.71918915 -14.94995117 32.24511719 C-14.36503906 33.55416016 -14.36503906 33.55416016 -13.76831055 34.88964844 C-13.40415039 35.73398437 -13.03999023 36.57832031 -12.66479492 37.44824219 C-12.15420532 38.61081543 -12.15420532 38.61081543 -11.63330078 39.796875 C-10.91897728 42.32608018 -11.00152008 43.58254114 -12.01245117 45.99511719 C-14.90356905 47.51675818 -16.73068529 47.99511719 -20.01245117 47.99511719 C-21.89660908 43.51696115 -23.7658577 39.03298229 -25.62158203 34.54296875 C-26.25489173 33.01653831 -26.8922369 31.49177566 -27.53369141 29.96875 C-28.45526165 27.77868221 -29.36213161 25.58301797 -30.26635742 23.38574219 C-30.55587784 22.70642639 -30.84539825 22.0271106 -31.14369202 21.32720947 C-32.2330448 18.64776781 -33.05553457 16.53011968 -32.82080078 13.61523438 C-32.01245117 11.99511719 -32.01245117 11.99511719 -29.82495117 10.68261719 C-25.61082306 9.65249698 -22.33590642 10.30797306 -18.49536133 12.30200195 C-17.6888916 12.84139404 -16.88242188 13.38078613 -16.05151367 13.93652344 C-15.16850586 14.51982422 -14.28549805 15.103125 -13.37573242 15.70410156 C-12.0202832 16.6215918 -12.0202832 16.6215918 -10.63745117 17.55761719 C-9.71061523 18.17314453 -8.7837793 18.78867187 -7.82885742 19.42285156 C-5.55044177 20.93788053 -3.27877783 22.46208865 -1.01245117 23.99511719 C-1.43397461 22.898125 -1.85549805 21.80113281 -2.28979492 20.67089844 C-2.84338579 19.21654954 -3.39675979 17.76211808 -3.94995117 16.30761719 C-4.22774414 15.58638672 -4.50553711 14.86515625 -4.79174805 14.12207031 C-6.19011691 10.43239826 -7.40181122 6.91403437 -8.01245117 2.99511719 C-2.72938964 -0.00662232 -2.72938964 -0.00662232 0 0 Z " fill="#FF3137" transform="translate(235.012451171875,264.0048828125)"/>
<path d="M0 0 C1.91015625 2.01953125 1.91015625 2.01953125 4.0625 4.8125 C7.31554235 8.92913503 10.63572315 12.88167506 14.1875 16.75 C25 28.54085413 25 28.54085413 25 31 C20.05 32.485 20.05 32.485 15 34 C14.01 32.68 13.02 31.36 12 30 C8.02973711 30.55399017 4.70145675 31.49940942 1 33 C0.01 33 -0.98 33 -2 33 C-2 35.64 -2 38.28 -2 41 C-7.625 44 -7.625 44 -11 44 C-12.49245952 30.60784092 -13.27719543 17.47477774 -13 4 C-11.39850114 3.32694982 -9.79368971 2.66177773 -8.1875 2 C-7.29417969 1.62875 -6.40085937 1.2575 -5.48046875 0.875 C-3 0 -3 0 0 0 Z " fill="#FF3339" transform="translate(340,222)"/>
<path d="M0 0 C0 13.53 0 27.06 0 41 C-6 44 -6 44 -7.99511719 43.55078125 C-10.9008193 41.3032143 -13.4950248 38.78968083 -16.078125 36.1875 C-16.64956238 35.61797607 -17.22099976 35.04845215 -17.80975342 34.46166992 C-19.01234789 33.2604332 -20.21243334 32.05668003 -21.41015625 30.85058594 C-23.25040717 28.99959045 -25.10112633 27.15954554 -26.953125 25.3203125 C-28.12043384 24.15168276 -29.28712251 22.98243316 -30.453125 21.8125 C-31.00929504 21.26037842 -31.56546509 20.70825684 -32.13848877 20.1394043 C-36 16.22993635 -36 16.22993635 -36 14 C-29.5 11 -29.5 11 -25 11 C-23.39453125 12.36328125 -23.39453125 12.36328125 -21.8125 14.3125 C-21.21953125 15.03050781 -20.6265625 15.74851562 -20.015625 16.48828125 C-19.01789063 17.73158203 -19.01789063 17.73158203 -18 19 C-16.78570312 20.47533203 -16.78570312 20.47533203 -15.546875 21.98046875 C-13.35436177 24.64526863 -11.17607206 27.32175747 -9 30 C-9 21.09 -9 12.18 -9 3 C-1 0 -1 0 0 0 Z " fill="#FF3137" transform="translate(103,317)"/>
<path d="M0 0 C0 13.2 0 26.4 0 40 C-6 43 -6 43 -8 43 C-9.35961914 41.61914062 -9.35961914 41.61914062 -10.97265625 39.65625 C-15.51249936 34.31719676 -20.46140488 29.42952259 -25.4375 24.5 C-26.35982422 23.5821875 -27.28214844 22.664375 -28.23242188 21.71875 C-30.48599899 19.47684945 -32.74189075 17.237334 -35 15 C-34 12 -34 12 -31.75 10.75 C-28.50130612 9.86399258 -27.18518553 9.91657193 -24 11 C-21.9767642 12.89696293 -20.22226527 14.715834 -18.4375 16.8125 C-17.49944526 17.88216627 -16.56065647 18.9511893 -15.62109375 20.01953125 C-14.75613281 21.00308594 -13.89117187 21.98664063 -13 23 C-11.68 24.32 -10.36 25.64 -9 27 C-9 18.75 -9 10.5 -9 2 C-4 0 -4 0 0 0 Z " fill="#FF2F35" transform="translate(316,232)"/>
<path d="M0 0 C0.69699552 1.45381897 1.38233866 2.91322953 2.0625 4.375 C2.63677734 5.59316406 2.63677734 5.59316406 3.22265625 6.8359375 C3.47917969 7.55007812 3.73570312 8.26421875 4 9 C3.67 9.66 3.34 10.32 3 11 C2.34 10.67 1.68 10.34 1 10 C-2.87214182 9.56976202 -4.52496371 9.68330914 -7.8125 11.875 C-10.36465788 14.35423909 -10.91324411 15.23654819 -11.3125 18.75 C-10.91993628 22.83266269 -9.53100884 24.81816032 -7 28 C-3.34607091 30.43595272 -2.00864047 30.1257742 2.12890625 29.48046875 C4.53177075 28.86344926 5.64196007 28.07700225 7 26 C7.33 25.01 7.66 24.02 8 23 C8.66 23 9.32 23 10 23 C10.5345256 24.24420647 11.05208611 25.49570936 11.5625 26.75 C11.85253906 27.44609375 12.14257812 28.1421875 12.44140625 28.859375 C13.09672525 31.37066741 12.98324052 32.60927813 12 35 C5.28944266 40.10585885 -0.72247646 41.07145609 -9 40 C-14.70415883 37.55802351 -18.44317152 32.97397763 -21.14453125 27.48828125 C-23.03638862 21.98548151 -23.22498542 16.82523045 -20.890625 11.44140625 C-17.29571355 5.55618832 -13.3808068 2.54616711 -6.875 0.25 C-4.56727106 -0.05769719 -2.32499979 -0.06458333 0 0 Z " fill="#FF3339" transform="translate(430,186)"/>
<path d="M0 0 C1.25664978 2.90600261 2 4.79604584 2 8 C-1.3 9.32 -4.6 10.64 -8 12 C-8 13.98 -8 15.96 -8 18 C-7.31292969 17.71125 -6.62585938 17.4225 -5.91796875 17.125 C-5.01691406 16.75375 -4.11585938 16.3825 -3.1875 16 C-2.29417969 15.62875 -1.40085937 15.2575 -0.48046875 14.875 C2 14 2 14 5 14 C6.25664978 16.90600261 7 18.79604584 7 22 C5.73160474 22.50615298 4.46016898 23.00469099 3.1875 23.5 C2.47980469 23.7784375 1.77210938 24.056875 1.04296875 24.34375 C-1 25 -1 25 -4 25 C-3.6390625 25.83144531 -3.278125 26.66289062 -2.90625 27.51953125 C-2.4421875 28.60621094 -1.978125 29.69289062 -1.5 30.8125 C-1.0359375 31.89144531 -0.571875 32.97039062 -0.09375 34.08203125 C1 37 1 37 1 40 C-1.97 40.99 -4.94 41.98 -8 43 C-11.74246073 35.23155879 -15.17507432 27.35526211 -18.4375 19.375 C-18.80359375 18.49811523 -19.1696875 17.62123047 -19.546875 16.71777344 C-19.88074219 15.89051758 -20.21460938 15.06326172 -20.55859375 14.2109375 C-20.86079834 13.47149902 -21.16300293 12.73206055 -21.47436523 11.97021484 C-22 10 -22 10 -21 7 C-19.28173828 6.0168457 -19.28173828 6.0168457 -17.0703125 5.17578125 C-16.27496094 4.86962891 -15.47960937 4.56347656 -14.66015625 4.24804688 C-13.40525391 3.78495117 -13.40525391 3.78495117 -12.125 3.3125 C-10.88169922 2.83200195 -10.88169922 2.83200195 -9.61328125 2.34179688 C-3.43173641 0 -3.43173641 0 0 0 Z " fill="#FF3238" transform="translate(392,201)"/>
<path d="M0 0 C1.67239921 3.95593578 3.33694382 7.9151284 5 11.875 C5.71542969 13.56689453 5.71542969 13.56689453 6.4453125 15.29296875 C7.12207031 16.90751953 7.12207031 16.90751953 7.8125 18.5546875 C8.23144531 19.54968262 8.65039062 20.54467773 9.08203125 21.56982422 C10 24 10 24 10 26 C11.15628906 25.566875 11.15628906 25.566875 12.3359375 25.125 C13.33882812 24.75375 14.34171875 24.3825 15.375 24 C16.37273437 23.62875 17.37046875 23.2575 18.3984375 22.875 C21 22 21 22 23 22 C24.49821059 25.37097383 25 27.20442119 25 31 C22.09053687 32.20571943 19.17150084 33.38628225 16.25 34.5625 C15.0125 35.07586914 15.0125 35.07586914 13.75 35.59960938 C12.95078125 35.91865234 12.1515625 36.23769531 11.328125 36.56640625 C10.22839355 37.01415405 10.22839355 37.01415405 9.10644531 37.47094727 C6.49960512 38.12567869 5.40582025 38.25211799 3 37 C1.46020508 34.19604492 1.46020508 34.19604492 0.01953125 30.48046875 C-0.23878983 29.82548904 -0.4971109 29.17050934 -0.76325989 28.49568176 C-1.58601898 26.39834233 -2.38657557 24.2932608 -3.1875 22.1875 C-3.73756104 20.78006227 -4.28897801 19.37315366 -4.84179688 17.96679688 C-9.15390662 6.91691824 -9.15390662 6.91691824 -10 3 C-3.375 0 -3.375 0 0 0 Z " fill="#FF3238" transform="translate(134,305)"/>
<path d="M0 0 C1.8841579 4.47815604 3.75340653 8.96213489 5.60913086 13.45214844 C6.24244055 14.97857887 6.87978573 16.50334152 7.52124023 18.02636719 C8.44281048 20.21643498 9.34968044 22.41209922 10.25390625 24.609375 C10.54342667 25.2886908 10.83294708 25.96800659 11.13124084 26.66790771 C12.22481087 29.35772237 13.04399237 31.47079763 12.80078125 34.39648438 C12 36 12 36 9.93359375 37.046875 C8.69802734 37.39492188 8.69802734 37.39492188 7.4375 37.75 C6.61121094 37.99234375 5.78492187 38.2346875 4.93359375 38.484375 C4.29550781 38.65453125 3.65742187 38.8246875 3 39 C2.47212891 37.56333984 2.47212891 37.56333984 1.93359375 36.09765625 C-1.13148865 27.81521119 -4.33073445 19.61486534 -7.81469727 11.49829102 C-9.07837064 8.50477968 -10 6.28474638 -10 3 C-3.375 0 -3.375 0 0 0 Z " fill="#FF3339" transform="translate(117,312)"/>
<path d="M0 0 C4.12768764 1.82386198 6.20957902 3.85376193 8 8 C8.53255319 12.97049643 8.1529475 16.05881562 5 20 C2.5532983 21.83502627 0.67467428 22.05422095 -2.375 22.5625 C-6.78711723 21.87786112 -8.25053957 20.69908229 -10.88671875 17.203125 C-12.92796136 13.16361331 -13.1050073 9.36109549 -12 5 C-9.09751635 0.57716776 -5.15132253 -0.87682086 0 0 Z " fill="#FEF8F9" transform="translate(270,260)"/>
<path d="M0 0 C2.4375 0.75 2.4375 0.75 4.4375 2.75 C4.80237512 5.59602594 4.83949375 7.1364306 3.25 9.5625 C0.76512734 11.19052002 -0.64961432 11.25975499 -3.5625 10.75 C-5.4375 9.0625 -5.4375 9.0625 -6.5625 6.75 C-6.4375 4.125 -6.4375 4.125 -5.5625 1.75 C-2.5625 -0.25 -2.5625 -0.25 0 0 Z " fill="#FF3E43" transform="translate(452.5625,207.25)"/>
<path d="M0 0 C3.59476701 3.49205938 6.92026191 7.04033675 10 11 C10 11.66 10 12.32 10 13 C5.545 14.485 5.545 14.485 1 16 C0.14701624 12.32612505 -0.10789471 8.9552607 -0.0625 5.1875 C-0.05347656 4.21167969 -0.04445313 3.23585937 -0.03515625 2.23046875 C-0.02355469 1.49441406 -0.01195312 0.75835937 0 0 Z " fill="#FEF3F3" transform="translate(336,232)"/>
<path d="M0 0 C10 10 10 10 10 14 C5.545 15.485 5.545 15.485 1 17 C0.67 11.39 0.34 5.78 0 0 Z " fill="#FEF2F3" transform="translate(167,299)"/>
<path d="M0 0 C2.5 0.25 2.5 0.25 4.5 2.25 C4.75 5.25 4.75 5.25 4.5 8.25 C2.5 10.25 2.5 10.25 -0.5 10.5625 C-1.49 10.459375 -2.48 10.35625 -3.5 10.25 C-5.5 7.25 -5.5 7.25 -5.25 4.6875 C-4.24098289 1.40819438 -3.4742892 0.34742892 0 0 Z " fill="#FF3238" transform="translate(405.5,225.75)"/>
<path d="M0 0 C0 0.66 0 1.32 0 2 C-2.90548882 4.04169485 -4.40142046 5 -8 5 C-7.67 4.01 -7.34 3.02 -7 2 C-4.56723614 0.81480735 -2.71982714 0 0 0 Z " fill="#FF4046" transform="translate(378,206)"/>
</svg>
