<?xml version="1.0" encoding="UTF-8"?>
<svg version="1.1" xmlns="http://www.w3.org/2000/svg" width="512" height="512">
<path d="M0 0 C3.32742004 1.27427646 6.43652626 2.70433092 9.5546875 4.42578125 C34.4446275 17.95797085 60.90441394 25.45194152 89.10546875 17.25 C90.40559852 16.83946689 91.70381351 16.42281845 93 16 C93.64662598 15.79632813 94.29325195 15.59265625 94.95947266 15.3828125 C104.40636936 12.34253981 113.02167966 8.1104163 121.61865234 3.16357422 C122.37742676 2.73963379 123.13620117 2.31569336 123.91796875 1.87890625 C124.91993286 1.29991577 124.91993286 1.29991577 125.94213867 0.70922852 C129.44773942 -0.49895397 132.08893017 0.60863868 135.39331055 2.02807617 C136.21613525 2.44549072 137.03895996 2.86290527 137.88671875 3.29296875 C138.81653564 3.75582275 139.74635254 4.21867676 140.7043457 4.69555664 C141.68878662 5.18789795 142.67322754 5.68023926 143.6875 6.1875 C150.9382899 9.73346488 158.13999288 13.03654099 165.8125 15.5625 C166.49723389 15.78897217 167.18196777 16.01544434 167.88745117 16.2487793 C176.95580414 19.09580752 185.68439342 20.36864123 195.1875 20.3125 C196.69969116 20.30404053 196.69969116 20.30404053 198.24243164 20.29541016 C217.95657706 19.97710967 234.65017226 13.38476047 251.43823242 3.51953125 C252.24881104 3.0503125 253.05938965 2.58109375 253.89453125 2.09765625 C254.97504761 1.45582397 254.97504761 1.45582397 256.07739258 0.80102539 C258 0 258 0 261 1 C262.83984375 3.01171875 262.83984375 3.01171875 264.9375 5.6875 C268.54078891 10.2047939 272.22111886 14.6286824 276 19 C280.32019064 24.01239838 284.55099728 29.08540533 288.72265625 34.22265625 C291.28204054 37.34396367 293.88593791 40.4245003 296.5 43.5 C300.61160904 48.33839787 304.65434739 53.22636997 308.65625 58.15625 C310.40721682 60.28075641 312.17476826 62.38112419 313.96875 64.46875 C314.47212891 65.05591797 314.97550781 65.64308594 315.49414062 66.24804688 C316.47854058 67.39332153 317.46667703 68.53539788 318.45898438 69.67382812 C320.55777533 72.11787474 321.9699269 73.90978071 323 77 C321.89526367 79.16625977 321.89526367 79.16625977 320.16796875 81.69140625 C319.53882568 82.62718506 318.90968262 83.56296387 318.26147461 84.52709961 C317.57706299 85.52878174 316.89265137 86.53046387 316.1875 87.5625 C300.05047791 111.78032261 286.28187951 135.29921749 292.25 165.375 C295.3808679 179.7816537 300.77409545 193.75125112 305.52978516 207.68115234 C311.18008083 224.25014533 316.54078169 240.81630789 320 258 C320.18546387 258.91483154 320.37092773 259.82966309 320.56201172 260.7722168 C325.68070295 288.32684857 322.19150204 315.4507904 306.27539062 338.70996094 C282.79997328 371.65823046 246.10119035 387.43082323 210 402.75 C185.92231963 412.9684625 163.16300894 423.02466252 143.33789062 440.46191406 C142.16405384 441.49309255 140.98720125 442.52084805 139.80737305 443.54516602 C138.66772992 444.5361947 137.53594842 445.53635744 136.41333008 446.54663086 C133.25385049 449.29818138 132.36193976 450 128 450 C126.01953125 448.48828125 126.01953125 448.48828125 123.8125 446.3125 C98.48946425 422.66525338 67.70304789 409.80277621 36.17456055 396.54516602 C16.51093632 388.24746494 -3.11927132 379.24816681 -20 366 C-20.77126221 365.39913574 -20.77126221 365.39913574 -21.55810547 364.78613281 C-36.70816695 352.87178588 -47.79135469 338.67015257 -55.8125 321.0625 C-56.09061523 320.46719482 -56.36873047 319.87188965 -56.65527344 319.25854492 C-61.42055051 308.2725788 -62.56279478 296.540014 -62.5 284.6875 C-62.49355469 283.3871582 -62.48710938 282.08681641 -62.48046875 280.74707031 C-62.10083787 254.17412556 -52.78058844 229.2216238 -44.40771484 204.30810547 C-44.14432312 203.52433533 -43.8809314 202.74056519 -43.60955811 201.93304443 C-43.08015398 200.35853437 -42.55025045 198.78419212 -42.01983643 197.21002197 C-38.21890303 185.91565905 -34.64861935 174.62972457 -32 163 C-31.8040625 162.19304687 -31.608125 161.38609375 -31.40625 160.5546875 C-26.3617123 128.83230622 -47.1800721 101.81228478 -64 77 C-62.38182825 73.59170063 -60.52234036 71.20469242 -57.9375 68.4375 C-54.76214883 64.97439841 -51.70171816 61.46804744 -48.75 57.8125 C-45.14529915 53.36147808 -41.44629733 49.00801395 -37.6875 44.6875 C-37.13642578 44.05400635 -36.58535156 43.4205127 -36.01757812 42.76782227 C-34.89837515 41.48168345 -33.77907163 40.19563212 -32.65966797 38.90966797 C-25.70653771 30.90917004 -18.8496867 22.84890498 -12.17578125 14.61328125 C-9.14419872 10.97211659 -5.9604459 7.4796505 -2.75 3.99609375 C-0.95218021 2.11549325 -0.95218021 2.11549325 0 0 Z " fill="#FAFAFA" transform="translate(126,30)"/>
<path d="M0 0 C0 4.01809564 -1.91856686 6.40102662 -4 9.6875 C-19.31316196 34.62156038 -27.89065409 60.43561818 -21.25585938 89.94799805 C-17.46985854 104.87911541 -11.99962249 119.4438734 -7 134 C3.21306921 163.78819271 3.21306921 163.78819271 6 178 C6.33451172 179.52173828 6.33451172 179.52173828 6.67578125 181.07421875 C11.38613668 205.58729292 8.00201867 228.23797639 -5.9453125 248.87890625 C-7.85989729 251.37427512 -9.86463038 253.69077728 -12 256 C-12.88300781 256.96292969 -13.76601563 257.92585938 -14.67578125 258.91796875 C-35.6373191 281.14442699 -64.86466098 292.28410258 -92.61035156 303.60595703 C-118.27007666 314.15889785 -144.24437145 326.22109798 -165 345 C-168.75821614 343.35972341 -171.76142774 340.91452373 -174.9375 338.375 C-196.77030684 321.35726503 -222.66769155 310.67181839 -248 300 C-280.37437798 286.34364106 -314.49940466 271.42358362 -332 239 C-332 238.34 -332 237.68 -332 237 C-329.57719916 235.14456392 -327.14378893 233.40465698 -324.625 231.6875 C-323.05399327 230.59865722 -321.4837034 229.50877955 -319.9140625 228.41796875 C-319.09969727 227.85384277 -318.28533203 227.2897168 -317.44628906 226.70849609 C-313.59640881 224.01972743 -309.798766 221.26028136 -306 218.5 C-299.49879879 213.78771523 -292.95958736 209.13388962 -286.39013672 204.51733398 C-281.26780058 200.9116111 -276.19162055 197.24596288 -271.125 193.5625 C-264.94841239 189.07451931 -258.69654921 184.71858153 -252.375 180.4375 C-245.7891414 175.97553076 -239.38315223 171.3421949 -233.05810547 166.51928711 C-227.2025759 162.08361066 -221.15160999 157.96762088 -215.06640625 153.85546875 C-209.93467138 150.37054669 -204.93223217 146.76119918 -200 143 C-193.50709201 138.04866775 -186.8309284 133.42667874 -180.06640625 128.85546875 C-174.93466511 125.37054244 -169.93230625 121.76110839 -165 118 C-158.4824328 113.03161659 -151.78565799 108.38171958 -145.00048828 103.78735352 C-139.42745525 100.00423691 -133.96670929 96.09947134 -128.55566406 92.08911133 C-123.97834135 88.70142719 -119.34750967 85.39788617 -114.6875 82.125 C-108.75930818 77.96039455 -102.86609341 73.75163615 -97 69.5 C-90.49947339 64.78951402 -83.96136005 60.13702311 -77.39453125 55.51953125 C-72.2343328 51.88545434 -67.1107106 48.20328599 -62 44.5 C-55.49941517 39.78959343 -48.9613612 35.13702392 -42.39453125 30.51953125 C-36.4829219 26.35627217 -30.62183225 22.12556099 -24.76782227 17.88183594 C-18.62135296 13.43245083 -12.43018319 9.04874099 -6.21679688 4.69335938 C-2.96630674 2.52164766 -2.96630674 2.52164766 0 0 Z " fill="#231F20" transform="translate(422,112)"/>
<path d="M0 0 C1.25801953 0.68081254 2.5144501 1.36456689 3.76953125 2.05078125 C29.49539879 15.45369277 60.99791506 20.13586352 89.04589844 11.61474609 C97.61530763 8.7897207 105.98842033 5.54422237 113.8671875 1.11328125 C114.43308594 0.86578125 114.99898438 0.61828125 115.58203125 0.36328125 C116.24203125 0.69328125 116.90203125 1.02328125 117.58203125 1.36328125 C110.16136732 6.67887569 102.72830207 11.97625988 95.26953125 17.23828125 C94.55732422 17.74077393 93.84511719 18.2432666 93.11132812 18.76098633 C89.52773539 21.2883834 85.94247215 23.8133836 82.35546875 26.3359375 C75.12605614 31.42404777 67.92601725 36.54800906 60.76953125 41.73828125 C53.58264967 46.95011808 46.3270035 52.05635916 39.04370117 57.13232422 C33.51755379 60.99031163 28.0354634 64.90328016 22.58203125 68.86328125 C15.45878979 74.03581171 8.26511134 79.09953466 1.04296875 84.1328125 C-4.48291405 87.99066566 -9.96477413 91.90345265 -15.41796875 95.86328125 C-22.54121021 101.03581171 -29.73488866 106.09953466 -36.95703125 111.1328125 C-42.48291405 114.99066566 -47.96477413 118.90345265 -53.41796875 122.86328125 C-60.54121021 128.03581171 -67.73488866 133.09953466 -74.95703125 138.1328125 C-80.48291405 141.99066566 -85.96477413 145.90345265 -91.41796875 149.86328125 C-98.54121021 155.03581171 -105.73488866 160.09953466 -112.95703125 165.1328125 C-119.22475789 169.50857831 -125.42857353 173.96605672 -131.61352539 178.45776367 C-138.15765941 183.19975385 -144.77614319 187.83150236 -151.40527344 192.45361328 C-157.46515337 196.68302968 -163.47322688 200.97289849 -169.41796875 205.36328125 C-170.41796875 203.36328125 -170.41796875 203.36328125 -169.52514648 200.36425781 C-169.05790712 199.07480953 -168.58275371 197.78821327 -168.1015625 196.50390625 C-167.58167396 195.0736384 -167.06198813 193.64329686 -166.54248047 192.21289062 C-166.12866119 191.08596802 -166.12866119 191.08596802 -165.70648193 189.9362793 C-160.57520673 175.92951358 -155.79682703 161.91204699 -152.41796875 147.36328125 C-152.22871826 146.57638916 -152.03946777 145.78949707 -151.84448242 144.97875977 C-145.76575967 117.7234255 -153.74843571 95.60805143 -167.41796875 72.36328125 C-169.94270964 68.40071678 -172.52766047 64.47813167 -175.29150391 60.67773438 C-178.52178476 56.04990595 -178.52178476 56.04990595 -178.0234375 52.75390625 C-176.05057092 49.81620711 -173.81022127 47.27034552 -171.35546875 44.73828125 C-166.97377365 40.09282669 -162.86708909 35.31543154 -158.859375 30.33984375 C-155.9643555 26.81023597 -152.98034631 23.36626719 -149.98046875 19.92578125 C-144.36373347 13.48196627 -138.85768964 6.95725443 -133.41796875 0.36328125 C-129.46753348 0.96226421 -126.54295306 2.21132899 -123.04296875 4.11328125 C-96.47409984 17.62452312 -65.60427805 18.8917265 -37.41796875 9.73828125 C-29.90441998 7.19908793 -22.79873663 3.86357688 -15.78515625 0.17138672 C-9.60422667 -2.97120961 -6.41092958 -3.06991942 0 0 Z " fill="#242020" transform="translate(263.41796875,53.63671875)"/>
<path d="M0 0 C3.32742004 1.27427646 6.43652626 2.70433092 9.5546875 4.42578125 C34.4446275 17.95797085 60.90441394 25.45194152 89.10546875 17.25 C90.40559852 16.83946689 91.70381351 16.42281845 93 16 C93.64662598 15.79632813 94.29325195 15.59265625 94.95947266 15.3828125 C104.40636936 12.34253981 113.02167966 8.1104163 121.61865234 3.16357422 C122.37742676 2.73963379 123.13620117 2.31569336 123.91796875 1.87890625 C124.91993286 1.29991577 124.91993286 1.29991577 125.94213867 0.70922852 C129.44773942 -0.49895397 132.08893017 0.60863868 135.39331055 2.02807617 C136.21613525 2.44549072 137.03895996 2.86290527 137.88671875 3.29296875 C138.81653564 3.75582275 139.74635254 4.21867676 140.7043457 4.69555664 C141.68878662 5.18789795 142.67322754 5.68023926 143.6875 6.1875 C150.9382899 9.73346488 158.13999288 13.03654099 165.8125 15.5625 C166.49723389 15.78897217 167.18196777 16.01544434 167.88745117 16.2487793 C176.95580414 19.09580752 185.68439342 20.36864123 195.1875 20.3125 C196.69969116 20.30404053 196.69969116 20.30404053 198.24243164 20.29541016 C217.95657706 19.97710967 234.65017226 13.38476047 251.43823242 3.51953125 C252.24881104 3.0503125 253.05938965 2.58109375 253.89453125 2.09765625 C254.97504761 1.45582397 254.97504761 1.45582397 256.07739258 0.80102539 C258 0 258 0 261 1 C262.83984375 3.01171875 262.83984375 3.01171875 264.9375 5.6875 C268.54078891 10.2047939 272.22111886 14.6286824 276 19 C280.32019064 24.01239838 284.55099728 29.08540533 288.72265625 34.22265625 C291.28204054 37.34396367 293.88593791 40.4245003 296.5 43.5 C300.61160904 48.33839787 304.65434739 53.22636997 308.65625 58.15625 C310.40721682 60.28075641 312.17476826 62.38112419 313.96875 64.46875 C314.47212891 65.05591797 314.97550781 65.64308594 315.49414062 66.24804688 C316.47854058 67.39332153 317.46667703 68.53539788 318.45898438 69.67382812 C320.55777533 72.11787474 321.9699269 73.90978071 323 77 C321.89526367 79.16625977 321.89526367 79.16625977 320.16796875 81.69140625 C319.53882568 82.62718506 318.90968262 83.56296387 318.26147461 84.52709961 C317.57706299 85.52878174 316.89265137 86.53046387 316.1875 87.5625 C300.05047791 111.78032261 286.28187951 135.29921749 292.25 165.375 C295.3808679 179.7816537 300.77409545 193.75125112 305.52978516 207.68115234 C311.18008083 224.25014533 316.54078169 240.81630789 320 258 C320.18546387 258.91483154 320.37092773 259.82966309 320.56201172 260.7722168 C325.68070295 288.32684857 322.19150204 315.4507904 306.27539062 338.70996094 C282.79997328 371.65823046 246.10119035 387.43082323 210 402.75 C185.92231963 412.9684625 163.16300894 423.02466252 143.33789062 440.46191406 C142.16405384 441.49309255 140.98720125 442.52084805 139.80737305 443.54516602 C138.66772992 444.5361947 137.53594842 445.53635744 136.41333008 446.54663086 C133.25385049 449.29818138 132.36193976 450 128 450 C126.01953125 448.48828125 126.01953125 448.48828125 123.8125 446.3125 C98.48946425 422.66525338 67.70304789 409.80277621 36.17456055 396.54516602 C16.51093632 388.24746494 -3.11927132 379.24816681 -20 366 C-20.77126221 365.39913574 -20.77126221 365.39913574 -21.55810547 364.78613281 C-36.70816695 352.87178588 -47.79135469 338.67015257 -55.8125 321.0625 C-56.09061523 320.46719482 -56.36873047 319.87188965 -56.65527344 319.25854492 C-61.42055051 308.2725788 -62.56279478 296.540014 -62.5 284.6875 C-62.49355469 283.3871582 -62.48710938 282.08681641 -62.48046875 280.74707031 C-62.10083787 254.17412556 -52.78058844 229.2216238 -44.40771484 204.30810547 C-44.14432312 203.52433533 -43.8809314 202.74056519 -43.60955811 201.93304443 C-43.08015398 200.35853437 -42.55025045 198.78419212 -42.01983643 197.21002197 C-38.21890303 185.91565905 -34.64861935 174.62972457 -32 163 C-31.8040625 162.19304687 -31.608125 161.38609375 -31.40625 160.5546875 C-26.3617123 128.83230622 -47.1800721 101.81228478 -64 77 C-62.38182825 73.59170063 -60.52234036 71.20469242 -57.9375 68.4375 C-54.76214883 64.97439841 -51.70171816 61.46804744 -48.75 57.8125 C-45.14529915 53.36147808 -41.44629733 49.00801395 -37.6875 44.6875 C-37.13642578 44.05400635 -36.58535156 43.4205127 -36.01757812 42.76782227 C-34.89837515 41.48168345 -33.77907163 40.19563212 -32.65966797 38.90966797 C-25.70653771 30.90917004 -18.8496867 22.84890498 -12.17578125 14.61328125 C-9.14419872 10.97211659 -5.9604459 7.4796505 -2.75 3.99609375 C-0.95218021 2.11549325 -0.95218021 2.11549325 0 0 Z M123.56640625 12.66796875 C95.88147106 26.61143246 64.86401402 35.73240591 34.01074219 25.69775391 C24.46952667 22.38682701 15.32292968 18.75679369 6.98046875 12.96875 C5.06868995 11.80594439 5.06868995 11.80594439 3.04492188 12.26611328 C-0.44327528 13.51796627 -2.40493351 16.58174896 -4.6875 19.375 C-5.21641846 20.00696289 -5.74533691 20.63892578 -6.2902832 21.29003906 C-10.19020402 25.96358068 -14.02024607 30.69522218 -17.85546875 35.421875 C-20.72480394 38.871349 -23.7453589 42.1711959 -26.765625 45.48828125 C-29.77873001 48.87539056 -32.61180712 52.39428509 -35.453125 55.92578125 C-37.40459179 58.28130942 -39.38479007 60.57579367 -41.421875 62.85546875 C-42.01323242 63.52102783 -42.60458984 64.18658691 -43.21386719 64.87231445 C-44.3836754 66.18395152 -45.5611667 67.48878588 -46.74707031 68.78588867 C-48.92547354 71.23642896 -50.74320266 73.48557695 -52.2109375 76.42578125 C-51.85221675 80.80350303 -49.14546633 83.82666156 -46.625 87.3125 C-45.50600552 88.9240293 -44.39148676 90.53867475 -43.28125 92.15625 C-42.724375 92.96707031 -42.1675 93.77789062 -41.59375 94.61328125 C-26.70109517 116.91576189 -18.58110415 139.15073588 -23.125 166.0625 C-24.91497512 174.44667592 -27.54111268 182.55002067 -30.24023438 190.67919922 C-30.97241988 192.91575301 -31.67299291 195.15916721 -32.359375 197.41015625 C-32.57352051 198.11140625 -32.78766602 198.81265625 -33.00830078 199.53515625 C-33.58176172 201.42035799 -34.15420369 203.30586961 -34.7265625 205.19140625 C-35.65274747 208.09137116 -36.74788818 210.89046323 -37.90234375 213.70703125 C-49.83964113 243.14585692 -61.78858968 283.24672277 -48.83447266 314.10107422 C-48.42140869 315.04104248 -48.42140869 315.04104248 -48 316 C-47.70528809 316.68723145 -47.41057617 317.37446289 -47.10693359 318.08251953 C-43.18258534 327.02709489 -38.53588119 334.68931071 -32 342 C-31.00419922 343.20849609 -31.00419922 343.20849609 -29.98828125 344.44140625 C-8.72101714 369.56115073 24.27414694 381.94312186 53.76422119 394.46112061 C81.3422147 406.17686172 106.68587301 418.64088716 129 439 C132.96713096 437.34223754 135.93230428 434.61238574 139.125 431.8125 C161.10841046 412.9555782 188.16067117 401.65059768 214.59521484 390.43920898 C252.0193775 374.55385186 290.00706568 356.68906716 307.53515625 317.57421875 C319.87817901 286.95056753 311.79131508 251.96032858 301 222 C300.52828369 220.91630127 300.05656738 219.83260254 299.57055664 218.71606445 C297.86545444 214.79002639 296.52759171 210.78087148 295.22265625 206.70703125 C294.97094162 205.92735489 294.71922699 205.14767853 294.45988464 204.34437561 C283.21926081 169.35120295 276.034883 141.79187722 293.12890625 107.4296875 C297.84988854 98.27773789 303.2238033 88.9812808 309.66430664 80.91577148 C311.24453644 79.05255158 311.24453644 79.05255158 310.9375 76.5390625 C309.79267086 73.43848357 308.29111619 71.7536241 306 69.375 C302.74500472 65.89924006 299.6197883 62.39044221 296.625 58.6875 C293.29981938 54.5802647 289.92337367 50.52516173 286.5 46.5 C282.38652766 41.65974317 278.34463817 36.76750649 274.3359375 31.83984375 C271.17280888 27.99436798 267.95092861 24.19992545 264.71679688 20.4140625 C262.38251343 17.67307374 260.11874041 14.91151414 258 12 C253.16424371 12.62214408 249.33121985 14.66335128 245.0625 16.875 C244.37220703 17.22691406 243.68191406 17.57882813 242.97070312 17.94140625 C239.96071294 19.47635859 236.96205464 21.02047376 233.98828125 22.625 C230.45700642 24.24984803 226.88984376 25.22860863 223.125 26.125 C222.45597656 26.29386719 221.78695313 26.46273437 221.09765625 26.63671875 C190.24352085 34.1867673 161.29138215 25.87949524 133.95703125 11.46875 C129.3779184 9.19431614 127.97132266 10.40853665 123.56640625 12.66796875 Z " fill="#252122" transform="translate(126,30)"/>
<path d="M0 0 C3.33879957 3.04027842 4.52718938 6.51070112 6 10.6875 C6.2475 11.37005859 6.495 12.05261719 6.75 12.75585938 C7.22266411 14.05937838 7.69189962 15.36415061 8.15625 16.6706543 C9.40743503 20.12480833 10.71005046 23.56013456 12 27 C26.85 27.495 26.85 27.495 42 28 C36.37677245 33.62322755 36.37677245 33.62322755 33.84375 35.53515625 C33.29589844 35.95216797 32.74804688 36.36917969 32.18359375 36.79882812 C31.62800781 37.21583984 31.07242188 37.63285156 30.5 38.0625 C26.62816527 40.99557202 22.778914 43.9472579 19 47 C20.28952412 52.0427732 21.64559107 57.0441983 23.34765625 61.96484375 C23.57880127 62.63378662 23.80994629 63.30272949 24.0480957 63.99194336 C24.51132494 65.31718177 24.98237075 66.63971706 25.46166992 67.95922852 C27.10904843 72.6728547 27.10904843 72.6728547 26 76 C25.46109131 75.65743164 24.92218262 75.31486328 24.36694336 74.96191406 C21.89149435 73.38964431 19.41451086 71.81980791 16.9375 70.25 C16.08994141 69.71117187 15.24238281 69.17234375 14.36914062 68.6171875 C9.64059778 65.62305226 4.88540696 62.73105518 0 60 C-0.57443848 60.37809814 -1.14887695 60.75619629 -1.74072266 61.14575195 C-4.36660815 62.87138676 -6.99576272 64.59197686 -9.625 66.3125 C-10.52863281 66.90740234 -11.43226563 67.50230469 -12.36328125 68.11523438 C-16.80889444 71.01948533 -21.17280383 73.77884827 -26 76 C-24.09445726 66.50115817 -21.77870808 57.28116709 -19 48 C-22.95563504 43.86838893 -27.20554245 40.29731073 -31.6875 36.75 C-32.70166992 35.93789063 -32.70166992 35.93789063 -33.73632812 35.109375 C-37.19567153 32.29032098 -37.19567153 32.29032098 -41 30 C-41 29.34 -41 28.68 -41 28 C-30.77 28 -20.54 28 -10 28 C-9.34 25.03 -8.68 22.06 -8 19 C-7.03857422 16.23413086 -7.03857422 16.23413086 -6.0546875 13.96484375 C-5.70019531 13.13662109 -5.34570312 12.30839844 -4.98046875 11.45507812 C-4.61566406 10.62427734 -4.25085938 9.79347656 -3.875 8.9375 C-3.50246094 8.07189453 -3.12992187 7.20628906 -2.74609375 6.31445312 C-1.83769319 4.20649798 -0.92228806 2.10190666 0 0 Z " fill="#F8EB00" transform="translate(342,280)"/>
<path d="M0 0 C3.20384041 1.29516953 4.5905657 2.51997358 6.8125 5.125 C8.46149879 9.11731286 8.2506862 12.7383346 8 17 C9.299375 16.87625 9.299375 16.87625 10.625 16.75 C14.93462834 17.06923173 16.714815 18.21473446 20 21 C23.22810472 24.93549804 24.72511104 28.76769324 24.35546875 33.97265625 C22.73392963 43.22077498 16.04423213 47.66120983 8.77978516 52.76855469 C4.23154397 55.91551334 -0.35186234 59.00174184 -5 62 C-9.27059526 58.17949199 -12.27549095 53.50269499 -15.5 48.8125 C-16.74151468 47.01646181 -17.98371526 45.22089758 -19.2265625 43.42578125 C-19.85208008 42.52166504 -20.47759766 41.61754883 -21.12207031 40.68603516 C-22.91727285 38.11832607 -24.74302719 35.57658754 -26.5859375 33.04296875 C-27.14087891 32.27557373 -27.69582031 31.50817871 -28.26757812 30.7175293 C-29.31894303 29.267112 -30.37728102 27.82171734 -31.44335938 26.38208008 C-31.91322266 25.73005615 -32.38308594 25.07803223 -32.8671875 24.40625 C-33.48762939 23.56030273 -33.48762939 23.56030273 -34.12060547 22.69726562 C-35 21 -35 21 -35 17 C-33.45874023 15.41601562 -33.45874023 15.41601562 -31.30859375 13.90625 C-30.52806641 13.35066406 -29.74753906 12.79507813 -28.94335938 12.22265625 C-28.11642578 11.65417969 -27.28949219 11.08570313 -26.4375 10.5 C-25.63763672 9.93152344 -24.83777344 9.36304688 -24.01367188 8.77734375 C-9.63401644 -1.34123828 -9.63401644 -1.34123828 0 0 Z " fill="#272324" transform="translate(181,214)"/>
<path d="M0 0 C2.44277301 1.15216925 4.49947599 2.38912068 6.69189453 3.95776367 C7.46629883 4.50658203 8.24070313 5.05540039 9.03857422 5.62084961 C9.86389648 6.21285156 10.68921875 6.80485352 11.53955078 7.41479492 C17.25609892 11.47784918 22.98665158 15.50824945 28.80908203 19.41870117 C29.817854 20.09715088 30.82662598 20.77560059 31.8659668 21.47460938 C33.83823645 22.79735715 35.81393357 24.11501036 37.79321289 25.42724609 C38.68403564 26.02641846 39.5748584 26.62559082 40.49267578 27.24291992 C41.28706055 27.77175781 42.08144531 28.3005957 42.89990234 28.84545898 C43.46161133 29.30146484 44.02332031 29.7574707 44.60205078 30.22729492 C44.60205078 30.88729492 44.60205078 31.54729492 44.60205078 32.22729492 C41.83872387 34.92691401 39.02879388 37.19162634 35.10205078 37.28979492 C31.76204357 35.87029186 28.74424699 34.04433595 25.60205078 32.22729492 C24.61462891 32.94916992 23.62720703 33.67104492 22.60986328 34.41479492 C21.31577175 35.35254241 20.02149109 36.29002894 18.72705078 37.22729492 C18.07607422 37.70424805 17.42509766 38.18120117 16.75439453 38.67260742 C11.82861328 42.22729492 11.82861328 42.22729492 9.60205078 42.22729492 C9.83021484 42.74678711 10.05837891 43.2662793 10.29345703 43.80151367 C11.57075398 46.90024753 12.57046761 49.54825672 12.72705078 52.91479492 C10.99988663 56.46507678 8.02864003 58.36759868 4.60205078 60.22729492 C3.94205078 60.22729492 3.28205078 60.22729492 2.60205078 60.22729492 C2.4414064 59.64291656 2.28076202 59.05853821 2.11524963 58.45645142 C0.44692217 52.38914268 -1.22429635 46.3226357 -2.8972168 40.2565918 C-3.52166153 37.99084697 -4.14536202 35.72489689 -4.76831055 33.45874023 C-5.6624431 30.20657316 -6.5592258 26.95514705 -7.45654297 23.70385742 C-7.73574081 22.68611237 -8.01493866 21.66836731 -8.30259705 20.61978149 C-8.69288841 19.20854507 -8.69288841 19.20854507 -9.09106445 17.76879883 C-9.31978745 16.9382901 -9.54851044 16.10778137 -9.78416443 15.25210571 C-10.3483597 13.18604721 -10.3483597 13.18604721 -11.39794922 11.22729492 C-12.02294922 8.47729492 -12.02294922 8.47729492 -11.39794922 5.22729492 C-4.56770535 -1.47187817 -4.56770535 -1.47187817 0 0 Z " fill="#272425" transform="translate(126.39794921875,247.772705078125)"/>
<path d="M0 0 C2.02949076 1.44200659 3.75679888 2.79959869 5.375 4.6875 C3.92873881 8.50037042 2.07305188 10.01457177 -1.625 11.6875 C-4.00722923 11.41524523 -5.48746601 10.75626699 -7.625 9.6875 C-11.51433523 9.24553009 -13.34094267 9.53154696 -16.8125 11.4375 C-19.94838231 13.94620584 -22.22365552 15.9141174 -23.12890625 19.9140625 C-23.30651583 27.1842145 -21.05920685 31.98041495 -16.625 37.6875 C-12.04565028 41.95462133 -9.07685015 43.04172778 -2.94921875 42.97265625 C0.62579353 42.5340413 2.7081253 41.02914608 5.375 38.6875 C7.32573152 35.62023135 7.4409436 33.85525123 6.9375 30.3125 C6.84765625 27.94921875 6.84765625 27.94921875 7.375 25.6875 C10.07217051 23.09589389 13.049428 21.37008107 16.375 19.6875 C19.72332587 24.98901597 20.18825298 29.59755911 19.375 35.6875 C17.09727012 44.0088065 10.17893951 49.39078181 3.0625 53.6875 C-3.53117413 55.47561502 -10.57638593 55.99616433 -16.9375 53.125 C-26.00189454 47.73891049 -32.24144933 38.56005196 -35.625 28.6875 C-36.78423553 20.42457699 -34.62344742 14.76641142 -29.79296875 8.1953125 C-21.84200964 -1.00201317 -11.53831036 -4.1776641 0 0 Z " fill="#282425" transform="translate(335.625,108.3125)"/>
<path d="M0 0 C2.0727162 1.47368652 3.83152108 2.79367327 5.453125 4.75390625 C5.453125 7.75390625 5.453125 7.75390625 4.09765625 9.2109375 C2.25376438 10.57518159 0.53065275 11.77624613 -1.546875 12.75390625 C-3.984375 12.06640625 -3.984375 12.06640625 -6.546875 10.75390625 C-11.41392131 10.29037803 -13.56325326 10.24388016 -17.921875 12.50390625 C-21.77768203 15.80888371 -22.37600431 17.33812052 -22.984375 22.37890625 C-22.81611038 28.38034422 -20.03529615 34.02364366 -16.01953125 38.4296875 C-14.31519311 39.95060384 -14.31519311 39.95060384 -11.546875 41.75390625 C-10.928125 42.20765625 -10.309375 42.66140625 -9.671875 43.12890625 C-6.18091615 44.15565885 -2.96880403 43.79165056 0.453125 42.75390625 C3.41255969 40.93369481 5.8733293 38.91349765 7.453125 35.75390625 C7.34515102 34.14850371 7.2175146 32.54438667 7.078125 30.94140625 C7.00433525 26.3127765 7.00433525 26.3127765 8.90234375 23.94921875 C10.74151071 22.58430239 12.29142989 21.51767433 14.453125 20.75390625 C17.453125 21.75390625 17.453125 21.75390625 18.609375 23.49609375 C20.55945922 28.71437468 20.37585759 34.24727047 18.4609375 39.44921875 C14.31024526 47.11744678 8.14699226 51.59472731 0.328125 55.19140625 C-8.08361193 56.83718087 -13.38366176 55.37306503 -20.546875 50.75390625 C-26.94909762 45.77860899 -33.14593664 37.90066738 -34.546875 29.75390625 C-35.20858344 22.60745505 -35.53378645 16.38514344 -31.09375 10.4609375 C-23.26776728 1.8246889 -11.88350051 -5.81416666 0 0 Z " fill="#282425" transform="translate(229.546875,183.24609375)"/>
<path d="M0 0 C2.81253779 1.20985448 3.57329792 3.12581006 4.88256836 5.80981445 C4.88256836 6.46981445 4.88256836 7.12981445 4.88256836 7.80981445 C3.13842773 9.18261719 3.13842773 9.18261719 0.72631836 10.7434082 C-0.55952148 11.59322266 -0.55952148 11.59322266 -1.87133789 12.46020508 C-3.70028332 13.6504505 -5.53101314 14.83795854 -7.36352539 16.02270508 C-8.64936523 16.87445313 -8.64936523 16.87445313 -9.96118164 17.7434082 C-10.75717773 18.25959717 -11.55317383 18.77578613 -12.37329102 19.30761719 C-12.94885742 19.80334229 -13.52442383 20.29906738 -14.11743164 20.80981445 C-14.11743164 24.80886415 -12.39156197 26.61181868 -10.11743164 29.80981445 C-7.12777522 29.21131044 -5.11964667 28.32069396 -2.66430664 26.5246582 C-2.04555664 26.07670898 -1.42680664 25.62875977 -0.78930664 25.16723633 C-0.15508789 24.69866211 0.47913086 24.23008789 1.13256836 23.74731445 C1.78225586 23.27487305 2.43194336 22.80243164 3.10131836 22.31567383 C4.69910498 21.15257916 6.29138639 19.98192845 7.88256836 18.80981445 C11.19724731 20.34388075 12.92201607 21.67293078 14.88256836 24.80981445 C14.88256836 25.46981445 14.88256836 26.12981445 14.88256836 26.80981445 C13.32202148 28.13842773 13.32202148 28.13842773 11.16381836 29.63012695 C10.01333008 30.43256836 10.01333008 30.43256836 8.83959961 31.2512207 C7.62336914 32.08459961 7.62336914 32.08459961 6.38256836 32.93481445 C5.57174805 33.49813477 4.76092773 34.06145508 3.92553711 34.6418457 C1.91527819 36.03720189 -0.09910657 37.42616294 -2.11743164 38.80981445 C-0.61077779 43.22215788 1.79559972 46.75564522 4.50756836 50.49731445 C8.88256836 56.54313501 8.88256836 56.54313501 8.88256836 58.80981445 C7.35131836 60.09887695 7.35131836 60.09887695 5.38256836 61.43481445 C4.73288086 61.88083008 4.08319336 62.3268457 3.41381836 62.78637695 C2.90850586 63.12411133 2.40319336 63.4618457 1.88256836 63.80981445 C-1.19280925 62.48333317 -2.82631173 61.25291469 -4.71118164 58.4934082 C-5.1784668 57.81963135 -5.64575195 57.14585449 -6.12719727 56.45166016 C-6.61897461 55.72422607 -7.11075195 54.99679199 -7.61743164 54.24731445 C-8.67964968 52.70805734 -9.74215841 51.16900079 -10.80493164 49.63012695 C-11.34891602 48.83638672 -11.89290039 48.04264648 -12.45336914 47.22485352 C-15.1367586 43.33047433 -17.87977785 39.47863904 -20.61743164 35.62231445 C-22.0348286 33.62323673 -23.44971104 31.6228793 -24.85180664 29.61303711 C-25.68153322 28.4308688 -26.52492916 27.2581521 -27.38305664 26.09643555 C-28.52368164 24.5090332 -28.52368164 24.5090332 -30.11743164 21.80981445 C-28.94732736 18.29950162 -28.14606839 17.87476343 -25.14477539 15.8840332 C-24.32686523 15.33424805 -23.50895508 14.78446289 -22.66625977 14.21801758 C-21.80452148 13.65018555 -20.9427832 13.08235352 -20.05493164 12.49731445 C-18.37534444 11.37802198 -16.69694757 10.25694116 -15.01977539 9.1340332 C-14.19719238 8.5879541 -13.37460937 8.041875 -12.52709961 7.47924805 C-9.52701597 5.40077065 -6.70542814 3.13298357 -3.90869141 0.78955078 C-2.11743164 -0.19018555 -2.11743164 -0.19018555 0 0 Z " fill="#282425" transform="translate(280.117431640625,137.190185546875)"/>
<path d="M0 0 C2.7920147 1.39600735 3.00162933 3.00416384 4.125 5.875 C4.65480469 7.20144531 4.65480469 7.20144531 5.1953125 8.5546875 C6 11 6 11 6 14 C10.95 14 15.9 14 21 14 C17.40360547 17.59639453 14.13521513 20.13715875 10 23 C10.34224609 24.01320313 10.34224609 24.01320313 10.69140625 25.046875 C10.97886719 25.93890625 11.26632813 26.8309375 11.5625 27.75 C11.85253906 28.63171875 12.14257812 29.5134375 12.44140625 30.421875 C13.01697435 33.07834316 12.89248371 34.47031106 12 37 C11.12988281 36.33291016 11.12988281 36.33291016 10.2421875 35.65234375 C5.49933012 32.10131165 5.49933012 32.10131165 -0.125 30.8125 C-3.3207909 32.13250059 -5.78760345 33.79735139 -8.484375 35.94140625 C-10 37 -10 37 -12 37 C-11.33333333 32.33333333 -10.66666667 27.66666667 -10 23 C-10.6496875 22.51789063 -11.299375 22.03578125 -11.96875 21.5390625 C-13.22171875 20.59160156 -13.22171875 20.59160156 -14.5 19.625 C-15.75296875 18.68527344 -15.75296875 18.68527344 -17.03125 17.7265625 C-17.6809375 17.15679687 -18.330625 16.58703125 -19 16 C-19 15.34 -19 14.68 -19 14 C-14.38 13.67 -9.76 13.34 -5 13 C-3.35 8.71 -1.7 4.42 0 0 Z " fill="#F4E701" transform="translate(214,87)"/>
<path d="M0 0 C3.47832575 3.47832575 4.40069239 8.41531818 6 13 C12.93 13.495 12.93 13.495 20 14 C17.47273501 16.59947256 15.17140565 18.88821371 12.125 20.875 C11.42375 21.57625 10.7225 22.2775 10 23 C10.0758746 27.24897755 11.0185217 30.3012405 13 34 C13 34.99 13 35.98 13 37 C9.91258316 35.91032347 7.67013887 34.75947626 5 32.8125 C2.24500498 30.74802206 2.24500498 30.74802206 -0.35546875 31.1953125 C-3.35157043 32.10697712 -5.66134531 33.40110973 -8.3125 35.0625 C-9.63701172 35.88427734 -9.63701172 35.88427734 -10.98828125 36.72265625 C-11.65214844 37.14417969 -12.31601563 37.56570312 -13 38 C-12 33 -11 28 -10 23 C-10.721875 22.43410156 -11.44375 21.86820313 -12.1875 21.28515625 C-13.115625 20.55167969 -14.04375 19.81820312 -15 19.0625 C-15.928125 18.33160156 -16.85625 17.60070312 -17.8125 16.84765625 C-18.534375 16.23792969 -19.25625 15.62820312 -20 15 C-20 14.67 -20 14.34 -20 14 C-15.05 14 -10.1 14 -5 14 C-4.54625 12.246875 -4.0925 10.49375 -3.625 8.6875 C-2.72623341 5.2149927 -2.00993705 3.01490557 0 0 Z " fill="#F4E701" transform="translate(128,87)"/>
<path d="M0 0 C3.32532111 2.69192661 4.52454943 6.06546515 6 10 C6 10.99 6 11.98 6 13 C10.95 13 15.9 13 21 13 C17.12038353 16.87961647 14.43416733 19.2157554 10 22 C10.20496094 22.58007812 10.40992188 23.16015625 10.62109375 23.7578125 C10.89050781 24.53898437 11.15992188 25.32015625 11.4375 26.125 C11.70433594 26.89070313 11.97117187 27.65640625 12.24609375 28.4453125 C13.08177943 31.27711785 13.56444732 34.08221993 14 37 C13.27554688 36.48308594 12.55109375 35.96617188 11.8046875 35.43359375 C10.83789062 34.77488281 9.87109375 34.11617187 8.875 33.4375 C7.92367188 32.77621094 6.97234375 32.11492187 5.9921875 31.43359375 C2.3748223 29.70046969 0.79414295 29.84211441 -3 31 C-5.05434452 32.1271924 -5.05434452 32.1271924 -6.75 33.5625 C-9.81586402 36 -9.81586402 36 -12 36 C-11.28547412 31.23649415 -10.20465156 26.65798604 -9 22 C-9.721875 21.43410156 -10.44375 20.86820313 -11.1875 20.28515625 C-12.115625 19.55167969 -13.04375 18.81820312 -14 18.0625 C-14.928125 17.33160156 -15.85625 16.60070312 -16.8125 15.84765625 C-17.534375 15.23792969 -18.25625 14.62820312 -19 14 C-19 13.67 -19 13.34 -19 13 C-14.05 13 -9.1 13 -4 13 C-3.67 11.02 -3.34 9.04 -3 7 C-2.13826227 4.57999041 -1.07589316 2.33889818 0 0 Z " fill="#F4E701" transform="translate(257,88)"/>
<path d="M0 0 C3.47832575 3.47832575 4.40069239 8.41531818 6 13 C12.93 13.495 12.93 13.495 20 14 C16.83047153 17.26008643 13.60062011 20.22237877 10 23 C10.13277344 23.59167969 10.26554687 24.18335937 10.40234375 24.79296875 C11.31005178 28.85446525 12.2091113 32.91374171 13 37 C11.76952505 36.39850232 10.54069016 35.7936493 9.3125 35.1875 C8.62800781 34.85105469 7.94351563 34.51460937 7.23828125 34.16796875 C4.76995061 32.87995678 2.38741045 31.43244627 0 30 C-3.63 32.31 -7.26 34.62 -11 37 C-12 34 -12 34 -11 30.625 C-9.9778509 26.91970952 -9.79845448 25.55480287 -11 22 C-13.04412912 19.93841368 -13.04412912 19.93841368 -15.5625 18.25 C-17.05208213 17.18103311 -18.53430529 16.10149178 -20 15 C-20 14.67 -20 14.34 -20 14 C-15.05 14 -10.1 14 -5 14 C-4.54625 12.4325 -4.0925 10.865 -3.625 9.25 C-2.67582623 5.97103608 -1.61725534 3.00950123 0 0 Z " fill="#F7E901" transform="translate(171,87)"/>
<path d="M0 0 C2.5 1.5625 2.5 1.5625 4 4 C3.99218122 7.31125539 3.92037689 9.88737216 1.74121094 12.52172852 C0.09908649 13.96329009 -1.59093637 15.23885157 -3.375 16.5 C-3.96539062 16.95375 -4.55578125 17.4075 -5.1640625 17.875 C-6.8984375 19.15625 -6.8984375 19.15625 -10 21 C-13.66161578 19.77946141 -14.16270474 18.63217696 -16.1875 15.4375 C-16.98220703 14.19806641 -16.98220703 14.19806641 -17.79296875 12.93359375 C-18.19128906 12.29550781 -18.58960938 11.65742188 -19 11 C-16.14103125 3.86047584 -7.60590619 -1.67329936 0 0 Z " fill="#F8F8F8" transform="translate(190,241)"/>
<path d="M0 0 C1.875 1.625 1.875 1.625 3 4 C2.94921875 6.84375 2.94921875 6.84375 2 10 C-0.02575505 11.9007802 -1.79294195 13.34985699 -4.0625 14.875 C-4.63033203 15.2771875 -5.19816406 15.679375 -5.78320312 16.09375 C-7.17784767 17.07820497 -8.58752348 18.04130553 -10 19 C-14.13447496 17.18083102 -15.80772735 14.97856889 -18 11 C-16.66496115 6.99488344 -14.72823739 6.14122235 -11.25 3.8125 C-9.67992187 2.73935547 -9.67992187 2.73935547 -8.078125 1.64453125 C-4.96586212 -0.01823864 -3.44868327 -0.52637797 0 0 Z " fill="#F4F4F4" transform="translate(177,224)"/>
<path d="M0 0 C6.68364774 4.26203624 12.87987207 8.96590729 19 14 C15.89483392 17.19235217 12.84272136 19.71071919 9 22 C8.01 22 7.02 22 6 22 C4.9929564 18.8980736 3.99559195 15.79311902 3 12.6875 C2.71382812 11.80642578 2.42765625 10.92535156 2.1328125 10.01757812 C1.86210938 9.17001953 1.59140625 8.32246094 1.3125 7.44921875 C1.06113281 6.66893311 0.80976562 5.88864746 0.55078125 5.0847168 C0 3 0 3 0 0 Z " fill="#F6F6F6" transform="translate(126,259)"/>
<path d="M0 0 C2.33524782 2.25740623 4.18705073 4.2805761 6 7 C5.89825125 10.15421114 4.94722856 11.05277144 2.6875 13.3125 C0 15 0 15 -2.0625 15.125 C-5.00636161 13.415661 -6.28695503 10.87546835 -8 8 C-6.49776416 3.79373966 -3.71449966 2.26099979 0 0 Z " fill="#2B2728" transform="translate(309,167)"/>
<path d="M0 0 C2.33524782 2.25740623 4.18705073 4.2805761 6 7 C6 8.9375 6 8.9375 5 11 C1.9375 13.25 1.9375 13.25 -1 15 C-3.78349856 13.9441902 -5.00409146 12.99481748 -6.875 10.625 C-8 8 -8 8 -7.5625 5.9375 C-5.42890618 3.29184366 -2.8849221 1.75603954 0 0 Z " fill="#2A2728" transform="translate(371,123)"/>
<path d="" fill="#231F20" transform="translate(0,0)"/>
</svg>
