<?xml version="1.0" encoding="UTF-8"?>
<svg version="1.1" xmlns="http://www.w3.org/2000/svg" width="512" height="512">
<path d="M0 0 C3.41803165 1.2849743 6.62517137 2.81336556 9.85571289 4.51196289 C54.41863735 27.75544211 94.48350061 35.01435094 143.19921875 23.69360352 C152.62922577 21.50541756 162.08585784 19.56397252 171.6015625 17.78271484 C180.15276802 16.17936381 188.66785557 14.43068708 197.17553711 12.61083984 C206.36735243 10.66030927 215.10142893 9.76824374 224.5 9.6875 C226.09521484 9.64399414 226.09521484 9.64399414 227.72265625 9.59960938 C251.28287356 9.42215699 274.85968322 16.75617414 297.68725586 22.01196289 C351.37507775 34.35635346 394.94598874 29.95474035 443.56567383 2.24316406 C445.74639362 1.12951195 447.60931575 0.46528931 450 0 C449.44254615 4.73443204 448.05605776 8.92015412 446.47363281 13.38330078 C442.60307786 24.32555298 439.4766168 35.35501682 436.75 46.625 C436.58982391 47.27836334 436.42964783 47.93172668 436.26461792 48.60488892 C435.2886754 52.60715205 434.38259712 56.6206649 433.51317501 60.64767361 C433.17698501 62.18872414 432.83281215 63.7280598 432.47979832 65.26534367 C428.86088387 81.22320494 428.49897891 96.72392696 428.69321895 113.02908611 C428.73021607 116.58817996 428.74067019 120.14735545 428.7535553 123.706604 C428.78746439 131.96049416 428.85112475 140.21401177 428.9189682 148.46768188 C429.00413917 158.95707035 429.07710275 169.44644248 429.11958414 179.93609643 C429.13466336 183.45009472 429.15629461 186.96376814 429.19492912 190.47759247 C429.86646748 251.86102513 415.88930115 310.41514318 372.56005859 355.36816406 C371.26492973 356.72288102 369.99781152 358.10431131 368.73828125 359.4921875 C346.35436544 383.50322489 312.13910617 398.1328756 283.4375 413 C254.8676474 426.96051941 254.8676474 426.96051941 228.82421875 444.8671875 C227 446 227 446 224.62109375 445.92578125 C221.36719775 444.7764916 218.9111643 443.14177526 216.0625 441.1875 C204.26668494 433.34161601 191.5858727 426.9767593 179.09765625 420.3203125 C176.71063285 419.04744527 174.32394408 417.77395302 171.9375 416.5 C171.34035187 416.18134979 170.74320374 415.86269958 170.12796021 415.53439331 C161.61043321 410.98502235 153.16640054 406.32663036 144.80932617 401.48828125 C140.15046736 398.79182984 135.46965808 396.14819892 130.74609375 393.56640625 C118.257713 386.72567311 106.33470167 379.63196048 95 371 C94.04867187 370.29101562 93.09734375 369.58203125 92.1171875 368.8515625 C51.27907047 337.03440267 29.31261115 288.76805944 22.73729801 238.2374115 C20.92244939 223.10375712 20.65652048 208.19718613 20.82754445 192.96919632 C20.86211526 189.47684899 20.87485496 185.98442211 20.88926697 182.49194336 C20.93558789 172.1720624 21.0130911 161.85245157 21.09979248 151.53283691 C21.16717948 143.4762995 21.22467512 135.419932 21.25434297 127.36315632 C21.26787876 123.9184546 21.28914912 120.47423535 21.33122444 117.02975464 C21.53446761 99.28263599 20.32302829 82.44546434 17 65 C16.85533767 64.23412189 16.71067533 63.46824379 16.5616293 62.67915726 C15.82555444 58.82892064 15.01181977 55.00577772 14.125 51.1875 C13.87306885 50.08132324 13.6211377 48.97514648 13.36157227 47.83544922 C10.10046874 33.77781782 6.50693975 19.81360262 0.8828125 6.49609375 C0 4 0 4 0 0 Z " fill="#BE011D" transform="translate(31,33)"/>
<path d="M0 0 C128.04 0 256.08 0 388 0 C388 11.59570732 387.97474724 22.67093635 386.8125 34.125 C386.7150499 35.10531693 386.7150499 35.10531693 386.6156311 36.10543823 C385.28898262 49.25913915 383.05372845 62.13595326 380 75 C379.66162109 76.43593506 379.66162109 76.43593506 379.31640625 77.90087891 C367.32338699 127.66005134 339.44338412 163.30171319 296.21484375 189.8828125 C287.42216944 195.19039045 278.43266001 200.15176624 269.4375 205.10546875 C266.45499655 206.74923486 263.47611638 208.39922115 260.49908447 210.05285645 C249.3546605 216.24263031 238.21262843 222.41860258 226.875 228.25 C219.40303246 232.09352057 212.32488977 236.43766279 205.31396484 241.06738281 C197.24590761 246.34055386 197.24590761 246.34055386 193 247 C189.80859375 245.7265625 189.80859375 245.7265625 186.4375 243.625 C185.82382568 243.25213867 185.21015137 242.87927734 184.57788086 242.49511719 C182.70448204 241.35107891 180.85038982 240.18082097 179 239 C170.22008021 233.42945037 161.30467853 228.47131006 152.06689453 223.70410156 C143.46116862 219.26037727 134.95188373 214.65782586 126.46484375 209.9921875 C122.82487809 207.99160562 119.17153525 206.01969671 115.50390625 204.0703125 C67.66118332 178.54571085 29.06423299 145.85584168 12.30859375 92.76171875 C3.10731241 62.34323217 0 31.70107401 0 0 Z " fill="#FEFBFC" transform="translate(62,219)"/>
<path d="M0 0 C0.71673889 -0.0065712 1.43347778 -0.0131424 2.17193604 -0.01991272 C4.51892241 -0.03944738 6.86584527 -0.05126653 9.21289062 -0.0612793 C10.02405838 -0.06535482 10.83522614 -0.06943035 11.67097473 -0.07362938 C15.96879817 -0.09441071 20.26659049 -0.10874377 24.56445312 -0.11816406 C28.9572088 -0.12918336 33.3494517 -0.16355403 37.74202728 -0.20333576 C41.16028652 -0.22974164 44.57842819 -0.2378771 47.9967804 -0.24144554 C49.61358586 -0.24625362 51.23038821 -0.25769756 52.84709167 -0.27648354 C70.63098623 -0.47021451 89.14602972 2.47992846 102.62304688 15.20043945 C115.2065366 29.44483721 115.11813025 47.3998517 114.54394531 65.37866211 C113.69486245 78.97110312 106.15656934 89.03811068 96.65820312 98.2590332 C93.4333436 100.96109127 90.24097358 102.55787181 86.36914062 104.17700195 C88.12363111 109.21286383 91.02129937 113.37702054 94.00390625 117.74145508 C104.08971887 132.92891002 103.77549068 151.55187132 103.90283203 169.13208008 C103.91299347 169.81438187 103.92315491 170.49668365 103.93362427 171.19966125 C103.96122751 173.07568904 103.9732993 174.95192684 103.984375 176.828125 C104.48520463 181.18718597 105.69365567 184.83517888 109.19335938 187.63793945 C110.91861979 188.48429362 112.64388021 189.33064779 114.36914062 190.17700195 C111.9182694 192.92154721 109.26519361 194.49802568 106.04882812 196.2590332 C104.96706299 196.85514404 103.88529785 197.45125488 102.77075195 198.06542969 C101.59523371 198.70682169 100.41969617 199.34817831 99.24414062 199.98950195 C98.04158703 200.65045291 96.83936101 201.3120002 95.63745117 201.97412109 C93.77556355 202.99976424 91.91349236 204.02505467 90.05039978 205.04850769 C83.4061764 208.69929801 76.79300182 212.40457449 70.18164062 216.11450195 C68.08398771 217.29028916 65.98633178 218.46607098 63.88867188 219.6418457 C62.3821222 220.48682779 60.87559523 221.33185038 59.36914062 222.17700195 C58.05942928 218.24786792 58.99493161 216.66355272 60.35351562 212.77856445 C60.569776 212.1477597 60.78603638 211.51695496 61.0088501 210.86703491 C61.70377665 208.84230025 62.41031653 206.82190952 63.11914062 204.80200195 C68.28093768 190.03694571 71.92816822 176.60933883 71.80664062 160.80200195 C71.80393158 160.12134674 71.80122253 159.44069153 71.7984314 158.7394104 C71.73793788 148.72294913 71.26235247 139.54346292 67.36914062 130.17700195 C66.97210938 129.21149414 66.57507813 128.24598633 66.16601562 127.2512207 C62.67670231 119.62110837 58.9960615 115.99046239 51.36914062 112.17700195 C38.49914062 111.68200195 38.49914062 111.68200195 25.36914062 111.17700195 C25.36914062 144.83700195 25.36914062 178.49700195 25.36914062 213.17700195 C15.41618866 208.20052597 5.55751942 203.22362445 -4.1730957 197.84741211 C-6.11715653 196.77508589 -8.06627174 195.71232731 -10.015625 194.6496582 C-11.26137835 193.96402439 -12.50683367 193.27784875 -13.75195312 192.59106445 C-15.4137561 191.67768311 -15.4137561 191.67768311 -17.10913086 190.74584961 C-19.63085938 189.17700195 -19.63085938 189.17700195 -20.63085938 187.17700195 C-19.53773438 186.97075195 -18.44460937 186.76450195 -17.31835938 186.55200195 C-13.49642918 185.54487036 -13.49642918 185.54487036 -11.9250412 182.53895473 C-10.48053117 178.78648778 -10.24845783 176.02452746 -10.2364502 172.01075745 C-10.23035909 171.3122824 -10.22426799 170.61380736 -10.21799231 169.89416641 C-10.20141226 167.56583251 -10.20613074 165.2380485 -10.2109375 162.90966797 C-10.20359429 161.23542719 -10.19500733 159.56119147 -10.18527222 157.88696289 C-10.16307519 153.34769182 -10.16012458 148.80860238 -10.16201973 144.26928449 C-10.1621395 140.47701596 -10.1535727 136.68478583 -10.14524221 132.892528 C-10.12601507 123.94492746 -10.12312199 114.99742022 -10.12988281 106.04980469 C-10.13652506 96.82473388 -10.11365031 87.60006276 -10.07656908 78.37507302 C-10.04586631 70.44877016 -10.03451262 62.52259586 -10.0384059 54.59623474 C-10.0404726 49.86477518 -10.03500609 45.13362675 -10.01051331 40.40222359 C-9.9882388 35.9524809 -9.99012962 31.50338802 -10.01044083 27.05364227 C-10.01384952 25.42305178 -10.00876774 23.79241747 -9.99445724 22.16188622 C-9.60812779 12.42729348 -9.60812779 12.42729348 -13.16931152 3.65220642 C-13.98162231 2.83538895 -14.79393311 2.01857147 -15.63085938 1.17700195 C-10.38119189 0.44844484 -5.31005313 0.04070785 0 0 Z " fill="#BE011D" transform="translate(206.630859375,227.822998046875)"/>
<path d="M0 0 C80 0 80 0 90 5 C96.85202643 12.72410252 99.56001165 19.45388814 99.4375 29.6875 C99.42992676 30.57091064 99.42235352 31.45432129 99.41455078 32.36450195 C99.05889819 46.54257963 93.47066553 57.09618291 83.3203125 66.78515625 C82.88460937 67.18605469 82.44890625 67.58695312 82 68 C83.11539761 70.28414033 84.26053748 72.41084757 85.625 74.5625 C89.03787234 83.09468085 86.89834898 91.05328636 83.65625 99.34765625 C73.36673848 122.84413226 55.43847075 143.87533244 35 159 C33.93072266 159.80171631 33.93072266 159.80171631 32.83984375 160.61962891 C6.94681237 180 6.94681237 180 0 180 C0 120.6 0 61.2 0 0 Z " fill="#BE001C" transform="translate(338,229)"/>
<path d="M0 0 C6.22904847 2.14510278 12.42842198 4.31524998 18.50390625 6.8671875 C64.48378789 26.13255402 101.06595019 19.53353509 147.875 8.8125 C150.83427483 8.13581152 153.79365513 7.45959084 156.75320435 6.78410339 C158.57310301 6.36862473 160.39283535 5.9524166 162.21237183 5.53535461 C163.80851454 5.17057385 165.40530048 4.8085902 167.00286865 4.45010376 C168.55548335 4.100183 170.10487147 3.73593307 171.65283203 3.3659668 C174.73371771 2.88559987 177.88189016 3 181 3 C181 30.06 181 57.12 181 85 C126.22 85 71.44 85 15 85 C14.01 70.15 14.01 70.15 13 55 C10.03971235 38.10894694 5.60292971 21.91658183 0.6550293 5.5300293 C0 3 0 3 0 0 Z " fill="#FEFEFE" transform="translate(49,54)"/>
<path d="M0 0 C-0.63683861 7.60404308 -2.75282159 14.673808 -4.8125 22 C-7.39983176 31.42986084 -9.78875342 40.85292293 -11.4375 50.5 C-11.58872314 51.34304687 -11.73994629 52.18609375 -11.89575195 53.0546875 C-13.53164279 63.36341179 -13.52092669 73.46038711 -14 84 C-68.78 84 -123.56 84 -180 84 C-180 56.94 -180 29.88 -180 2 C-173.67261844 2.63273816 -168.18107463 3.25452273 -162.09765625 4.63671875 C-161.38593765 4.79669342 -160.67421906 4.95666809 -159.94093323 5.12149048 C-158.4278235 5.46237724 -156.91531246 5.80593128 -155.40338135 6.15200806 C-153.01617276 6.69809766 -150.62725828 7.23609378 -148.23779297 7.7722168 C-140.95598894 9.40873268 -133.68055121 11.07138572 -126.41015625 12.7578125 C-101.47120673 18.50483571 -76.25679738 23.7036523 -51 17 C-49.72310303 16.66935547 -49.72310303 16.66935547 -48.42041016 16.33203125 C-33.16264838 12.3192054 -18.6606046 6.95524235 -4.14111328 0.80688477 C-2 0 -2 0 0 0 Z " fill="#FEFEFE" transform="translate(462,55)"/>
<path d="M0 0 C33.33 0 66.66 0 101 0 C101 9.24 101 18.48 101 28 C77.24 28 53.48 28 29 28 C30.70902492 40.21653089 30.70902492 40.21653089 33.5625 52.0625 C33.81717041 52.940271 34.07184082 53.81804199 34.33422852 54.72241211 C40.69179661 75.76280147 50.33389874 100.95753932 70.70703125 111.91796875 C77.65360247 115.19599299 84.40408346 115.727942 92 115 C95.45346148 113.65253476 95.45346148 113.65253476 98 112 C98.99 112 99.98 112 101 112 C101 134.44 101 156.88 101 180 C96.0489231 179.00978462 92.88740798 177.3540218 88.75 174.6875 C88.05616211 174.245271 87.36232422 173.80304199 86.64746094 173.34741211 C73.87998693 165.13096172 61.86733477 156.63741936 51 146 C50.05511719 145.10539063 49.11023438 144.21078125 48.13671875 143.2890625 C16.56822774 112.8121514 3.28063737 66.64828586 0 24 C0 16.08 0 8.16 0 0 Z " fill="#BE011C" transform="translate(73,229)"/>
<path d="M0 0 C55.77 0 111.54 0 169 0 C169 5.61 169 11.22 169 17 C168 18 168 18 165.25323391 18.12304783 C163.39628194 18.12166514 163.39628194 18.12166514 161.5018158 18.12025452 C160.81492457 18.12110894 160.12803335 18.12196337 159.42032725 18.12284368 C157.10172545 18.12450045 154.78319483 18.11897393 152.46459961 18.11352539 C150.80930076 18.11324354 149.15400178 18.11340122 147.498703 18.1139679 C142.99063067 18.11425594 138.48258471 18.10835819 133.97451854 18.10139394 C129.26862263 18.09516145 124.56272618 18.09455668 119.85682678 18.09336853 C110.93911366 18.0902549 102.02141273 18.08204109 93.10370499 18.07201904 C82.95393703 18.06085888 72.8041685 18.0553477 62.65439594 18.05032361 C41.76959029 18.03985851 20.88479634 18.02205808 0 18 C0 12.06 0 6.12 0 0 Z " fill="#FBF2F3" transform="translate(62,190)"/>
<path d="M0 0 C55.44 0 110.88 0 168 0 C168 5.61 168 11.22 168 17 C112.56 17 57.12 17 0 17 C0 11.39 0 5.78 0 0 Z " fill="#FDFAFA" transform="translate(281,190)"/>
<path d="M0 0 C6.27 -0.061875 12.54 -0.12375 19 -0.1875 C21.94486328 -0.22846802 21.94486328 -0.22846802 24.94921875 -0.27026367 C26.5286396 -0.27903648 28.10806731 -0.28667853 29.6875 -0.29296875 C30.88922852 -0.3159906 30.88922852 -0.3159906 32.11523438 -0.33947754 C38.49805751 -0.34240365 44.18188189 0.65320478 49.2421875 4.8671875 C49.78101563 5.52976562 50.31984375 6.19234375 50.875 6.875 C51.70644531 7.86113281 51.70644531 7.86113281 52.5546875 8.8671875 C57.33967402 15.92827571 56.99393323 24.77746146 56 33 C54.24243416 38.94086306 51.46265103 43.84380163 46 47 C38.02829227 50.7617769 30.81515676 52.13695625 21.97265625 52.09765625 C20.23254272 52.09390991 20.23254272 52.09390991 18.45727539 52.09008789 C17.00699951 52.08098389 15.55672363 52.07187988 14.0625 52.0625 C7.1015625 52.0315625 7.1015625 52.0315625 0 52 C0 34.84 0 17.68 0 0 Z " fill="#FDFAFB" transform="translate(232,257)"/>
<path d="M0 0 C4.87521204 -0.06906124 9.74871108 -0.12873492 14.62402344 -0.16479492 C16.28065763 -0.17983465 17.93725231 -0.20027177 19.59375 -0.22631836 C21.9818703 -0.26291515 24.36946188 -0.27977439 26.7578125 -0.29296875 C27.85973434 -0.31619453 27.85973434 -0.31619453 28.98391724 -0.33988953 C33.75120506 -0.34143212 36.94415471 0.5031321 41 3 C43 5 43 5 43.4375 8 C43.20731155 15.36603044 38.402064 21.9699956 33.8203125 27.4296875 C26.78604559 33.49787484 21.09951918 33.51508746 12.0625 33.25 C6.0915625 33.12625 6.0915625 33.12625 0 33 C0 22.11 0 11.22 0 0 Z " fill="#FEFCFC" transform="translate(367,257)"/>
<path d="M0 0 C20.25 0 20.25 0 27 3 C28.54953542 9.27237091 26.82560753 12.38240774 23.8828125 17.8984375 C21.004427 22.64001029 17.6062234 26.80025233 14 31 C13.14580469 32.10414451 12.2916335 33.20830768 11.4375 34.3125 C8.52359397 37.52526818 5.64975791 39.65864587 2 42 C1.34 42 0.68 42 0 42 C0 28.14 0 14.28 0 0 Z " fill="#FEFCFC" transform="translate(367,313)"/>
</svg>
