<?xml version="1.0" encoding="UTF-8"?>
<svg version="1.1" xmlns="http://www.w3.org/2000/svg" width="500" height="307">
<path d="M0 0 C1.9709102 1.07052369 3.34917695 2.143964 4.92976379 3.73600769 C5.50749039 4.31073318 6.08521698 4.88545868 6.68045044 5.4776001 C7.2940593 6.10355576 7.90766815 6.72951141 8.53987122 7.37443542 C9.18349106 8.01992844 9.8271109 8.66542145 10.49023438 9.33047485 C11.85282747 10.69979074 13.21181768 12.07269984 14.56745911 13.44889832 C16.62034673 15.53266006 18.68344289 17.60582981 20.74885559 19.6771698 C22.07564658 21.01314377 23.40183723 22.34971427 24.72737122 23.68693542 C25.33490738 24.29872147 25.94244354 24.91050751 26.56838989 25.54083252 C29.58175232 28.60349986 32.49155821 31.71691979 35.30110168 34.96818542 C38.85000692 39.06672464 42.60778968 42.91510734 46.44612122 46.74162292 C47.4895594 47.7864962 47.4895594 47.7864962 48.55407715 48.85247803 C50.00913342 50.30820917 51.46543059 51.76270098 52.92292786 53.21598816 C55.16034892 55.44800185 57.39231674 57.68537052 59.62385559 59.92326355 C61.04345651 61.34220452 62.46336714 62.76083572 63.88362122 64.17912292 C64.88513969 65.18367775 64.88513969 65.18367775 65.90689087 66.20852661 C66.52481003 66.82329361 67.14272919 67.43806061 67.77937317 68.07145691 C68.59375603 68.88464638 68.59375603 68.88464638 69.42459106 69.71426392 C70.8246826 71.10442311 70.8246826 71.10442311 72.83283997 71.99552917 C72.83283997 74.99552917 72.83283997 74.99552917 71.35613346 76.55100346 C70.68377879 77.09690852 70.01142412 77.64281359 69.31869507 78.20526123 C65.00973393 81.81922113 61.02807333 85.65892626 57.05915833 89.63981628 C56.3279628 90.36925949 55.59676727 91.0987027 54.84341431 91.85025024 C52.45066624 94.23863238 50.06155335 96.63061205 47.67268372 99.02287292 C45.99709413 100.69778796 44.32135619 102.37255461 42.64547729 104.04718018 C39.14307169 107.54811593 35.64246967 111.05084245 32.1431427 114.55485535 C27.67245738 119.03123749 23.19729725 123.5031148 18.72077084 127.97365475 C15.26244736 131.42835336 11.80652317 134.88544422 8.35130501 138.34324837 C6.70272135 139.99249597 5.05340322 141.64100974 3.40331841 143.28875542 C1.0921502 145.59736542 -1.21575674 147.90918903 -3.52287292 150.22184753 C-4.19579376 150.89274414 -4.8687146 151.56364075 -5.56202698 152.25486755 C-9.36203283 156.07168082 -12.95796999 160.00474743 -16.47886372 164.07956791 C-19.08045929 167.03198586 -21.8386575 169.81457734 -24.62150574 172.59513855 C-25.22403671 173.20102814 -25.82656769 173.80691772 -26.44735718 174.4311676 C-28.40995248 176.40314837 -30.37618894 178.37144501 -32.34294128 180.33927917 C-33.71827316 181.71782829 -35.09353137 183.09645091 -36.46871948 184.47514343 C-39.33558799 187.34796911 -42.20448466 190.21875163 -45.07463074 193.08830261 C-48.75968457 196.77325409 -52.43776867 200.46508053 -56.11419392 204.158638 C-58.94425828 206.99978213 -61.77881652 209.83640898 -64.61469078 212.67175293 C-65.97392942 214.03217429 -67.33154066 215.39422361 -68.68750954 216.75790405 C-70.57358553 218.65371437 -72.46581472 220.54315902 -74.35978699 222.43107605 C-74.92134491 222.99825348 -75.48290283 223.56543091 -76.06147766 224.14979553 C-79.93883328 227.99552917 -79.93883328 227.99552917 -82.16716003 227.99552917 C-82.35413406 208.81979966 -82.49516004 189.64425539 -82.58165741 170.467803 C-82.62288936 161.56356757 -82.67909086 152.65989886 -82.77067566 143.75602722 C-82.8504737 135.99435627 -82.90203978 128.23309577 -82.91986799 120.471026 C-82.93028815 116.36171243 -82.95473164 112.25357295 -83.01300049 108.14463615 C-83.06744044 104.2742206 -83.08402644 100.40545865 -83.07202148 96.53469658 C-83.07421642 95.11688233 -83.09005292 93.69901091 -83.12080383 92.28152847 C-83.34137547 81.5865269 -83.34137547 81.5865269 -80.52251434 77.76712418 C-78.49117925 75.99991957 -76.3914183 74.50853767 -74.16716003 72.99552917 C-73.16420767 72.02214694 -72.19125772 71.01640115 -71.2585907 69.97547913 C-70.59516788 69.24155284 -70.59516788 69.24155284 -69.91834259 68.49279976 C-69.467425 67.98693777 -69.01650742 67.48107578 -68.55192566 66.95988464 C-61.89881529 59.63405061 -54.98022963 52.58980387 -48.01091003 45.56584167 C-47.36495377 44.91456173 -46.7189975 44.26328178 -46.0534668 43.59226608 C-42.65437235 40.16677784 -39.25184211 36.74474184 -35.84684753 33.32511902 C-33.03905683 30.50384355 -30.23877984 27.67540445 -27.44450378 24.84074402 C-24.04409984 21.39124659 -20.63179106 17.9539774 -17.21032715 14.52537155 C-15.91426402 13.22258499 -14.62246803 11.91553888 -13.33505249 10.60420609 C-11.54769813 8.78546598 -9.74546689 6.98288833 -7.93864441 5.18351746 C-7.41083374 4.63930145 -6.88302307 4.09508545 -6.33921814 3.53437805 C-2.73843477 -0.00564936 -2.73843477 -0.00564936 0 0 Z " fill="#FCD000" transform="translate(340.1671600341797,0.0044708251953125)"/>
<path d="M0 0 C4.69592274 3.92346621 9.14574117 8.00286076 13.46043396 12.34017944 C14.37595404 13.25441789 14.37595404 13.25441789 15.30996948 14.1871258 C17.33589638 16.21141755 19.35824993 18.23924038 21.38061523 20.26708984 C22.83954237 21.7262993 24.29869023 23.18528809 25.75804138 24.64407349 C29.70602391 28.5917698 33.65092152 32.54253574 37.59526324 36.4938693 C41.72277112 40.62763998 45.85312215 44.75856787 49.98316956 48.88980103 C57.79770641 56.70744257 65.60969121 64.52762914 73.42075735 72.34873831 C82.31599078 81.25515965 91.21407311 90.15873241 100.11239326 99.06206965 C118.41142895 117.37155021 136.70689259 135.6845966 155 154 C154.67 154.66 154.34 155.32 154 156 C131.01277923 158.25457019 108.02249135 159.69447498 84.9375 160.4375 C84.09149247 160.46559643 83.24548493 160.49369287 82.37384081 160.52264071 C40.81635208 161.85508544 4.65077123 161.65548968 -27.24266052 132.26454163 C-32.71570795 126.982975 -37.81408917 121.41683173 -42.8125 115.6875 C-44.04251677 114.28398851 -44.04251677 114.28398851 -45.29738235 112.85212326 C-53.41699775 103.49637231 -61.12866362 93.8582506 -68.21020508 83.69018555 C-68.72034181 82.9674517 -69.23047853 82.24471785 -69.75607395 81.50008297 C-73.05885171 76.58176063 -73.05885171 76.58176063 -72.79603958 73.98381138 C-71.88646746 71.71706539 -70.87496502 70.50518259 -69.14634705 68.7855835 C-68.53915329 68.17426575 -67.93195953 67.562948 -67.30636597 66.93310547 C-66.30187912 65.94479736 -66.30187912 65.94479736 -65.27709961 64.93652344 C-64.5746965 64.23368225 -63.8722934 63.53084106 -63.14860535 62.80670166 C-60.8235579 60.48374537 -58.4880622 58.17159734 -56.15234375 55.859375 C-54.53886266 54.25148867 -52.92604234 52.64293902 -51.31385803 51.03375244 C-47.06744937 46.79880186 -42.81210877 42.57293718 -38.55487061 38.34887695 C-34.21280991 34.03749611 -29.87922215 29.71761747 -25.54492188 25.3984375 C-17.03823755 16.92393437 -8.5220968 8.45900195 0 0 Z " fill="#FED200" transform="translate(74,86)"/>
<path d="M0 0 C4.83809148 4.03144934 9.3891552 8.25261046 13.8215332 12.72387695 C14.46307846 13.36688248 15.10462372 14.009888 15.76560974 14.67237854 C17.1455 16.05604842 18.52423481 17.44087139 19.90191078 18.82674599 C22.08074633 21.01842294 24.26275894 23.20689226 26.44560242 25.39457703 C31.07072301 30.03107713 35.69188393 34.67151137 40.3125 39.3125 C45.68546052 44.7090523 51.06002683 50.1039848 56.43880272 55.49474144 C58.59131961 57.65375335 60.74081129 59.8157469 62.89021301 61.9778595 C64.2018081 63.2930849 65.51354255 64.60817135 66.82543945 65.9230957 C67.72388077 66.8292865 67.72388077 66.8292865 68.64047241 67.75378418 C71.5406285 70.74445746 71.5406285 70.74445746 75 73 C75 73.99 75 74.98 75 76 C73.64825439 77.24771118 73.64825439 77.24771118 71.70800781 78.66259766 C67.57281344 82.12604581 64.78924223 85.9403468 61.83105469 90.38818359 C43.96482739 117.00976982 19.75914839 150.49125594 -13.58422852 157.0826416 C-36.55359091 161.16037236 -60.27232898 160.67955933 -83.5 160 C-84.35389376 159.97571647 -85.20778751 159.95143293 -86.08755684 159.92641354 C-108.44075397 159.27459405 -130.7236071 157.95819959 -153 156 C-153 153 -153 153 -151.671875 151.6328125 C-151.03765625 151.13523438 -150.4034375 150.63765625 -149.75 150.125 C-146.0365372 147.04362943 -142.77616439 143.67412017 -139.55133057 140.0974884 C-133.04152811 132.96737889 -126.26506919 126.13055281 -119.42871094 119.31518555 C-118.11639754 118.00315509 -116.80430601 116.69090268 -115.49241638 115.37844849 C-111.97274606 111.85849435 -108.45002822 108.3416052 -104.92670345 104.82530951 C-101.22937153 101.13428115 -97.5349215 97.44037038 -93.84014893 93.7467804 C-86.86207133 86.77179564 -79.88145139 79.79936118 -72.89988637 72.82786733 C-64.94371251 64.88291857 -56.99041974 56.93508833 -49.03735304 48.98702943 C-32.69474477 32.65483916 -16.34856935 16.32622306 0 0 Z " fill="#FED200" transform="translate(425,86)"/>
<path d="M0 0 C15.9110846 7.68550094 30.01244223 20.39308248 43.25 31.875 C44.17086647 32.67195534 45.09173294 33.46891068 46.04050446 34.29001617 C71.13723938 56.38441758 84.59285312 77.33455757 86.79708099 110.54424942 C87.70612419 126.66787224 87.51529137 142.74629198 86.875 158.875 C86.84207415 159.72610194 86.80914829 160.57720388 86.77522469 161.45409679 C85.89853774 183.70030951 84.30456547 205.85649317 82 228 C74.65451856 221.78162921 74.65451856 221.78162921 71.25537109 218.36889648 C70.61135345 217.72480331 69.96733582 217.08071014 69.30380249 216.417099 C68.63378204 215.74191727 67.9637616 215.06673553 67.2734375 214.37109375 C66.56273102 213.65897232 65.85202454 212.94685089 65.11978149 212.21315002 C62.86914016 209.95695854 60.62201146 207.69730601 58.375 205.4375 C56.85960833 203.91708511 55.34398538 202.39690071 53.828125 200.87695312 C50.4856018 197.52466292 47.14528701 194.17019046 43.80697632 190.81370544 C42.4165136 189.41806469 41.02423395 188.02423395 39.63117981 186.63117981 C36.88989614 183.88989614 34.15220298 181.14505255 31.4152832 178.39941406 C26.00554946 172.97340653 20.59332399 167.54989175 15.17963886 162.12782669 C11.91002457 158.85296983 8.64136232 155.57717374 5.37475586 152.29931641 C2.20703917 149.12076347 -0.96308867 145.94463408 -4.13492775 142.77019501 C-5.34270012 141.56057265 -6.54959091 140.3500694 -7.75559044 139.1386795 C-9.43591169 137.45113618 -11.11929871 135.76671074 -12.8034668 134.08300781 C-13.30271164 133.58016769 -13.80195648 133.07732758 -14.31632996 132.55924988 C-16.91012609 129.95071083 -16.91012609 129.95071083 -20 128 C-20 127.34 -20 126.68 -20 126 C-20.66 126 -21.32 126 -22 126 C-23.37060547 124.60321045 -23.37060547 124.60321045 -24.9921875 122.62792969 C-29.41365008 117.43202708 -34.24806077 112.71804399 -39.125 107.953125 C-40.57230008 106.52790267 -42.01778856 105.10085782 -43.46330261 103.67382431 C-46.99698401 100.18561981 -50.53479742 96.70182621 -54.08837891 93.23388672 C-56.57755617 90.80395233 -59.05447115 88.36210308 -61.52362061 85.91182709 C-62.9192635 84.5336335 -64.32797561 83.16871544 -65.73681641 81.80401611 C-66.57519043 80.96924744 -67.41356445 80.13447876 -68.27734375 79.27441406 C-69.02234131 78.54353577 -69.76733887 77.81265747 -70.53491211 77.05963135 C-72 75 -72 75 -71.76754856 73.06980133 C-70.90014636 70.73073079 -69.94686547 69.57677623 -68.18431091 67.82354736 C-67.58553131 67.22064377 -66.98675171 66.61774017 -66.36982727 65.99656677 C-65.70952011 65.34704544 -65.04921295 64.69752411 -64.36889648 64.02832031 C-63.32992218 62.98868889 -63.32992218 62.98868889 -62.2699585 61.92805481 C-59.97737572 59.63756304 -57.67434758 57.35788185 -55.37109375 55.078125 C-53.78003289 53.49265896 -52.18963283 51.90652953 -50.59986877 50.31976318 C-46.41264357 46.14399564 -42.21648749 41.97731512 -38.01843262 37.81243896 C-33.7366947 33.5613818 -29.46343035 29.30182586 -25.18945312 25.04296875 C-16.80125827 16.68695435 -8.40360769 8.3405116 0 0 Z " fill="#FED200" transform="translate(160,0)"/>
<path d="M0 0 C4.69592274 3.92346621 9.14574117 8.00286076 13.46043396 12.34017944 C14.37595404 13.25441789 14.37595404 13.25441789 15.30996948 14.1871258 C17.33589638 16.21141755 19.35824993 18.23924038 21.38061523 20.26708984 C22.83954237 21.7262993 24.29869023 23.18528809 25.75804138 24.64407349 C29.70602391 28.5917698 33.65092152 32.54253574 37.59526324 36.4938693 C41.72277112 40.62763998 45.85312215 44.75856787 49.98316956 48.88980103 C57.79770641 56.70744257 65.60969121 64.52762914 73.42075735 72.34873831 C82.31599078 81.25515965 91.21407311 90.15873241 100.11239326 99.06206965 C118.41142895 117.37155021 136.70689259 135.6845966 155 154 C154.67 154.66 154.34 155.32 154 156 C131.01277923 158.25457019 108.02249135 159.69447498 84.9375 160.4375 C84.09149247 160.46559643 83.24548493 160.49369287 82.37384081 160.52264071 C40.81635208 161.85508544 4.65077123 161.65548968 -27.24266052 132.26454163 C-32.71570795 126.982975 -37.81408917 121.41683173 -42.8125 115.6875 C-44.04251677 114.28398851 -44.04251677 114.28398851 -45.29738235 112.85212326 C-53.41699775 103.49637231 -61.12866362 93.8582506 -68.21020508 83.69018555 C-68.72034181 82.9674517 -69.23047853 82.24471785 -69.75607395 81.50008297 C-73.05885171 76.58176063 -73.05885171 76.58176063 -72.79603958 73.98381138 C-71.88646746 71.71706539 -70.87496502 70.50518259 -69.14634705 68.7855835 C-68.53915329 68.17426575 -67.93195953 67.562948 -67.30636597 66.93310547 C-66.30187912 65.94479736 -66.30187912 65.94479736 -65.27709961 64.93652344 C-64.5746965 64.23368225 -63.8722934 63.53084106 -63.14860535 62.80670166 C-60.8235579 60.48374537 -58.4880622 58.17159734 -56.15234375 55.859375 C-54.53886266 54.25148867 -52.92604234 52.64293902 -51.31385803 51.03375244 C-47.06744937 46.79880186 -42.81210877 42.57293718 -38.55487061 38.34887695 C-34.21280991 34.03749611 -29.87922215 29.71761747 -25.54492188 25.3984375 C-17.03823755 16.92393437 -8.5220968 8.45900195 0 0 Z M-4.31036377 14.06152344 C-5.19724884 14.95919434 -5.19724884 14.95919434 -6.10205078 15.875 C-7.03883163 16.81134277 -7.03883163 16.81134277 -7.99453735 17.76660156 C-10.06623546 19.83969766 -12.13075196 21.91979759 -14.1953125 24 C-15.62691437 25.43533032 -17.05895721 26.87022093 -18.49142456 28.3046875 C-22.26714329 32.08805585 -26.03681866 35.87739113 -29.80529785 39.66796875 C-33.64914261 43.53224335 -37.49862956 47.39088808 -41.34765625 51.25 C-48.90399369 58.82781078 -56.45396343 66.41193246 -64 74 C-63.62238179 74.42473886 -63.24476358 74.84947771 -62.8557024 75.28708744 C-59.31674876 79.33112302 -56.20177352 83.48460361 -53.21557617 87.94506836 C-46.73050121 97.37704973 -39.66058603 106.27064346 -32.1875 114.9375 C-31.51048916 115.7235474 -30.83347832 116.5095948 -30.135952 117.31946182 C-11.62387113 138.42922443 7.38235269 150.25643081 35.54330498 152.10480398 C49.6020532 152.88974324 63.62394528 152.73268151 77.6875 152.1875 C78.42993218 152.15936391 79.17236436 152.13122783 79.93729448 152.10223913 C99.34636443 151.35138802 118.67578508 149.97897985 138 148 C132.28938056 141.01793606 125.87695425 134.75097754 119.49291992 128.39526367 C118.22251459 127.12677974 116.95233839 125.85806629 115.68237305 124.58914185 C112.95831842 121.86823659 110.232721 119.14888982 107.50591087 116.43074608 C103.19676737 112.13516082 98.89147293 107.83573163 94.58674622 103.53572083 C85.4566256 94.4166788 76.32227058 85.30188367 67.1875 76.1875 C57.30800037 66.3300191 47.42923322 56.47181067 37.5553177 46.60873586 C33.2726848 42.33109449 28.98762339 38.05590513 24.70070779 33.78255594 C22.04195966 31.13124374 19.38526393 28.47788242 16.72913361 25.82394791 C15.49359893 24.59029192 14.25719687 23.35750396 13.01988411 22.12563133 C11.3366989 20.44961693 9.65658278 18.77058579 7.97721863 17.09074402 C7.48229186 16.59941221 6.98736509 16.1080804 6.47744054 15.60185975 C3.11409323 12.22818646 3.11409323 12.22818646 2 10 C-1.06238376 10 -2.24837244 12.01000608 -4.31036377 14.06152344 Z " fill="#160900" transform="translate(74,86)"/>
<path d="M0 0 C15.9110846 7.68550094 30.01244223 20.39308248 43.25 31.875 C44.17086647 32.67195534 45.09173294 33.46891068 46.04050446 34.29001617 C71.13723938 56.38441758 84.59285312 77.33455757 86.79708099 110.54424942 C87.70612419 126.66787224 87.51529137 142.74629198 86.875 158.875 C86.84207415 159.72610194 86.80914829 160.57720388 86.77522469 161.45409679 C85.89853774 183.70030951 84.30456547 205.85649317 82 228 C74.65451856 221.78162921 74.65451856 221.78162921 71.25537109 218.36889648 C70.61135345 217.72480331 69.96733582 217.08071014 69.30380249 216.417099 C68.63378204 215.74191727 67.9637616 215.06673553 67.2734375 214.37109375 C66.56273102 213.65897232 65.85202454 212.94685089 65.11978149 212.21315002 C62.86914016 209.95695854 60.62201146 207.69730601 58.375 205.4375 C56.85960833 203.91708511 55.34398538 202.39690071 53.828125 200.87695312 C50.4856018 197.52466292 47.14528701 194.17019046 43.80697632 190.81370544 C42.4165136 189.41806469 41.02423395 188.02423395 39.63117981 186.63117981 C36.88989614 183.88989614 34.15220298 181.14505255 31.4152832 178.39941406 C26.00554946 172.97340653 20.59332399 167.54989175 15.17963886 162.12782669 C11.91002457 158.85296983 8.64136232 155.57717374 5.37475586 152.29931641 C2.20703917 149.12076347 -0.96308867 145.94463408 -4.13492775 142.77019501 C-5.34270012 141.56057265 -6.54959091 140.3500694 -7.75559044 139.1386795 C-9.43591169 137.45113618 -11.11929871 135.76671074 -12.8034668 134.08300781 C-13.30271164 133.58016769 -13.80195648 133.07732758 -14.31632996 132.55924988 C-16.91012609 129.95071083 -16.91012609 129.95071083 -20 128 C-20 127.34 -20 126.68 -20 126 C-20.66 126 -21.32 126 -22 126 C-23.37060547 124.60321045 -23.37060547 124.60321045 -24.9921875 122.62792969 C-29.41365008 117.43202708 -34.24806077 112.71804399 -39.125 107.953125 C-40.57230008 106.52790267 -42.01778856 105.10085782 -43.46330261 103.67382431 C-46.99698401 100.18561981 -50.53479742 96.70182621 -54.08837891 93.23388672 C-56.57755617 90.80395233 -59.05447115 88.36210308 -61.52362061 85.91182709 C-62.9192635 84.5336335 -64.32797561 83.16871544 -65.73681641 81.80401611 C-66.57519043 80.96924744 -67.41356445 80.13447876 -68.27734375 79.27441406 C-69.02234131 78.54353577 -69.76733887 77.81265747 -70.53491211 77.05963135 C-72 75 -72 75 -71.76754856 73.06980133 C-70.90014636 70.73073079 -69.94686547 69.57677623 -68.18431091 67.82354736 C-67.58553131 67.22064377 -66.98675171 66.61774017 -66.36982727 65.99656677 C-65.70952011 65.34704544 -65.04921295 64.69752411 -64.36889648 64.02832031 C-63.32992218 62.98868889 -63.32992218 62.98868889 -62.2699585 61.92805481 C-59.97737572 59.63756304 -57.67434758 57.35788185 -55.37109375 55.078125 C-53.78003289 53.49265896 -52.18963283 51.90652953 -50.59986877 50.31976318 C-46.41264357 46.14399564 -42.21648749 41.97731512 -38.01843262 37.81243896 C-33.7366947 33.5613818 -29.46343035 29.30182586 -25.18945312 25.04296875 C-16.80125827 16.68695435 -8.40360769 8.3405116 0 0 Z M-4.24690247 13.99806213 C-4.82880844 14.58715866 -5.41071442 15.17625519 -6.01025391 15.78320312 C-6.6250209 16.39767807 -7.2397879 17.01215302 -7.8731842 17.64524841 C-9.91241727 19.68587943 -11.94446741 21.73351275 -13.9765625 23.78125 C-15.3857441 25.19416008 -16.79536671 26.60663044 -18.20541382 28.01867676 C-21.92194915 31.74286156 -25.6324405 35.4730127 -29.34173584 39.20440674 C-33.12525729 43.00835833 -36.91442128 46.80667987 -40.703125 50.60546875 C-48.14097325 58.06479009 -55.57245331 65.53042192 -63 73 C-57.23186261 80.0538808 -50.75013697 86.39062262 -44.30932617 92.82006836 C-43.01923282 94.11151823 -41.72935198 95.40318042 -40.43966675 96.69503784 C-36.95272836 100.18651791 -33.46265521 103.67484835 -29.97185683 107.16246867 C-26.31797963 110.81380865 -22.66654898 114.46759395 -19.01472473 118.12098694 C-12.88929913 124.24822886 -6.76177424 130.37336545 -0.63305664 136.49731445 C6.46146039 143.58637532 13.55234809 150.67905118 20.64138967 157.77358717 C26.72796156 163.86468812 32.81646878 169.95384942 38.90661639 176.04137522 C42.54444777 179.67764455 46.18159283 183.31459345 49.81699562 186.95329094 C53.22843456 190.36760607 56.6422865 193.77948954 60.05806351 197.18946457 C61.31470515 198.44477787 62.57048536 199.70095417 63.82536507 200.95802879 C65.53023791 202.6656099 67.23812132 204.37011959 68.94685364 206.07383728 C69.4495623 206.57877667 69.95227097 207.08371606 70.47021323 207.60395664 C72.40054452 209.97209228 72.40054452 209.97209228 75 211 C77.24625249 191.22539946 78.72558814 171.44198564 79.5625 151.5625 C79.59407165 150.83279118 79.62564329 150.10308235 79.65817165 149.35126114 C81.13682063 114.19514134 81.06137236 83.20250554 56.41918373 55.55667305 C50.80410983 49.51040153 44.82749203 43.93609177 38.625 38.5 C37.75614796 37.73664967 36.88729591 36.97329933 35.99211502 36.18681717 C16.51456503 16.71248203 16.51456503 16.71248203 -4.24690247 13.99806213 Z " fill="#150800" transform="translate(160,0)"/>
<path d="M0 0 C4.83809148 4.03144934 9.3891552 8.25261046 13.8215332 12.72387695 C14.46307846 13.36688248 15.10462372 14.009888 15.76560974 14.67237854 C17.1455 16.05604842 18.52423481 17.44087139 19.90191078 18.82674599 C22.08074633 21.01842294 24.26275894 23.20689226 26.44560242 25.39457703 C31.07072301 30.03107713 35.69188393 34.67151137 40.3125 39.3125 C45.68546052 44.7090523 51.06002683 50.1039848 56.43880272 55.49474144 C58.59131961 57.65375335 60.74081129 59.8157469 62.89021301 61.9778595 C64.2018081 63.2930849 65.51354255 64.60817135 66.82543945 65.9230957 C67.72388077 66.8292865 67.72388077 66.8292865 68.64047241 67.75378418 C71.5406285 70.74445746 71.5406285 70.74445746 75 73 C75 73.99 75 74.98 75 76 C73.64825439 77.24771118 73.64825439 77.24771118 71.70800781 78.66259766 C67.57281344 82.12604581 64.78924223 85.9403468 61.83105469 90.38818359 C43.96482739 117.00976982 19.75914839 150.49125594 -13.58422852 157.0826416 C-36.55359091 161.16037236 -60.27232898 160.67955933 -83.5 160 C-84.35389376 159.97571647 -85.20778751 159.95143293 -86.08755684 159.92641354 C-108.44075397 159.27459405 -130.7236071 157.95819959 -153 156 C-153 153 -153 153 -151.671875 151.6328125 C-151.03765625 151.13523438 -150.4034375 150.63765625 -149.75 150.125 C-146.0365372 147.04362943 -142.77616439 143.67412017 -139.55133057 140.0974884 C-133.04152811 132.96737889 -126.26506919 126.13055281 -119.42871094 119.31518555 C-118.11639754 118.00315509 -116.80430601 116.69090268 -115.49241638 115.37844849 C-111.97274606 111.85849435 -108.45002822 108.3416052 -104.92670345 104.82530951 C-101.22937153 101.13428115 -97.5349215 97.44037038 -93.84014893 93.7467804 C-86.86207133 86.77179564 -79.88145139 79.79936118 -72.89988637 72.82786733 C-64.94371251 64.88291857 -56.99041974 56.93508833 -49.03735304 48.98702943 C-32.69474477 32.65483916 -16.34856935 16.32622306 0 0 Z M-3.81770623 13.55021942 C-4.34104951 14.07802415 -4.8643928 14.60582887 -5.40359497 15.14962769 C-5.96066694 15.70357967 -6.51773891 16.25753166 -7.09169185 16.82827008 C-8.96974527 18.69830308 -10.84051853 20.57545615 -12.71142578 22.45263672 C-14.05118972 23.7896926 -15.3913792 25.12632219 -16.73196411 26.46255493 C-20.38106724 30.10250986 -24.02377886 33.74879993 -27.66514444 37.39649343 C-31.46851065 41.20490709 -35.27673578 45.00845683 -39.084198 48.81277466 C-45.47852083 55.20345417 -51.86860429 61.59834999 -58.25634766 67.99560547 C-65.65187251 75.40201555 -73.05457509 82.80119281 -80.46104825 90.19665325 C-86.80866495 96.53520749 -93.1523925 102.87763424 -99.49285877 109.22334111 C-103.2846639 113.01827168 -107.07782482 116.81182052 -110.87448502 120.60189438 C-114.44284362 124.16449526 -118.00631159 127.73191544 -121.56599045 131.30318832 C-122.87686478 132.61671769 -124.18946351 133.92852862 -125.50386047 135.23853302 C-127.29067747 137.01992632 -129.07128477 138.80729727 -130.85037231 140.59640503 C-131.37817704 141.11974831 -131.90598177 141.6430916 -132.44978058 142.18229377 C-135.18945575 144.63099914 -135.18945575 144.63099914 -136 148 C-119.91026885 148.99489343 -103.83089086 149.7279288 -87.71757698 150.17611122 C-80.22878282 150.39008436 -72.75954785 150.68052759 -65.28320312 151.16845703 C-27.1144819 154.30107503 -27.1144819 154.30107503 6.32128906 138.74511719 C16.48142937 129.71492798 25.09049032 119.17193359 33.21618938 108.3156395 C37.64470807 102.56679335 42.57449729 97.29880496 47.71484375 92.1875 C48.21544815 91.68831055 48.71605255 91.18912109 49.23182678 90.67480469 C50.79800764 89.1141263 52.36766471 87.55700153 53.9375 86 C55.01390654 84.92862113 56.09008014 83.85700818 57.16601562 82.78515625 C59.77466745 80.18740362 62.38644471 77.59282038 65 75 C60.32556482 69.37733158 55.32418085 64.20780078 50.12890625 59.06640625 C48.86807472 57.81125465 48.86807472 57.81125465 47.58177185 56.53074646 C44.01199888 52.97720736 40.43629335 49.42965994 36.86108398 45.8815918 C34.23993606 43.27862137 31.62186442 40.67258416 29.00390625 38.06640625 C28.20578018 37.27657852 27.40765411 36.48675079 26.58534241 35.67298889 C22.38965771 31.49551817 18.35830173 27.24279904 14.50958252 22.74253845 C12.1755267 20.04829553 9.69950365 17.52957011 7.1875 15 C6.71119141 14.51144531 6.23488281 14.02289063 5.74414062 13.51953125 C4.53550255 12.30579344 3.27181105 11.14737183 2 10 C-0.87071994 10 -1.86728177 11.62108849 -3.81770623 13.55021942 Z " fill="#150800" transform="translate(425,86)"/>
<path d="M0 0 C1.9709102 1.07052369 3.34917695 2.143964 4.92976379 3.73600769 C5.50749039 4.31073318 6.08521698 4.88545868 6.68045044 5.4776001 C7.2940593 6.10355576 7.90766815 6.72951141 8.53987122 7.37443542 C9.18349106 8.01992844 9.8271109 8.66542145 10.49023438 9.33047485 C11.85282747 10.69979074 13.21181768 12.07269984 14.56745911 13.44889832 C16.62034673 15.53266006 18.68344289 17.60582981 20.74885559 19.6771698 C22.07564658 21.01314377 23.40183723 22.34971427 24.72737122 23.68693542 C25.33490738 24.29872147 25.94244354 24.91050751 26.56838989 25.54083252 C29.58175232 28.60349986 32.49155821 31.71691979 35.30110168 34.96818542 C38.85000692 39.06672464 42.60778968 42.91510734 46.44612122 46.74162292 C47.4895594 47.7864962 47.4895594 47.7864962 48.55407715 48.85247803 C50.00913342 50.30820917 51.46543059 51.76270098 52.92292786 53.21598816 C55.16034892 55.44800185 57.39231674 57.68537052 59.62385559 59.92326355 C61.04345651 61.34220452 62.46336714 62.76083572 63.88362122 64.17912292 C64.88513969 65.18367775 64.88513969 65.18367775 65.90689087 66.20852661 C66.52481003 66.82329361 67.14272919 67.43806061 67.77937317 68.07145691 C68.59375603 68.88464638 68.59375603 68.88464638 69.42459106 69.71426392 C70.8246826 71.10442311 70.8246826 71.10442311 72.83283997 71.99552917 C72.83283997 74.99552917 72.83283997 74.99552917 71.35613346 76.55100346 C70.68377879 77.09690852 70.01142412 77.64281359 69.31869507 78.20526123 C65.00973393 81.81922113 61.02807333 85.65892626 57.05915833 89.63981628 C56.3279628 90.36925949 55.59676727 91.0987027 54.84341431 91.85025024 C52.45066624 94.23863238 50.06155335 96.63061205 47.67268372 99.02287292 C45.99709413 100.69778796 44.32135619 102.37255461 42.64547729 104.04718018 C39.14307169 107.54811593 35.64246967 111.05084245 32.1431427 114.55485535 C27.67245738 119.03123749 23.19729725 123.5031148 18.72077084 127.97365475 C15.26244736 131.42835336 11.80652317 134.88544422 8.35130501 138.34324837 C6.70272135 139.99249597 5.05340322 141.64100974 3.40331841 143.28875542 C1.0921502 145.59736542 -1.21575674 147.90918903 -3.52287292 150.22184753 C-4.19579376 150.89274414 -4.8687146 151.56364075 -5.56202698 152.25486755 C-9.36203283 156.07168082 -12.95796999 160.00474743 -16.47886372 164.07956791 C-19.08045929 167.03198586 -21.8386575 169.81457734 -24.62150574 172.59513855 C-25.22403671 173.20102814 -25.82656769 173.80691772 -26.44735718 174.4311676 C-28.40995248 176.40314837 -30.37618894 178.37144501 -32.34294128 180.33927917 C-33.71827316 181.71782829 -35.09353137 183.09645091 -36.46871948 184.47514343 C-39.33558799 187.34796911 -42.20448466 190.21875163 -45.07463074 193.08830261 C-48.75968457 196.77325409 -52.43776867 200.46508053 -56.11419392 204.158638 C-58.94425828 206.99978213 -61.77881652 209.83640898 -64.61469078 212.67175293 C-65.97392942 214.03217429 -67.33154066 215.39422361 -68.68750954 216.75790405 C-70.57358553 218.65371437 -72.46581472 220.54315902 -74.35978699 222.43107605 C-74.92134491 222.99825348 -75.48290283 223.56543091 -76.06147766 224.14979553 C-79.93883328 227.99552917 -79.93883328 227.99552917 -82.16716003 227.99552917 C-82.35413406 208.81979966 -82.49516004 189.64425539 -82.58165741 170.467803 C-82.62288936 161.56356757 -82.67909086 152.65989886 -82.77067566 143.75602722 C-82.8504737 135.99435627 -82.90203978 128.23309577 -82.91986799 120.471026 C-82.93028815 116.36171243 -82.95473164 112.25357295 -83.01300049 108.14463615 C-83.06744044 104.2742206 -83.08402644 100.40545865 -83.07202148 96.53469658 C-83.07421642 95.11688233 -83.09005292 93.69901091 -83.12080383 92.28152847 C-83.34137547 81.5865269 -83.34137547 81.5865269 -80.52251434 77.76712418 C-78.49117925 75.99991957 -76.3914183 74.50853767 -74.16716003 72.99552917 C-73.16420767 72.02214694 -72.19125772 71.01640115 -71.2585907 69.97547913 C-70.59516788 69.24155284 -70.59516788 69.24155284 -69.91834259 68.49279976 C-69.467425 67.98693777 -69.01650742 67.48107578 -68.55192566 66.95988464 C-61.89881529 59.63405061 -54.98022963 52.58980387 -48.01091003 45.56584167 C-47.36495377 44.91456173 -46.7189975 44.26328178 -46.0534668 43.59226608 C-42.65437235 40.16677784 -39.25184211 36.74474184 -35.84684753 33.32511902 C-33.03905683 30.50384355 -30.23877984 27.67540445 -27.44450378 24.84074402 C-24.04409984 21.39124659 -20.63179106 17.9539774 -17.21032715 14.52537155 C-15.91426402 13.22258499 -14.62246803 11.91553888 -13.33505249 10.60420609 C-11.54769813 8.78546598 -9.74546689 6.98288833 -7.93864441 5.18351746 C-7.41083374 4.63930145 -6.88302307 4.09508545 -6.33921814 3.53437805 C-2.73843477 -0.00564936 -2.73843477 -0.00564936 0 0 Z M-9.20890808 14.64958191 C-9.92115005 15.15709708 -10.63339201 15.66461226 -11.36721706 16.18750668 C-20.93262578 23.11813962 -29.98865161 30.6340644 -38.85466003 38.43302917 C-39.71753002 39.18964214 -40.58040001 39.94625511 -41.46941757 40.72579575 C-64.33028266 61.07916985 -77.94242825 81.42526559 -79.79286003 112.1406765 C-80.47319901 125.46537133 -80.30030255 138.73341233 -79.72966003 152.05802917 C-79.69881427 152.79766954 -79.66796851 153.5373099 -79.63618803 154.29936361 C-78.81667145 173.59732783 -77.32890929 192.79927629 -75.16716003 211.99552917 C-68.16257544 206.25939124 -61.85163481 199.83571737 -55.45475769 193.44425964 C-54.17476569 192.16890221 -52.89457857 190.89374059 -51.61421204 189.61875916 C-48.15346706 186.17106791 -44.69600381 182.72010462 -41.23955202 179.2681098 C-39.07958108 177.11107745 -36.91902774 174.95463011 -34.75829697 172.79835892 C-27.99586489 166.04957544 -21.23541871 159.29881208 -14.47787249 152.54513633 C-6.67923769 144.7509935 1.12591332 136.96345405 8.93673742 129.18152702 C14.97949685 123.16034997 21.01651241 117.13345366 27.04915965 111.10214531 C30.65104385 107.50131045 34.25533066 103.90296044 37.86559677 100.3105278 C41.25552099 96.93702738 44.63828106 93.55650745 48.0155983 90.17038727 C49.25745081 88.92776167 50.50188419 87.68770932 51.7490387 86.45040512 C53.4478239 84.76425666 55.13715681 83.06917487 56.8243866 81.37147522 C57.3225222 80.88139603 57.82065779 80.39131683 58.33388841 79.88638675 C61.7381336 76.49386374 61.7381336 76.49386374 62.83283997 71.99552917 C61.06512665 69.73147366 59.34397092 67.84463291 57.30256653 65.85002136 C56.70281006 65.24471588 56.10305359 64.6394104 55.48512268 64.01576233 C53.49333971 62.01213938 51.48401568 60.02718058 49.47346497 58.04240417 C48.08829222 56.65894138 46.70400532 55.27459112 45.3205719 53.88938904 C42.4160603 50.98653317 39.50319615 48.09241472 36.58381653 45.20451355 C32.83620345 41.49657821 29.10649705 37.77124079 25.38243484 34.03966904 C22.52471876 31.17888793 19.65947758 28.32574603 16.79169464 25.47505951 C15.41340883 24.10382053 14.03708713 22.73060451 12.66274261 21.35541534 C10.74272602 19.43719024 8.81324747 17.52903921 6.88069153 15.62345886 C6.31016052 15.04999725 5.73962952 14.47653564 5.15180969 13.88569641 C-0.64590213 8.21278922 -3.25472518 10.39316166 -9.20890808 14.64958191 Z " fill="#110300" transform="translate(340.1671600341797,0.0044708251953125)"/>
<path d="M0 0 C6.27 0 12.54 0 19 0 C21.01101176 5.36269802 22.77963852 10.49103115 24.1875 16 C24.785625 18.31 25.38375 20.62 26 23 C28.97 11.615 28.97 11.615 32 0 C38.27 0 44.54 0 51 0 C51 15.18 51 30.36 51 46 C47.04 46 43.08 46 39 46 C38.67 38.41 38.34 30.82 38 23 C36.02 30.59 34.04 38.18 32 46 C28.04 46 24.08 46 20 46 C18.02 38.74 16.04 31.48 14 24 C13.67 31.26 13.34 38.52 13 46 C8.71 46 4.42 46 0 46 C0 30.82 0 15.64 0 0 Z " fill="#130300" transform="translate(245,261)"/>
<path d="M0 0 C1.74023438 -0.01836914 1.74023438 -0.01836914 3.515625 -0.03710938 C19.72816082 -0.06461933 19.72816082 -0.06461933 25.5 4.625 C28.71857935 8.74880479 28.8533583 12.0638046 28.5 17.1875 C26.9847868 20.36223242 25.22247631 22.93849783 22.5 25.1875 C21.84 25.1875 21.18 25.1875 20.5 25.1875 C20.87511719 25.73277344 21.25023437 26.27804687 21.63671875 26.83984375 C31.5 41.37389798 31.5 41.37389798 31.5 46.1875 C17.11361455 47.4046795 17.11361455 47.4046795 13.46484375 44.65234375 C12.20089584 42.54305448 11.34177115 40.49532235 10.5 38.1875 C9.75072629 36.88320873 8.98108861 35.59031216 8.1875 34.3125 C6.5 31.1875 6.5 31.1875 6.5 29.1875 C5.18 28.8575 3.86 28.5275 2.5 28.1875 C2.5 34.1275 2.5 40.0675 2.5 46.1875 C-2.78 46.1875 -8.06 46.1875 -13.5 46.1875 C-13.524644 39.79712203 -13.54283317 33.40677148 -13.55493164 27.01635742 C-13.55997308 24.84057127 -13.56680607 22.66478853 -13.57543945 20.48901367 C-13.58751338 17.36896933 -13.59323005 14.24896962 -13.59765625 11.12890625 C-13.60281754 10.14974747 -13.60797882 9.17058868 -13.61329651 8.16175842 C-13.61337204 7.26090012 -13.61344757 6.36004181 -13.61352539 5.43188477 C-13.615746 4.63468521 -13.61796661 3.83748566 -13.62025452 3.01612854 C-13.27940411 -2.16695143 -3.82363704 0.00206907 0 0 Z M2.5 11.1875 C2.5 13.4975 2.5 15.8075 2.5 18.1875 C3.95792884 18.24149736 5.41642712 18.28029177 6.875 18.3125 C8.09316406 18.34730469 8.09316406 18.34730469 9.3359375 18.3828125 C11.71342243 18.40120051 11.71342243 18.40120051 13.5 16.1875 C13.09471099 13.40512345 13.09471099 13.40512345 11.5 11.1875 C9.98071962 11.11570036 8.45832518 11.10357993 6.9375 11.125 C5.69806641 11.13853516 5.69806641 11.13853516 4.43359375 11.15234375 C3.47646484 11.16974609 3.47646484 11.16974609 2.5 11.1875 Z " fill="#120300" transform="translate(62.5,260.8125)"/>
<path d="M0 0 C4.95 0 9.9 0 15 0 C15.04898438 2.28679687 15.09796875 4.57359375 15.1484375 6.9296875 C15.20242291 9.14052975 15.25973985 11.35126217 15.31738281 13.56201172 C15.35570301 15.10034021 15.39055056 16.63875925 15.421875 18.17724609 C15.46746059 20.38672276 15.5254634 22.59557448 15.5859375 24.8046875 C15.59748871 25.49432587 15.60903992 26.18396423 15.62094116 26.89450073 C15.64951022 30.8920154 15.64951022 30.8920154 18 34 C22.65194714 34.34216235 22.65194714 34.34216235 27 33 C28.14294314 29.57117059 28.20964472 26.75917162 28.31640625 23.14453125 C28.33718735 22.48289474 28.35796844 21.82125824 28.37937927 21.13957214 C28.44464727 19.03065148 28.50365344 16.92160865 28.5625 14.8125 C28.60570689 13.38084685 28.64932188 11.94920596 28.69335938 10.51757812 C28.80107185 7.01184204 28.90031308 3.50601025 29 0 C33.95 0 38.9 0 44 0 C44.06926888 4.26901566 44.12887559 8.53604369 44.16479492 12.80517578 C44.17978417 14.25413661 44.20018271 15.70305283 44.22631836 17.15185547 C44.52525531 34.1619543 44.52525531 34.1619543 39.5 41.05859375 C33.6592521 46.42782294 29.25309253 46.23545731 21.6875 46.3125 C20.74970703 46.34150391 19.81191406 46.37050781 18.84570312 46.40039062 C13.03635069 46.45361232 9.54961982 45.98988741 5 42 C0.76864209 36.3963098 -0.1477936 32.34985821 -0.09765625 25.48828125 C-0.0962413 24.76005661 -0.09482635 24.03183197 -0.09336853 23.28153992 C-0.08777659 20.95848461 -0.07522562 18.63552612 -0.0625 16.3125 C-0.05748396 14.73632952 -0.05292123 13.16015752 -0.04882812 11.58398438 C-0.03866121 7.72258905 -0.01908436 3.86140275 0 0 Z " fill="#130300" transform="translate(194,261)"/>
<path d="M0 0 C12.54 0 25.08 0 38 0 C38 3.63 38 7.26 38 11 C30.41 11 22.82 11 15 11 C15 12.98 15 14.96 15 17 C21.93 17 28.86 17 36 17 C36 20.3 36 23.6 36 27 C29.07 27 22.14 27 15 27 C15 29.64 15 32.28 15 35 C22.59 35 30.18 35 38 35 C38 38.63 38 42.26 38 46 C25.46 46 12.92 46 0 46 C0 30.82 0 15.64 0 0 Z " fill="#130300" transform="translate(373,261)"/>
<path d="M0 0 C1.38294718 0.01329757 2.76582404 0.03715018 4.1484375 0.0703125 C4.85484375 0.07933594 5.56125 0.08835937 6.2890625 0.09765625 C8.03399848 0.12123647 9.77876045 0.15710789 11.5234375 0.1953125 C15.2573755 8.93467228 18.69722343 17.76331028 22.02758789 26.66259766 C22.84834315 28.85342669 23.67500853 31.04196948 24.50195312 33.23046875 C25.02639596 34.62747121 25.55049775 36.02460177 26.07421875 37.421875 C26.32101883 38.07386871 26.56781891 38.72586243 26.82209778 39.39761353 C28.5234375 43.96604344 28.5234375 43.96604344 28.5234375 46.1953125 C23.2434375 46.1953125 17.9634375 46.1953125 12.5234375 46.1953125 C12.0284375 42.7303125 12.0284375 42.7303125 11.5234375 39.1953125 C6.2434375 39.1953125 0.9634375 39.1953125 -4.4765625 39.1953125 C-4.8065625 41.5053125 -5.1365625 43.8153125 -5.4765625 46.1953125 C-10.7565625 46.1953125 -16.0365625 46.1953125 -21.4765625 46.1953125 C-17.66229653 35.10818568 -13.74169038 24.06355077 -9.6640625 13.0703125 C-9.27935791 12.02166016 -8.89465332 10.97300781 -8.49829102 9.89257812 C-7.95192993 8.42981445 -7.95192993 8.42981445 -7.39453125 6.9375 C-7.07250732 6.0697998 -6.7504834 5.20209961 -6.41870117 4.30810547 C-4.80822382 0.69652966 -4.01178017 0.22538091 0 0 Z M3.5234375 16.1953125 C1.71101427 20.214164 0.18842133 23.80641925 -0.4765625 28.1953125 C2.1634375 28.1953125 4.8034375 28.1953125 7.5234375 28.1953125 C6.5334375 24.2353125 5.5434375 20.2753125 4.5234375 16.1953125 C4.1934375 16.1953125 3.8634375 16.1953125 3.5234375 16.1953125 Z " fill="#120300" transform="translate(320.4765625,260.8046875)"/>
<path d="M0 0 C3.7177668 2.28098793 6.56131373 5.46134165 8.375 9.4375 C8.375 10.7575 8.375 12.0775 8.375 13.4375 C-1.31156716 16.06436567 -1.31156716 16.06436567 -4.625 15.4375 C-5.40875 14.591875 -6.1925 13.74625 -7 12.875 C-9.47833226 10.0193061 -9.47833226 10.0193061 -13.3125 10.4375 C-16.88039113 11.13133331 -16.88039113 11.13133331 -18.625 14.4375 C-19.85701637 20.3922458 -19.78135878 25.67459965 -17.625 31.4375 C-15.21954362 32.64022819 -13.67503047 32.53821472 -11 32.5 C-9.77410156 32.48646484 -9.77410156 32.48646484 -8.5234375 32.47265625 C-7.89695312 32.46105469 -7.27046875 32.44945312 -6.625 32.4375 C-5.635 28.9725 -5.635 28.9725 -4.625 25.4375 C0.24396303 26.03369955 4.70290951 27.00726822 9.375 28.4375 C8.70099065 34.16657944 6.02992634 37.9795887 1.75 41.75 C-2.75934213 44.95400625 -6.35132525 44.72279392 -11.75 44.8125 C-12.58015625 44.84988281 -13.4103125 44.88726562 -14.265625 44.92578125 C-20.5990074 45.01512363 -24.73546267 43.49093813 -29.625 39.4375 C-34.91863932 33.1687166 -35.87450964 26.87539242 -35.5625 18.9375 C-34.83361149 11.53713782 -32.4540347 7.12508296 -27.125 2.0625 C-19.59526074 -2.83183052 -8.31476953 -3.70428547 0 0 Z " fill="#120300" transform="translate(471.625,262.5625)"/>
<path d="M0 0 C4.61967392 2.82823787 8.06187281 6.37345246 9.625 11.62109375 C9.66625 12.30171875 9.7075 12.98234375 9.75 13.68359375 C4.90758367 15.01943274 0.81562383 15.93687494 -4.25 15.68359375 C-4.435625 15.04421875 -4.62125 14.40484375 -4.8125 13.74609375 C-6.18009379 11.31679061 -6.18009379 11.31679061 -9.625 10.74609375 C-13.16252661 10.39445235 -13.16252661 10.39445235 -15.625 11.93359375 C-18.94209168 15.50584633 -18.45425862 19.64531829 -18.4140625 24.234375 C-18.19845668 27.45306186 -17.58828984 30.34530391 -15.25 32.68359375 C-11.20700515 33.08781698 -11.20700515 33.08781698 -7.25 32.68359375 C-5.20581316 30.4163963 -5.20581316 30.4163963 -4.25 27.68359375 C-3.92 27.02359375 -3.59 26.36359375 -3.25 25.68359375 C1.321279 26.23214723 5.42435795 27.10104178 9.75 28.68359375 C9.52110404 34.29154479 8.1341502 37.0283916 4.41796875 41.203125 C-0.1950268 45.29756367 -4.75805817 45.01845252 -10.625 44.99609375 C-11.46289062 45.01220703 -12.30078125 45.02832031 -13.1640625 45.04492188 C-19.16211024 45.04963732 -23.43202743 44.17039433 -28.078125 40.0703125 C-28.54734375 39.50957031 -29.0165625 38.94882812 -29.5 38.37109375 C-29.97953125 37.81808594 -30.4590625 37.26507813 -30.953125 36.6953125 C-35.10822745 30.24989756 -34.83682482 23.06855839 -34.25 15.68359375 C-32.9853523 9.90498457 -30.46601035 4.89777695 -25.51953125 1.4921875 C-18.00252184 -2.55543295 -7.90730067 -3.20283693 0 0 Z " fill="#120300" transform="translate(154.25,262.31640625)"/>
<path d="M0 0 C4.40625955 2.67075251 7.13557128 7.04583683 9.4375 11.5625 C9.4375 12.2225 9.4375 12.8825 9.4375 13.5625 C-1.33268634 16.19051932 -1.33268634 16.19051932 -4.5625 15.5625 C-5.366875 14.716875 -6.17125 13.87125 -7 13 C-7.845625 12.195625 -8.69125 11.39125 -9.5625 10.5625 C-12.70027068 10.68554983 -14.76951911 11.16600956 -17.5625 12.5625 C-18.68300151 15.92400452 -18.69546652 18.52536726 -18.6875 22.0625 C-18.69007812 23.2071875 -18.69265625 24.351875 -18.6953125 25.53125 C-18.69934408 28.60929859 -18.69934408 28.60929859 -17.5625 31.5625 C-14.51266004 33.08741998 -11.9201631 32.79812548 -8.5625 32.5625 C-5.90700813 30.7311263 -4.95638335 28.40908034 -3.5625 25.5625 C-1.95786551 25.87258884 -0.35380769 26.18566287 1.25 26.5 C2.14332031 26.67402344 3.03664062 26.84804688 3.95703125 27.02734375 C6.4375 27.5625 6.4375 27.5625 9.4375 28.5625 C8.959075 33.58596252 7.65764577 36.66442881 4.4375 40.5625 C-1.16025289 44.5045795 -5.36097008 45.19002295 -12.125 45.0625 C-12.94935547 45.07796875 -13.77371094 45.0934375 -14.62304688 45.109375 C-20.92408019 45.06908062 -24.52649421 43.44375792 -29.171875 39.03515625 C-35.53363106 31.17010852 -35.33606794 23.21276006 -34.5625 13.5625 C-33.00043749 7.54500919 -29.57582983 4.04113702 -24.5625 0.5625 C-17.6788884 -2.85523723 -7.13442392 -3.02798225 0 0 Z " fill="#120300" transform="translate(34.5625,262.4375)"/>
<path d="M0 0 C4.95 0 9.9 0 15 0 C15 15.18 15 30.36 15 46 C10.05 46 5.1 46 0 46 C0 30.82 0 15.64 0 0 Z " fill="#130300" transform="translate(170,261)"/>
<path d="M0 0 C4.95 0 9.9 0 15 0 C15 15.18 15 30.36 15 46 C10.05 46 5.1 46 0 46 C0 30.82 0 15.64 0 0 Z " fill="#120300" transform="translate(98,261)"/>
<path d="M0 0 C0.99 0.495 0.99 0.495 2 1 C-4.0957199 8.29648903 -10.81858506 14.95326263 -17.54467773 21.65820312 C-18.80699295 22.92023584 -20.06908716 24.18248964 -21.33097839 25.44494629 C-24.7373113 28.8515647 -28.14670646 32.25510306 -31.55668139 35.65807533 C-35.12723846 39.22235775 -38.69494139 42.78949475 -42.26295471 46.35632324 C-49.01099928 53.10126658 -55.76158768 59.84365794 -62.51310545 66.58512449 C-70.20313346 74.26395376 -77.89030346 81.94564145 -85.57724082 89.62756443 C-101.38166071 105.4215473 -117.18964645 121.2119571 -133 137 C-133.99 136.67 -134.98 136.34 -136 136 C-91.12 91.12 -46.24 46.24 0 0 Z " fill="#E9CC00" transform="translate(425,96)"/>
<path d="M0 0 C4.62 0 9.24 0 14 0 C14 4.62 14 9.24 14 14 C9.38 14 4.76 14 0 14 C0 9.38 0 4.76 0 0 Z " fill="#120300" transform="translate(417,293)"/>
<path d="M0 0 C3.35286458 0.03255208 6.70572917 0.06510417 10.05859375 0.09765625 C10.05859375 4.71765625 10.05859375 9.33765625 10.05859375 14.09765625 C5.43859375 14.09765625 0.81859375 14.09765625 -3.94140625 14.09765625 C-4.0390625 4.0390625 -4.0390625 4.0390625 -3.94140625 1.09765625 C-2.94140625 0.09765625 -2.94140625 0.09765625 0 0 Z " fill="#120300" transform="translate(489.94140625,292.90234375)"/>
<path d="M0 0 C-1.14544077 3.43632231 -2.2711508 4.33471585 -5 6.625 C-6.0828125 7.54152344 -6.0828125 7.54152344 -7.1875 8.4765625 C-7.785625 8.97929687 -8.38375 9.48203125 -9 10 C-9.33 10.33 -9.66 10.66 -10 11 C-12.33297433 11.04092937 -14.66705225 11.04241723 -17 11 C-16.36079057 8.99105606 -15.68960962 6.99220557 -15 5 C-14.76023438 4.2884375 -14.52046875 3.576875 -14.2734375 2.84375 C-13 1 -13 1 -10.46875 0.390625 C-9.4890625 0.34421875 -8.509375 0.2978125 -7.5 0.25 C-6.5203125 0.19328125 -5.540625 0.1365625 -4.53125 0.078125 C-3.02132786 0.03152246 -1.51064115 0 0 0 Z " fill="#120300" transform="translate(227,251)"/>
</svg>
